# Mesh "Fort" exported with raY asset explorer
g Fort
# SubMesh 0
# Vertices
v 0.760846 -0.050000 -0.247214
vt 0.975528 0.654508
vn 0.951057 0.000000 -0.309016
v 0.760846 0.050000 -0.247214
vt 0.975528 0.654508
vn 0.951057 0.000000 -0.309016
v 0.647214 0.050000 -0.470228
vt 0.904509 0.793893
vn 0.809017 0.000000 -0.587785
v 0.647214 -0.050000 -0.470228
vt 0.904509 0.793893
vn 0.809017 0.000000 -0.587785
v 0.470228 0.050000 -0.647214
vt 0.793893 0.904509
vn 0.587785 0.000000 -0.809017
v 0.470228 -0.050000 -0.647214
vt 0.793893 0.904509
vn 0.587785 0.000000 -0.809017
v 0.247214 0.050000 -0.760846
vt 0.654509 0.975528
vn 0.309017 0.000000 -0.951057
v 0.247214 -0.050000 -0.760846
vt 0.654509 0.975528
vn 0.309017 0.000000 -0.951057
v -0.000000 0.050000 -0.800000
vt 0.500000 1.000000
vn -0.000000 0.000000 -1.000000
v -0.000000 -0.050000 -0.800000
vt 0.500000 1.000000
vn -0.000000 0.000000 -1.000000
v -0.247214 0.050000 -0.760846
vt 0.345491 0.975528
vn -0.309017 0.000000 -0.951056
v -0.247214 -0.050000 -0.760846
vt 0.345491 0.975528
vn -0.309017 0.000000 -0.951056
v -0.470228 0.050000 -0.647214
vt 0.206107 0.904508
vn -0.587785 0.000000 -0.809017
v -0.470228 -0.050000 -0.647214
vt 0.206107 0.904508
vn -0.587785 0.000000 -0.809017
v -0.647214 0.050000 -0.470228
vt 0.095491 0.793893
vn -0.809017 0.000000 -0.587785
v -0.647214 -0.050000 -0.470228
vt 0.095491 0.793893
vn -0.809017 0.000000 -0.587785
v -0.760845 0.050000 -0.247214
vt 0.024472 0.654508
vn -0.951057 0.000000 -0.309017
v -0.760845 -0.050000 -0.247214
vt 0.024472 0.654508
vn -0.951057 0.000000 -0.309017
v -0.800000 0.050000 0.000000
vt 0.000000 0.500000
vn -1.000000 0.000000 0.000000
v -0.800000 -0.050000 0.000000
vt 0.000000 0.500000
vn -1.000000 0.000000 0.000000
v -0.760845 0.050000 0.247214
vt 0.024472 0.345491
vn -0.951057 0.000000 0.309017
v -0.760845 -0.050000 0.247214
vt 0.024472 0.345491
vn -0.951057 0.000000 0.309017
v -0.647214 0.050000 0.470228
vt 0.095492 0.206107
vn -0.809017 0.000000 0.587785
v -0.647214 -0.050000 0.470228
vt 0.095492 0.206107
vn -0.809017 0.000000 0.587785
v -0.470228 0.050000 0.647214
vt 0.206107 0.095492
vn -0.587785 0.000000 0.809017
v -0.470228 -0.050000 0.647214
vt 0.206107 0.095492
vn -0.587785 0.000000 0.809017
v -0.247214 0.050000 0.760845
vt 0.345492 0.024472
vn -0.309017 0.000000 0.951057
v -0.247214 -0.050000 0.760845
vt 0.345492 0.024472
vn -0.309017 0.000000 0.951057
v -0.000000 0.050000 0.800000
vt 0.500000 0.000000
vn 0.000000 0.000000 1.000000
v -0.000000 -0.050000 0.800000
vt 0.500000 0.000000
vn 0.000000 0.000000 1.000000
v 0.247214 0.050000 0.760845
vt 0.654508 0.024472
vn 0.309017 0.000000 0.951057
v 0.247214 -0.050000 0.760845
vt 0.654508 0.024472
vn 0.309017 0.000000 0.951057
v 0.470228 0.050000 0.647214
vt 0.793893 0.095492
vn 0.587785 0.000000 0.809017
v 0.470228 -0.050000 0.647214
vt 0.793893 0.095492
vn 0.587785 0.000000 0.809017
v 0.647214 0.050000 0.470228
vt 0.904508 0.206107
vn 0.809017 0.000000 0.587785
v 0.647214 -0.050000 0.470228
vt 0.904508 0.206107
vn 0.809017 0.000000 0.587785
v 0.760845 0.050000 0.247214
vt 0.975528 0.345492
vn 0.951057 0.000000 0.309017
v 0.760845 -0.050000 0.247214
vt 0.975528 0.345492
vn 0.951057 0.000000 0.309017
v 0.800000 0.050000 0.000000
vt 1.000000 0.500000
vn 1.000000 0.000000 0.000001
v 0.800000 -0.050000 0.000000
vt 1.000000 0.500000
vn 1.000000 0.000000 0.000001
v 0.647214 -0.050000 -0.470228
vt 0.904509 0.793893
vn -0.000000 -1.000000 0.000000
v -0.000000 -0.050000 0.000000
vt 0.500000 0.500000
vn -0.000000 -1.000000 0.000000
v 0.760846 -0.050000 -0.247214
vt 0.975528 0.654508
vn -0.000000 -1.000000 0.000000
v 0.470228 -0.050000 -0.647214
vt 0.793893 0.904509
vn -0.000000 -1.000000 0.000000
v 0.247214 -0.050000 -0.760846
vt 0.654509 0.975528
vn -0.000000 -1.000000 0.000000
v -0.000000 -0.050000 -0.800000
vt 0.500000 1.000000
vn -0.000000 -1.000000 0.000000
v -0.247214 -0.050000 -0.760846
vt 0.345491 0.975528
vn -0.000000 -1.000000 0.000000
v -0.470228 -0.050000 -0.647214
vt 0.206107 0.904508
vn -0.000000 -1.000000 0.000000
v -0.647214 -0.050000 -0.470228
vt 0.095491 0.793893
vn -0.000000 -1.000000 0.000000
v -0.760845 -0.050000 -0.247214
vt 0.024472 0.654508
vn -0.000000 -1.000000 0.000000
v -0.800000 -0.050000 0.000000
vt 0.000000 0.500000
vn -0.000000 -1.000000 0.000000
v -0.760845 -0.050000 0.247214
vt 0.024472 0.345491
vn -0.000000 -1.000000 0.000000
v -0.647214 -0.050000 0.470228
vt 0.095492 0.206107
vn -0.000000 -1.000000 0.000000
v -0.470228 -0.050000 0.647214
vt 0.206107 0.095492
vn -0.000000 -1.000000 0.000000
v -0.247214 -0.050000 0.760845
vt 0.345492 0.024472
vn -0.000000 -1.000000 0.000000
v -0.000000 -0.050000 0.800000
vt 0.500000 0.000000
vn -0.000000 -1.000000 0.000000
v 0.247214 -0.050000 0.760845
vt 0.654508 0.024472
vn -0.000000 -1.000000 0.000000
v 0.470228 -0.050000 0.647214
vt 0.793893 0.095492
vn -0.000000 -1.000000 0.000000
v 0.647214 -0.050000 0.470228
vt 0.904508 0.206107
vn -0.000000 -1.000000 0.000000
v 0.760845 -0.050000 0.247214
vt 0.975528 0.345492
vn -0.000000 -1.000000 0.000000
v 0.800000 -0.050000 0.000000
vt 1.000000 0.500000
vn -0.000000 -1.000000 0.000000
v 0.760846 0.050000 -0.247214
vt 0.975528 0.654508
vn -0.000000 1.000000 0.000000
v -0.000000 0.050000 0.000000
vt 0.500000 0.500000
vn -0.000000 1.000000 0.000000
v 0.647214 0.050000 -0.470228
vt 0.904509 0.793893
vn -0.000000 1.000000 0.000000
v 0.470228 0.050000 -0.647214
vt 0.793893 0.904509
vn -0.000000 1.000000 0.000000
v 0.247214 0.050000 -0.760846
vt 0.654509 0.975528
vn -0.000000 1.000000 0.000000
v -0.000000 0.050000 -0.800000
vt 0.500000 1.000000
vn -0.000000 1.000000 0.000000
v -0.247214 0.050000 -0.760846
vt 0.345491 0.975528
vn -0.000000 1.000000 0.000000
v -0.470228 0.050000 -0.647214
vt 0.206107 0.904508
vn -0.000000 1.000000 0.000000
v -0.647214 0.050000 -0.470228
vt 0.095491 0.793893
vn -0.000000 1.000000 0.000000
v -0.760845 0.050000 -0.247214
vt 0.024472 0.654508
vn -0.000000 1.000000 0.000000
v -0.800000 0.050000 0.000000
vt 0.000000 0.500000
vn -0.000000 1.000000 0.000000
v -0.760845 0.050000 0.247214
vt 0.024472 0.345491
vn -0.000000 1.000000 0.000000
v -0.647214 0.050000 0.470228
vt 0.095492 0.206107
vn -0.000000 1.000000 0.000000
v -0.470228 0.050000 0.647214
vt 0.206107 0.095492
vn -0.000000 1.000000 0.000000
v -0.247214 0.050000 0.760845
vt 0.345492 0.024472
vn -0.000000 1.000000 0.000000
v -0.000000 0.050000 0.800000
vt 0.500000 0.000000
vn -0.000000 1.000000 0.000000
v 0.247214 0.050000 0.760845
vt 0.654508 0.024472
vn -0.000000 1.000000 0.000000
v 0.470228 0.050000 0.647214
vt 0.793893 0.095492
vn -0.000000 1.000000 0.000000
v 0.647214 0.050000 0.470228
vt 0.904508 0.206107
vn -0.000000 1.000000 0.000000
v 0.760845 0.050000 0.247214
vt 0.975528 0.345492
vn -0.000000 1.000000 0.000000
v 0.800000 0.050000 0.000000
vt 1.000000 0.500000
vn -0.000000 1.000000 0.000000
# Faces (1 to 82)
f -80/-80/-80 -81/-81/-81 -82/-82/-82
f -79/-79/-79 -80/-80/-80 -82/-82/-82
f -78/-78/-78 -80/-80/-80 -79/-79/-79
f -77/-77/-77 -78/-78/-78 -79/-79/-79
f -76/-76/-76 -78/-78/-78 -77/-77/-77
f -75/-75/-75 -76/-76/-76 -77/-77/-77
f -74/-74/-74 -76/-76/-76 -75/-75/-75
f -73/-73/-73 -74/-74/-74 -75/-75/-75
f -72/-72/-72 -74/-74/-74 -73/-73/-73
f -71/-71/-71 -72/-72/-72 -73/-73/-73
f -70/-70/-70 -72/-72/-72 -71/-71/-71
f -69/-69/-69 -70/-70/-70 -71/-71/-71
f -68/-68/-68 -70/-70/-70 -69/-69/-69
f -67/-67/-67 -68/-68/-68 -69/-69/-69
f -66/-66/-66 -68/-68/-68 -67/-67/-67
f -65/-65/-65 -66/-66/-66 -67/-67/-67
f -64/-64/-64 -66/-66/-66 -65/-65/-65
f -63/-63/-63 -64/-64/-64 -65/-65/-65
f -62/-62/-62 -64/-64/-64 -63/-63/-63
f -61/-61/-61 -62/-62/-62 -63/-63/-63
f -60/-60/-60 -62/-62/-62 -61/-61/-61
f -59/-59/-59 -60/-60/-60 -61/-61/-61
f -58/-58/-58 -60/-60/-60 -59/-59/-59
f -57/-57/-57 -58/-58/-58 -59/-59/-59
f -56/-56/-56 -58/-58/-58 -57/-57/-57
f -55/-55/-55 -56/-56/-56 -57/-57/-57
f -54/-54/-54 -56/-56/-56 -55/-55/-55
f -53/-53/-53 -54/-54/-54 -55/-55/-55
f -52/-52/-52 -54/-54/-54 -53/-53/-53
f -51/-51/-51 -52/-52/-52 -53/-53/-53
f -50/-50/-50 -52/-52/-52 -51/-51/-51
f -49/-49/-49 -50/-50/-50 -51/-51/-51
f -48/-48/-48 -50/-50/-50 -49/-49/-49
f -47/-47/-47 -48/-48/-48 -49/-49/-49
f -46/-46/-46 -48/-48/-48 -47/-47/-47
f -45/-45/-45 -46/-46/-46 -47/-47/-47
f -44/-44/-44 -46/-46/-46 -45/-45/-45
f -43/-43/-43 -44/-44/-44 -45/-45/-45
f -81/-81/-81 -44/-44/-44 -43/-43/-43
f -82/-82/-82 -81/-81/-81 -43/-43/-43
f -40/-40/-40 -41/-41/-41 -42/-42/-42
f -42/-42/-42 -41/-41/-41 -39/-39/-39
f -39/-39/-39 -41/-41/-41 -38/-38/-38
f -38/-38/-38 -41/-41/-41 -37/-37/-37
f -37/-37/-37 -41/-41/-41 -36/-36/-36
f -36/-36/-36 -41/-41/-41 -35/-35/-35
f -35/-35/-35 -41/-41/-41 -34/-34/-34
f -34/-34/-34 -41/-41/-41 -33/-33/-33
f -33/-33/-33 -41/-41/-41 -32/-32/-32
f -32/-32/-32 -41/-41/-41 -31/-31/-31
f -31/-31/-31 -41/-41/-41 -30/-30/-30
f -30/-30/-30 -41/-41/-41 -29/-29/-29
f -29/-29/-29 -41/-41/-41 -28/-28/-28
f -28/-28/-28 -41/-41/-41 -27/-27/-27
f -27/-27/-27 -41/-41/-41 -26/-26/-26
f -26/-26/-26 -41/-41/-41 -25/-25/-25
f -25/-25/-25 -41/-41/-41 -24/-24/-24
f -24/-24/-24 -41/-41/-41 -23/-23/-23
f -23/-23/-23 -41/-41/-41 -22/-22/-22
f -22/-22/-22 -41/-41/-41 -40/-40/-40
f -19/-19/-19 -20/-20/-20 -21/-21/-21
f -18/-18/-18 -20/-20/-20 -19/-19/-19
f -17/-17/-17 -20/-20/-20 -18/-18/-18
f -16/-16/-16 -20/-20/-20 -17/-17/-17
f -15/-15/-15 -20/-20/-20 -16/-16/-16
f -14/-14/-14 -20/-20/-20 -15/-15/-15
f -13/-13/-13 -20/-20/-20 -14/-14/-14
f -12/-12/-12 -20/-20/-20 -13/-13/-13
f -11/-11/-11 -20/-20/-20 -12/-12/-12
f -10/-10/-10 -20/-20/-20 -11/-11/-11
f -9/-9/-9 -20/-20/-20 -10/-10/-10
f -8/-8/-8 -20/-20/-20 -9/-9/-9
f -7/-7/-7 -20/-20/-20 -8/-8/-8
f -6/-6/-6 -20/-20/-20 -7/-7/-7
f -5/-5/-5 -20/-20/-20 -6/-6/-6
f -4/-4/-4 -20/-20/-20 -5/-5/-5
f -3/-3/-3 -20/-20/-20 -4/-4/-4
f -2/-2/-2 -20/-20/-20 -3/-3/-3
f -1/-1/-1 -20/-20/-20 -2/-2/-2
f -21/-21/-21 -20/-20/-20 -1/-1/-1

