# Mesh "glass1" exported with raY asset explorer
g glass1
# SubMesh 0
# Vertices
v -0.026415 0.056265 0.050685
vt 0.290011 0.987768
vn -0.024738 0.000000 0.999694
v 0.025371 0.056265 0.050685
vt 0.594759 0.987768
vn 0.024738 0.000000 0.999694
v 0.025371 0.022556 0.050685
vt 0.594759 0.725971
vn 0.024738 0.000000 0.999694
v -0.026415 0.022556 0.050685
vt 0.290011 0.725971
vn -0.024738 0.000000 0.999694
v -0.027729 0.022556 0.049371
vt 0.280304 0.725971
vn -0.999626 0.000000 0.027357
v -0.027729 0.056265 0.049371
vt 0.280304 0.987768
vn -0.999626 0.000000 0.027357
v -0.027729 0.022556 0.002672
vt 0.017795 0.725971
vn -1.000000 0.000000 0.000000
v -0.027729 0.056265 0.002672
vt 0.017795 0.987768
vn -1.000000 0.000000 0.000000
v 0.026685 0.056265 0.049371
vt 0.604466 0.987768
vn 0.999626 0.000000 0.027356
v 0.026685 0.022556 0.049371
vt 0.604466 0.725971
vn 0.999626 0.000000 0.027356
v 0.026685 0.022556 0.002672
vt 0.866975 0.725971
vn 1.000000 0.000000 0.000000
v 0.026685 0.056265 0.002672
vt 0.866975 0.987768
vn 1.000000 0.000000 0.000000
# Faces (1 to 12)
f -10/-10/-10 -11/-11/-11 -12/-12/-12
f -9/-9/-9 -10/-10/-10 -12/-12/-12
f -9/-9/-9 -12/-12/-12 -8/-8/-8
f -12/-12/-12 -7/-7/-7 -8/-8/-8
f -8/-8/-8 -7/-7/-7 -6/-6/-6
f -7/-7/-7 -5/-5/-5 -6/-6/-6
f -4/-4/-4 -11/-11/-11 -10/-10/-10
f -3/-3/-3 -4/-4/-4 -10/-10/-10
f -3/-3/-3 -2/-2/-2 -4/-4/-4
f -2/-2/-2 -1/-1/-1 -4/-4/-4

