# Mesh "mesh_moon" exported with raY asset explorer
g mesh_moon
# SubMesh 0
# Vertices
v 0.897404 0.371716 -0.000000
vt 0.057928 0.316887
vn 0.755298 0.311682 0.576523
v 0.952679 0.189499 -0.000000
vt 0.030699 0.406650
vn 0.801169 0.160468 0.576523
v 0.754365 0.228834 0.264640
vt 0.205599 0.410697
vn 0.637447 0.194296 0.745594
v 0.609372 0.500098 0.264640
vt 0.262184 0.304835
vn 0.515698 0.422073 0.745594
v 0.807643 0.539649 -0.000000
vt 0.102146 0.234162
vn 0.678776 0.454846 0.576523
v 0.686844 0.686843 -0.000000
vt 0.161653 0.161652
vn 0.578529 0.576997 0.576523
v 0.539650 0.807642 -0.000000
vt 0.234163 0.102145
vn 0.453045 0.679979 0.576523
v 0.371607 0.695227 0.264640
vt 0.354975 0.228678
vn 0.313355 0.588131 0.745594
v 0.371717 0.897404 -0.000000
vt 0.316888 0.057927
vn 0.313684 0.754469 0.576523
v 0.189500 0.952679 -0.000000
vt 0.406651 0.030698
vn 0.158343 0.801592 0.576523
v 0.077268 0.784513 0.264640
vt 0.469843 0.193835
vn 0.066203 0.663103 0.745594
v 0.000000 0.971343 -0.000000
vt 0.500001 0.021504
vn 0.001083 0.817080 0.576523
v -0.228834 0.754365 0.264640
vt 0.589303 0.205608
vn -0.194295 0.637447 0.745594
v -0.189499 0.952679 -0.000000
vt 0.593351 0.030699
vn -0.160466 0.801169 0.576523
v -0.371717 0.897404 -0.000000
vt 0.683113 0.057928
vn -0.311682 0.755298 0.576523
v -0.500098 0.609372 0.264640
vt 0.695166 0.262189
vn -0.422073 0.515698 0.745594
v -0.539649 0.807643 -0.000000
vt 0.765839 0.102146
vn -0.454845 0.678776 0.576523
v -0.686843 0.686844 -0.000000
vt 0.838348 0.161653
vn -0.576997 0.578529 0.576523
v -0.807642 0.539650 -0.000000
vt 0.897855 0.234163
vn -0.679979 0.453045 0.576523
v -0.695227 0.371607 0.264640
vt 0.771317 0.354976
vn -0.588131 0.313356 0.745594
v -0.897404 0.371717 -0.000000
vt 0.942073 0.316888
vn -0.754469 0.313684 0.576523
v -0.952679 0.189500 -0.000000
vt 0.969302 0.406651
vn -0.801591 0.158343 0.576523
v -0.784514 0.077268 0.264640
vt 0.806162 0.469848
vn -0.663104 0.066203 0.745594
v -0.971344 0.000000 -0.000000
vt 0.978496 0.500001
vn -0.817080 0.001083 0.576523
v -0.754366 -0.228834 0.264640
vt 0.794396 0.589307
vn -0.637447 -0.194295 0.745594
v -0.952680 -0.189499 0.000000
vt 0.969302 0.593350
vn -0.801169 -0.160466 0.576523
v -0.897405 -0.371717 0.000000
vt 0.942072 0.683113
vn -0.755298 -0.311682 0.576523
v -0.609372 -0.500098 0.264640
vt 0.737811 0.695171
vn -0.515698 -0.422073 0.745594
v -0.807643 -0.539649 0.000000
vt 0.897854 0.765838
vn -0.678776 -0.454846 0.576523
v -0.686844 -0.686843 0.000000
vt 0.838347 0.838348
vn -0.578529 -0.576997 0.576523
v -0.539650 -0.807643 0.000000
vt 0.765838 0.897855
vn -0.453045 -0.679979 0.576523
v -0.371607 -0.695227 0.264640
vt 0.645021 0.771322
vn -0.313356 -0.588131 0.745594
v -0.371717 -0.897405 0.000000
vt 0.683112 0.942073
vn -0.313684 -0.754469 0.576523
v -0.189500 -0.952680 0.000000
vt 0.593349 0.969302
vn -0.158343 -0.801591 0.576523
v -0.077268 -0.784514 0.264640
vt 0.530152 0.806167
vn -0.066203 -0.663104 0.745594
v -0.000000 -0.971344 0.000000
vt 0.500000 0.978496
vn -0.001083 -0.817080 0.576523
v 0.228834 -0.754366 0.264640
vt 0.410692 0.794401
vn 0.194296 -0.637447 0.745594
v 0.189500 -0.952680 0.000000
vt 0.406650 0.969302
vn 0.160466 -0.801169 0.576523
v 0.371717 -0.897405 0.000000
vt 0.316887 0.942072
vn 0.311682 -0.755298 0.576523
v 0.500098 -0.609372 0.264640
vt 0.304829 0.737815
vn 0.422073 -0.515698 0.745594
v 0.539650 -0.807643 0.000000
vt 0.234162 0.897854
vn 0.454846 -0.678776 0.576523
v 0.686844 -0.686844 0.000000
vt 0.161652 0.838347
vn 0.576997 -0.578529 0.576523
v 0.807643 -0.539650 0.000000
vt 0.102145 0.765837
vn 0.679979 -0.453045 0.576523
v 0.695227 -0.371607 0.264640
vt 0.228678 0.645025
vn 0.588131 -0.313355 0.745594
v 0.897405 -0.371717 0.000000
vt 0.057927 0.683112
vn 0.754469 -0.313684 0.576523
v 0.952680 -0.189500 0.000000
vt 0.030698 0.593349
vn 0.801591 -0.158343 0.576523
v 0.784514 -0.077268 0.264640
vt 0.193833 0.530156
vn 0.663104 -0.066202 0.745594
v 0.971344 0.000000 0.000000
vt 0.021504 0.499999
vn 0.817080 -0.001082 0.576523
v 0.171032 -0.319978 0.448702
vt 0.430218 0.630548
vn 0.127047 -0.237688 0.962997
v -0.105321 -0.347196 0.448702
vt 0.542964 0.641653
vn -0.078235 -0.257907 0.962997
v -0.319978 -0.171032 0.448702
vt 0.630540 0.569781
vn -0.237689 -0.127047 0.962997
v -0.347196 0.105321 0.448702
vt 0.641645 0.457035
vn -0.257907 0.078235 0.962997
v -0.171032 0.319978 0.448702
vt 0.569773 0.369459
vn -0.127046 0.237689 0.962997
v 0.105321 0.347192 0.448702
vt 0.457027 0.358354
vn 0.078235 0.257907 0.962997
v 0.319978 0.171032 0.448702
vt 0.369451 0.430225
vn 0.237688 0.127048 0.962997
v 0.347196 -0.105321 0.448702
vt 0.358346 0.542972
vn 0.257907 -0.078235 0.962997
v -0.000000 0.000000 0.485672
vt 0.499995 0.500004
vn 0.000000 0.000000 1.000000
# Faces (1 to 57)
f -55/-55/-55 -56/-56/-56 -57/-57/-57
f -54/-54/-54 -55/-55/-55 -57/-57/-57
f -57/-57/-57 -53/-53/-53 -54/-54/-54
f -54/-54/-54 -53/-53/-53 -52/-52/-52
f -54/-54/-54 -52/-52/-52 -51/-51/-51
f -54/-54/-54 -51/-51/-51 -50/-50/-50
f -50/-50/-50 -51/-51/-51 -49/-49/-49
f -50/-50/-50 -49/-49/-49 -48/-48/-48
f -48/-48/-48 -47/-47/-47 -50/-50/-50
f -47/-47/-47 -48/-48/-48 -46/-46/-46
f -45/-45/-45 -47/-47/-47 -46/-46/-46
f -46/-46/-46 -44/-44/-44 -45/-45/-45
f -45/-45/-45 -44/-44/-44 -43/-43/-43
f -42/-42/-42 -45/-45/-45 -43/-43/-43
f -43/-43/-43 -41/-41/-41 -42/-42/-42
f -42/-42/-42 -41/-41/-41 -40/-40/-40
f -42/-42/-42 -40/-40/-40 -39/-39/-39
f -42/-42/-42 -39/-39/-39 -38/-38/-38
f -38/-38/-38 -39/-39/-39 -37/-37/-37
f -38/-38/-38 -37/-37/-37 -36/-36/-36
f -36/-36/-36 -35/-35/-35 -38/-38/-38
f -35/-35/-35 -36/-36/-36 -34/-34/-34
f -33/-33/-33 -35/-35/-35 -34/-34/-34
f -34/-34/-34 -32/-32/-32 -33/-33/-33
f -33/-33/-33 -32/-32/-32 -31/-31/-31
f -30/-30/-30 -33/-33/-33 -31/-31/-31
f -31/-31/-31 -29/-29/-29 -30/-30/-30
f -30/-30/-30 -29/-29/-29 -28/-28/-28
f -30/-30/-30 -28/-28/-28 -27/-27/-27
f -30/-30/-30 -27/-27/-27 -26/-26/-26
f -26/-26/-26 -27/-27/-27 -25/-25/-25
f -26/-26/-26 -25/-25/-25 -24/-24/-24
f -24/-24/-24 -23/-23/-23 -26/-26/-26
f -23/-23/-23 -24/-24/-24 -22/-22/-22
f -21/-21/-21 -23/-23/-23 -22/-22/-22
f -22/-22/-22 -20/-20/-20 -21/-21/-21
f -21/-21/-21 -20/-20/-20 -19/-19/-19
f -18/-18/-18 -21/-21/-21 -19/-19/-19
f -19/-19/-19 -17/-17/-17 -18/-18/-18
f -18/-18/-18 -17/-17/-17 -16/-16/-16
f -18/-18/-18 -16/-16/-16 -15/-15/-15
f -18/-18/-18 -15/-15/-15 -14/-14/-14
f -14/-14/-14 -15/-15/-15 -13/-13/-13
f -14/-14/-14 -13/-13/-13 -12/-12/-12
f -12/-12/-12 -11/-11/-11 -14/-14/-14
f -11/-11/-11 -12/-12/-12 -10/-10/-10
f -55/-55/-55 -11/-11/-11 -10/-10/-10
f -10/-10/-10 -56/-56/-56 -55/-55/-55
f -23/-23/-23 -21/-21/-21 -9/-9/-9
f -9/-9/-9 -21/-21/-21 -18/-18/-18
f -9/-9/-9 -8/-8/-8 -23/-23/-23
f -8/-8/-8 -26/-26/-26 -23/-23/-23
f -30/-30/-30 -26/-26/-26 -8/-8/-8
f -8/-8/-8 -7/-7/-7 -30/-30/-30
f -7/-7/-7 -33/-33/-33 -30/-30/-30
f -35/-35/-35 -33/-33/-33 -7/-7/-7
f -7/-7/-7 -6/-6/-6 -35/-35/-35
f -6/-6/-6 -38/-38/-38 -35/-35/-35
f -42/-42/-42 -38/-38/-38 -6/-6/-6
f -6/-6/-6 -5/-5/-5 -42/-42/-42
f -5/-5/-5 -45/-45/-45 -42/-42/-42
f -47/-47/-47 -45/-45/-45 -5/-5/-5
f -5/-5/-5 -4/-4/-4 -47/-47/-47
f -4/-4/-4 -50/-50/-50 -47/-47/-47
f -50/-50/-50 -4/-4/-4 -3/-3/-3
f -3/-3/-3 -54/-54/-54 -50/-50/-50
f -3/-3/-3 -55/-55/-55 -54/-54/-54
f -55/-55/-55 -3/-3/-3 -2/-2/-2
f -2/-2/-2 -11/-11/-11 -55/-55/-55
f -2/-2/-2 -14/-14/-14 -11/-11/-11
f -18/-18/-18 -14/-14/-14 -2/-2/-2
f -2/-2/-2 -9/-9/-9 -18/-18/-18
f -1/-1/-1 -3/-3/-3 -4/-4/-4
f -1/-1/-1 -4/-4/-4 -5/-5/-5
f -1/-1/-1 -9/-9/-9 -2/-2/-2
f -1/-1/-1 -2/-2/-2 -3/-3/-3
f -1/-1/-1 -5/-5/-5 -6/-6/-6
f -1/-1/-1 -6/-6/-6 -7/-7/-7
f -1/-1/-1 -7/-7/-7 -8/-8/-8
f -1/-1/-1 -8/-8/-8 -9/-9/-9

