# Mesh "mesh_rock" exported with raY asset explorer
g mesh_rock
# SubMesh 0
# Vertices
v -0.086122 -0.101621 0.077216
vt 0.812321 0.745704
vn -0.974133 0.015599 0.225436
v -0.116784 -0.022209 -0.053941
vt 0.895561 0.753308
vn -0.974133 0.015599 0.225436
v -0.077113 0.026737 0.114096
vt 0.822530 0.665756
vn -0.974133 0.015599 0.225436
v -0.093041 0.084402 0.034445
vt 0.889359 0.691945
vn -0.974133 0.015599 0.225436
v -0.093041 0.084402 0.034445
vt 0.942545 0.879021
vn -0.537354 0.677553 -0.502168
v -0.116784 -0.022209 -0.053941
vt 0.879305 0.925704
vn -0.580321 0.653320 -0.486210
v 0.002452 0.038341 -0.114896
vt 0.939745 0.981444
vn -0.537354 0.677553 -0.502168
v -0.098295 -0.026456 -0.108244
vt 0.876933 0.957796
vn -0.580321 0.653320 -0.486210
v -0.000122 0.101354 -0.031228
vt 0.974986 0.934605
vn -0.492942 0.699965 -0.516776
v -0.036497 0.112329 0.022473
vt 0.973124 0.897851
vn -0.492942 0.699965 -0.516776
v -0.035914 -0.112329 -0.101482
vt 0.202968 0.855876
vn -0.778533 -0.597780 -0.191168
v -0.098295 -0.026456 -0.108244
vt 0.241555 0.905105
vn -0.778533 -0.597780 -0.191168
v -0.116784 -0.022209 -0.053941
vt 0.299216 0.842241
vn -0.778533 -0.597780 -0.191168
v -0.086122 -0.101621 0.077216
vt 0.246744 0.758435
vn -0.778533 -0.597780 -0.191168
v 0.002452 0.038341 -0.114896
vt 0.700037 0.922492
vn -0.010443 -0.086034 -0.996237
v -0.035914 -0.112329 -0.101482
vt 0.779925 0.853396
vn -0.010443 -0.086034 -0.996237
v 0.064834 -0.047532 -0.108134
vt 0.723598 0.830409
vn -0.010443 -0.086034 -0.996237
v -0.098295 -0.026456 -0.108244
vt 0.790338 0.905237
vn -0.010443 -0.086034 -0.996237
v -0.093041 0.084402 0.034445
vt 0.909944 0.468970
vn -0.221136 0.759634 0.611600
v -0.036497 0.112329 0.022473
vt 0.910665 0.410251
vn -0.221136 0.759634 0.611600
v -0.007067 0.077402 0.074224
vt 0.858853 0.420732
vn -0.221136 0.759634 0.611600
v -0.077113 0.026737 0.114096
vt 0.837591 0.499841
vn -0.221136 0.759634 0.611600
v 0.054876 0.067321 0.044035
vt 0.607758 0.258899
vn 0.386285 0.893649 0.228421
v -0.036497 0.112329 0.022473
vt 0.681953 0.297371
vn 0.386285 0.893649 0.228421
v -0.000122 0.101354 -0.031228
vt 0.678315 0.241186
vn 0.386285 0.893649 0.228421
v -0.007067 0.077402 0.074224
vt 0.624239 0.312358
vn 0.386285 0.893649 0.228421
v 0.002452 0.038341 -0.114896
vt 0.891536 0.787014
vn 0.777831 0.520946 -0.351561
v 0.054876 0.067321 0.044035
vt 0.787675 0.860245
vn 0.764964 0.529887 -0.366128
v -0.000122 0.101354 -0.031228
vt 0.870344 0.862913
vn 0.777831 0.520946 -0.351561
v 0.064834 -0.047532 -0.108134
vt 0.841172 0.742942
vn 0.764964 0.529887 -0.366128
v 0.084516 -0.058619 -0.075661
vt 0.819652 0.736657
vn 0.751747 0.538586 -0.380527
v 0.116784 -0.011174 0.045956
vt 0.742981 0.806093
vn 0.751747 0.538586 -0.380527
v -0.035914 -0.112329 -0.101482
vt 0.121178 0.744693
vn 0.442792 -0.781739 -0.439112
v 0.062041 -0.110335 0.000857
vt 0.142817 0.819926
vn 0.442792 -0.781739 -0.439112
v 0.084516 -0.058619 -0.075661
vt 0.195445 0.780189
vn 0.442792 -0.781739 -0.439112
v 0.064834 -0.047532 -0.108134
vt 0.181605 0.751750
vn 0.442792 -0.781739 -0.439112
v 0.116784 -0.011174 0.045956
vt 0.597981 0.604750
vn 0.883176 -0.466817 -0.045624
v 0.084516 -0.058619 -0.075661
vt 0.688480 0.538250
vn 0.883176 -0.466817 -0.045624
v 0.062041 -0.110335 0.000857
vt 0.616565 0.504641
vn 0.883176 -0.466817 -0.045624
v 0.095405 -0.052969 0.077312
vt 0.574532 0.577033
vn 0.883176 -0.466817 -0.045624
v 0.095405 -0.052969 0.077312
vt 0.431412 0.730844
vn 0.403218 0.370053 0.836944
v -0.007067 0.077402 0.074224
vt 0.431412 0.577998
vn 0.403218 0.370053 0.836944
v 0.054876 0.067321 0.044035
vt 0.375709 0.619985
vn 0.453523 0.376302 0.807907
v 0.116784 -0.011174 0.045956
vt 0.375596 0.712136
vn 0.453523 0.376302 0.807907
v 0.030475 -0.055831 0.114896
vt 0.500496 0.696669
vn 0.351537 0.362541 0.863125
v -0.077113 0.026737 0.114096
vt 0.531269 0.575171
vn 0.351537 0.362541 0.863125
v 0.030475 -0.055831 0.114896
vt 0.668242 0.828658
vn 0.346655 -0.805353 0.480870
v 0.095405 -0.052969 0.077312
vt 0.700850 0.830985
vn 0.346655 -0.805353 0.480870
v 0.062041 -0.110335 0.000857
vt 0.727745 0.784663
vn 0.346655 -0.805353 0.480870
v -0.044415 -0.104499 0.091805
vt 0.641553 0.763925
vn 0.346655 -0.805353 0.480870
v -0.035914 -0.112329 -0.101482
vt 0.739761 0.891413
vn -0.038764 -0.998497 0.038741
v -0.086122 -0.101621 0.077216
vt 0.674262 0.829248
vn -0.038764 -0.998497 0.038741
v 0.062041 -0.110335 0.000857
vt 0.662225 0.902209
vn -0.038764 -0.998497 0.038741
v -0.044415 -0.104499 0.091805
vt 0.638651 0.832751
vn -0.038764 -0.998497 0.038741
v -0.077113 0.026737 0.114096
vt 0.749906 0.717066
vn -0.222065 -0.216797 0.950624
v 0.030475 -0.055831 0.114896
vt 0.748927 0.625012
vn -0.222065 -0.216797 0.950624
v -0.044415 -0.104499 0.091805
vt 0.677607 0.671901
vn -0.222065 -0.216797 0.950624
v -0.086122 -0.101621 0.077216
vt 0.669959 0.706857
vn -0.222065 -0.216797 0.950624
# Faces (1 to 58)
f -56/-56/-56 -57/-57/-57 -58/-58/-58
f -56/-56/-56 -55/-55/-55 -57/-57/-57
f -52/-52/-52 -53/-53/-53 -54/-54/-54
f -52/-52/-52 -51/-51/-51 -53/-53/-53
f -50/-50/-50 -52/-52/-52 -54/-54/-54
f -54/-54/-54 -49/-49/-49 -50/-50/-50
f -46/-46/-46 -47/-47/-47 -48/-48/-48
f -48/-48/-48 -45/-45/-45 -46/-46/-46
f -42/-42/-42 -43/-43/-43 -44/-44/-44
f -43/-43/-43 -41/-41/-41 -44/-44/-44
f -38/-38/-38 -39/-39/-39 -40/-40/-40
f -40/-40/-40 -37/-37/-37 -38/-38/-38
f -34/-34/-34 -35/-35/-35 -36/-36/-36
f -35/-35/-35 -33/-33/-33 -36/-36/-36
f -30/-30/-30 -31/-31/-31 -32/-32/-32
f -31/-31/-31 -29/-29/-29 -32/-32/-32
f -28/-28/-28 -29/-29/-29 -31/-31/-31
f -31/-31/-31 -27/-27/-27 -28/-28/-28
f -24/-24/-24 -25/-25/-25 -26/-26/-26
f -26/-26/-26 -23/-23/-23 -24/-24/-24
f -20/-20/-20 -21/-21/-21 -22/-22/-22
f -22/-22/-22 -19/-19/-19 -20/-20/-20
f -16/-16/-16 -17/-17/-17 -18/-18/-18
f -18/-18/-18 -15/-15/-15 -16/-16/-16
f -14/-14/-14 -18/-18/-18 -17/-17/-17
f -17/-17/-17 -13/-13/-13 -14/-14/-14
f -10/-10/-10 -11/-11/-11 -12/-12/-12
f -10/-10/-10 -12/-12/-12 -9/-9/-9
f -6/-6/-6 -7/-7/-7 -8/-8/-8
f -6/-6/-6 -5/-5/-5 -7/-7/-7
f -2/-2/-2 -3/-3/-3 -4/-4/-4
f -4/-4/-4 -1/-1/-1 -2/-2/-2

