# Mesh "mesh_sphere" exported with raY asset explorer
g mesh_sphere
# SubMesh 0
# Vertices
v -0.049296 0.018865 -0.045544
vt 1.000001 0.652148
vn -0.707629 0.270398 -0.652799
v -0.049296 0.034858 -0.034858
vt 0.937501 0.652148
vn -0.707629 0.499631 -0.499631
v -0.064409 0.010210 -0.024648
vt 1.000001 0.679810
vn -0.924082 0.146259 -0.353102
v -0.064409 0.018865 -0.018865
vt 0.937501 0.679810
vn -0.924082 0.270253 -0.270253
v -0.064409 0.024648 -0.010210
vt 0.875001 0.679809
vn -0.924082 0.353102 -0.146260
v -0.049296 0.045544 -0.018865
vt 0.875001 0.652148
vn -0.707629 0.652799 -0.270398
v -0.049296 0.049296 -0.000000
vt 0.812501 0.652148
vn -0.707629 0.706585 -0.000001
v -0.064409 0.026679 -0.000000
vt 0.812501 0.679809
vn -0.924082 0.382195 -0.000000
v -0.064409 0.024648 0.010210
vt 0.750001 0.679810
vn -0.924082 0.353102 0.146259
v -0.049296 0.045544 0.018865
vt 0.750001 0.652148
vn -0.707629 0.652799 0.270398
v -0.064409 0.018865 0.018865
vt 0.687501 0.679810
vn -0.924082 0.270252 0.270253
v -0.049296 0.034858 0.034858
vt 0.687501 0.652148
vn -0.707629 0.499631 0.499631
v -0.064409 0.010210 0.024648
vt 0.625001 0.679810
vn -0.924082 0.146260 0.353102
v -0.049296 0.018865 0.045544
vt 0.625001 0.652148
vn -0.707629 0.270398 0.652799
v -0.049296 0.000000 0.049296
vt 0.562501 0.652148
vn -0.707629 0.000000 0.706585
v -0.064409 0.000000 0.026679
vt 0.562501 0.679810
vn -0.924082 0.000000 0.382195
v -0.049296 -0.018865 0.045544
vt 0.500001 0.652148
vn -0.707629 -0.270398 0.652799
v -0.064409 -0.010210 0.024648
vt 0.500001 0.679809
vn -0.924082 -0.146259 0.353102
v -0.064409 -0.018865 0.018865
vt 0.437501 0.679810
vn -0.924082 -0.270252 0.270253
v -0.049296 -0.034858 0.034858
vt 0.437501 0.652148
vn -0.707629 -0.499631 0.499631
v -0.064409 -0.024648 0.010210
vt 0.375001 0.679810
vn -0.924082 -0.353102 0.146260
v -0.049296 -0.045544 0.018865
vt 0.375001 0.652148
vn -0.707629 -0.652799 0.270398
v -0.064409 -0.026679 0.000000
vt 0.312501 0.679810
vn -0.924082 -0.382195 0.000000
v -0.049296 -0.049296 0.000000
vt 0.312501 0.652148
vn -0.707629 -0.706585 0.000000
v -0.049296 -0.045544 -0.018865
vt 0.250001 0.652148
vn -0.707629 -0.652799 -0.270398
v -0.064409 -0.024648 -0.010210
vt 0.250001 0.679809
vn -0.924082 -0.353102 -0.146259
v -0.049296 -0.034858 -0.034858
vt 0.187501 0.652148
vn -0.707629 -0.499631 -0.499631
v -0.064409 -0.018865 -0.018865
vt 0.187501 0.679810
vn -0.924082 -0.270252 -0.270252
v -0.064409 -0.010210 -0.024648
vt 0.125001 0.679810
vn -0.924082 -0.146259 -0.353102
v -0.049296 -0.018865 -0.045544
vt 0.125001 0.652148
vn -0.707629 -0.270398 -0.652799
v -0.064409 -0.000000 -0.026679
vt 0.062501 0.679809
vn -0.924082 -0.000000 -0.382195
v -0.049296 -0.000000 -0.049296
vt 0.062501 0.652148
vn -0.707629 -0.000000 -0.706585
v -0.049296 0.018865 -0.045544
vt 0.000001 0.652148
vn -0.707629 0.270398 -0.652799
v -0.064409 0.010210 -0.024648
vt 0.000001 0.679809
vn -0.924082 0.146259 -0.353102
v -0.026679 -0.059506 0.024648
vt 0.375001 0.620621
vn -0.383160 -0.853371 0.353478
v -0.026679 -0.045544 0.045544
vt 0.437501 0.620621
vn -0.383160 -0.653142 0.653142
v -0.026679 -0.024648 0.059506
vt 0.500001 0.620621
vn -0.383160 -0.353478 0.853371
v -0.026679 0.000000 0.064409
vt 0.562501 0.620621
vn -0.383160 0.000000 0.923682
v -0.026679 0.024648 0.059506
vt 0.625001 0.620621
vn -0.383160 0.353478 0.853371
v -0.026679 0.045544 0.045544
vt 0.687501 0.620621
vn -0.383160 0.653142 0.653142
v -0.026679 0.059506 0.024648
vt 0.750001 0.620621
vn -0.383160 0.853371 0.353477
v -0.026679 0.064409 -0.000000
vt 0.812501 0.620621
vn -0.383160 0.923682 -0.000001
v -0.026679 0.059506 -0.024648
vt 0.875001 0.620621
vn -0.383160 0.853371 -0.353478
v -0.026679 0.045544 -0.045544
vt 0.937501 0.620621
vn -0.383160 0.653142 -0.653142
v -0.026679 0.024648 -0.059506
vt 1.000001 0.620621
vn -0.383160 0.353478 -0.853371
v -0.000000 0.026679 -0.064409
vt 1.000001 0.122614
vn -0.000000 0.382683 -0.923880
v -0.000000 0.049296 -0.049297
vt 0.937501 0.122614
vn -0.000000 0.707106 -0.707107
v -0.000000 0.064409 -0.026679
vt 0.875001 0.122614
vn -0.000000 0.923879 -0.382684
v -0.000000 0.069716 -0.000000
vt 0.812501 0.122614
vn -0.000000 1.000000 -0.000001
v -0.000000 0.064409 0.026679
vt 0.750001 0.122614
vn -0.000000 0.923880 0.382683
v -0.000000 0.049297 0.049296
vt 0.687501 0.122614
vn -0.000000 0.707107 0.707106
v -0.000000 0.026679 0.064409
vt 0.625001 0.122614
vn -0.000000 0.382684 0.923879
v -0.000000 0.000000 0.069716
vt 0.562501 0.122614
vn -0.000000 0.000000 1.000000
v -0.000000 -0.026679 0.064409
vt 0.500001 0.122614
vn -0.000000 -0.382683 0.923880
v -0.000000 -0.049296 0.049296
vt 0.437501 0.122614
vn -0.000000 -0.707107 0.707107
v -0.000000 -0.064409 0.026679
vt 0.375001 0.122614
vn -0.000000 -0.923879 0.382684
v -0.000000 -0.069716 0.000000
vt 0.312501 0.122614
vn -0.000000 -1.000000 0.000000
v -0.026679 -0.064409 0.000000
vt 0.312501 0.620621
vn -0.383160 -0.923682 0.000000
v -0.026679 -0.059506 -0.024648
vt 0.250001 0.620621
vn -0.383160 -0.853371 -0.353478
v -0.026679 -0.045544 -0.045544
vt 0.187501 0.620621
vn -0.383160 -0.653142 -0.653142
v -0.026679 -0.024648 -0.059506
vt 0.125001 0.620621
vn -0.383160 -0.353478 -0.853371
v -0.026679 -0.000000 -0.064409
vt 0.062501 0.620621
vn -0.383160 -0.000000 -0.923682
v -0.026679 0.024648 -0.059506
vt 0.000001 0.620621
vn -0.383160 0.353478 -0.853371
v -0.000000 -0.064409 -0.026679
vt 0.250001 0.122614
vn -0.000000 -0.923880 -0.382683
v -0.000000 -0.049296 -0.049296
vt 0.187501 0.122614
vn -0.000000 -0.707107 -0.707107
v -0.000000 -0.026679 -0.064409
vt 0.125001 0.122614
vn -0.000000 -0.382683 -0.923880
v -0.000000 0.000000 -0.069716
vt 0.062501 0.122614
vn -0.000000 -0.000000 -1.000000
v -0.000000 0.026679 -0.064409
vt 0.000001 0.122614
vn -0.000000 0.382683 -0.923880
v 0.026679 0.024648 -0.059506
vt 0.000000 0.620621
vn 0.383160 0.353477 -0.853371
v 0.026679 0.045544 -0.045544
vt 0.062500 0.620621
vn 0.383160 0.653142 -0.653142
v -0.000000 0.026679 -0.064409
vt 0.000000 0.122613
vn -0.000000 0.382683 -0.923880
v -0.000000 0.049296 -0.049297
vt 0.062500 0.122613
vn -0.000000 0.707106 -0.707107
v -0.000000 0.064409 -0.026679
vt 0.125000 0.122613
vn -0.000000 0.923879 -0.382684
v 0.026679 0.059506 -0.024648
vt 0.125000 0.620621
vn 0.383160 0.853371 -0.353478
v -0.000000 0.069716 -0.000000
vt 0.187500 0.122613
vn -0.000000 1.000000 -0.000001
v 0.026679 0.064409 -0.000000
vt 0.187500 0.620621
vn 0.383160 0.923682 -0.000001
v 0.026679 0.059506 0.024648
vt 0.250000 0.620621
vn 0.383160 0.853371 0.353477
v -0.000000 0.064409 0.026679
vt 0.250000 0.122613
vn -0.000000 0.923880 0.382683
v 0.026679 0.045544 0.045544
vt 0.312500 0.620621
vn 0.383160 0.653142 0.653142
v -0.000000 0.049297 0.049296
vt 0.312500 0.122613
vn -0.000000 0.707107 0.707106
v -0.000000 0.026679 0.064409
vt 0.375000 0.122613
vn -0.000000 0.382684 0.923879
v 0.026679 0.024648 0.059506
vt 0.375000 0.620621
vn 0.383160 0.353478 0.853371
v -0.000000 0.000000 0.069716
vt 0.437500 0.122613
vn -0.000000 0.000000 1.000000
v 0.026679 0.000000 0.064409
vt 0.437500 0.620621
vn 0.383160 0.000000 0.923682
v 0.026679 -0.024648 0.059506
vt 0.500000 0.620621
vn 0.383160 -0.353478 0.853371
v -0.000000 -0.026679 0.064409
vt 0.500000 0.122613
vn -0.000000 -0.382683 0.923880
v 0.026679 -0.045544 0.045544
vt 0.562500 0.620621
vn 0.383160 -0.653142 0.653142
v -0.000000 -0.049296 0.049296
vt 0.562500 0.122613
vn -0.000000 -0.707107 0.707107
v -0.000000 -0.064409 0.026679
vt 0.625000 0.122613
vn -0.000000 -0.923879 0.382684
v 0.026679 -0.059506 0.024648
vt 0.625000 0.620621
vn 0.383160 -0.853371 0.353478
v -0.000000 -0.069716 0.000000
vt 0.687500 0.122613
vn -0.000000 -1.000000 0.000000
v 0.026679 -0.064409 0.000000
vt 0.687500 0.620621
vn 0.383160 -0.923682 0.000000
v 0.026679 -0.059506 -0.024648
vt 0.750000 0.620621
vn 0.383160 -0.853371 -0.353478
v -0.000000 -0.064409 -0.026679
vt 0.750000 0.122613
vn -0.000000 -0.923880 -0.382683
v 0.026679 -0.045544 -0.045544
vt 0.812500 0.620621
vn 0.383160 -0.653142 -0.653142
v -0.000000 -0.049296 -0.049296
vt 0.812500 0.122613
vn -0.000000 -0.707107 -0.707107
v -0.000000 -0.026679 -0.064409
vt 0.875000 0.122613
vn -0.000000 -0.382683 -0.923880
v 0.026679 -0.024648 -0.059506
vt 0.875000 0.620621
vn 0.383160 -0.353478 -0.853371
v -0.000000 0.000000 -0.069716
vt 0.937500 0.122613
vn -0.000000 -0.000000 -1.000000
v 0.026679 0.000000 -0.064409
vt 0.937500 0.620621
vn 0.383160 -0.000000 -0.923682
v 0.026679 0.024648 -0.059506
vt 1.000000 0.620621
vn 0.383160 0.353477 -0.853371
v -0.000000 0.026679 -0.064409
vt 1.000000 0.122613
vn -0.000000 0.382683 -0.923880
v 0.049296 -0.034858 0.034858
vt 0.562500 0.652148
vn 0.707629 -0.499631 0.499631
v 0.049296 -0.045544 0.018865
vt 0.625000 0.652148
vn 0.707629 -0.652799 0.270398
v 0.049296 -0.049296 0.000000
vt 0.687500 0.652148
vn 0.707629 -0.706585 0.000000
v 0.049296 -0.045544 -0.018865
vt 0.750000 0.652148
vn 0.707629 -0.652799 -0.270398
v 0.049296 -0.034858 -0.034858
vt 0.812500 0.652148
vn 0.707629 -0.499631 -0.499631
v 0.049296 -0.018865 -0.045544
vt 0.875000 0.652148
vn 0.707629 -0.270398 -0.652799
v 0.049296 0.000000 -0.049296
vt 0.937500 0.652148
vn 0.707629 -0.000000 -0.706585
v 0.049296 0.018865 -0.045544
vt 1.000000 0.652148
vn 0.707629 0.270398 -0.652799
v 0.064409 -0.024648 0.010210
vt 0.625000 0.679808
vn 0.924082 -0.353102 0.146260
v 0.064409 -0.018865 0.018865
vt 0.562500 0.679808
vn 0.924082 -0.270253 0.270253
v 0.049296 -0.018865 0.045544
vt 0.500000 0.652148
vn 0.707629 -0.270398 0.652799
v 0.049296 0.000000 0.049296
vt 0.437500 0.652148
vn 0.707629 0.000000 0.706585
v 0.049296 0.018865 0.045544
vt 0.375000 0.652148
vn 0.707629 0.270398 0.652799
v 0.049296 0.034858 0.034858
vt 0.312500 0.652148
vn 0.707629 0.499631 0.499630
v 0.049296 0.045544 0.018865
vt 0.250000 0.652148
vn 0.707629 0.652799 0.270398
v 0.049296 0.049296 -0.000000
vt 0.187500 0.652148
vn 0.707629 0.706585 -0.000000
v 0.049296 0.045544 -0.018865
vt 0.125000 0.652148
vn 0.707629 0.652799 -0.270399
v 0.049296 0.034858 -0.034858
vt 0.062500 0.652148
vn 0.707629 0.499630 -0.499631
v 0.049296 0.018865 -0.045544
vt 0.000000 0.652148
vn 0.707629 0.270398 -0.652799
v 0.064409 0.010210 -0.024648
vt 0.000000 0.679808
vn 0.924082 0.146259 -0.353102
v 0.064409 0.018865 -0.018865
vt 0.062500 0.679808
vn 0.924082 0.270252 -0.270253
v 0.064409 0.024648 -0.010210
vt 0.125000 0.679808
vn 0.924082 0.353102 -0.146260
v 0.064409 0.026679 -0.000000
vt 0.187500 0.679808
vn 0.924082 0.382195 0.000000
v 0.064409 0.024648 0.010210
vt 0.250000 0.679808
vn 0.924082 0.353102 0.146259
v 0.064409 0.018865 0.018865
vt 0.312500 0.679808
vn 0.924082 0.270253 0.270252
v 0.064409 0.010210 0.024648
vt 0.375000 0.679808
vn 0.924082 0.146260 0.353102
v 0.064409 0.000000 0.026679
vt 0.437500 0.679808
vn 0.924082 0.000000 0.382195
v 0.064409 -0.010210 0.024648
vt 0.500000 0.679808
vn 0.924082 -0.146260 0.353102
v 0.069716 0.000000 0.000000
vt 0.031250 0.789454
vn 1.000000 0.000000 0.000000
v 0.069716 0.000000 0.000000
vt 0.093750 0.789454
vn 1.000000 0.000000 0.000000
v 0.069716 0.000000 0.000000
vt 0.156250 0.789454
vn 1.000000 0.000000 0.000000
v 0.069716 0.000000 0.000000
vt 0.218750 0.789454
vn 1.000000 0.000000 0.000000
v 0.069716 0.000000 0.000000
vt 0.281250 0.789454
vn 1.000000 0.000000 0.000000
v 0.069716 0.000000 0.000000
vt 0.343750 0.789454
vn 1.000000 0.000000 0.000000
v 0.069716 0.000000 0.000000
vt 0.406250 0.789454
vn 1.000000 0.000000 0.000000
v 0.069716 0.000000 0.000000
vt 0.468750 0.789454
vn 1.000000 0.000000 0.000000
v 0.069716 0.000000 0.000000
vt 0.531250 0.789454
vn 1.000000 0.000000 0.000000
v 0.069716 0.000000 0.000000
vt 0.593750 0.789454
vn 1.000000 0.000000 0.000000
v 0.064409 -0.026679 0.000000
vt 0.687500 0.679808
vn 0.924082 -0.382195 0.000000
v 0.064409 -0.024648 -0.010210
vt 0.750000 0.679808
vn 0.924082 -0.353102 -0.146260
v 0.064409 -0.018865 -0.018865
vt 0.812500 0.679808
vn 0.924082 -0.270252 -0.270253
v 0.064409 -0.010210 -0.024648
vt 0.875000 0.679808
vn 0.924082 -0.146259 -0.353102
v 0.064409 0.000000 -0.026679
vt 0.937500 0.679808
vn 0.924082 0.000000 -0.382195
v 0.064409 0.010210 -0.024648
vt 1.000000 0.679808
vn 0.924082 0.146259 -0.353102
v 0.069716 0.000000 0.000000
vt 0.656250 0.789454
vn 1.000000 0.000000 0.000000
v 0.069716 0.000000 0.000000
vt 0.718750 0.789454
vn 1.000000 0.000000 0.000000
v 0.069716 0.000000 0.000000
vt 0.781250 0.789454
vn 1.000000 0.000000 0.000000
v 0.069716 0.000000 0.000000
vt 0.843750 0.789454
vn 1.000000 0.000000 0.000000
v 0.069716 0.000000 0.000000
vt 0.906250 0.789454
vn 1.000000 0.000000 0.000000
v 0.069716 0.000000 0.000000
vt 0.968750 0.789454
vn 1.000000 0.000000 0.000000
v -0.069716 -0.000000 0.000000
vt 0.968751 0.789456
vn -1.000000 0.000000 0.000000
v -0.069716 -0.000000 0.000000
vt 0.906251 0.789456
vn -1.000000 0.000000 0.000000
v -0.069716 -0.000000 0.000000
vt 0.843751 0.789456
vn -1.000000 0.000000 0.000000
v -0.069716 -0.000000 0.000000
vt 0.781251 0.789456
vn -1.000000 0.000000 0.000000
v -0.069716 -0.000000 0.000000
vt 0.718751 0.789456
vn -1.000000 0.000000 0.000000
v -0.069716 -0.000000 0.000000
vt 0.656251 0.789456
vn -1.000000 0.000000 0.000000
v -0.069716 -0.000000 0.000000
vt 0.593751 0.789456
vn -1.000000 0.000000 0.000000
v -0.069716 -0.000000 0.000000
vt 0.531251 0.789456
vn -1.000000 0.000000 0.000000
v -0.069716 -0.000000 0.000000
vt 0.468751 0.789456
vn -1.000000 0.000000 0.000000
v -0.069716 -0.000000 0.000000
vt 0.406251 0.789456
vn -1.000000 0.000000 0.000000
v -0.069716 -0.000000 0.000000
vt 0.343751 0.789456
vn -1.000000 0.000000 0.000000
v -0.069716 -0.000000 0.000000
vt 0.281251 0.789456
vn -1.000000 0.000000 0.000000
v -0.069716 -0.000000 0.000000
vt 0.218751 0.789456
vn -1.000000 0.000000 0.000000
v -0.069716 -0.000000 0.000000
vt 0.156251 0.789456
vn -1.000000 0.000000 0.000000
v -0.069716 -0.000000 0.000000
vt 0.093751 0.789456
vn -1.000000 0.000000 0.000000
v -0.069716 -0.000000 0.000000
vt 0.031251 0.789456
vn -1.000000 0.000000 0.000000
# Faces (1 to 168)
f -166/-166/-166 -167/-167/-167 -168/-168/-168
f -165/-165/-165 -167/-167/-167 -166/-166/-166
f -167/-167/-167 -165/-165/-165 -164/-164/-164
f -164/-164/-164 -163/-163/-163 -167/-167/-167
f -162/-162/-162 -163/-163/-163 -164/-164/-164
f -164/-164/-164 -161/-161/-161 -162/-162/-162
f -162/-162/-162 -161/-161/-161 -160/-160/-160
f -160/-160/-160 -159/-159/-159 -162/-162/-162
f -159/-159/-159 -160/-160/-160 -158/-158/-158
f -158/-158/-158 -157/-157/-157 -159/-159/-159
f -157/-157/-157 -158/-158/-158 -156/-156/-156
f -156/-156/-156 -155/-155/-155 -157/-157/-157
f -156/-156/-156 -154/-154/-154 -155/-155/-155
f -156/-156/-156 -153/-153/-153 -154/-154/-154
f -154/-154/-154 -153/-153/-153 -152/-152/-152
f -153/-153/-153 -151/-151/-151 -152/-152/-152
f -152/-152/-152 -151/-151/-151 -150/-150/-150
f -150/-150/-150 -149/-149/-149 -152/-152/-152
f -149/-149/-149 -150/-150/-150 -148/-148/-148
f -148/-148/-148 -147/-147/-147 -149/-149/-149
f -147/-147/-147 -148/-148/-148 -146/-146/-146
f -146/-146/-146 -145/-145/-145 -147/-147/-147
f -146/-146/-146 -144/-144/-144 -145/-145/-145
f -143/-143/-143 -144/-144/-144 -146/-146/-146
f -144/-144/-144 -143/-143/-143 -142/-142/-142
f -143/-143/-143 -141/-141/-141 -142/-142/-142
f -142/-142/-142 -141/-141/-141 -140/-140/-140
f -140/-140/-140 -139/-139/-139 -142/-142/-142
f -139/-139/-139 -140/-140/-140 -138/-138/-138
f -138/-138/-138 -137/-137/-137 -139/-139/-139
f -136/-136/-136 -137/-137/-137 -138/-138/-138
f -136/-136/-136 -138/-138/-138 -135/-135/-135
f -134/-134/-134 -149/-149/-149 -147/-147/-147
f -149/-149/-149 -134/-134/-134 -133/-133/-133
f -149/-149/-149 -133/-133/-133 -132/-132/-132
f -132/-132/-132 -152/-152/-152 -149/-149/-149
f -152/-152/-152 -132/-132/-132 -131/-131/-131
f -131/-131/-131 -154/-154/-154 -152/-152/-152
f -154/-154/-154 -131/-131/-131 -155/-155/-155
f -155/-155/-155 -131/-131/-131 -130/-130/-130
f -130/-130/-130 -157/-157/-157 -155/-155/-155
f -157/-157/-157 -130/-130/-130 -129/-129/-129
f -157/-157/-157 -129/-129/-129 -128/-128/-128
f -128/-128/-128 -159/-159/-159 -157/-157/-157
f -159/-159/-159 -128/-128/-128 -127/-127/-127
f -127/-127/-127 -162/-162/-162 -159/-159/-159
f -163/-163/-163 -162/-162/-162 -127/-127/-127
f -127/-127/-127 -126/-126/-126 -163/-163/-163
f -167/-167/-167 -163/-163/-163 -126/-126/-126
f -125/-125/-125 -167/-167/-167 -126/-126/-126
f -167/-167/-167 -125/-125/-125 -124/-124/-124
f -124/-124/-124 -168/-168/-168 -167/-167/-167
f -123/-123/-123 -124/-124/-124 -125/-125/-125
f -125/-125/-125 -122/-122/-122 -123/-123/-123
f -125/-125/-125 -126/-126/-126 -121/-121/-121
f -121/-121/-121 -122/-122/-122 -125/-125/-125
f -126/-126/-126 -127/-127/-127 -120/-120/-120
f -120/-120/-120 -121/-121/-121 -126/-126/-126
f -120/-120/-120 -127/-127/-127 -128/-128/-128
f -128/-128/-128 -119/-119/-119 -120/-120/-120
f -119/-119/-119 -128/-128/-128 -129/-129/-129
f -129/-129/-129 -118/-118/-118 -119/-119/-119
f -129/-129/-129 -117/-117/-117 -118/-118/-118
f -130/-130/-130 -117/-117/-117 -129/-129/-129
f -130/-130/-130 -116/-116/-116 -117/-117/-117
f -131/-131/-131 -116/-116/-116 -130/-130/-130
f -116/-116/-116 -131/-131/-131 -132/-132/-132
f -132/-132/-132 -115/-115/-115 -116/-116/-116
f -115/-115/-115 -132/-132/-132 -133/-133/-133
f -133/-133/-133 -114/-114/-114 -115/-115/-115
f -133/-133/-133 -113/-113/-113 -114/-114/-114
f -134/-134/-134 -113/-113/-113 -133/-133/-133
f -134/-134/-134 -112/-112/-112 -113/-113/-113
f -111/-111/-111 -112/-112/-112 -134/-134/-134
f -147/-147/-147 -111/-111/-111 -134/-134/-134
f -145/-145/-145 -111/-111/-111 -147/-147/-147
f -111/-111/-111 -145/-145/-145 -144/-144/-144
f -144/-144/-144 -110/-110/-110 -111/-111/-111
f -112/-112/-112 -111/-111/-111 -110/-110/-110
f -110/-110/-110 -144/-144/-144 -142/-142/-142
f -142/-142/-142 -109/-109/-109 -110/-110/-110
f -142/-142/-142 -108/-108/-108 -109/-109/-109
f -108/-108/-108 -142/-142/-142 -139/-139/-139
f -139/-139/-139 -107/-107/-107 -108/-108/-108
f -137/-137/-137 -107/-107/-107 -139/-139/-139
f -107/-107/-107 -137/-137/-137 -136/-136/-136
f -136/-136/-136 -106/-106/-106 -107/-107/-107
f -110/-110/-110 -105/-105/-105 -112/-112/-112
f -105/-105/-105 -110/-110/-110 -109/-109/-109
f -109/-109/-109 -104/-104/-104 -105/-105/-105
f -109/-109/-109 -103/-103/-103 -104/-104/-104
f -108/-108/-108 -103/-103/-103 -109/-109/-109
f -108/-108/-108 -102/-102/-102 -103/-103/-103
f -107/-107/-107 -102/-102/-102 -108/-108/-108
f -102/-102/-102 -107/-107/-107 -106/-106/-106
f -106/-106/-106 -101/-101/-101 -102/-102/-102
f -98/-98/-98 -99/-99/-99 -100/-100/-100
f -97/-97/-97 -99/-99/-99 -98/-98/-98
f -99/-99/-99 -97/-97/-97 -96/-96/-96
f -96/-96/-96 -95/-95/-95 -99/-99/-99
f -95/-95/-95 -96/-96/-96 -94/-94/-94
f -94/-94/-94 -93/-93/-93 -95/-95/-95
f -92/-92/-92 -93/-93/-93 -94/-94/-94
f -94/-94/-94 -91/-91/-91 -92/-92/-92
f -90/-90/-90 -92/-92/-92 -91/-91/-91
f -91/-91/-91 -89/-89/-89 -90/-90/-90
f -90/-90/-90 -89/-89/-89 -88/-88/-88
f -88/-88/-88 -87/-87/-87 -90/-90/-90
f -87/-87/-87 -88/-88/-88 -86/-86/-86
f -86/-86/-86 -85/-85/-85 -87/-87/-87
f -86/-86/-86 -84/-84/-84 -85/-85/-85
f -83/-83/-83 -84/-84/-84 -86/-86/-86
f -83/-83/-83 -82/-82/-82 -84/-84/-84
f -81/-81/-81 -82/-82/-82 -83/-83/-83
f -82/-82/-82 -81/-81/-81 -80/-80/-80
f -80/-80/-80 -79/-79/-79 -82/-82/-82
f -79/-79/-79 -80/-80/-80 -78/-78/-78
f -78/-78/-78 -77/-77/-77 -79/-79/-79
f -78/-78/-78 -76/-76/-76 -77/-77/-77
f -75/-75/-75 -76/-76/-76 -78/-78/-78
f -75/-75/-75 -74/-74/-74 -76/-76/-76
f -73/-73/-73 -74/-74/-74 -75/-75/-75
f -74/-74/-74 -73/-73/-73 -72/-72/-72
f -72/-72/-72 -71/-71/-71 -74/-74/-74
f -71/-71/-71 -72/-72/-72 -70/-70/-70
f -70/-70/-70 -69/-69/-69 -71/-71/-71
f -70/-70/-70 -68/-68/-68 -69/-69/-69
f -67/-67/-67 -68/-68/-68 -70/-70/-70
f -66/-66/-66 -82/-82/-82 -79/-79/-79
f -79/-79/-79 -65/-65/-65 -66/-66/-66
f -65/-65/-65 -79/-79/-79 -77/-77/-77
f -77/-77/-77 -64/-64/-64 -65/-65/-65
f -77/-77/-77 -63/-63/-63 -64/-64/-64
f -76/-76/-76 -63/-63/-63 -77/-77/-77
f -62/-62/-62 -76/-76/-76 -74/-74/-74
f -76/-76/-76 -62/-62/-62 -63/-63/-63
f -62/-62/-62 -74/-74/-74 -71/-71/-71
f -71/-71/-71 -61/-61/-61 -62/-62/-62
f -61/-61/-61 -71/-71/-71 -69/-69/-69
f -69/-69/-69 -60/-60/-60 -61/-61/-61
f -69/-69/-69 -59/-59/-59 -60/-60/-60
f -68/-68/-68 -59/-59/-59 -69/-69/-69
f -65/-65/-65 -58/-58/-58 -66/-66/-66
f -58/-58/-58 -57/-57/-57 -66/-66/-66
f -56/-56/-56 -66/-66/-66 -57/-57/-57
f -84/-84/-84 -66/-66/-66 -56/-56/-56
f -84/-84/-84 -56/-56/-56 -85/-85/-85
f -85/-85/-85 -56/-56/-56 -55/-55/-55
f -85/-85/-85 -55/-55/-55 -54/-54/-54
f -54/-54/-54 -87/-87/-87 -85/-85/-85
f -87/-87/-87 -54/-54/-54 -53/-53/-53
f -53/-53/-53 -90/-90/-90 -87/-87/-87
f -92/-92/-92 -90/-90/-90 -53/-53/-53
f -53/-53/-53 -52/-52/-52 -92/-92/-92
f -93/-93/-93 -92/-92/-92 -52/-52/-52
f -52/-52/-52 -51/-51/-51 -93/-93/-93
f -93/-93/-93 -51/-51/-51 -50/-50/-50
f -50/-50/-50 -95/-95/-95 -93/-93/-93
f -95/-95/-95 -50/-50/-50 -49/-49/-49
f -49/-49/-49 -99/-99/-99 -95/-95/-95
f -49/-49/-49 -100/-100/-100 -99/-99/-99
f -100/-100/-100 -49/-49/-49 -48/-48/-48
f -47/-47/-47 -48/-48/-48 -49/-49/-49
f -49/-49/-49 -46/-46/-46 -47/-47/-47
f -45/-45/-45 -49/-49/-49 -50/-50/-50
f -45/-45/-45 -46/-46/-46 -49/-49/-49
f -50/-50/-50 -51/-51/-51 -44/-44/-44
f -44/-44/-44 -45/-45/-45 -50/-50/-50
f -43/-43/-43 -44/-44/-44 -51/-51/-51
f -51/-51/-51 -52/-52/-52 -43/-43/-43
f -43/-43/-43 -52/-52/-52 -53/-53/-53
f -53/-53/-53 -42/-42/-42 -43/-43/-43
f -42/-42/-42 -53/-53/-53 -54/-54/-54
f -54/-54/-54 -41/-41/-41 -42/-42/-42
f -40/-40/-40 -41/-41/-41 -54/-54/-54
f -40/-40/-40 -54/-54/-54 -55/-55/-55
f -40/-40/-40 -55/-55/-55 -56/-56/-56
f -56/-56/-56 -39/-39/-39 -40/-40/-40
f -57/-57/-57 -39/-39/-39 -56/-56/-56
f -46/-46/-46 -38/-38/-38 -47/-47/-47
f -45/-45/-45 -37/-37/-37 -46/-46/-46
f -44/-44/-44 -36/-36/-36 -45/-45/-45
f -43/-43/-43 -35/-35/-35 -44/-44/-44
f -42/-42/-42 -34/-34/-34 -43/-43/-43
f -41/-41/-41 -33/-33/-33 -42/-42/-42
f -40/-40/-40 -32/-32/-32 -41/-41/-41
f -39/-39/-39 -31/-31/-31 -40/-40/-40
f -57/-57/-57 -30/-30/-30 -39/-39/-39
f -58/-58/-58 -29/-29/-29 -57/-57/-57
f -65/-65/-65 -28/-28/-28 -58/-58/-58
f -64/-64/-64 -28/-28/-28 -65/-65/-65
f -28/-28/-28 -64/-64/-64 -63/-63/-63
f -63/-63/-63 -27/-27/-27 -28/-28/-28
f -26/-26/-26 -27/-27/-27 -63/-63/-63
f -63/-63/-63 -62/-62/-62 -26/-26/-26
f -26/-26/-26 -62/-62/-62 -61/-61/-61
f -61/-61/-61 -25/-25/-25 -26/-26/-26
f -25/-25/-25 -61/-61/-61 -60/-60/-60
f -60/-60/-60 -24/-24/-24 -25/-25/-25
f -60/-60/-60 -23/-23/-23 -24/-24/-24
f -59/-59/-59 -23/-23/-23 -60/-60/-60
f -28/-28/-28 -22/-22/-22 -58/-58/-58
f -27/-27/-27 -21/-21/-21 -28/-28/-28
f -26/-26/-26 -20/-20/-20 -27/-27/-27
f -25/-25/-25 -19/-19/-19 -26/-26/-26
f -24/-24/-24 -18/-18/-18 -25/-25/-25
f -23/-23/-23 -17/-17/-17 -24/-24/-24
f -66/-66/-66 -84/-84/-84 -82/-82/-82
f -166/-166/-166 -16/-16/-16 -165/-165/-165
f -165/-165/-165 -15/-15/-15 -164/-164/-164
f -164/-164/-164 -14/-14/-14 -161/-161/-161
f -161/-161/-161 -13/-13/-13 -160/-160/-160
f -160/-160/-160 -12/-12/-12 -158/-158/-158
f -158/-158/-158 -11/-11/-11 -156/-156/-156
f -156/-156/-156 -10/-10/-10 -153/-153/-153
f -153/-153/-153 -9/-9/-9 -151/-151/-151
f -151/-151/-151 -8/-8/-8 -150/-150/-150
f -150/-150/-150 -7/-7/-7 -148/-148/-148
f -148/-148/-148 -6/-6/-6 -146/-146/-146
f -146/-146/-146 -5/-5/-5 -143/-143/-143
f -143/-143/-143 -4/-4/-4 -141/-141/-141
f -141/-141/-141 -3/-3/-3 -140/-140/-140
f -140/-140/-140 -2/-2/-2 -138/-138/-138
f -138/-138/-138 -1/-1/-1 -135/-135/-135

