# Mesh "mesh_ring" exported with raY asset explorer
g mesh_ring
# SubMesh 0
# Vertices
v 0.273090 0.020891 0.054321
vt -4.450982 0.963923
vn 0.495856 -0.862785 0.098633
v 0.239063 0.000562 0.047552
vt -4.450982 0.009702
vn 0.292398 -0.954526 0.058162
v 0.225192 0.000562 0.093277
vt -4.141546 0.009702
vn 0.275433 -0.954526 0.114088
v 0.257245 0.020891 0.106554
vt -4.141546 0.963923
vn 0.467087 -0.862785 0.193473
v 0.202667 0.000562 0.135418
vt -3.832109 0.009702
vn 0.247883 -0.954526 0.165630
v 0.231514 0.020891 0.154693
vt -3.832109 0.963923
vn 0.420366 -0.862785 0.280879
v 0.172355 0.000562 0.172354
vt -3.522673 0.009702
vn 0.210807 -0.954526 0.210807
v 0.196887 0.020891 0.196887
vt -3.522673 0.963923
vn 0.357492 -0.862786 0.357492
v 0.135418 0.000562 0.202667
vt -3.213237 0.009702
vn 0.165630 -0.954527 0.247882
v 0.154693 0.020891 0.231514
vt -3.213237 0.963923
vn 0.280880 -0.862786 0.420365
v 0.093278 0.000562 0.225192
vt -2.903800 0.009702
vn 0.114088 -0.954527 0.275432
v 0.106555 0.020891 0.257245
vt -2.903800 0.963923
vn 0.193472 -0.862787 0.467084
v 0.054321 0.020891 0.273090
vt -2.594364 0.963923
vn 0.098631 -0.862785 0.495856
v 0.047553 0.000562 0.239063
vt -2.594364 0.009702
vn 0.058161 -0.954526 0.292398
v 0.000000 0.020891 0.278440
vt -2.284928 0.963923
vn 0.000000 -0.862785 0.505572
v 0.000000 0.000562 0.243746
vt -2.284928 0.009702
vn 0.000000 -0.954526 0.298127
v -0.047552 0.000562 0.239063
vt -1.975491 0.009702
vn -0.058161 -0.954526 0.292399
v -0.054321 0.020891 0.273090
vt -1.975491 0.963923
vn -0.098630 -0.862785 0.495856
v -0.093277 0.000562 0.225192
vt -1.666055 0.009702
vn -0.114087 -0.954527 0.275432
v -0.106554 0.020891 0.257245
vt -1.666055 0.963923
vn -0.193472 -0.862787 0.467085
v -0.154693 0.020891 0.231514
vt -1.356618 0.963923
vn -0.280879 -0.862786 0.420365
v -0.135418 0.000562 0.202668
vt -1.356618 0.009702
vn -0.165630 -0.954527 0.247883
v -0.172354 0.000562 0.172355
vt -1.047182 0.009702
vn -0.210807 -0.954526 0.210807
v -0.196887 0.020891 0.196887
vt -1.047182 0.963923
vn -0.357492 -0.862786 0.357492
v -0.231514 0.020891 0.154693
vt -0.737746 0.963923
vn -0.420366 -0.862785 0.280880
v -0.202667 0.000562 0.135418
vt -0.737746 0.009702
vn -0.247883 -0.954526 0.165630
v -0.257245 0.020891 0.106555
vt -0.428309 0.963923
vn -0.467086 -0.862785 0.193474
v -0.225192 0.000562 0.093278
vt -0.428309 0.009702
vn -0.275433 -0.954526 0.114088
v -0.273090 0.020891 0.054321
vt -0.118873 0.963923
vn -0.495856 -0.862786 0.098632
v -0.239063 0.000562 0.047553
vt -0.118873 0.009702
vn -0.292398 -0.954526 0.058162
v -0.243746 0.000562 0.000000
vt 0.190563 0.009702
vn -0.298126 -0.954526 0.000000
v -0.278440 0.020891 0.000000
vt 0.190563 0.963923
vn -0.505570 -0.862785 0.000000
v -0.273090 0.020891 -0.054321
vt 0.500000 0.963923
vn -0.495856 -0.862785 -0.098632
v -0.239063 0.000562 -0.047552
vt 0.500000 0.009702
vn -0.292398 -0.954526 -0.058161
v -0.257245 0.020891 -0.106554
vt 0.809436 0.963923
vn -0.467087 -0.862785 -0.193474
v -0.225192 0.000562 -0.093278
vt 0.809436 0.009702
vn -0.275433 -0.954526 -0.114088
v -0.231515 0.020891 -0.154693
vt 1.118873 0.963923
vn -0.420367 -0.862785 -0.280880
v -0.202668 0.000562 -0.135418
vt 1.118873 0.009702
vn -0.247883 -0.954526 -0.165630
v -0.172355 0.000562 -0.172355
vt 1.428309 0.009702
vn -0.210807 -0.954526 -0.210807
v -0.196887 0.020891 -0.196887
vt 1.428309 0.963923
vn -0.357492 -0.862786 -0.357491
v -0.135418 0.000562 -0.202668
vt 1.737746 0.009702
vn -0.165630 -0.954527 -0.247882
v -0.154693 0.020891 -0.231515
vt 1.737746 0.963923
vn -0.280879 -0.862787 -0.420364
v -0.093278 0.000562 -0.225192
vt 2.047182 0.009702
vn -0.114088 -0.954527 -0.275432
v -0.106555 0.020891 -0.257245
vt 2.047182 0.963923
vn -0.193472 -0.862787 -0.467084
v -0.054321 0.020891 -0.273090
vt 2.356618 0.963923
vn -0.098632 -0.862786 -0.495854
v -0.047553 0.000562 -0.239063
vt 2.356618 0.009702
vn -0.058162 -0.954527 -0.292397
v -0.000000 0.000562 -0.243746
vt 2.666054 0.009702
vn -0.000000 -0.954527 -0.298126
v -0.000000 0.020891 -0.278440
vt 2.666054 0.963923
vn -0.000000 -0.862787 -0.505568
v 0.054321 0.020891 -0.273090
vt 2.975492 0.963923
vn 0.098631 -0.862786 -0.495854
v 0.047552 0.000562 -0.239063
vt 2.975492 0.009702
vn 0.058161 -0.954527 -0.292397
v 0.093278 0.000562 -0.225192
vt 3.284927 0.009702
vn 0.114088 -0.954527 -0.275432
v 0.106554 0.020891 -0.257245
vt 3.284927 0.963923
vn 0.193472 -0.862787 -0.467084
v 0.154693 0.020891 -0.231515
vt 3.594364 0.963923
vn 0.280879 -0.862786 -0.420365
v 0.135418 0.000562 -0.202668
vt 3.594364 0.009702
vn 0.165630 -0.954527 -0.247882
v 0.172355 0.000562 -0.172355
vt 3.903800 0.009702
vn 0.210807 -0.954527 -0.210807
v 0.196887 0.020891 -0.196887
vt 3.903800 0.963923
vn 0.357491 -0.862786 -0.357492
v 0.231515 0.020891 -0.154693
vt 4.213236 0.963923
vn 0.420366 -0.862785 -0.280880
v 0.202668 0.000562 -0.135418
vt 4.213236 0.009702
vn 0.247883 -0.954526 -0.165630
v 0.225192 0.000562 -0.093278
vt 4.522672 0.009702
vn 0.275433 -0.954526 -0.114088
v 0.257245 0.020891 -0.106554
vt 4.522672 0.963923
vn 0.467086 -0.862785 -0.193474
v 0.239063 0.000562 -0.047553
vt 4.832109 0.009702
vn 0.292398 -0.954526 -0.058162
v 0.273090 0.020891 -0.054321
vt 4.832109 0.963923
vn 0.495856 -0.862785 -0.098632
v 0.243746 0.000562 0.000000
vt 5.141545 0.009702
vn 0.298126 -0.954526 0.000001
v 0.278440 0.020891 0.000000
vt 5.141545 0.963923
vn 0.505570 -0.862786 0.000001
v 0.273090 0.020891 0.054321
vt 5.450982 0.963923
vn 0.495856 -0.862785 0.098633
v 0.239063 0.000562 0.047552
vt 5.450982 0.009702
vn 0.292398 -0.954526 0.058162
v 0.167413 -0.004979 0.033300
vt -4.450982 0.965607
vn 0.074170 -0.997136 0.014754
v 0.157699 -0.004979 0.065321
vt -4.141546 0.965607
vn 0.069867 -0.997136 0.028940
v 0.225192 0.000562 0.093277
vt -4.141546 0.009702
vn 0.275433 -0.954526 0.114088
v 0.239063 0.000562 0.047552
vt -4.450982 0.009702
vn 0.292398 -0.954526 0.058162
v 0.141926 -0.004979 0.094832
vt -3.832109 0.965607
vn 0.062878 -0.997136 0.042014
v 0.202667 0.000562 0.135418
vt -3.832109 0.009702
vn 0.247883 -0.954526 0.165630
v 0.120698 -0.004979 0.120698
vt -3.522673 0.965607
vn 0.053474 -0.997136 0.053474
v 0.172355 0.000562 0.172354
vt -3.522673 0.009702
vn 0.210807 -0.954526 0.210807
v 0.135418 0.000562 0.202667
vt -3.213237 0.009702
vn 0.165630 -0.954527 0.247882
v 0.094832 -0.004979 0.141926
vt -3.213237 0.965607
vn 0.042014 -0.997136 0.062879
v 0.065321 -0.004979 0.157699
vt -2.903800 0.965607
vn 0.028940 -0.997136 0.069867
v 0.093278 0.000562 0.225192
vt -2.903800 0.009702
vn 0.114088 -0.954527 0.275432
v 0.033301 -0.004979 0.167413
vt -2.594364 0.965607
vn 0.014754 -0.997136 0.074171
v 0.047553 0.000562 0.239063
vt -2.594364 0.009702
vn 0.058161 -0.954526 0.292398
v 0.000000 -0.004979 0.170693
vt -2.284928 0.965607
vn -0.000000 -0.997136 0.075624
v 0.000000 0.000562 0.243746
vt -2.284928 0.009702
vn 0.000000 -0.954526 0.298127
v -0.047552 0.000562 0.239063
vt -1.975491 0.009702
vn -0.058161 -0.954526 0.292399
v -0.033300 -0.004979 0.167413
vt -1.975491 0.965607
vn -0.014753 -0.997136 0.074171
v -0.065321 -0.004979 0.157699
vt -1.666055 0.965607
vn -0.028940 -0.997136 0.069867
v -0.093277 0.000562 0.225192
vt -1.666055 0.009702
vn -0.114087 -0.954527 0.275432
v -0.094832 -0.004979 0.141926
vt -1.356618 0.965607
vn -0.042014 -0.997136 0.062879
v -0.135418 0.000562 0.202668
vt -1.356618 0.009702
vn -0.165630 -0.954527 0.247883
v -0.120698 -0.004979 0.120698
vt -1.047182 0.965607
vn -0.053474 -0.997136 0.053474
v -0.172354 0.000562 0.172355
vt -1.047182 0.009702
vn -0.210807 -0.954526 0.210807
v -0.141926 -0.004979 0.094832
vt -0.737746 0.965607
vn -0.062878 -0.997136 0.042014
v -0.202667 0.000562 0.135418
vt -0.737746 0.009702
vn -0.247883 -0.954526 0.165630
v -0.225192 0.000562 0.093278
vt -0.428309 0.009702
vn -0.275433 -0.954526 0.114088
v -0.157699 -0.004979 0.065321
vt -0.428309 0.965607
vn -0.069867 -0.997136 0.028940
v -0.167413 -0.004979 0.033301
vt -0.118873 0.965607
vn -0.074170 -0.997136 0.014753
v -0.239063 0.000562 0.047553
vt -0.118873 0.009702
vn -0.292398 -0.954526 0.058162
v -0.170693 -0.004979 0.000000
vt 0.190563 0.965607
vn -0.075623 -0.997136 0.000000
v -0.243746 0.000562 0.000000
vt 0.190563 0.009702
vn -0.298126 -0.954526 0.000000
v -0.239063 0.000562 -0.047552
vt 0.500000 0.009702
vn -0.292398 -0.954526 -0.058161
v -0.167413 -0.004979 -0.033300
vt 0.500000 0.965607
vn -0.074170 -0.997136 -0.014753
v -0.225192 0.000562 -0.093278
vt 0.809436 0.009702
vn -0.275433 -0.954526 -0.114088
v -0.157699 -0.004979 -0.065321
vt 0.809436 0.965607
vn -0.069866 -0.997136 -0.028940
v -0.202668 0.000562 -0.135418
vt 1.118873 0.009702
vn -0.247883 -0.954526 -0.165630
v -0.141926 -0.004979 -0.094832
vt 1.118873 0.965607
vn -0.062878 -0.997136 -0.042014
v -0.120698 -0.004979 -0.120698
vt 1.428309 0.965607
vn -0.053474 -0.997136 -0.053474
v -0.172355 0.000562 -0.172355
vt 1.428309 0.009702
vn -0.210807 -0.954526 -0.210807
v -0.135418 0.000562 -0.202668
vt 1.737746 0.009702
vn -0.165630 -0.954527 -0.247882
v -0.094832 -0.004979 -0.141926
vt 1.737746 0.965607
vn -0.042014 -0.997136 -0.062879
v -0.093278 0.000562 -0.225192
vt 2.047182 0.009702
vn -0.114088 -0.954527 -0.275432
v -0.065321 -0.004979 -0.157699
vt 2.047182 0.965607
vn -0.028940 -0.997136 -0.069867
v -0.033301 -0.004979 -0.167413
vt 2.356618 0.965607
vn -0.014754 -0.997136 -0.074171
v -0.047553 0.000562 -0.239063
vt 2.356618 0.009702
vn -0.058162 -0.954527 -0.292397
v -0.000000 -0.004979 -0.170693
vt 2.666054 0.965607
vn -0.000000 -0.997136 -0.075624
v -0.000000 0.000562 -0.243746
vt 2.666054 0.009702
vn -0.000000 -0.954527 -0.298126
v 0.047552 0.000562 -0.239063
vt 2.975492 0.009702
vn 0.058161 -0.954527 -0.292397
v 0.033301 -0.004979 -0.167413
vt 2.975492 0.965607
vn 0.014753 -0.997136 -0.074171
v 0.093278 0.000562 -0.225192
vt 3.284927 0.009702
vn 0.114088 -0.954527 -0.275432
v 0.065321 -0.004979 -0.157700
vt 3.284927 0.965607
vn 0.028940 -0.997136 -0.069867
v 0.135418 0.000562 -0.202668
vt 3.594364 0.009702
vn 0.165630 -0.954527 -0.247882
v 0.094832 -0.004979 -0.141926
vt 3.594364 0.965607
vn 0.042014 -0.997136 -0.062879
v 0.120698 -0.004979 -0.120698
vt 3.903800 0.965607
vn 0.053474 -0.997136 -0.053474
v 0.172355 0.000562 -0.172355
vt 3.903800 0.009702
vn 0.210807 -0.954527 -0.210807
v 0.202668 0.000562 -0.135418
vt 4.213236 0.009702
vn 0.247883 -0.954526 -0.165630
v 0.141926 -0.004979 -0.094832
vt 4.213236 0.965607
vn 0.062878 -0.997136 -0.042014
v 0.157700 -0.004979 -0.065321
vt 4.522672 0.965607
vn 0.069866 -0.997136 -0.028940
v 0.225192 0.000562 -0.093278
vt 4.522672 0.009702
vn 0.275433 -0.954526 -0.114088
v 0.167413 -0.004979 -0.033301
vt 4.832109 0.965607
vn 0.074170 -0.997136 -0.014753
v 0.239063 0.000562 -0.047553
vt 4.832109 0.009702
vn 0.292398 -0.954526 -0.058162
v 0.170693 -0.004979 -0.000000
vt 5.141545 0.965607
vn 0.075623 -0.997136 0.000000
v 0.243746 0.000562 0.000000
vt 5.141545 0.009702
vn 0.298126 -0.954526 0.000001
v 0.239063 0.000562 0.047552
vt 5.450982 0.009702
vn 0.292398 -0.954526 0.058162
v 0.167413 -0.004979 0.033300
vt 5.450982 0.965607
vn 0.074170 -0.997136 0.014754
# Faces (1 to 132)
f -130/-130/-130 -131/-131/-131 -132/-132/-132
f -132/-132/-132 -129/-129/-129 -130/-130/-130
f -130/-130/-130 -129/-129/-129 -128/-128/-128
f -129/-129/-129 -127/-127/-127 -128/-128/-128
f -128/-128/-128 -127/-127/-127 -126/-126/-126
f -125/-125/-125 -126/-126/-126 -127/-127/-127
f -126/-126/-126 -125/-125/-125 -124/-124/-124
f -123/-123/-123 -124/-124/-124 -125/-125/-125
f -123/-123/-123 -122/-122/-122 -124/-124/-124
f -121/-121/-121 -122/-122/-122 -123/-123/-123
f -122/-122/-122 -121/-121/-121 -120/-120/-120
f -120/-120/-120 -119/-119/-119 -122/-122/-122
f -119/-119/-119 -120/-120/-120 -118/-118/-118
f -118/-118/-118 -117/-117/-117 -119/-119/-119
f -116/-116/-116 -117/-117/-117 -118/-118/-118
f -118/-118/-118 -115/-115/-115 -116/-116/-116
f -114/-114/-114 -116/-116/-116 -115/-115/-115
f -115/-115/-115 -113/-113/-113 -114/-114/-114
f -114/-114/-114 -113/-113/-113 -112/-112/-112
f -112/-112/-112 -111/-111/-111 -114/-114/-114
f -110/-110/-110 -111/-111/-111 -112/-112/-112
f -112/-112/-112 -109/-109/-109 -110/-110/-110
f -110/-110/-110 -109/-109/-109 -108/-108/-108
f -108/-108/-108 -107/-107/-107 -110/-110/-110
f -107/-107/-107 -108/-108/-108 -106/-106/-106
f -106/-106/-106 -105/-105/-105 -107/-107/-107
f -105/-105/-105 -106/-106/-106 -104/-104/-104
f -104/-104/-104 -103/-103/-103 -105/-105/-105
f -103/-103/-103 -104/-104/-104 -102/-102/-102
f -101/-101/-101 -102/-102/-102 -104/-104/-104
f -102/-102/-102 -101/-101/-101 -100/-100/-100
f -100/-100/-100 -99/-99/-99 -102/-102/-102
f -99/-99/-99 -100/-100/-100 -98/-98/-98
f -98/-98/-98 -97/-97/-97 -99/-99/-99
f -97/-97/-97 -98/-98/-98 -96/-96/-96
f -96/-96/-96 -95/-95/-95 -97/-97/-97
f -94/-94/-94 -95/-95/-95 -96/-96/-96
f -96/-96/-96 -93/-93/-93 -94/-94/-94
f -92/-92/-92 -94/-94/-94 -93/-93/-93
f -93/-93/-93 -91/-91/-91 -92/-92/-92
f -90/-90/-90 -92/-92/-92 -91/-91/-91
f -91/-91/-91 -89/-89/-89 -90/-90/-90
f -90/-90/-90 -89/-89/-89 -88/-88/-88
f -88/-88/-88 -87/-87/-87 -90/-90/-90
f -86/-86/-86 -87/-87/-87 -88/-88/-88
f -88/-88/-88 -85/-85/-85 -86/-86/-86
f -86/-86/-86 -85/-85/-85 -84/-84/-84
f -84/-84/-84 -83/-83/-83 -86/-86/-86
f -83/-83/-83 -84/-84/-84 -82/-82/-82
f -81/-81/-81 -82/-82/-82 -84/-84/-84
f -82/-82/-82 -81/-81/-81 -80/-80/-80
f -80/-80/-80 -79/-79/-79 -82/-82/-82
f -78/-78/-78 -79/-79/-79 -80/-80/-80
f -77/-77/-77 -78/-78/-78 -80/-80/-80
f -78/-78/-78 -77/-77/-77 -76/-76/-76
f -76/-76/-76 -75/-75/-75 -78/-78/-78
f -74/-74/-74 -75/-75/-75 -76/-76/-76
f -76/-76/-76 -73/-73/-73 -74/-74/-74
f -72/-72/-72 -74/-74/-74 -73/-73/-73
f -73/-73/-73 -71/-71/-71 -72/-72/-72
f -70/-70/-70 -72/-72/-72 -71/-71/-71
f -71/-71/-71 -69/-69/-69 -70/-70/-70
f -70/-70/-70 -69/-69/-69 -68/-68/-68
f -68/-68/-68 -67/-67/-67 -70/-70/-70
f -64/-64/-64 -65/-65/-65 -66/-66/-66
f -66/-66/-66 -63/-63/-63 -64/-64/-64
f -62/-62/-62 -65/-65/-65 -64/-64/-64
f -64/-64/-64 -61/-61/-61 -62/-62/-62
f -61/-61/-61 -60/-60/-60 -62/-62/-62
f -59/-59/-59 -60/-60/-60 -61/-61/-61
f -60/-60/-60 -59/-59/-59 -58/-58/-58
f -58/-58/-58 -57/-57/-57 -60/-60/-60
f -58/-58/-58 -56/-56/-56 -57/-57/-57
f -56/-56/-56 -58/-58/-58 -55/-55/-55
f -54/-54/-54 -56/-56/-56 -55/-55/-55
f -54/-54/-54 -55/-55/-55 -53/-53/-53
f -52/-52/-52 -54/-54/-54 -53/-53/-53
f -52/-52/-52 -53/-53/-53 -51/-51/-51
f -52/-52/-52 -51/-51/-51 -50/-50/-50
f -50/-50/-50 -49/-49/-49 -52/-52/-52
f -48/-48/-48 -49/-49/-49 -50/-50/-50
f -50/-50/-50 -47/-47/-47 -48/-48/-48
f -46/-46/-46 -48/-48/-48 -47/-47/-47
f -47/-47/-47 -45/-45/-45 -46/-46/-46
f -44/-44/-44 -46/-46/-46 -45/-45/-45
f -45/-45/-45 -43/-43/-43 -44/-44/-44
f -42/-42/-42 -44/-44/-44 -43/-43/-43
f -43/-43/-43 -41/-41/-41 -42/-42/-42
f -42/-42/-42 -41/-41/-41 -40/-40/-40
f -40/-40/-40 -39/-39/-39 -42/-42/-42
f -40/-40/-40 -38/-38/-38 -39/-39/-39
f -37/-37/-37 -38/-38/-38 -40/-40/-40
f -37/-37/-37 -36/-36/-36 -38/-38/-38
f -35/-35/-35 -36/-36/-36 -37/-37/-37
f -36/-36/-36 -35/-35/-35 -34/-34/-34
f -34/-34/-34 -33/-33/-33 -36/-36/-36
f -33/-33/-33 -34/-34/-34 -32/-32/-32
f -32/-32/-32 -31/-31/-31 -33/-33/-33
f -31/-31/-31 -32/-32/-32 -30/-30/-30
f -30/-30/-30 -29/-29/-29 -31/-31/-31
f -28/-28/-28 -29/-29/-29 -30/-30/-30
f -30/-30/-30 -27/-27/-27 -28/-28/-28
f -28/-28/-28 -27/-27/-27 -26/-26/-26
f -26/-26/-26 -25/-25/-25 -28/-28/-28
f -25/-25/-25 -26/-26/-26 -24/-24/-24
f -24/-24/-24 -23/-23/-23 -25/-25/-25
f -22/-22/-22 -23/-23/-23 -24/-24/-24
f -24/-24/-24 -21/-21/-21 -22/-22/-22
f -20/-20/-20 -22/-22/-22 -21/-21/-21
f -21/-21/-21 -19/-19/-19 -20/-20/-20
f -20/-20/-20 -19/-19/-19 -18/-18/-18
f -18/-18/-18 -17/-17/-17 -20/-20/-20
f -17/-17/-17 -18/-18/-18 -16/-16/-16
f -16/-16/-16 -15/-15/-15 -17/-17/-17
f -15/-15/-15 -16/-16/-16 -14/-14/-14
f -14/-14/-14 -13/-13/-13 -15/-15/-15
f -14/-14/-14 -12/-12/-12 -13/-13/-13
f -12/-12/-12 -14/-14/-14 -11/-11/-11
f -12/-12/-12 -11/-11/-11 -10/-10/-10
f -10/-10/-10 -9/-9/-9 -12/-12/-12
f -8/-8/-8 -9/-9/-9 -10/-10/-10
f -10/-10/-10 -7/-7/-7 -8/-8/-8
f -6/-6/-6 -8/-8/-8 -7/-7/-7
f -7/-7/-7 -5/-5/-5 -6/-6/-6
f -4/-4/-4 -6/-6/-6 -5/-5/-5
f -5/-5/-5 -3/-3/-3 -4/-4/-4
f -4/-4/-4 -3/-3/-3 -2/-2/-2
f -2/-2/-2 -1/-1/-1 -4/-4/-4

