# Mesh "mesh_ring_water" exported with raY asset explorer
g mesh_ring_water
# SubMesh 0
# Vertices
v 0.096526 -0.233036 0.019356
vt 5.141546 0.991182
vn -0.049602 0.125747 0.990822
v 0.048723 -0.244945 0.019356
vt 5.450982 0.991181
vn -0.019046 0.137248 0.990354
v 0.052022 -0.125593 0.003552
vt 5.141546 0.009702
vn -0.049602 0.125747 0.990822
v 0.026521 -0.133329 0.003552
vt 5.450982 0.009702
vn -0.019046 0.137248 0.990354
v 0.075525 -0.113031 0.003552
vt 4.832109 0.009702
vn -0.089392 0.106233 0.990315
v 0.140135 -0.209727 0.019356
vt 4.832109 0.991181
vn -0.089392 0.106233 0.990315
v 0.167452 -0.167452 0.019356
vt 4.522673 0.991181
vn -0.136389 0.084480 0.987047
v 0.096125 -0.096125 0.003552
vt 4.522673 0.009702
vn -0.136389 0.084480 0.987047
v 0.182372 -0.121857 0.019356
vt 4.213237 0.991182
vn -0.161374 0.082019 0.983479
v 0.113031 -0.075525 0.003552
vt 4.213237 0.009702
vn -0.161374 0.082019 0.983479
v 0.125593 -0.052022 0.003552
vt 3.903799 0.009702
vn -0.157898 0.088554 0.983477
v 0.202641 -0.083937 0.019356
vt 3.903799 0.991181
vn -0.157898 0.088554 0.983477
v 0.133329 -0.026521 0.003552
vt 3.594364 0.009702
vn -0.149689 0.058941 0.986975
v 0.232199 -0.046187 0.019356
vt 3.594364 0.991182
vn -0.149689 0.058941 0.986975
v 0.135941 -0.000000 0.003552
vt 3.284927 0.009702
vn -0.145385 0.013117 0.989288
v 0.243746 -0.000000 0.019356
vt 3.284927 0.991181
vn -0.145385 0.013117 0.989288
v 0.133329 0.026521 0.003552
vt 2.975491 0.009702
vn -0.137248 -0.019046 0.990354
v 0.244945 0.048723 0.019356
vt 2.975491 0.991182
vn -0.137248 -0.019046 0.990354
v 0.125593 0.052022 0.003552
vt 2.666055 0.009702
vn -0.125747 -0.049601 0.990822
v 0.233036 0.096526 0.019356
vt 2.666055 0.991182
vn -0.125747 -0.049601 0.990822
v 0.113031 0.075525 0.003552
vt 2.356618 0.009702
vn -0.106232 -0.089391 0.990315
v 0.209727 0.140135 0.019356
vt 2.356618 0.991182
vn -0.106232 -0.089391 0.990315
v 0.167452 0.167452 0.019356
vt 2.047182 0.991182
vn -0.084480 -0.136389 0.987047
v 0.096125 0.096125 0.003552
vt 2.047182 0.009702
vn -0.084480 -0.136389 0.987047
v 0.121857 0.182372 0.019356
vt 1.737746 0.991182
vn -0.082019 -0.161375 0.983479
v 0.075525 0.113031 0.003552
vt 1.737746 0.009702
vn -0.082019 -0.161375 0.983479
v 0.052022 0.125593 0.003552
vt 1.428309 0.009702
vn -0.088554 -0.157898 0.983477
v 0.083937 0.202641 0.019356
vt 1.428309 0.991181
vn -0.088554 -0.157898 0.983477
v 0.026521 0.133329 0.003552
vt 1.118873 0.009702
vn -0.058942 -0.149689 0.986975
v 0.046187 0.232199 0.019356
vt 1.118873 0.991181
vn -0.058942 -0.149689 0.986975
v 0.000000 0.135941 0.003552
vt 0.809436 0.009702
vn -0.013117 -0.145385 0.989288
v 0.000000 0.243746 0.019356
vt 0.809437 0.991181
vn -0.013117 -0.145385 0.989288
v -0.026521 0.133329 0.003552
vt 0.500000 0.009702
vn 0.019046 -0.137248 0.990354
v -0.048723 0.244945 0.019356
vt 0.500000 0.991181
vn 0.019046 -0.137248 0.990354
v -0.052022 0.125593 0.003552
vt 0.190564 0.009702
vn 0.049601 -0.125747 0.990822
v -0.096527 0.233036 0.019356
vt 0.190564 0.991181
vn 0.049601 -0.125747 0.990822
v -0.140135 0.209727 0.019356
vt -0.118873 0.991182
vn 0.089391 -0.106233 0.990315
v -0.075525 0.113031 0.003552
vt -0.118873 0.009702
vn 0.089391 -0.106233 0.990315
v -0.167452 0.167452 0.019356
vt -0.428309 0.991181
vn 0.136389 -0.084480 0.987047
v -0.096125 0.096125 0.003552
vt -0.428309 0.009702
vn 0.136389 -0.084480 0.987047
v -0.182372 0.121857 0.019356
vt -0.737746 0.991181
vn 0.161375 -0.082018 0.983479
v -0.113031 0.075525 0.003552
vt -0.737746 0.009702
vn 0.161375 -0.082018 0.983479
v -0.202641 0.083937 0.019356
vt -1.047182 0.991182
vn 0.157898 -0.088553 0.983477
v -0.125593 0.052022 0.003552
vt -1.047182 0.009702
vn 0.157898 -0.088553 0.983477
v -0.133329 0.026521 0.003552
vt -1.356618 0.009702
vn 0.149688 -0.058942 0.986975
v -0.232199 0.046187 0.019356
vt -1.356618 0.991182
vn 0.149688 -0.058942 0.986975
v -0.135941 -0.000000 0.003552
vt -1.666054 0.009702
vn 0.145385 -0.013117 0.989288
v -0.243746 0.000000 0.019356
vt -1.666054 0.991182
vn 0.145385 -0.013117 0.989288
v -0.133329 -0.026521 0.003552
vt -1.975492 0.009702
vn 0.137248 0.019046 0.990354
v -0.244946 -0.048723 0.019356
vt -1.975492 0.991181
vn 0.137248 0.019046 0.990354
v -0.125593 -0.052022 0.003552
vt -2.284927 0.009702
vn 0.125747 0.049601 0.990822
v -0.233036 -0.096527 0.019356
vt -2.284927 0.991182
vn 0.125747 0.049601 0.990822
v -0.113031 -0.075525 0.003552
vt -2.594364 0.009702
vn 0.106232 0.089391 0.990315
v -0.209727 -0.140135 0.019356
vt -2.594364 0.991181
vn 0.106232 0.089391 0.990315
v -0.167452 -0.167452 0.019356
vt -2.903800 0.991181
vn 0.084480 0.136390 0.987047
v -0.096125 -0.096125 0.003552
vt -2.903800 0.009702
vn 0.084480 0.136390 0.987047
v -0.121857 -0.182372 0.019356
vt -3.213235 0.991182
vn 0.082019 0.161375 0.983479
v -0.075525 -0.113031 0.003552
vt -3.213235 0.009702
vn 0.082019 0.161375 0.983479
v -0.052022 -0.125593 0.003552
vt -3.522672 0.009702
vn 0.088554 0.157898 0.983477
v -0.083937 -0.202641 0.019356
vt -3.522672 0.991182
vn 0.088554 0.157898 0.983477
v -0.026521 -0.133329 0.003552
vt -3.832109 0.009702
vn 0.058941 0.149689 0.986975
v -0.046187 -0.232199 0.019356
vt -3.832109 0.991182
vn 0.058941 0.149689 0.986975
v -0.000000 -0.135941 0.003552
vt -4.141544 0.009702
vn 0.013117 0.145385 0.989288
v -0.000000 -0.243746 0.019356
vt -4.141544 0.991182
vn 0.013117 0.145385 0.989288
v 0.026521 -0.133329 0.003552
vt -4.450982 0.009702
vn -0.019046 0.137248 0.990354
v 0.048723 -0.244945 0.019356
vt -4.450982 0.991181
vn -0.019046 0.137248 0.990354
# Faces (1 to 66)
f -64/-64/-64 -65/-65/-65 -66/-66/-66
f -65/-65/-65 -64/-64/-64 -63/-63/-63
f -66/-66/-66 -62/-62/-62 -64/-64/-64
f -62/-62/-62 -66/-66/-66 -61/-61/-61
f -62/-62/-62 -61/-61/-61 -60/-60/-60
f -60/-60/-60 -59/-59/-59 -62/-62/-62
f -59/-59/-59 -60/-60/-60 -58/-58/-58
f -58/-58/-58 -57/-57/-57 -59/-59/-59
f -56/-56/-56 -57/-57/-57 -58/-58/-58
f -58/-58/-58 -55/-55/-55 -56/-56/-56
f -54/-54/-54 -56/-56/-56 -55/-55/-55
f -54/-54/-54 -55/-55/-55 -53/-53/-53
f -52/-52/-52 -54/-54/-54 -53/-53/-53
f -53/-53/-53 -51/-51/-51 -52/-52/-52
f -50/-50/-50 -52/-52/-52 -51/-51/-51
f -51/-51/-51 -49/-49/-49 -50/-50/-50
f -48/-48/-48 -50/-50/-50 -49/-49/-49
f -49/-49/-49 -47/-47/-47 -48/-48/-48
f -47/-47/-47 -46/-46/-46 -48/-48/-48
f -45/-45/-45 -46/-46/-46 -47/-47/-47
f -46/-46/-46 -45/-45/-45 -44/-44/-44
f -44/-44/-44 -43/-43/-43 -46/-46/-46
f -43/-43/-43 -44/-44/-44 -42/-42/-42
f -42/-42/-42 -41/-41/-41 -43/-43/-43
f -42/-42/-42 -40/-40/-40 -41/-41/-41
f -40/-40/-40 -42/-42/-42 -39/-39/-39
f -38/-38/-38 -40/-40/-40 -39/-39/-39
f -38/-38/-38 -39/-39/-39 -37/-37/-37
f -36/-36/-36 -38/-38/-38 -37/-37/-37
f -36/-36/-36 -37/-37/-37 -35/-35/-35
f -34/-34/-34 -36/-36/-36 -35/-35/-35
f -34/-34/-34 -35/-35/-35 -33/-33/-33
f -32/-32/-32 -34/-34/-34 -33/-33/-33
f -33/-33/-33 -31/-31/-31 -32/-32/-32
f -32/-32/-32 -31/-31/-31 -30/-30/-30
f -30/-30/-30 -29/-29/-29 -32/-32/-32
f -29/-29/-29 -30/-30/-30 -28/-28/-28
f -28/-28/-28 -27/-27/-27 -29/-29/-29
f -27/-27/-27 -28/-28/-28 -26/-26/-26
f -26/-26/-26 -25/-25/-25 -27/-27/-27
f -25/-25/-25 -26/-26/-26 -24/-24/-24
f -24/-24/-24 -23/-23/-23 -25/-25/-25
f -24/-24/-24 -22/-22/-22 -23/-23/-23
f -21/-21/-21 -22/-22/-22 -24/-24/-24
f -21/-21/-21 -20/-20/-20 -22/-22/-22
f -20/-20/-20 -21/-21/-21 -19/-19/-19
f -19/-19/-19 -18/-18/-18 -20/-20/-20
f -18/-18/-18 -19/-19/-19 -17/-17/-17
f -16/-16/-16 -18/-18/-18 -17/-17/-17
f -16/-16/-16 -17/-17/-17 -15/-15/-15
f -14/-14/-14 -16/-16/-16 -15/-15/-15
f -14/-14/-14 -15/-15/-15 -13/-13/-13
f -14/-14/-14 -13/-13/-13 -12/-12/-12
f -12/-12/-12 -11/-11/-11 -14/-14/-14
f -11/-11/-11 -12/-12/-12 -10/-10/-10
f -10/-10/-10 -9/-9/-9 -11/-11/-11
f -8/-8/-8 -9/-9/-9 -10/-10/-10
f -10/-10/-10 -7/-7/-7 -8/-8/-8
f -6/-6/-6 -8/-8/-8 -7/-7/-7
f -7/-7/-7 -5/-5/-5 -6/-6/-6
f -5/-5/-5 -4/-4/-4 -6/-6/-6
f -5/-5/-5 -3/-3/-3 -4/-4/-4
f -3/-3/-3 -2/-2/-2 -4/-4/-4
f -1/-1/-1 -2/-2/-2 -3/-3/-3

