# Mesh "mesh_slash_thin" exported with raY asset explorer
g mesh_slash_thin
# SubMesh 0
# Vertices
v -0.241934 0.097155 0.000000
vt -1.975491 0.043077
vn -0.114397 0.457751 -0.881690
v -0.240898 0.113315 0.011272
vt -1.666055 0.078830
vn -0.054515 0.239582 -0.969344
v -0.276717 0.096803 0.000000
vt -1.666055 0.026621
vn 0.239377 0.178566 -0.954365
v -0.240898 0.113315 0.011272
vt -1.666055 0.078830
vn -0.054515 0.239582 -0.969344
v -0.219458 0.096232 0.000000
vt -1.975491 0.965607
vn -0.219722 0.330011 -0.918050
v -0.215246 0.114923 0.000000
vt -1.666055 0.965607
vn -0.311511 0.275682 -0.909374
v -0.212331 0.166258 0.011272
vt -1.356618 0.078830
vn 0.029889 -0.038207 -0.998823
v -0.224017 0.179504 0.000000
vt -1.356618 0.026621
vn 0.410144 -0.325661 -0.851896
v -0.276717 0.096803 0.000000
vt -1.666055 0.026621
vn 0.239377 0.178566 -0.954365
v -0.175518 0.203679 0.011272
vt -1.047182 0.078830
vn 0.028931 -0.057543 -0.997924
v -0.177052 0.225149 0.000000
vt -1.047182 0.026621
vn 0.341512 -0.424544 -0.838529
v -0.132112 0.233199 0.011272
vt -0.737746 0.078830
vn 0.006387 -0.058179 -0.998286
v -0.130418 0.253516 0.000000
vt -0.737746 0.026621
vn 0.248118 -0.486051 -0.837969
v -0.083782 0.253684 0.011272
vt -0.428309 0.078830
vn -0.008726 -0.052131 -0.998602
v -0.079147 0.272241 0.000000
vt -0.428309 0.026621
vn 0.152768 -0.541170 -0.826920
v -0.032383 0.264346 0.011272
vt -0.118873 0.078830
vn -0.021429 -0.043825 -0.998809
v -0.025207 0.280603 0.000000
vt -0.118873 0.026621
vn 0.045788 -0.583491 -0.810827
v 0.020108 0.264776 0.011272
vt 0.190563 0.078830
vn -0.031796 -0.034379 -0.998903
v 0.029327 0.278282 0.000000
vt 0.190563 0.026621
vn -0.072634 -0.610369 -0.788780
v 0.071674 0.254957 0.011272
vt 0.500000 0.131533
vn -0.040508 -0.025004 -0.998866
v 0.082361 0.265366 -0.000000
vt 0.500000 0.079324
vn -0.201536 -0.618277 -0.759682
v 0.120334 0.235267 0.011272
vt 0.809436 0.214730
vn -0.049022 -0.016696 -0.998658
v 0.131856 0.242352 0.000000
vt 0.809436 0.162521
vn -0.338551 -0.602929 -0.722399
v 0.164217 0.206462 0.011272
vt 1.118873 0.344186
vn -0.059517 -0.009734 -0.998180
v 0.175910 0.210124 0.000000
vt 1.118873 0.291977
vn -0.479178 -0.559739 -0.676078
v 0.201638 0.169650 0.011272
vt 1.428309 0.475368
vn -0.074396 -0.003107 -0.997224
v 0.212830 0.169921 0.000000
vt 1.428309 0.423159
vn -0.616222 -0.484797 -0.620679
v 0.231158 0.126244 0.011272
vt 1.737746 0.613915
vn -0.095285 0.005736 -0.995434
v 0.241198 0.123288 0.000000
vt 1.737746 0.561705
vn -0.739874 -0.376369 -0.557614
v 0.251642 0.077913 0.011272
vt 2.047182 0.755914
vn -0.121839 0.020405 -0.992340
v 0.259923 0.072016 0.000000
vt 2.047182 0.703704
vn -0.838910 -0.236422 -0.490239
v 0.262305 0.026515 0.011272
vt 2.356618 0.862712
vn -0.151040 0.044283 -0.987535
v 0.268285 0.018077 0.000000
vt 2.356618 0.810502
vn -0.902936 -0.071372 -0.423807
v 0.262735 -0.025976 0.011272
vt 2.666054 0.929753
vn -0.177539 0.078965 -0.980941
v 0.265964 -0.036458 0.000000
vt 2.666054 0.877543
vn -0.924776 0.108648 -0.364672
v 0.252916 -0.077542 0.011272
vt 2.975492 0.951114
vn -0.189328 0.099214 -0.976889
v 0.253047 -0.089492 0.000000
vt 2.975492 0.898904
vn -0.920298 0.200028 -0.336214
v 0.137757 0.210220 0.000000
vt 1.118873 0.965607
vn 0.394449 0.545523 -0.739469
v 0.176192 0.180284 -0.000000
vt 1.428309 0.965607
vn 0.516394 0.480128 -0.709094
v 0.208048 0.143424 0.000000
vt 1.737746 0.965607
vn 0.619943 0.382975 -0.684836
v 0.232101 0.101058 0.000000
vt 2.047182 0.965607
vn 0.695048 0.259854 -0.670361
v 0.247427 0.054813 0.000000
vt 2.356618 0.965607
vn 0.734343 0.120161 -0.668059
v 0.253436 0.006467 0.000000
vt 2.666054 0.965607
vn 0.734351 -0.024534 -0.678327
v 0.249898 -0.042122 0.000000
vt 2.975492 0.965607
vn 0.722441 -0.096344 -0.684687
v 0.094220 0.232083 0.000000
vt 0.809436 0.965607
vn 0.265045 0.577660 -0.772050
v 0.047254 0.245032 -0.000000
vt 0.500000 0.965607
vn 0.138082 0.578948 -0.803587
v -0.001335 0.248570 0.000000
vt 0.190563 0.965607
vn 0.021031 0.554432 -0.831963
v -0.049681 0.242560 0.000000
vt -0.118873 0.965607
vn -0.081536 0.510201 -0.856182
v -0.095925 0.227235 0.000000
vt -0.428309 0.965607
vn -0.167600 0.452114 -0.876073
v -0.138292 0.203182 0.000000
vt -0.737746 0.965607
vn -0.236961 0.385075 -0.891945
v -0.175151 0.171326 0.000000
vt -1.047182 0.965607
vn -0.290764 0.323879 -0.900310
v -0.198055 0.145811 0.000000
vt -1.356618 0.965607
vn -0.357446 0.258477 -0.897453
v -0.241934 0.097155 0.000000
vt -1.975491 0.043077
vn -0.114684 0.457473 0.881797
v -0.276717 0.096803 0.000000
vt -1.666055 0.026621
vn 0.238346 0.178494 0.954637
v -0.240654 0.113374 -0.011272
vt -1.666055 0.078830
vn -0.055540 0.239782 0.969237
v -0.219458 0.096232 0.000000
vt -1.975491 0.965607
vn -0.220335 0.330931 0.917571
v -0.240654 0.113374 -0.011272
vt -1.666055 0.078830
vn -0.055540 0.239782 0.969237
v -0.215246 0.114923 0.000000
vt -1.666055 0.965607
vn -0.312716 0.276132 0.908823
v -0.212331 0.166258 -0.011272
vt -1.356618 0.078830
vn 0.028981 -0.037791 0.998865
v -0.224017 0.179504 0.000000
vt -1.356618 0.026621
vn 0.409446 -0.324917 0.852516
v -0.276717 0.096803 0.000000
vt -1.666055 0.026621
vn 0.238346 0.178494 0.954637
v -0.175518 0.203679 -0.011272
vt -1.047182 0.078830
vn 0.028932 -0.057543 0.997924
v -0.177052 0.225149 0.000000
vt -1.047182 0.026621
vn 0.341512 -0.424544 0.838529
v -0.132112 0.233199 -0.011272
vt -0.737746 0.078830
vn 0.006387 -0.058179 0.998286
v -0.130418 0.253516 0.000000
vt -0.737746 0.026621
vn 0.248118 -0.486051 0.837969
v -0.083782 0.253684 -0.011272
vt -0.428309 0.078830
vn -0.008726 -0.052131 0.998602
v -0.079147 0.272241 0.000000
vt -0.428309 0.026621
vn 0.152768 -0.541170 0.826920
v -0.032383 0.264346 -0.011272
vt -0.118873 0.078830
vn -0.021429 -0.043825 0.998809
v -0.025207 0.280603 0.000000
vt -0.118873 0.026621
vn 0.045788 -0.583491 0.810828
v 0.020108 0.264776 -0.011272
vt 0.190563 0.078830
vn -0.031796 -0.034379 0.998903
v 0.029327 0.278282 0.000000
vt 0.190563 0.026621
vn -0.072634 -0.610368 0.788781
v 0.071674 0.254957 -0.011272
vt 0.500000 0.131533
vn -0.040508 -0.025003 0.998866
v 0.082361 0.265366 -0.000000
vt 0.500000 0.079324
vn -0.201536 -0.618276 0.759683
v 0.120334 0.235267 -0.011272
vt 0.809436 0.214730
vn -0.049022 -0.016696 0.998658
v 0.131856 0.242352 0.000000
vt 0.809436 0.162521
vn -0.338551 -0.602929 0.722399
v 0.164217 0.206462 -0.011272
vt 1.118873 0.344186
vn -0.059517 -0.009734 0.998180
v 0.175910 0.210124 0.000000
vt 1.118873 0.291977
vn -0.479178 -0.559738 0.676078
v 0.201638 0.169650 -0.011272
vt 1.428309 0.475368
vn -0.074397 -0.003107 0.997224
v 0.212830 0.169921 0.000000
vt 1.428309 0.423159
vn -0.616222 -0.484797 0.620679
v 0.231158 0.126244 -0.011272
vt 1.737746 0.613915
vn -0.095284 0.005737 0.995434
v 0.241198 0.123288 0.000000
vt 1.737746 0.561705
vn -0.739874 -0.376369 0.557614
v 0.251642 0.077913 -0.011272
vt 2.047182 0.755914
vn -0.121839 0.020405 0.992340
v 0.259923 0.072016 0.000000
vt 2.047182 0.703704
vn -0.838910 -0.236422 0.490239
v 0.262305 0.026515 -0.011272
vt 2.356618 0.862712
vn -0.151040 0.044283 0.987535
v 0.268285 0.018077 0.000000
vt 2.356618 0.810502
vn -0.902936 -0.071372 0.423807
v 0.262735 -0.025976 -0.011272
vt 2.666054 0.929753
vn -0.177539 0.078965 0.980941
v 0.265964 -0.036458 0.000000
vt 2.666054 0.877543
vn -0.924776 0.108648 0.364672
v 0.252916 -0.077542 -0.011272
vt 2.975492 0.951114
vn -0.189328 0.099214 0.976889
v 0.253047 -0.089492 0.000000
vt 2.975492 0.898904
vn -0.920298 0.200028 0.336214
v 0.137757 0.210220 0.000000
vt 1.118873 0.965607
vn 0.394449 0.545523 0.739470
v 0.094220 0.232083 0.000000
vt 0.809436 0.965607
vn 0.265045 0.577660 0.772049
v 0.047254 0.245032 -0.000000
vt 0.500000 0.965607
vn 0.138082 0.578948 0.803587
v -0.001335 0.248570 0.000000
vt 0.190563 0.965607
vn 0.021031 0.554432 0.831963
v -0.049681 0.242560 0.000000
vt -0.118873 0.965607
vn -0.081536 0.510201 0.856182
v -0.095925 0.227235 0.000000
vt -0.428309 0.965607
vn -0.167600 0.452114 0.876073
v -0.138292 0.203182 0.000000
vt -0.737746 0.965607
vn -0.236961 0.385075 0.891945
v -0.175151 0.171326 0.000000
vt -1.047182 0.965607
vn -0.290764 0.323879 0.900311
v -0.198055 0.145811 0.000000
vt -1.356618 0.965607
vn -0.358329 0.258453 0.897108
v 0.176192 0.180284 -0.000000
vt 1.428309 0.965607
vn 0.516394 0.480128 0.709094
v 0.208048 0.143424 0.000000
vt 1.737746 0.965607
vn 0.619943 0.382975 0.684836
v 0.232101 0.101058 0.000000
vt 2.047182 0.965607
vn 0.695048 0.259854 0.670361
v 0.247427 0.054813 0.000000
vt 2.356618 0.965607
vn 0.734343 0.120161 0.668058
v 0.253436 0.006467 0.000000
vt 2.666054 0.965607
vn 0.734351 -0.024534 0.678327
v 0.249898 -0.042122 0.000000
vt 2.975492 0.965607
vn 0.722441 -0.096344 0.684687
# Faces (1 to 104)
f -102/-102/-102 -103/-103/-103 -104/-104/-104
f -100/-100/-100 -104/-104/-104 -101/-101/-101
f -101/-101/-101 -99/-99/-99 -100/-100/-100
f -99/-99/-99 -101/-101/-101 -98/-98/-98
f -97/-97/-97 -98/-98/-98 -101/-101/-101
f -101/-101/-101 -96/-96/-96 -97/-97/-97
f -95/-95/-95 -98/-98/-98 -97/-97/-97
f -97/-97/-97 -94/-94/-94 -95/-95/-95
f -95/-95/-95 -94/-94/-94 -93/-93/-93
f -94/-94/-94 -92/-92/-92 -93/-93/-93
f -93/-93/-93 -92/-92/-92 -91/-91/-91
f -90/-90/-90 -91/-91/-91 -92/-92/-92
f -91/-91/-91 -90/-90/-90 -89/-89/-89
f -88/-88/-88 -89/-89/-89 -90/-90/-90
f -89/-89/-89 -88/-88/-88 -87/-87/-87
f -86/-86/-86 -87/-87/-87 -88/-88/-88
f -87/-87/-87 -86/-86/-86 -85/-85/-85
f -84/-84/-84 -85/-85/-85 -86/-86/-86
f -85/-85/-85 -84/-84/-84 -83/-83/-83
f -82/-82/-82 -83/-83/-83 -84/-84/-84
f -83/-83/-83 -82/-82/-82 -81/-81/-81
f -80/-80/-80 -81/-81/-81 -82/-82/-82
f -81/-81/-81 -80/-80/-80 -79/-79/-79
f -78/-78/-78 -79/-79/-79 -80/-80/-80
f -79/-79/-79 -78/-78/-78 -77/-77/-77
f -76/-76/-76 -77/-77/-77 -78/-78/-78
f -77/-77/-77 -76/-76/-76 -75/-75/-75
f -74/-74/-74 -75/-75/-75 -76/-76/-76
f -75/-75/-75 -74/-74/-74 -73/-73/-73
f -72/-72/-72 -73/-73/-73 -74/-74/-74
f -73/-73/-73 -72/-72/-72 -71/-71/-71
f -70/-70/-70 -71/-71/-71 -72/-72/-72
f -71/-71/-71 -70/-70/-70 -69/-69/-69
f -68/-68/-68 -69/-69/-69 -70/-70/-70
f -81/-81/-81 -67/-67/-67 -83/-83/-83
f -79/-79/-79 -66/-66/-66 -81/-81/-81
f -66/-66/-66 -67/-67/-67 -81/-81/-81
f -77/-77/-77 -65/-65/-65 -79/-79/-79
f -65/-65/-65 -66/-66/-66 -79/-79/-79
f -65/-65/-65 -77/-77/-77 -64/-64/-64
f -75/-75/-75 -64/-64/-64 -77/-77/-77
f -64/-64/-64 -75/-75/-75 -63/-63/-63
f -73/-73/-73 -63/-63/-63 -75/-75/-75
f -63/-63/-63 -73/-73/-73 -62/-62/-62
f -71/-71/-71 -62/-62/-62 -73/-73/-73
f -61/-61/-61 -71/-71/-71 -69/-69/-69
f -62/-62/-62 -71/-71/-71 -61/-61/-61
f -60/-60/-60 -83/-83/-83 -67/-67/-67
f -83/-83/-83 -60/-60/-60 -85/-85/-85
f -59/-59/-59 -85/-85/-85 -60/-60/-60
f -85/-85/-85 -59/-59/-59 -87/-87/-87
f -58/-58/-58 -87/-87/-87 -59/-59/-59
f -87/-87/-87 -58/-58/-58 -89/-89/-89
f -57/-57/-57 -89/-89/-89 -58/-58/-58
f -89/-89/-89 -57/-57/-57 -91/-91/-91
f -56/-56/-56 -91/-91/-91 -57/-57/-57
f -91/-91/-91 -56/-56/-56 -93/-93/-93
f -55/-55/-55 -93/-93/-93 -56/-56/-56
f -93/-93/-93 -55/-55/-55 -95/-95/-95
f -54/-54/-54 -95/-95/-95 -55/-55/-55
f -98/-98/-98 -95/-95/-95 -54/-54/-54
f -54/-54/-54 -53/-53/-53 -98/-98/-98
f -98/-98/-98 -53/-53/-53 -99/-99/-99
f -50/-50/-50 -51/-51/-51 -52/-52/-52
f -48/-48/-48 -52/-52/-52 -49/-49/-49
f -49/-49/-49 -47/-47/-47 -48/-48/-48
f -46/-46/-46 -48/-48/-48 -47/-47/-47
f -48/-48/-48 -46/-46/-46 -45/-45/-45
f -45/-45/-45 -44/-44/-44 -48/-48/-48
f -45/-45/-45 -46/-46/-46 -43/-43/-43
f -45/-45/-45 -43/-43/-43 -42/-42/-42
f -41/-41/-41 -42/-42/-42 -43/-43/-43
f -42/-42/-42 -41/-41/-41 -40/-40/-40
f -39/-39/-39 -40/-40/-40 -41/-41/-41
f -40/-40/-40 -39/-39/-39 -38/-38/-38
f -37/-37/-37 -38/-38/-38 -39/-39/-39
f -38/-38/-38 -37/-37/-37 -36/-36/-36
f -35/-35/-35 -36/-36/-36 -37/-37/-37
f -36/-36/-36 -35/-35/-35 -34/-34/-34
f -33/-33/-33 -34/-34/-34 -35/-35/-35
f -34/-34/-34 -33/-33/-33 -32/-32/-32
f -33/-33/-33 -31/-31/-31 -32/-32/-32
f -32/-32/-32 -31/-31/-31 -30/-30/-30
f -30/-30/-30 -31/-31/-31 -29/-29/-29
f -30/-30/-30 -29/-29/-29 -28/-28/-28
f -28/-28/-28 -29/-29/-29 -27/-27/-27
f -28/-28/-28 -27/-27/-27 -26/-26/-26
f -25/-25/-25 -26/-26/-26 -27/-27/-27
f -26/-26/-26 -25/-25/-25 -24/-24/-24
f -23/-23/-23 -24/-24/-24 -25/-25/-25
f -24/-24/-24 -23/-23/-23 -22/-22/-22
f -21/-21/-21 -22/-22/-22 -23/-23/-23
f -22/-22/-22 -21/-21/-21 -20/-20/-20
f -19/-19/-19 -20/-20/-20 -21/-21/-21
f -20/-20/-20 -19/-19/-19 -18/-18/-18
f -17/-17/-17 -18/-18/-18 -19/-19/-19
f -18/-18/-18 -17/-17/-17 -16/-16/-16
f -31/-31/-31 -15/-15/-15 -29/-29/-29
f -15/-15/-15 -31/-31/-31 -14/-14/-14
f -33/-33/-33 -14/-14/-14 -31/-31/-31
f -13/-13/-13 -14/-14/-14 -33/-33/-33
f -35/-35/-35 -13/-13/-13 -33/-33/-33
f -12/-12/-12 -13/-13/-13 -35/-35/-35
f -37/-37/-37 -12/-12/-12 -35/-35/-35
f -12/-12/-12 -37/-37/-37 -11/-11/-11
f -39/-39/-39 -11/-11/-11 -37/-37/-37
f -11/-11/-11 -39/-39/-39 -10/-10/-10
f -41/-41/-41 -10/-10/-10 -39/-39/-39
f -10/-10/-10 -41/-41/-41 -9/-9/-9
f -43/-43/-43 -9/-9/-9 -41/-41/-41
f -9/-9/-9 -43/-43/-43 -8/-8/-8
f -46/-46/-46 -8/-8/-8 -43/-43/-43
f -46/-46/-46 -7/-7/-7 -8/-8/-8
f -47/-47/-47 -7/-7/-7 -46/-46/-46
f -6/-6/-6 -29/-29/-29 -15/-15/-15
f -6/-6/-6 -27/-27/-27 -29/-29/-29
f -5/-5/-5 -27/-27/-27 -6/-6/-6
f -27/-27/-27 -5/-5/-5 -25/-25/-25
f -4/-4/-4 -25/-25/-25 -5/-5/-5
f -25/-25/-25 -4/-4/-4 -23/-23/-23
f -3/-3/-3 -23/-23/-23 -4/-4/-4
f -23/-23/-23 -3/-3/-3 -21/-21/-21
f -2/-2/-2 -21/-21/-21 -3/-3/-3
f -21/-21/-21 -2/-2/-2 -19/-19/-19
f -1/-1/-1 -19/-19/-19 -2/-2/-2
f -19/-19/-19 -1/-1/-1 -17/-17/-17

