# Mesh "mesh_screen_glow" exported with raY asset explorer
g mesh_screen_glow
# SubMesh 0
# Vertices
v 0.276305 0.054960 -0.000000
vt 0.000330 0.089482
vn 0.004303 0.000856 0.999990
v 0.142169 0.028279 0.000600
vt 0.000330 0.942419
vn 0.004303 0.000856 0.999990
v 0.133921 0.055472 0.000600
vt 0.031559 0.942419
vn 0.004054 0.001679 0.999990
v 0.260274 0.107809 -0.000000
vt 0.031559 0.089482
vn 0.004054 0.001679 0.999990
v 0.234241 0.156514 -0.000000
vt 0.062789 0.089482
vn 0.003648 0.002438 0.999990
v 0.120525 0.080532 0.000600
vt 0.062789 0.942419
vn 0.003648 0.002438 0.999990
v 0.102498 0.102498 0.000600
vt 0.094018 0.942419
vn 0.003103 0.003103 0.999990
v 0.199205 0.199205 -0.000000
vt 0.094018 0.089482
vn 0.003103 0.003103 0.999990
v 0.080532 0.120525 0.000600
vt 0.125247 0.942419
vn 0.002438 0.003648 0.999990
v 0.156515 0.234240 -0.000000
vt 0.125247 0.089482
vn 0.002438 0.003648 0.999990
v 0.055472 0.133920 0.000600
vt 0.156477 0.942419
vn 0.001679 0.004054 0.999990
v 0.107809 0.260274 -0.000000
vt 0.156477 0.089482
vn 0.001679 0.004054 0.999990
v 0.028279 0.142169 0.000600
vt 0.187706 0.942419
vn 0.000856 0.004303 0.999990
v 0.054961 0.276306 -0.000000
vt 0.187706 0.089482
vn 0.000856 0.004303 0.999990
v 0.000000 0.144954 0.000600
vt 0.218936 0.942419
vn -0.000000 0.004388 0.999990
v 0.000000 0.281719 -0.000000
vt 0.218936 0.089482
vn -0.000000 0.004388 0.999990
v -0.054960 0.276306 -0.000000
vt 0.250165 0.089482
vn -0.000856 0.004303 0.999990
v -0.028279 0.142169 0.000600
vt 0.250165 0.942419
vn -0.000856 0.004303 0.999990
v -0.055472 0.133920 0.000600
vt 0.281394 0.942419
vn -0.001679 0.004054 0.999990
v -0.107809 0.260274 -0.000000
vt 0.281394 0.089482
vn -0.001679 0.004054 0.999990
v -0.080532 0.120525 0.000600
vt 0.312624 0.942419
vn -0.002438 0.003648 0.999990
v -0.156514 0.234241 -0.000000
vt 0.312624 0.089482
vn -0.002438 0.003648 0.999990
v -0.102498 0.102498 0.000600
vt 0.343853 0.942419
vn -0.003103 0.003103 0.999990
v -0.199205 0.199205 -0.000000
vt 0.343853 0.089482
vn -0.003103 0.003103 0.999990
v -0.120525 0.080532 0.000600
vt 0.375082 0.942419
vn -0.003648 0.002438 0.999990
v -0.234241 0.156515 -0.000000
vt 0.375082 0.089482
vn -0.003648 0.002438 0.999990
v -0.260274 0.107809 -0.000000
vt 0.406312 0.089482
vn -0.004054 0.001679 0.999990
v -0.133920 0.055472 0.000600
vt 0.406312 0.942419
vn -0.004054 0.001679 0.999990
v -0.276306 0.054961 -0.000000
vt 0.437541 0.089482
vn -0.004303 0.000856 0.999990
v -0.142169 0.028279 0.000600
vt 0.437541 0.942419
vn -0.004303 0.000856 0.999990
v -0.144954 0.000000 0.000600
vt 0.468771 0.942419
vn -0.004388 0.000000 0.999990
v -0.281719 0.000000 -0.000000
vt 0.468771 0.089482
vn -0.004388 0.000000 0.999990
v -0.276306 -0.054961 0.000000
vt 0.500000 0.089482
vn -0.004303 -0.000856 0.999990
v -0.142169 -0.028279 0.000600
vt 0.500000 0.942419
vn -0.004303 -0.000856 0.999990
v -0.133921 -0.055472 0.000600
vt 0.531229 0.942419
vn -0.004054 -0.001679 0.999990
v -0.260274 -0.107809 0.000000
vt 0.531229 0.089482
vn -0.004054 -0.001679 0.999990
v -0.234241 -0.156515 0.000000
vt 0.562459 0.089482
vn -0.003648 -0.002438 0.999990
v -0.120525 -0.080532 0.000600
vt 0.562459 0.942419
vn -0.003648 -0.002438 0.999990
v -0.199205 -0.199205 0.000000
vt 0.593688 0.089482
vn -0.003103 -0.003103 0.999990
v -0.102498 -0.102498 0.000600
vt 0.593688 0.942419
vn -0.003103 -0.003103 0.999990
v -0.080532 -0.120525 0.000600
vt 0.624918 0.942419
vn -0.002438 -0.003648 0.999990
v -0.156515 -0.234241 0.000000
vt 0.624918 0.089482
vn -0.002438 -0.003648 0.999990
v -0.107809 -0.260274 0.000000
vt 0.656147 0.089482
vn -0.001679 -0.004054 0.999990
v -0.055472 -0.133921 0.000600
vt 0.656147 0.942419
vn -0.001679 -0.004054 0.999990
v -0.054961 -0.276306 0.000000
vt 0.687376 0.089482
vn -0.000856 -0.004303 0.999990
v -0.028279 -0.142169 0.000600
vt 0.687376 0.942419
vn -0.000856 -0.004303 0.999990
v 0.000000 -0.144955 0.000600
vt 0.718606 0.942419
vn -0.000000 -0.004388 0.999990
v -0.000000 -0.281719 0.000000
vt 0.718606 0.089482
vn -0.000000 -0.004388 0.999990
v 0.054961 -0.276306 0.000000
vt 0.749835 0.089482
vn 0.000856 -0.004303 0.999990
v 0.028279 -0.142169 0.000600
vt 0.749835 0.942419
vn 0.000856 -0.004303 0.999990
v 0.055472 -0.133921 0.000600
vt 0.781065 0.942419
vn 0.001679 -0.004054 0.999990
v 0.107809 -0.260274 0.000000
vt 0.781065 0.089482
vn 0.001679 -0.004054 0.999990
v 0.156515 -0.234241 0.000000
vt 0.812294 0.089482
vn 0.002438 -0.003648 0.999990
v 0.080532 -0.120525 0.000600
vt 0.812294 0.942419
vn 0.002438 -0.003648 0.999990
v 0.199205 -0.199205 0.000000
vt 0.843523 0.089482
vn 0.003103 -0.003103 0.999990
v 0.102498 -0.102498 0.000600
vt 0.843523 0.942419
vn 0.003103 -0.003103 0.999990
v 0.120525 -0.080533 0.000600
vt 0.874753 0.942419
vn 0.003648 -0.002438 0.999990
v 0.234241 -0.156515 0.000000
vt 0.874753 0.089482
vn 0.003648 -0.002438 0.999990
v 0.133921 -0.055472 0.000600
vt 0.905982 0.942419
vn 0.004054 -0.001679 0.999990
v 0.260274 -0.107809 0.000000
vt 0.905982 0.089482
vn 0.004054 -0.001679 0.999990
v 0.276306 -0.054961 0.000000
vt 0.937211 0.089482
vn 0.004303 -0.000856 0.999990
v 0.142169 -0.028279 0.000600
vt 0.937211 0.942419
vn 0.004303 -0.000856 0.999990
v 0.144955 -0.000000 0.000600
vt 0.968441 0.942419
vn 0.004388 0.000000 0.999990
v 0.281719 0.000000 0.000000
vt 0.968441 0.089482
vn 0.004388 0.000000 0.999990
v 0.276305 0.054960 -0.000000
vt 0.999670 0.089482
vn 0.004303 0.000856 0.999990
v 0.142169 0.028279 0.000600
vt 0.999670 0.942419
vn 0.004303 0.000856 0.999990
v 0.260274 0.107809 -0.000000
vt 0.000000 0.089689
vn -0.000000 0.000000 1.000000
v 0.566357 0.800000 0.000000
vt 0.500000 0.078713
vn -0.000000 0.000000 1.000000
v 0.276305 0.054960 -0.000000
vt 1.000000 0.089689
vn -0.000000 0.000000 1.000000
v 0.234241 0.156514 -0.000000
vt 0.000000 0.089689
vn -0.000000 0.000000 1.000000
v 0.260274 0.107809 -0.000000
vt 1.000000 0.089689
vn -0.000000 0.000000 1.000000
v 0.199205 0.199205 -0.000000
vt 0.000000 0.089689
vn -0.000000 0.000000 1.000000
v 0.234241 0.156514 -0.000000
vt 1.000000 0.089689
vn -0.000000 0.000000 1.000000
v 0.156515 0.234240 -0.000000
vt 0.000000 0.089689
vn -0.000000 0.000000 1.000000
v 0.199205 0.199205 -0.000000
vt 1.000000 0.089689
vn -0.000000 0.000000 1.000000
v 0.107809 0.260274 -0.000000
vt 0.000000 0.089689
vn -0.000000 0.000000 1.000000
v 0.156515 0.234240 -0.000000
vt 1.000000 0.089689
vn -0.000000 0.000000 1.000000
v 0.054961 0.276306 -0.000000
vt 0.000000 0.089689
vn -0.000000 0.000000 1.000000
v 0.107809 0.260274 -0.000000
vt 1.000000 0.089689
vn -0.000000 0.000000 1.000000
v 0.001408 0.800000 -0.000000
vt 0.000000 0.078713
vn -0.000000 0.000000 1.000000
v 0.566357 0.800000 0.000000
vt 1.000000 0.078713
vn -0.000000 0.000000 1.000000
v 0.054961 0.276306 -0.000000
vt 1.000000 0.089689
vn -0.000000 0.000000 1.000000
v 0.000000 0.281719 -0.000000
vt 0.000000 0.089689
vn -0.000000 0.000000 1.000000
v -0.566357 0.800000 0.000000
vt 0.000000 0.078713
vn -0.000000 0.000000 1.000000
v 0.001408 0.800000 -0.000000
vt 1.000000 0.078713
vn -0.000000 0.000000 1.000000
v -0.054960 0.276306 -0.000000
vt 0.000000 0.089689
vn -0.000000 0.000000 1.000000
v 0.000000 0.281719 -0.000000
vt 1.000000 0.089689
vn -0.000000 0.000000 1.000000
v -0.107809 0.260274 -0.000000
vt 0.000000 0.089689
vn -0.000000 0.000000 1.000000
v -0.566357 0.800000 0.000000
vt 0.500000 0.078713
vn -0.000000 0.000000 1.000000
v -0.054960 0.276306 -0.000000
vt 1.000000 0.089689
vn -0.000000 0.000000 1.000000
v -0.156514 0.234241 -0.000000
vt 0.000000 0.089689
vn -0.000000 0.000000 1.000000
v -0.107809 0.260274 -0.000000
vt 1.000000 0.089689
vn -0.000000 0.000000 1.000000
v -0.199205 0.199205 -0.000000
vt 0.000000 0.089689
vn -0.000000 0.000000 1.000000
v -0.156514 0.234241 -0.000000
vt 1.000000 0.089689
vn -0.000000 0.000000 1.000000
v -0.234241 0.156515 -0.000000
vt 0.000000 0.089689
vn -0.000000 0.000000 1.000000
v -0.199205 0.199205 -0.000000
vt 1.000000 0.089689
vn -0.000000 0.000000 1.000000
v -0.260274 0.107809 -0.000000
vt 0.000000 0.089689
vn -0.000000 0.000000 1.000000
v -0.234241 0.156515 -0.000000
vt 1.000000 0.089689
vn -0.000000 0.000000 1.000000
v -0.276306 0.054961 -0.000000
vt 0.000000 0.089689
vn -0.000000 0.000000 1.000000
v -0.260274 0.107809 -0.000000
vt 1.000000 0.089689
vn -0.000000 0.000000 1.000000
v -0.566357 -0.000513 0.000000
vt 0.000000 0.078713
vn -0.000000 0.000000 1.000000
v -0.276306 0.054961 -0.000000
vt 1.000000 0.089689
vn -0.000000 0.000000 1.000000
v -0.281719 0.000000 -0.000000
vt 0.000000 0.089689
vn -0.000000 0.000000 1.000000
v -0.566357 0.800000 0.000000
vt 1.000000 0.078713
vn -0.000000 0.000000 1.000000
v -0.566357 -0.000513 0.000000
vt 1.000000 0.078713
vn -0.000000 0.000000 1.000000
v -0.281719 0.000000 -0.000000
vt 1.000000 0.089689
vn -0.000000 0.000000 1.000000
v -0.276306 -0.054961 0.000000
vt 0.000000 0.089689
vn -0.000000 0.000000 1.000000
v -0.566357 -0.800000 0.000000
vt 0.000000 0.078713
vn -0.000000 0.000000 1.000000
v -0.260274 -0.107809 0.000000
vt 0.000000 0.089689
vn -0.000000 0.000000 1.000000
v -0.566357 -0.800000 0.000000
vt 0.500000 0.078713
vn -0.000000 0.000000 1.000000
v -0.276306 -0.054961 0.000000
vt 1.000000 0.089689
vn -0.000000 0.000000 1.000000
v -0.234241 -0.156515 0.000000
vt 0.000000 0.089689
vn -0.000000 0.000000 1.000000
v -0.260274 -0.107809 0.000000
vt 1.000000 0.089689
vn -0.000000 0.000000 1.000000
v -0.199205 -0.199205 0.000000
vt 0.000000 0.089689
vn -0.000000 0.000000 1.000000
v -0.234241 -0.156515 0.000000
vt 1.000000 0.089689
vn -0.000000 0.000000 1.000000
v -0.156515 -0.234241 0.000000
vt 0.000000 0.089689
vn -0.000000 0.000000 1.000000
v -0.199205 -0.199205 0.000000
vt 1.000000 0.089689
vn -0.000000 0.000000 1.000000
v -0.107809 -0.260274 0.000000
vt 0.000000 0.089689
vn -0.000000 0.000000 1.000000
v -0.156515 -0.234241 0.000000
vt 1.000000 0.089689
vn -0.000000 0.000000 1.000000
v -0.054961 -0.276306 0.000000
vt 0.000000 0.089689
vn -0.000000 0.000000 1.000000
v -0.107809 -0.260274 0.000000
vt 1.000000 0.089689
vn -0.000000 0.000000 1.000000
v -0.054961 -0.276306 0.000000
vt 1.000000 0.089689
vn -0.000000 0.000000 1.000000
v -0.000000 -0.281719 0.000000
vt 0.000000 0.089689
vn -0.000000 0.000000 1.000000
v 0.000702 -0.800000 0.000000
vt 0.000000 0.078713
vn -0.000000 0.000000 1.000000
v -0.566357 -0.800000 0.000000
vt 1.000000 0.078713
vn -0.000000 0.000000 1.000000
v -0.000000 -0.281719 0.000000
vt 1.000000 0.089689
vn -0.000000 0.000000 1.000000
v 0.054961 -0.276306 0.000000
vt 0.000000 0.089689
vn -0.000000 0.000000 1.000000
v 0.000702 -0.800000 0.000000
vt 1.000000 0.078713
vn -0.000000 0.000000 1.000000
v 0.566357 -0.800000 0.000000
vt 0.000000 0.078713
vn -0.000000 0.000000 1.000000
v 0.107809 -0.260274 0.000000
vt 0.000000 0.089689
vn -0.000000 0.000000 1.000000
v 0.566357 -0.800000 0.000000
vt 0.500000 0.078713
vn -0.000000 0.000000 1.000000
v 0.054961 -0.276306 0.000000
vt 1.000000 0.089689
vn -0.000000 0.000000 1.000000
v 0.156515 -0.234241 0.000000
vt 0.000000 0.089689
vn -0.000000 0.000000 1.000000
v 0.107809 -0.260274 0.000000
vt 1.000000 0.089689
vn -0.000000 0.000000 1.000000
v 0.199205 -0.199205 0.000000
vt 0.000000 0.089689
vn -0.000000 0.000000 1.000000
v 0.156515 -0.234241 0.000000
vt 1.000000 0.089689
vn -0.000000 0.000000 1.000000
v 0.234241 -0.156515 0.000000
vt 0.000000 0.089689
vn -0.000000 0.000000 1.000000
v 0.199205 -0.199205 0.000000
vt 1.000000 0.089689
vn -0.000000 0.000000 1.000000
v 0.260274 -0.107809 0.000000
vt 0.000000 0.089689
vn -0.000000 0.000000 1.000000
v 0.234241 -0.156515 0.000000
vt 1.000000 0.089689
vn -0.000000 0.000000 1.000000
v 0.276306 -0.054961 0.000000
vt 0.000000 0.089689
vn -0.000000 0.000000 1.000000
v 0.260274 -0.107809 0.000000
vt 1.000000 0.089689
vn -0.000000 0.000000 1.000000
v 0.566357 0.000726 0.000000
vt 0.000000 0.078713
vn -0.000000 0.000000 1.000000
v 0.566357 -0.800000 0.000000
vt 1.000000 0.078713
vn -0.000000 0.000000 1.000000
v 0.276306 -0.054961 0.000000
vt 1.000000 0.089689
vn -0.000000 0.000000 1.000000
v 0.281719 0.000000 0.000000
vt 0.000000 0.089689
vn -0.000000 0.000000 1.000000
v 0.281719 0.000000 0.000000
vt 1.000000 0.089689
vn -0.000000 0.000000 1.000000
v 0.276305 0.054960 -0.000000
vt 0.000000 0.089689
vn -0.000000 0.000000 1.000000
v 0.566357 0.000726 0.000000
vt 1.000000 0.078713
vn -0.000000 0.000000 1.000000
v 0.566357 0.800000 0.000000
vt 0.000000 0.078713
vn -0.000000 0.000000 1.000000
# Faces (1 to 150)
f -148/-148/-148 -149/-149/-149 -150/-150/-150
f -150/-150/-150 -147/-147/-147 -148/-148/-148
f -148/-148/-148 -147/-147/-147 -146/-146/-146
f -146/-146/-146 -145/-145/-145 -148/-148/-148
f -146/-146/-146 -144/-144/-144 -145/-145/-145
f -143/-143/-143 -144/-144/-144 -146/-146/-146
f -143/-143/-143 -142/-142/-142 -144/-144/-144
f -142/-142/-142 -143/-143/-143 -141/-141/-141
f -141/-141/-141 -140/-140/-140 -142/-142/-142
f -140/-140/-140 -141/-141/-141 -139/-139/-139
f -138/-138/-138 -140/-140/-140 -139/-139/-139
f -138/-138/-138 -139/-139/-139 -137/-137/-137
f -136/-136/-136 -138/-138/-138 -137/-137/-137
f -136/-136/-136 -137/-137/-137 -135/-135/-135
f -136/-136/-136 -135/-135/-135 -134/-134/-134
f -134/-134/-134 -133/-133/-133 -136/-136/-136
f -132/-132/-132 -133/-133/-133 -134/-134/-134
f -134/-134/-134 -131/-131/-131 -132/-132/-132
f -130/-130/-130 -132/-132/-132 -131/-131/-131
f -131/-131/-131 -129/-129/-129 -130/-130/-130
f -128/-128/-128 -130/-130/-130 -129/-129/-129
f -129/-129/-129 -127/-127/-127 -128/-128/-128
f -127/-127/-127 -126/-126/-126 -128/-128/-128
f -127/-127/-127 -125/-125/-125 -126/-126/-126
f -126/-126/-126 -125/-125/-125 -124/-124/-124
f -124/-124/-124 -123/-123/-123 -126/-126/-126
f -123/-123/-123 -124/-124/-124 -122/-122/-122
f -122/-122/-122 -121/-121/-121 -123/-123/-123
f -122/-122/-122 -120/-120/-120 -121/-121/-121
f -120/-120/-120 -122/-122/-122 -119/-119/-119
f -120/-120/-120 -119/-119/-119 -118/-118/-118
f -118/-118/-118 -117/-117/-117 -120/-120/-120
f -116/-116/-116 -117/-117/-117 -118/-118/-118
f -116/-116/-116 -118/-118/-118 -115/-115/-115
f -116/-116/-116 -115/-115/-115 -114/-114/-114
f -114/-114/-114 -113/-113/-113 -116/-116/-116
f -113/-113/-113 -114/-114/-114 -112/-112/-112
f -112/-112/-112 -111/-111/-111 -113/-113/-113
f -110/-110/-110 -111/-111/-111 -112/-112/-112
f -112/-112/-112 -109/-109/-109 -110/-110/-110
f -110/-110/-110 -109/-109/-109 -108/-108/-108
f -108/-108/-108 -107/-107/-107 -110/-110/-110
f -107/-107/-107 -108/-108/-108 -106/-106/-106
f -106/-106/-106 -105/-105/-105 -107/-107/-107
f -106/-106/-106 -104/-104/-104 -105/-105/-105
f -106/-106/-106 -103/-103/-103 -104/-104/-104
f -104/-104/-104 -103/-103/-103 -102/-102/-102
f -102/-102/-102 -101/-101/-101 -104/-104/-104
f -102/-102/-102 -100/-100/-100 -101/-101/-101
f -100/-100/-100 -102/-102/-102 -99/-99/-99
f -100/-100/-100 -99/-99/-99 -98/-98/-98
f -98/-98/-98 -97/-97/-97 -100/-100/-100
f -97/-97/-97 -98/-98/-98 -96/-96/-96
f -96/-96/-96 -95/-95/-95 -97/-97/-97
f -94/-94/-94 -95/-95/-95 -96/-96/-96
f -94/-94/-94 -96/-96/-96 -93/-93/-93
f -92/-92/-92 -94/-94/-94 -93/-93/-93
f -93/-93/-93 -91/-91/-91 -92/-92/-92
f -92/-92/-92 -91/-91/-91 -90/-90/-90
f -90/-90/-90 -89/-89/-89 -92/-92/-92
f -88/-88/-88 -89/-89/-89 -90/-90/-90
f -90/-90/-90 -87/-87/-87 -88/-88/-88
f -88/-88/-88 -87/-87/-87 -86/-86/-86
f -86/-86/-86 -85/-85/-85 -88/-88/-88
f -82/-82/-82 -83/-83/-83 -84/-84/-84
f -80/-80/-80 -83/-83/-83 -81/-81/-81
f -78/-78/-78 -83/-83/-83 -79/-79/-79
f -76/-76/-76 -83/-83/-83 -77/-77/-77
f -74/-74/-74 -83/-83/-83 -75/-75/-75
f -72/-72/-72 -83/-83/-83 -73/-73/-73
f -69/-69/-69 -70/-70/-70 -71/-71/-71
f -71/-71/-71 -68/-68/-68 -69/-69/-69
f -65/-65/-65 -66/-66/-66 -67/-67/-67
f -65/-65/-65 -64/-64/-64 -66/-66/-66
f -61/-61/-61 -62/-62/-62 -63/-63/-63
f -59/-59/-59 -62/-62/-62 -60/-60/-60
f -57/-57/-57 -62/-62/-62 -58/-58/-58
f -55/-55/-55 -62/-62/-62 -56/-56/-56
f -53/-53/-53 -62/-62/-62 -54/-54/-54
f -51/-51/-51 -62/-62/-62 -52/-52/-52
f -48/-48/-48 -49/-49/-49 -50/-50/-50
f -47/-47/-47 -50/-50/-50 -49/-49/-49
f -44/-44/-44 -45/-45/-45 -46/-46/-46
f -43/-43/-43 -44/-44/-44 -46/-46/-46
f -40/-40/-40 -41/-41/-41 -42/-42/-42
f -38/-38/-38 -41/-41/-41 -39/-39/-39
f -36/-36/-36 -41/-41/-41 -37/-37/-37
f -34/-34/-34 -41/-41/-41 -35/-35/-35
f -32/-32/-32 -41/-41/-41 -33/-33/-33
f -30/-30/-30 -41/-41/-41 -31/-31/-31
f -27/-27/-27 -28/-28/-28 -29/-29/-29
f -29/-29/-29 -26/-26/-26 -27/-27/-27
f -23/-23/-23 -24/-24/-24 -25/-25/-25
f -23/-23/-23 -22/-22/-22 -24/-24/-24
f -19/-19/-19 -20/-20/-20 -21/-21/-21
f -17/-17/-17 -20/-20/-20 -18/-18/-18
f -15/-15/-15 -20/-20/-20 -16/-16/-16
f -13/-13/-13 -20/-20/-20 -14/-14/-14
f -11/-11/-11 -20/-20/-20 -12/-12/-12
f -9/-9/-9 -20/-20/-20 -10/-10/-10
f -6/-6/-6 -7/-7/-7 -8/-8/-8
f -8/-8/-8 -5/-5/-5 -6/-6/-6
f -2/-2/-2 -3/-3/-3 -4/-4/-4
f -3/-3/-3 -2/-2/-2 -1/-1/-1

