# Mesh "mesh_horn_solid" exported with raY asset explorer
g mesh_horn_solid
# SubMesh 0
# Vertices
v 0.022458 0.022458 -0.100937
vt 0.012172 0.901222
vn 0.670067 0.670064 -0.319413
v 0.022964 0.009512 -0.107819
vt 0.576675 0.897157
vn 0.351132 0.145444 -0.924961
v 0.029343 0.012154 -0.100937
vt 0.012172 0.500419
vn 0.875482 0.362637 -0.319413
v 0.024856 -0.000000 -0.107819
vt 0.981173 0.897157
vn 0.380063 0.000000 -0.924961
v 0.031761 -0.000000 -0.100937
vt 0.012172 0.095921
vn 0.947616 0.000000 -0.319413
v 0.029343 0.012154 -0.100937
vt 0.012172 0.500419
vn 0.875482 0.362637 -0.319413
v 0.022458 0.022458 -0.100937
vt 0.012172 0.901222
vn 0.670067 0.670064 -0.319413
v 0.017576 0.017576 -0.107819
vt 0.175872 0.897157
vn 0.268745 0.268744 -0.924961
v 0.022964 0.009512 -0.107819
vt 0.576675 0.897157
vn 0.351132 0.145444 -0.924961
v 0.009512 0.022964 -0.107819
vt 0.576675 0.897157
vn 0.145444 0.351131 -0.924961
v 0.017576 0.017576 -0.107819
vt 0.175872 0.897158
vn 0.268745 0.268744 -0.924961
v 0.022458 0.022458 -0.100937
vt 0.012172 0.901222
vn 0.670067 0.670064 -0.319413
v 0.022458 0.022458 -0.100937
vt 0.012172 0.901222
vn 0.670067 0.670064 -0.319413
v 0.012154 0.029343 -0.100937
vt 0.012172 0.500419
vn 0.362639 0.875482 -0.319414
v 0.000000 0.031761 -0.100937
vt 0.012172 0.095921
vn 0.000000 0.947615 -0.319414
v 0.000000 0.031761 -0.100937
vt 0.012172 0.095921
vn 0.000000 0.947615 -0.319414
v 0.000000 0.024856 -0.107819
vt 0.981173 0.897157
vn 0.000000 0.380062 -0.924961
v 0.000000 0.024856 -0.107819
vt 0.981173 0.897157
vn 0.000000 0.380062 -0.924961
v -0.012154 0.029343 -0.100937
vt 0.012172 0.500419
vn -0.362637 0.875482 -0.319414
v -0.009512 0.022964 -0.107819
vt 0.576675 0.897157
vn -0.145443 0.351131 -0.924961
v 0.000000 0.031761 -0.100937
vt 0.012172 0.095921
vn 0.000000 0.947615 -0.319414
v -0.012154 0.029343 -0.100937
vt 0.012172 0.500419
vn -0.362637 0.875482 -0.319414
v -0.022458 0.022458 -0.100937
vt 0.012172 0.901222
vn -0.670065 0.670066 -0.319414
v -0.009512 0.022964 -0.107819
vt 0.576675 0.897157
vn -0.145443 0.351131 -0.924961
v -0.022458 0.022458 -0.100937
vt 0.012172 0.901222
vn -0.670065 0.670066 -0.319414
v -0.017576 0.017576 -0.107819
vt 0.175872 0.897157
vn -0.268744 0.268744 -0.924961
v -0.022458 0.022458 -0.100937
vt 0.012172 0.901222
vn -0.670065 0.670066 -0.319414
v -0.029343 0.012154 -0.100937
vt 0.012172 0.500419
vn -0.875481 0.362638 -0.319415
v -0.022964 0.009512 -0.107819
vt 0.576675 0.897157
vn -0.351130 0.145444 -0.924962
v -0.031761 0.000000 -0.100937
vt 0.012172 0.095921
vn -0.947615 0.000000 -0.319415
v -0.024856 0.000000 -0.107819
vt 0.981173 0.897157
vn -0.380060 0.000000 -0.924962
v -0.029343 0.012154 -0.100937
vt 0.012172 0.500419
vn -0.875481 0.362638 -0.319415
v -0.022964 0.009512 -0.107819
vt 0.576675 0.897157
vn -0.351130 0.145444 -0.924962
v -0.017576 0.017576 -0.107819
vt 0.175872 0.897157
vn -0.268744 0.268744 -0.924961
v -0.022458 0.022458 -0.100937
vt 0.012172 0.901222
vn -0.670065 0.670066 -0.319414
v -0.029343 -0.012154 -0.100937
vt 0.012171 0.500419
vn -0.875481 -0.362638 -0.319415
v -0.022964 -0.009512 -0.107819
vt 0.576675 0.897157
vn -0.351130 -0.145444 -0.924961
v -0.024856 0.000000 -0.107819
vt 0.981173 0.897157
vn -0.380060 0.000000 -0.924962
v -0.031761 0.000000 -0.100937
vt 0.012172 0.095921
vn -0.947615 0.000000 -0.319415
v -0.029343 -0.012154 -0.100937
vt 0.012171 0.500419
vn -0.875481 -0.362638 -0.319415
v -0.022458 -0.022458 -0.100937
vt 0.012172 0.901222
vn -0.670066 -0.670065 -0.319414
v -0.022964 -0.009512 -0.107819
vt 0.576675 0.897157
vn -0.351130 -0.145444 -0.924961
v -0.022458 -0.022458 -0.100937
vt 0.012172 0.901222
vn -0.670066 -0.670065 -0.319414
v -0.017576 -0.017576 -0.107819
vt 0.175872 0.897157
vn -0.268745 -0.268744 -0.924961
v -0.022458 -0.022458 -0.100937
vt 0.012172 0.901222
vn -0.670066 -0.670065 -0.319414
v -0.012154 -0.029343 -0.100937
vt 0.012172 0.500419
vn -0.362638 -0.875482 -0.319414
v -0.009512 -0.022964 -0.107819
vt 0.576675 0.897157
vn -0.145444 -0.351131 -0.924961
v 0.000000 -0.031761 -0.100937
vt 0.012172 0.095921
vn 0.000000 -0.947615 -0.319414
v 0.000000 -0.024856 -0.107819
vt 0.981173 0.897157
vn 0.000000 -0.380062 -0.924961
v -0.012154 -0.029343 -0.100937
vt 0.012172 0.500419
vn -0.362638 -0.875482 -0.319414
v -0.009512 -0.022964 -0.107819
vt 0.576675 0.897157
vn -0.145444 -0.351131 -0.924961
v -0.017576 -0.017576 -0.107819
vt 0.175872 0.897157
vn -0.268745 -0.268744 -0.924961
v -0.022458 -0.022458 -0.100937
vt 0.012172 0.901222
vn -0.670066 -0.670065 -0.319414
v 0.012154 -0.029343 -0.100937
vt 0.012172 0.500419
vn 0.362638 -0.875482 -0.319413
v 0.000000 -0.024856 -0.107819
vt 0.981173 0.897157
vn 0.000000 -0.380062 -0.924961
v 0.000000 -0.031761 -0.100937
vt 0.012172 0.095921
vn 0.000000 -0.947615 -0.319414
v 0.012154 -0.029343 -0.100937
vt 0.012172 0.500419
vn 0.362638 -0.875482 -0.319413
v 0.009512 -0.022964 -0.107819
vt 0.576675 0.897157
vn 0.145445 -0.351131 -0.924961
v 0.022458 -0.022458 -0.100937
vt 0.012172 0.901222
vn 0.670066 -0.670065 -0.319413
v 0.022458 -0.022458 -0.100937
vt 0.012172 0.901222
vn 0.670066 -0.670065 -0.319413
v 0.017576 -0.017576 -0.107819
vt 0.175872 0.897157
vn 0.268746 -0.268745 -0.924960
v 0.009512 -0.022964 -0.107819
vt 0.576675 0.897157
vn 0.145445 -0.351131 -0.924961
v 0.022964 -0.009512 -0.107819
vt 0.576675 0.897157
vn 0.351132 -0.145444 -0.924961
v 0.017576 -0.017576 -0.107819
vt 0.175872 0.897157
vn 0.268746 -0.268745 -0.924960
v 0.022458 -0.022458 -0.100937
vt 0.012172 0.901222
vn 0.670066 -0.670065 -0.319413
v 0.022458 -0.022458 -0.100937
vt 0.012172 0.901222
vn 0.670066 -0.670065 -0.319413
v 0.029343 -0.012154 -0.100937
vt 0.012172 0.500419
vn 0.875482 -0.362637 -0.319413
v 0.022964 -0.009512 -0.107819
vt 0.576675 0.897157
vn 0.351132 -0.145444 -0.924961
v 0.024856 -0.000000 -0.107819
vt 0.981173 0.897157
vn 0.380063 0.000000 -0.924961
v 0.029343 -0.012154 -0.100937
vt 0.012172 0.500419
vn 0.875482 -0.362637 -0.319413
v 0.031761 -0.000000 -0.100937
vt 0.012172 0.095921
vn 0.947616 0.000000 -0.319413
v 0.029343 0.012154 -0.100937
vt 0.012172 0.500419
vn 0.875482 0.362637 -0.319413
v 0.000000 0.000000 0.122096
vt 0.694733 0.500419
vn 0.000001 -0.000000 1.000000
v 0.022458 0.022458 -0.100937
vt 0.012172 0.901222
vn 0.670067 0.670064 -0.319413
v 0.031761 -0.000000 -0.100937
vt 0.012172 0.095921
vn 0.947616 0.000000 -0.319413
v -0.022458 0.022458 -0.100937
vt 0.012172 0.901222
vn -0.670065 0.670066 -0.319414
v -0.029343 0.012154 -0.100937
vt 0.012172 0.500419
vn -0.875481 0.362638 -0.319415
v -0.031761 0.000000 -0.100937
vt 0.012172 0.095921
vn -0.947615 0.000000 -0.319415
v -0.022458 -0.022458 -0.100937
vt 0.012172 0.901222
vn -0.670066 -0.670065 -0.319414
v -0.012154 -0.029343 -0.100937
vt 0.012172 0.500419
vn -0.362638 -0.875482 -0.319414
v 0.000000 -0.031761 -0.100937
vt 0.012172 0.095921
vn 0.000000 -0.947615 -0.319414
v 0.000000 -0.031761 -0.100937
vt 0.012172 0.095921
vn 0.000000 -0.947615 -0.319414
v 0.012154 -0.029343 -0.100937
vt 0.012172 0.500419
vn 0.362638 -0.875482 -0.319413
v 0.022458 -0.022458 -0.100937
vt 0.012172 0.901222
vn 0.670066 -0.670065 -0.319413
v 0.022458 0.022458 -0.100937
vt 0.012172 0.901222
vn 0.670067 0.670064 -0.319413
v 0.000000 0.000000 0.122096
vt 0.694733 0.500419
vn 0.000001 -0.000000 1.000000
v 0.012154 0.029343 -0.100937
vt 0.012172 0.500419
vn 0.362639 0.875482 -0.319414
v 0.000000 0.031761 -0.100937
vt 0.012172 0.095921
vn 0.000000 0.947615 -0.319414
v 0.000000 0.031761 -0.100937
vt 0.012172 0.095921
vn 0.000000 0.947615 -0.319414
v -0.012154 0.029343 -0.100937
vt 0.012172 0.500419
vn -0.362637 0.875482 -0.319414
v -0.022458 0.022458 -0.100937
vt 0.012172 0.901222
vn -0.670065 0.670066 -0.319414
v -0.031761 0.000000 -0.100937
vt 0.012172 0.095921
vn -0.947615 0.000000 -0.319415
v -0.029343 -0.012154 -0.100937
vt 0.012172 0.500419
vn -0.875481 -0.362638 -0.319415
v -0.022458 -0.022458 -0.100937
vt 0.012172 0.901222
vn -0.670066 -0.670065 -0.319414
v 0.022458 -0.022458 -0.100937
vt 0.012172 0.901222
vn 0.670066 -0.670065 -0.319413
v 0.029343 -0.012154 -0.100937
vt 0.012172 0.500419
vn 0.875482 -0.362637 -0.319413
v 0.031761 -0.000000 -0.100937
vt 0.012172 0.095921
vn 0.947616 0.000000 -0.319413
v -0.022964 -0.009512 -0.107819
vt 0.591812 0.898412
vn -0.351130 -0.145444 -0.924961
v -0.017576 -0.017576 -0.107819
vt 0.972533 0.898411
vn -0.268745 -0.268744 -0.924961
v 0.000000 0.000000 -0.107819
vt 0.209396 0.108787
vn 0.000000 0.000000 -1.000000
v -0.024856 0.000000 -0.107819
vt 0.209396 0.898412
vn -0.380060 0.000000 -0.924962
v 0.000000 0.000000 -0.107819
vt 0.209396 0.108787
vn 0.000000 0.000000 -1.000000
v 0.017576 0.017576 -0.107819
vt 0.972533 0.898412
vn 0.268745 0.268744 -0.924961
v 0.000000 0.000000 -0.107819
vt 0.209396 0.108786
vn 0.000000 0.000000 -1.000000
v 0.022964 0.009512 -0.107819
vt 0.591812 0.898412
vn 0.351132 0.145444 -0.924961
v 0.000000 0.000000 -0.107819
vt 0.209396 0.108786
vn 0.000000 0.000000 -1.000000
v 0.024856 -0.000000 -0.107819
vt 0.209396 0.898411
vn 0.380063 0.000000 -0.924961
v 0.000000 0.000000 -0.107819
vt 0.209396 0.108787
vn 0.000000 0.000000 -1.000000
v 0.022964 -0.009512 -0.107819
vt 0.591812 0.898412
vn 0.351132 -0.145444 -0.924961
v 0.024856 -0.000000 -0.107819
vt 0.209396 0.898412
vn 0.380063 0.000000 -0.924961
v 0.000000 0.000000 -0.107819
vt 0.209396 0.108787
vn 0.000000 0.000000 -1.000000
v 0.017576 -0.017576 -0.107819
vt 0.972533 0.898412
vn 0.268746 -0.268745 -0.924960
v 0.000000 0.000000 -0.107819
vt 0.209396 0.108787
vn 0.000000 0.000000 -1.000000
v 0.009512 -0.022964 -0.107819
vt 0.591812 0.898412
vn 0.145445 -0.351131 -0.924961
v 0.017576 -0.017576 -0.107819
vt 0.972533 0.898412
vn 0.268746 -0.268745 -0.924960
v 0.000000 0.000000 -0.107819
vt 0.209396 0.108787
vn 0.000000 0.000000 -1.000000
v 0.000000 -0.024856 -0.107819
vt 0.209396 0.898412
vn 0.000000 -0.380062 -0.924961
v 0.000000 0.000000 -0.107819
vt 0.209396 0.108787
vn 0.000000 0.000000 -1.000000
v -0.009512 -0.022964 -0.107819
vt 0.591812 0.898412
vn -0.145444 -0.351131 -0.924961
v 0.000000 -0.024856 -0.107819
vt 0.209396 0.898412
vn 0.000000 -0.380062 -0.924961
v 0.000000 0.000000 -0.107819
vt 0.209396 0.108787
vn 0.000000 0.000000 -1.000000
v -0.017576 -0.017576 -0.107819
vt 0.972533 0.898411
vn -0.268745 -0.268744 -0.924961
v -0.022964 0.009512 -0.107819
vt 0.591812 0.898412
vn -0.351130 0.145444 -0.924962
v -0.024856 0.000000 -0.107819
vt 0.209396 0.898412
vn -0.380060 0.000000 -0.924962
v 0.000000 0.000000 -0.107819
vt 0.209396 0.108787
vn 0.000000 0.000000 -1.000000
v -0.017576 0.017576 -0.107819
vt 0.972533 0.898412
vn -0.268744 0.268744 -0.924961
v 0.000000 0.000000 -0.107819
vt 0.209396 0.108787
vn 0.000000 0.000000 -1.000000
v -0.009512 0.022964 -0.107819
vt 0.591812 0.898412
vn -0.145443 0.351131 -0.924961
v -0.017576 0.017576 -0.107819
vt 0.972533 0.898412
vn -0.268744 0.268744 -0.924961
v 0.000000 0.000000 -0.107819
vt 0.209396 0.108787
vn 0.000000 0.000000 -1.000000
v 0.000000 0.024856 -0.107819
vt 0.209396 0.898412
vn 0.000000 0.380062 -0.924961
v 0.000000 0.000000 -0.107819
vt 0.209396 0.108787
vn 0.000000 0.000000 -1.000000
v 0.009512 0.022964 -0.107819
vt 0.591812 0.898412
vn 0.145444 0.351131 -0.924961
v 0.000000 0.024856 -0.107819
vt 0.209396 0.898412
vn 0.000000 0.380062 -0.924961
v 0.000000 0.000000 -0.107819
vt 0.209396 0.108787
vn 0.000000 0.000000 -1.000000
v 0.017576 0.017576 -0.107819
vt 0.972533 0.898412
vn 0.268745 0.268744 -0.924961
v 0.000000 0.000000 -0.107819
vt 0.209396 0.108787
vn 0.000000 0.000000 -1.000000
# Faces (1 to 137)
f -135/-135/-135 -136/-136/-136 -137/-137/-137
f -133/-133/-133 -134/-134/-134 -135/-135/-135
f -134/-134/-134 -136/-136/-136 -132/-132/-132
f -129/-129/-129 -130/-130/-130 -131/-131/-131
f -126/-126/-126 -127/-127/-127 -128/-128/-128
f -128/-128/-128 -124/-124/-124 -125/-125/-125
f -123/-123/-123 -124/-124/-124 -128/-128/-128
f -128/-128/-128 -121/-121/-121 -122/-122/-122
f -118/-118/-118 -119/-119/-119 -120/-120/-120
f -116/-116/-116 -117/-117/-117 -120/-120/-120
f -116/-116/-116 -118/-118/-118 -115/-115/-115
f -112/-112/-112 -113/-113/-113 -114/-114/-114
f -109/-109/-109 -110/-110/-110 -111/-111/-111
f -107/-107/-107 -108/-108/-108 -110/-110/-110
f -106/-106/-106 -109/-109/-109 -107/-107/-107
f -103/-103/-103 -104/-104/-104 -105/-105/-105
f -100/-100/-100 -101/-101/-101 -102/-102/-102
f -98/-98/-98 -99/-99/-99 -100/-100/-100
f -97/-97/-97 -98/-98/-98 -101/-101/-101
f -94/-94/-94 -95/-95/-95 -96/-96/-96
f -91/-91/-91 -92/-92/-92 -93/-93/-93
f -89/-89/-89 -90/-90/-90 -92/-92/-92
f -88/-88/-88 -91/-91/-91 -89/-89/-89
f -85/-85/-85 -86/-86/-86 -87/-87/-87
f -82/-82/-82 -83/-83/-83 -84/-84/-84
f -83/-83/-83 -80/-80/-80 -81/-81/-81
f -79/-79/-79 -84/-84/-84 -80/-80/-80
f -76/-76/-76 -77/-77/-77 -78/-78/-78
f -73/-73/-73 -74/-74/-74 -75/-75/-75
f -70/-70/-70 -71/-71/-71 -72/-72/-72
f -68/-68/-68 -70/-70/-70 -69/-69/-69
f -69/-69/-69 -67/-67/-67 -71/-71/-71
f -64/-64/-64 -65/-65/-65 -66/-66/-66
f -66/-66/-66 -65/-65/-65 -63/-63/-63
f -61/-61/-61 -65/-65/-65 -62/-62/-62
f -60/-60/-60 -65/-65/-65 -61/-61/-61
f -58/-58/-58 -65/-65/-65 -59/-59/-59
f -57/-57/-57 -65/-65/-65 -58/-58/-58
f -55/-55/-55 -65/-65/-65 -56/-56/-56
f -54/-54/-54 -65/-65/-65 -55/-55/-55
f -51/-51/-51 -52/-52/-52 -53/-53/-53
f -50/-50/-50 -52/-52/-52 -51/-51/-51
f -48/-48/-48 -52/-52/-52 -49/-49/-49
f -47/-47/-47 -52/-52/-52 -48/-48/-48
f -45/-45/-45 -52/-52/-52 -46/-46/-46
f -44/-44/-44 -52/-52/-52 -45/-45/-45
f -42/-42/-42 -52/-52/-52 -43/-43/-43
f -41/-41/-41 -52/-52/-52 -42/-42/-42
f -38/-38/-38 -39/-39/-39 -40/-40/-40
f -36/-36/-36 -40/-40/-40 -37/-37/-37
f -33/-33/-33 -34/-34/-34 -35/-35/-35
f -33/-33/-33 -31/-31/-31 -32/-32/-32
f -28/-28/-28 -29/-29/-29 -30/-30/-30
f -29/-29/-29 -26/-26/-26 -27/-27/-27
f -23/-23/-23 -24/-24/-24 -25/-25/-25
f -24/-24/-24 -21/-21/-21 -22/-22/-22
f -18/-18/-18 -19/-19/-19 -20/-20/-20
f -19/-19/-19 -16/-16/-16 -17/-17/-17
f -13/-13/-13 -14/-14/-14 -15/-15/-15
f -11/-11/-11 -15/-15/-15 -12/-12/-12
f -8/-8/-8 -9/-9/-9 -10/-10/-10
f -6/-6/-6 -10/-10/-10 -7/-7/-7
f -3/-3/-3 -4/-4/-4 -5/-5/-5
f -1/-1/-1 -5/-5/-5 -2/-2/-2

