# Mesh "mesh_bite" exported with raY asset explorer
g mesh_bite
# SubMesh 0
# Vertices
v -0.036870 0.000266 0.341019
vt -1.953048 0.148019
vn -0.224963 -0.031662 -0.973853
v -0.000957 0.000266 0.334192
vt -1.721381 0.040065
vn -0.269164 -0.031530 -0.962578
v 0.022260 0.042751 0.325979
vt -1.568061 0.080131
vn -0.368262 -0.021014 -0.929484
v 0.022261 0.052802 0.325979
vt -1.568060 0.296037
vn -0.355981 -0.035015 -0.933837
v 0.022259 -0.004721 0.325979
vt -1.568070 0.000000
vn -0.387910 -0.000001 -0.921697
v 0.044796 0.009955 0.314905
vt -1.414750 0.040065
vn -0.488601 -0.006867 -0.872480
v 0.066458 0.060470 0.301066
vt -1.261431 0.080131
vn -0.579768 -0.012785 -0.814681
v 0.066457 -0.019437 0.301067
vt -1.261439 0.000000
vn -0.582433 -0.000000 -0.812879
v 0.087051 0.007521 0.284586
vt -1.108119 0.040065
vn -0.663112 -0.010133 -0.748451
v 0.066322 0.081043 0.301066
vt -1.261430 0.296037
vn -0.571042 -0.071970 -0.817760
v 0.106398 0.074538 0.265605
vt -0.954801 0.080131
vn -0.732194 -0.028896 -0.680483
v 0.106397 -0.019437 0.265606
vt -0.954807 0.000000
vn -0.733596 0.000000 -0.679586
v 0.124326 0.035124 0.244296
vt -0.801489 0.040065
vn -0.794753 -0.029519 -0.606214
v 0.103490 0.105132 0.265605
vt -0.954800 0.296037
vn -0.714914 -0.155215 -0.681767
v 0.140185 0.089112 0.220840
vt -0.648170 0.080131
vn -0.841340 -0.062459 -0.536886
v 0.140680 -0.024130 0.220841
vt -0.648176 0.000000
vn -0.843370 -0.003690 -0.537321
v 0.155315 0.055819 0.195447
vt -0.494858 0.040065
vn -0.888787 -0.057438 -0.454707
v 0.132169 0.131216 0.220840
vt -0.648170 0.296037
vn -0.804962 -0.253115 -0.536628
v 0.166291 0.103309 0.168338
vt -0.341540 0.080131
vn -0.915341 -0.097272 -0.390754
v 0.168103 -0.044728 0.168339
vt -0.341545 0.000000
vn -0.920128 -0.011263 -0.391456
v 0.178932 0.062026 0.139753
vt -0.188227 0.040065
vn -0.948455 -0.079157 -0.306866
v 0.152867 0.154804 0.168338
vt -0.341540 0.296037
vn -0.856938 -0.337268 -0.389754
v 0.184439 0.114448 0.109941
vt -0.034910 0.080131
vn -0.961673 -0.122532 -0.245299
v 0.178932 0.062026 0.139753
vt -0.188227 0.040065
vn -0.948455 -0.079157 -0.306866
v 0.166515 0.172715 0.109941
vt -0.034910 0.296037
vn -0.886281 -0.395958 -0.240256
v 0.194782 0.119685 0.047695
vt 0.271720 0.080131
vn -0.984834 -0.138693 -0.104237
v 0.194349 0.066259 0.079166
vt 0.118404 0.040065
vn -0.980248 -0.097464 -0.172088
v 0.198802 -0.026172 0.047696
vt 0.271719 0.000000
vn -0.994285 -0.027401 -0.103182
v 0.201025 0.063679 0.015808
vt 0.425035 0.040065
vn -0.994058 -0.102653 -0.036204
v 0.187706 -0.077817 0.109942
vt -0.034913 0.000000
vn -0.968950 -0.016465 -0.246706
v 0.173846 0.180628 0.047329
vt 0.272486 0.296037
vn -0.899824 -0.423468 -0.104837
v 0.196945 0.120082 -0.016217
vt 0.578350 0.080131
vn -0.989876 -0.137911 0.033551
v 0.201000 -0.026171 -0.016217
vt 0.578350 0.000000
vn -0.999016 -0.027704 0.034642
v 0.198727 0.066259 -0.048098
vt 0.731666 0.040065
vn -0.989771 -0.096463 0.105107
v 0.176638 0.182435 -0.016217
vt 0.578350 0.296037
vn -0.905020 -0.424346 0.029482
v 0.190867 0.115536 -0.079555
vt 0.884981 0.080131
vn -0.976550 -0.122986 0.176704
v 0.194226 -0.077817 -0.079555
vt 0.884981 0.000000
vn -0.983989 -0.017091 0.177407
v 0.172443 0.175429 -0.079555
vt 0.884981 0.296037
vn -0.899505 -0.400082 0.175574
v 0.162721 0.158739 -0.140100
vt 1.191611 0.296037
vn -0.882350 -0.346777 0.318126
v 0.176812 0.104689 -0.140100
vt 1.191611 0.080131
vn -0.942198 -0.100291 0.319696
v 0.187535 0.062026 -0.110313
vt 1.038296 0.040065
vn -0.968281 -0.081123 0.236326
v 0.145845 0.135498 -0.195728
vt 1.498241 0.296037
vn -0.845002 -0.264924 0.464528
v 0.154478 0.090157 -0.195728
vt 1.498241 0.080131
vn -0.882647 -0.065611 0.465434
v 0.167841 0.055819 -0.168656
vt 1.344927 0.040065
vn -0.921889 -0.059855 0.382804
v 0.155011 -0.024128 -0.195729
vt 1.498244 0.000000
vn -0.884609 -0.004131 0.466316
v 0.140336 0.035124 -0.221082
vt 1.651558 0.040065
vn -0.844278 -0.031584 0.534975
v 0.178715 -0.044726 -0.140100
vt 1.191613 0.000000
vn -0.947038 -0.012057 0.320897
v 0.187535 0.062026 -0.110313
vt 1.038296 0.040065
vn -0.968281 -0.081123 0.236326
v 0.120703 0.108548 -0.244491
vt 1.804871 0.296037
vn -0.773420 -0.166385 0.611668
v 0.123946 0.074539 -0.244491
vt 1.804872 0.080131
vn -0.791242 -0.030988 0.610718
v 0.123946 -0.019434 -0.244491
vt 1.804876 0.000000
vn -0.792345 0.000000 0.610074
v 0.105984 0.007521 -0.265752
vt 1.958189 0.040065
vn -0.732035 -0.011012 0.681179
v 0.086449 0.082034 -0.284678
vt 2.111501 0.296037
vn -0.652151 -0.079081 0.753953
v 0.086609 0.060471 -0.284678
vt 2.111502 0.080131
vn -0.659592 -0.013000 0.751511
v 0.086608 -0.019434 -0.284678
vt 2.111507 0.000000
vn -0.661742 -0.000000 0.749732
v 0.065989 0.009955 -0.301103
vt 2.264820 0.040065
vn -0.579046 -0.006278 0.815271
v 0.044308 0.058200 -0.314880
vt 2.418131 0.296037
vn -0.479669 -0.028268 0.876994
v 0.044308 0.042752 -0.314881
vt 2.418132 0.080131
vn -0.483223 -0.011568 0.875421
v 0.044307 -0.004721 -0.314881
vt 2.418139 0.000000
vn -0.488303 -0.000001 0.872674
v 0.021752 0.000266 -0.325893
vt 2.571451 0.040065
vn -0.381610 -0.009098 0.924279
v -0.001475 0.026083 -0.334041
vt 2.724761 0.296037
vn -0.284025 -0.007075 0.958791
v -0.001475 0.018653 -0.334041
vt 2.724762 0.080131
vn -0.269957 -0.006843 0.962848
v -0.001476 0.000266 -0.334041
vt 2.724770 0.000000
vn -0.258958 0.000001 0.965889
v -0.036869 0.004090 -0.340720
vt 2.953041 0.080131
vn -0.185430 -0.000002 0.982658
v -0.036870 0.000266 -0.340720
vt 2.953049 0.000000
vn -0.185433 -0.000001 0.982657
v -0.036869 0.006675 -0.340720
vt 2.953040 0.296037
vn -0.185432 0.000000 0.982657
v 0.044260 0.072432 -0.314880
vt 2.418130 0.596310
vn -0.469291 -0.065868 0.880584
v 0.081404 0.112281 -0.284678
vt 2.111500 0.596310
vn -0.618902 -0.203812 0.758565
v 0.104852 0.153732 -0.244491
vt 1.804870 0.596310
vn -0.699225 -0.371445 0.610829
v 0.117202 0.192796 -0.195728
vt 1.498240 0.596310
vn -0.719410 -0.518503 0.462173
v 0.122001 0.224672 -0.140100
vt 1.191610 0.596310
vn -0.711261 -0.627927 0.315937
v 0.122546 0.246597 -0.079555
vt 0.884981 0.596310
vn -0.696061 -0.696559 0.174083
v 0.122802 0.255738 -0.016217
vt 0.578351 0.596310
vn -0.686843 -0.726330 0.026289
v 0.049495 0.295792 -0.079555
vt 0.884981 0.900621
vn -0.558637 -0.811540 0.171255
v 0.044924 0.305013 -0.016217
vt 0.578351 0.900621
vn -0.540912 -0.840683 0.025810
v 0.060364 0.273326 -0.140100
vt 1.191610 0.900621
vn -0.592603 -0.742727 0.311735
v 0.071267 0.238660 -0.195728
vt 1.498240 0.900621
vn -0.628303 -0.628924 0.457919
v 0.076563 0.193156 -0.244491
vt 1.804870 0.900621
vn -0.640486 -0.469183 0.607984
v 0.069330 0.140915 -0.284677
vt 2.111499 0.900621
vn -0.588973 -0.274600 0.760070
v 0.042462 0.087647 -0.314880
vt 2.418130 0.900621
vn -0.456708 -0.098347 0.884164
v -0.001474 0.042930 -0.334040
vt 2.724760 0.900621
vn -0.280030 -0.013087 0.959902
v -0.001474 0.032458 -0.334041
vt 2.724761 0.596310
vn -0.283575 -0.006769 0.958926
v -0.036868 0.010271 -0.340720
vt 2.953039 0.596310
vn -0.185433 0.000000 0.982657
v -0.036868 0.013915 -0.340720
vt 2.953038 0.900621
vn -0.185429 -0.000003 0.982658
v 0.120958 0.252941 0.047328
vt 0.272486 0.596310
vn -0.683752 -0.722297 -0.103784
v 0.044371 0.301677 0.047328
vt 0.272487 0.900621
vn -0.538770 -0.836257 -0.101984
v 0.117974 0.241949 0.109941
vt -0.034909 0.596310
vn -0.687145 -0.687317 -0.235429
v 0.114071 0.217621 0.168338
vt -0.341539 0.596310
vn -0.690647 -0.610724 -0.387329
v 0.105570 0.184424 0.220840
vt -0.648169 0.596310
vn -0.684966 -0.495365 -0.534261
v 0.089278 0.145644 0.265605
vt -0.954799 0.596310
vn -0.645626 -0.345793 -0.680878
v 0.062046 0.106685 0.301066
vt -1.261429 0.596310
vn -0.542248 -0.177977 -0.821152
v 0.022225 0.064564 0.325978
vt -1.568059 0.596310
vn -0.355744 -0.050131 -0.933238
v -0.036868 0.010271 0.341019
vt -1.953040 0.596310
vn -0.240209 -0.007941 -0.970689
v -0.036868 0.013915 0.341019
vt -1.953039 0.900621
vn -0.234143 -0.015488 -0.972079
v 0.020867 0.081455 0.325978
vt -1.568057 0.900621
vn -0.347477 -0.072415 -0.934888
v 0.051810 0.130960 0.301066
vt -1.261428 0.900621
vn -0.518418 -0.237113 -0.821596
v 0.063914 0.180992 0.265605
vt -0.954798 0.900621
vn -0.591282 -0.436650 -0.678029
v 0.062914 0.227015 0.220839
vt -0.648168 0.900621
vn -0.598345 -0.601141 -0.529729
v 0.055347 0.263975 0.168338
vt -0.341538 0.900621
vn -0.575607 -0.722782 -0.382443
v 0.046907 0.289809 0.109941
vt -0.034909 0.900621
vn -0.551795 -0.801148 -0.231699
v 0.187706 -0.077817 0.109942
vt -0.034913 0.000000
vn -0.968950 -0.016465 -0.246706
v 0.178932 0.062026 0.139753
vt -0.188227 0.040065
vn -0.948455 -0.079157 -0.306866
v 0.187535 0.062026 -0.110313
vt 1.038296 0.040065
vn -0.968281 -0.081123 0.236326
v 0.194226 -0.077817 -0.079555
vt 0.884981 0.000000
vn -0.983989 -0.017091 0.177407
# Faces (1 to 104)
f -102/-102/-102 -103/-103/-103 -104/-104/-104
f -104/-104/-104 -101/-101/-101 -102/-102/-102
f -103/-103/-103 -102/-102/-102 -100/-100/-100
f -100/-100/-100 -102/-102/-102 -99/-99/-99
f -98/-98/-98 -99/-99/-99 -102/-102/-102
f -98/-98/-98 -102/-102/-102 -101/-101/-101
f -99/-99/-99 -98/-98/-98 -97/-97/-97
f -97/-97/-97 -98/-98/-98 -96/-96/-96
f -101/-101/-101 -95/-95/-95 -98/-98/-98
f -98/-98/-98 -95/-95/-95 -94/-94/-94
f -94/-94/-94 -96/-96/-96 -98/-98/-98
f -96/-96/-96 -94/-94/-94 -93/-93/-93
f -93/-93/-93 -94/-94/-94 -92/-92/-92
f -95/-95/-95 -91/-91/-91 -94/-94/-94
f -90/-90/-90 -94/-94/-94 -91/-91/-91
f -90/-90/-90 -92/-92/-92 -94/-94/-94
f -92/-92/-92 -90/-90/-90 -89/-89/-89
f -89/-89/-89 -90/-90/-90 -88/-88/-88
f -91/-91/-91 -87/-87/-87 -90/-90/-90
f -90/-90/-90 -87/-87/-87 -86/-86/-86
f -86/-86/-86 -88/-88/-88 -90/-90/-90
f -88/-88/-88 -86/-86/-86 -85/-85/-85
f -85/-85/-85 -86/-86/-86 -84/-84/-84
f -83/-83/-83 -86/-86/-86 -87/-87/-87
f -82/-82/-82 -86/-86/-86 -83/-83/-83
f -82/-82/-82 -81/-81/-81 -86/-86/-86
f -83/-83/-83 -80/-80/-80 -82/-82/-82
f -82/-82/-82 -80/-80/-80 -79/-79/-79
f -79/-79/-79 -78/-78/-78 -82/-82/-82
f -78/-78/-78 -79/-79/-79 -77/-77/-77
f -77/-77/-77 -79/-79/-79 -76/-76/-76
f -75/-75/-75 -82/-82/-82 -78/-78/-78
f -74/-74/-74 -79/-79/-79 -80/-80/-80
f -73/-73/-73 -79/-79/-79 -74/-74/-74
f -73/-73/-73 -76/-76/-76 -79/-79/-79
f -76/-76/-76 -73/-73/-73 -72/-72/-72
f -72/-72/-72 -73/-73/-73 -71/-71/-71
f -74/-74/-74 -70/-70/-70 -73/-73/-73
f -69/-69/-69 -71/-71/-71 -73/-73/-73
f -71/-71/-71 -69/-69/-69 -68/-68/-68
f -67/-67/-67 -69/-69/-69 -73/-73/-73
f -73/-73/-73 -70/-70/-70 -67/-67/-67
f -69/-69/-69 -67/-67/-67 -66/-66/-66
f -69/-69/-69 -66/-66/-66 -65/-65/-65
f -65/-65/-65 -64/-64/-64 -69/-69/-69
f -65/-65/-65 -66/-66/-66 -63/-63/-63
f -63/-63/-63 -62/-62/-62 -65/-65/-65
f -62/-62/-62 -61/-61/-61 -65/-65/-65
f -61/-61/-61 -62/-62/-62 -60/-60/-60
f -60/-60/-60 -62/-62/-62 -59/-59/-59
f -58/-58/-58 -65/-65/-65 -61/-61/-61
f -57/-57/-57 -65/-65/-65 -58/-58/-58
f -62/-62/-62 -63/-63/-63 -56/-56/-56
f -55/-55/-55 -59/-59/-59 -62/-62/-62
f -62/-62/-62 -56/-56/-56 -55/-55/-55
f -59/-59/-59 -55/-55/-55 -54/-54/-54
f -54/-54/-54 -55/-55/-55 -53/-53/-53
f -55/-55/-55 -56/-56/-56 -52/-52/-52
f -51/-51/-51 -53/-53/-53 -55/-55/-55
f -52/-52/-52 -51/-51/-51 -55/-55/-55
f -53/-53/-53 -51/-51/-51 -50/-50/-50
f -50/-50/-50 -51/-51/-51 -49/-49/-49
f -51/-51/-51 -52/-52/-52 -48/-48/-48
f -51/-51/-51 -48/-48/-48 -47/-47/-47
f -47/-47/-47 -49/-49/-49 -51/-51/-51
f -49/-49/-49 -47/-47/-47 -46/-46/-46
f -46/-46/-46 -47/-47/-47 -45/-45/-45
f -44/-44/-44 -45/-45/-45 -47/-47/-47
f -47/-47/-47 -48/-48/-48 -44/-44/-44
f -44/-44/-44 -43/-43/-43 -45/-45/-45
f -45/-45/-45 -43/-43/-43 -42/-42/-42
f -41/-41/-41 -42/-42/-42 -43/-43/-43
f -42/-42/-42 -41/-41/-41 -40/-40/-40
f -43/-43/-43 -44/-44/-44 -39/-39/-39
f -39/-39/-39 -41/-41/-41 -43/-43/-43
f -38/-38/-38 -48/-48/-48 -52/-52/-52
f -52/-52/-52 -37/-37/-37 -38/-38/-38
f -37/-37/-37 -52/-52/-52 -56/-56/-56
f -56/-56/-56 -36/-36/-36 -37/-37/-37
f -36/-36/-36 -56/-56/-56 -63/-63/-63
f -63/-63/-63 -35/-35/-35 -36/-36/-36
f -35/-35/-35 -63/-63/-63 -66/-66/-66
f -66/-66/-66 -34/-34/-34 -35/-35/-35
f -34/-34/-34 -66/-66/-66 -67/-67/-67
f -67/-67/-67 -33/-33/-33 -34/-34/-34
f -33/-33/-33 -67/-67/-67 -70/-70/-70
f -70/-70/-70 -32/-32/-32 -33/-33/-33
f -31/-31/-31 -33/-33/-33 -32/-32/-32
f -32/-32/-32 -30/-30/-30 -31/-31/-31
f -29/-29/-29 -33/-33/-33 -31/-31/-31
f -29/-29/-29 -34/-34/-34 -33/-33/-33
f -28/-28/-28 -35/-35/-35 -34/-34/-34
f -34/-34/-34 -29/-29/-29 -28/-28/-28
f -27/-27/-27 -35/-35/-35 -28/-28/-28
f -27/-27/-27 -36/-36/-36 -35/-35/-35
f -36/-36/-36 -27/-27/-27 -26/-26/-26
f -26/-26/-26 -37/-37/-37 -36/-36/-36
f -25/-25/-25 -37/-37/-37 -26/-26/-26
f -37/-37/-37 -25/-25/-25 -38/-38/-38
f -38/-38/-38 -25/-25/-25 -24/-24/-24
f -24/-24/-24 -23/-23/-23 -38/-38/-38
f -48/-48/-48 -38/-38/-38 -23/-23/-23
f -23/-23/-23 -44/-44/-44 -48/-48/-48
f -44/-44/-44 -23/-23/-23 -22/-22/-22
f -22/-22/-22 -39/-39/-39 -44/-44/-44
f -23/-23/-23 -24/-24/-24 -21/-21/-21
f -21/-21/-21 -22/-22/-22 -23/-23/-23
f -30/-30/-30 -32/-32/-32 -20/-20/-20
f -20/-20/-20 -19/-19/-19 -30/-30/-30
f -19/-19/-19 -20/-20/-20 -18/-18/-18
f -20/-20/-20 -74/-74/-74 -18/-18/-18
f -18/-18/-18 -74/-74/-74 -80/-80/-80
f -17/-17/-17 -18/-18/-18 -80/-80/-80
f -80/-80/-80 -83/-83/-83 -17/-17/-17
f -17/-17/-17 -83/-83/-83 -16/-16/-16
f -87/-87/-87 -16/-16/-16 -83/-83/-83
f -15/-15/-15 -16/-16/-16 -87/-87/-87
f -15/-15/-15 -87/-87/-87 -91/-91/-91
f -14/-14/-14 -15/-15/-15 -91/-91/-91
f -91/-91/-91 -95/-95/-95 -14/-14/-14
f -14/-14/-14 -95/-95/-95 -13/-13/-13
f -101/-101/-101 -13/-13/-13 -95/-95/-95
f -13/-13/-13 -101/-101/-101 -12/-12/-12
f -104/-104/-104 -12/-12/-12 -101/-101/-101
f -13/-13/-13 -12/-12/-12 -11/-11/-11
f -11/-11/-11 -10/-10/-10 -13/-13/-13
f -14/-14/-14 -13/-13/-13 -10/-10/-10
f -10/-10/-10 -9/-9/-9 -14/-14/-14
f -15/-15/-15 -14/-14/-14 -9/-9/-9
f -15/-15/-15 -9/-9/-9 -8/-8/-8
f -16/-16/-16 -15/-15/-15 -8/-8/-8
f -8/-8/-8 -7/-7/-7 -16/-16/-16
f -16/-16/-16 -7/-7/-7 -6/-6/-6
f -6/-6/-6 -17/-17/-17 -16/-16/-16
f -18/-18/-18 -17/-17/-17 -6/-6/-6
f -6/-6/-6 -5/-5/-5 -18/-18/-18
f -18/-18/-18 -5/-5/-5 -19/-19/-19
f -3/-3/-3 -82/-82/-82 -4/-4/-4
f -1/-1/-1 -69/-69/-69 -2/-2/-2
f -70/-70/-70 -74/-74/-74 -20/-20/-20
f -20/-20/-20 -32/-32/-32 -70/-70/-70

