# Mesh "mesh_ring_splash" exported with raY asset explorer
g mesh_ring_splash
# SubMesh 0
# Vertices
v 0.225192 -0.093277 0.163997
vt 0.402454 0.990393
vn 0.846981 -0.350830 -0.399427
v 0.239063 -0.047552 0.163997
vt 0.499999 1.000000
vn 0.899149 -0.178854 -0.399427
v 0.157699 -0.065321 -0.003675
vt 0.470283 0.649398
vn 0.846981 -0.350830 -0.399427
v 0.167413 -0.033300 -0.003675
vt 0.500000 0.652324
vn 0.899149 -0.178854 -0.399427
v 0.141926 -0.094832 -0.003675
vt 0.441708 0.640729
vn 0.762263 -0.509326 -0.399427
v 0.202667 -0.135418 0.163997
vt 0.308658 0.961940
vn 0.762263 -0.509326 -0.399427
v 0.120698 -0.120698 -0.003675
vt 0.415373 0.626653
vn 0.648251 -0.648251 -0.399427
v 0.172355 -0.172354 0.163997
vt 0.222215 0.915735
vn 0.648251 -0.648251 -0.399427
v 0.135418 -0.202667 0.163997
vt 0.146446 0.853553
vn 0.509327 -0.762262 -0.399427
v 0.094832 -0.141926 -0.003675
vt 0.392290 0.607710
vn 0.509327 -0.762262 -0.399427
v 0.093278 -0.225192 0.163997
vt 0.037650 0.806272
vn 0.350831 -0.846980 -0.399427
v 0.065321 -0.157699 -0.003675
vt 0.373347 0.584627
vn 0.350831 -0.846980 -0.399427
v 0.047553 -0.239063 0.163997
vt 0.038060 0.691342
vn 0.178853 -0.899149 -0.399427
v 0.033301 -0.167413 -0.003675
vt 0.359271 0.558292
vn 0.178853 -0.899149 -0.399427
v 0.000000 -0.243746 0.163997
vt 0.009607 0.597545
vn 0.000001 -0.916765 -0.399427
v 0.000000 -0.170693 -0.003675
vt 0.350603 0.529717
vn 0.000001 -0.916765 -0.399427
v -0.033300 -0.167413 -0.003675
vt 0.347676 0.500000
vn -0.178852 -0.899149 -0.399427
v -0.047552 -0.239063 0.163997
vt -0.000000 0.500000
vn -0.178852 -0.899149 -0.399427
v -0.065321 -0.157699 -0.003675
vt 0.350603 0.470283
vn -0.350830 -0.846981 -0.399428
v -0.093277 -0.225192 0.163997
vt 0.009607 0.402455
vn -0.350830 -0.846981 -0.399428
v -0.094832 -0.141926 -0.003675
vt 0.359271 0.441708
vn -0.509326 -0.762263 -0.399427
v -0.135418 -0.202668 0.163997
vt 0.038060 0.308658
vn -0.509326 -0.762263 -0.399427
v -0.120698 -0.120698 -0.003675
vt 0.373347 0.415373
vn -0.648250 -0.648251 -0.399427
v -0.172354 -0.172355 0.163997
vt 0.084265 0.222215
vn -0.648250 -0.648251 -0.399427
v -0.202667 -0.135418 0.163997
vt 0.146447 0.146446
vn -0.762262 -0.509327 -0.399427
v -0.141926 -0.094832 -0.003675
vt 0.392290 0.392291
vn -0.762262 -0.509327 -0.399427
v -0.225192 -0.093278 0.163997
vt 0.222215 0.084265
vn -0.846980 -0.350831 -0.399428
v -0.157699 -0.065321 -0.003675
vt 0.415373 0.373347
vn -0.846980 -0.350831 -0.399428
v -0.239063 -0.047553 0.163997
vt 0.308658 0.038060
vn -0.899149 -0.178853 -0.399428
v -0.167413 -0.033301 -0.003675
vt 0.441708 0.359271
vn -0.899149 -0.178853 -0.399428
v -0.243746 -0.000000 0.163997
vt 0.402455 0.009607
vn -0.916765 -0.000000 -0.399428
v -0.170693 -0.000000 -0.003675
vt 0.470283 0.350603
vn -0.916765 -0.000000 -0.399428
v -0.167413 0.033300 -0.003675
vt 0.500000 0.347676
vn -0.899149 0.178852 -0.399428
v -0.239063 0.047552 0.163997
vt 0.500000 0.000000
vn -0.899149 0.178852 -0.399428
v -0.157699 0.065321 -0.003675
vt 0.529717 0.350603
vn -0.846981 0.350829 -0.399428
v -0.225192 0.093278 0.163997
vt 0.597545 0.009607
vn -0.846981 0.350829 -0.399428
v -0.141926 0.094832 -0.003675
vt 0.558292 0.359271
vn -0.762263 0.509326 -0.399427
v -0.202668 0.135418 0.163997
vt 0.691342 0.038060
vn -0.762263 0.509326 -0.399427
v -0.120698 0.120698 -0.003675
vt 0.584627 0.373347
vn -0.648251 0.648250 -0.399427
v -0.172355 0.172355 0.163997
vt 0.777785 0.084265
vn -0.648251 0.648250 -0.399427
v -0.135418 0.202668 0.163997
vt 0.853554 0.146447
vn -0.509327 0.762262 -0.399427
v -0.094832 0.141926 -0.003675
vt 0.607710 0.392291
vn -0.509327 0.762262 -0.399427
v -0.093278 0.225192 0.163997
vt 0.915735 0.222215
vn -0.350830 0.846980 -0.399427
v -0.065321 0.157700 -0.003675
vt 0.626653 0.415374
vn -0.350830 0.846980 -0.399427
v -0.047553 0.239063 0.163997
vt 0.994749 0.299009
vn -0.178853 0.899149 -0.399427
v -0.033301 0.167413 -0.003675
vt 0.640729 0.441708
vn -0.178853 0.899149 -0.399427
v -0.000000 0.243746 0.163997
vt 0.990393 0.402455
vn -0.000000 0.916765 -0.399427
v -0.000000 0.170693 -0.003675
vt 0.649397 0.470283
vn -0.000000 0.916765 -0.399427
v 0.033301 0.167413 -0.003675
vt 0.652324 0.500000
vn 0.178852 0.899150 -0.399427
v 0.047552 0.239063 0.163997
vt 1.000000 0.500001
vn 0.178852 0.899150 -0.399427
v 0.065321 0.157700 -0.003675
vt 0.649397 0.529718
vn 0.350830 0.846980 -0.399427
v 0.093278 0.225192 0.163997
vt 0.990392 0.597546
vn 0.350830 0.846980 -0.399427
v 0.094832 0.141926 -0.003675
vt 0.640729 0.558292
vn 0.509327 0.762263 -0.399427
v 0.135418 0.202668 0.163997
vt 0.961940 0.691343
vn 0.509327 0.762263 -0.399427
v 0.120698 0.120698 -0.003675
vt 0.626653 0.584627
vn 0.648250 0.648251 -0.399427
v 0.172355 0.172355 0.163997
vt 0.915735 0.777786
vn 0.648250 0.648251 -0.399427
v 0.202668 0.135418 0.163997
vt 0.853553 0.853554
vn 0.762262 0.509327 -0.399427
v 0.141926 0.094832 -0.003675
vt 0.607709 0.607710
vn 0.762262 0.509327 -0.399427
v 0.225192 0.093278 0.163997
vt 0.777785 0.915736
vn 0.846980 0.350830 -0.399428
v 0.157700 0.065321 -0.003675
vt 0.584627 0.626653
vn 0.846980 0.350830 -0.399428
v 0.239063 0.047553 0.163997
vt 0.695201 0.975450
vn 0.899149 0.178852 -0.399428
v 0.167413 0.033301 -0.003675
vt 0.558292 0.640730
vn 0.899149 0.178852 -0.399428
v 0.243746 0.000000 0.163997
vt 0.597544 0.990393
vn 0.916765 -0.000002 -0.399427
v 0.170693 0.000000 -0.003675
vt 0.529717 0.649398
vn 0.916765 -0.000002 -0.399427
# Faces (1 to 64)
f -62/-62/-62 -63/-63/-63 -64/-64/-64
f -62/-62/-62 -61/-61/-61 -63/-63/-63
f -60/-60/-60 -62/-62/-62 -64/-64/-64
f -60/-60/-60 -64/-64/-64 -59/-59/-59
f -58/-58/-58 -60/-60/-60 -59/-59/-59
f -58/-58/-58 -59/-59/-59 -57/-57/-57
f -58/-58/-58 -57/-57/-57 -56/-56/-56
f -56/-56/-56 -55/-55/-55 -58/-58/-58
f -55/-55/-55 -56/-56/-56 -54/-54/-54
f -54/-54/-54 -53/-53/-53 -55/-55/-55
f -53/-53/-53 -54/-54/-54 -52/-52/-52
f -52/-52/-52 -51/-51/-51 -53/-53/-53
f -51/-51/-51 -52/-52/-52 -50/-50/-50
f -50/-50/-50 -49/-49/-49 -51/-51/-51
f -48/-48/-48 -49/-49/-49 -50/-50/-50
f -50/-50/-50 -47/-47/-47 -48/-48/-48
f -46/-46/-46 -48/-48/-48 -47/-47/-47
f -46/-46/-46 -47/-47/-47 -45/-45/-45
f -44/-44/-44 -46/-46/-46 -45/-45/-45
f -44/-44/-44 -45/-45/-45 -43/-43/-43
f -42/-42/-42 -44/-44/-44 -43/-43/-43
f -42/-42/-42 -43/-43/-43 -41/-41/-41
f -42/-42/-42 -41/-41/-41 -40/-40/-40
f -40/-40/-40 -39/-39/-39 -42/-42/-42
f -39/-39/-39 -40/-40/-40 -38/-38/-38
f -38/-38/-38 -37/-37/-37 -39/-39/-39
f -37/-37/-37 -38/-38/-38 -36/-36/-36
f -36/-36/-36 -35/-35/-35 -37/-37/-37
f -35/-35/-35 -36/-36/-36 -34/-34/-34
f -34/-34/-34 -33/-33/-33 -35/-35/-35
f -32/-32/-32 -33/-33/-33 -34/-34/-34
f -32/-32/-32 -34/-34/-34 -31/-31/-31
f -30/-30/-30 -32/-32/-32 -31/-31/-31
f -30/-30/-30 -31/-31/-31 -29/-29/-29
f -28/-28/-28 -30/-30/-30 -29/-29/-29
f -28/-28/-28 -29/-29/-29 -27/-27/-27
f -26/-26/-26 -28/-28/-28 -27/-27/-27
f -26/-26/-26 -27/-27/-27 -25/-25/-25
f -26/-26/-26 -25/-25/-25 -24/-24/-24
f -24/-24/-24 -23/-23/-23 -26/-26/-26
f -23/-23/-23 -24/-24/-24 -22/-22/-22
f -22/-22/-22 -21/-21/-21 -23/-23/-23
f -21/-21/-21 -22/-22/-22 -20/-20/-20
f -20/-20/-20 -19/-19/-19 -21/-21/-21
f -19/-19/-19 -20/-20/-20 -18/-18/-18
f -18/-18/-18 -17/-17/-17 -19/-19/-19
f -16/-16/-16 -17/-17/-17 -18/-18/-18
f -16/-16/-16 -18/-18/-18 -15/-15/-15
f -14/-14/-14 -16/-16/-16 -15/-15/-15
f -14/-14/-14 -15/-15/-15 -13/-13/-13
f -12/-12/-12 -14/-14/-14 -13/-13/-13
f -12/-12/-12 -13/-13/-13 -11/-11/-11
f -10/-10/-10 -12/-12/-12 -11/-11/-11
f -10/-10/-10 -11/-11/-11 -9/-9/-9
f -10/-10/-10 -9/-9/-9 -8/-8/-8
f -8/-8/-8 -7/-7/-7 -10/-10/-10
f -7/-7/-7 -8/-8/-8 -6/-6/-6
f -6/-6/-6 -5/-5/-5 -7/-7/-7
f -5/-5/-5 -6/-6/-6 -4/-4/-4
f -4/-4/-4 -3/-3/-3 -5/-5/-5
f -3/-3/-3 -4/-4/-4 -2/-2/-2
f -2/-2/-2 -1/-1/-1 -3/-3/-3
f -61/-61/-61 -1/-1/-1 -2/-2/-2
f -61/-61/-61 -2/-2/-2 -63/-63/-63

