# Mesh "mesh_vignette" exported with raY asset explorer
g mesh_vignette
# SubMesh 0
# Vertices
v 0.000000 0.712075 -0.000000
vt 0.499986 0.926517
vn -0.000000 0.001141 0.999999
v 0.713981 0.712077 -0.000000
vt 0.999996 0.926517
vn -0.000000 0.001141 0.999999
v 0.713980 0.449136 0.000300
vt 0.999996 0.251442
vn -0.000000 0.001141 0.999999
v 0.000000 0.449135 0.000300
vt 0.499986 0.251442
vn -0.000000 0.001141 0.999999
v -0.713979 0.449136 0.000300
vt 0.000089 0.251442
vn -0.000000 0.001141 0.999999
v -0.713979 0.712077 -0.000000
vt 0.000089 0.926517
vn -0.000000 0.001141 0.999999
v 0.000000 0.186195 0.000600
vt 0.499986 0.073482
vn -0.000000 0.001141 0.999999
v -0.713979 0.186195 0.000600
vt 0.000089 0.073482
vn -0.000000 0.001141 0.999999
v 0.713980 0.186195 0.000600
vt 0.999996 0.073482
vn -0.000000 0.001141 0.999999
v 0.000000 -0.449136 0.000300
vt 0.499985 0.251442
vn -0.000000 -0.001141 0.999999
v -0.713979 -0.712076 0.000000
vt 0.999996 0.926517
vn -0.000000 -0.001141 0.999999
v -0.713979 -0.449136 0.000300
vt 0.999996 0.251442
vn -0.000000 -0.001141 0.999999
v 0.000000 -0.712077 0.000000
vt 0.499985 0.926517
vn -0.000000 -0.001141 0.999999
v 0.713980 -0.449136 0.000300
vt 0.000089 0.251442
vn -0.000000 -0.001141 0.999999
v 0.713981 -0.712076 0.000000
vt 0.000089 0.926517
vn -0.000000 -0.001141 0.999999
v 0.713980 -0.186195 0.000600
vt 0.000089 0.073482
vn -0.000000 -0.001141 0.999999
v 0.000000 -0.186196 0.000600
vt 0.499985 0.073482
vn -0.000000 -0.001141 0.999999
v -0.713979 -0.186195 0.000600
vt 0.999996 0.073482
vn -0.000000 -0.001141 0.999999
v 0.713980 0.186195 0.000600
vt 0.000089 0.073481
vn -0.000000 0.000000 1.000000
v 0.000000 0.172141 0.000600
vt 0.999996 0.926517
vn -0.000000 0.000000 1.000000
v 0.000000 0.186195 0.000600
vt 0.999996 0.073481
vn -0.000000 0.000000 1.000000
v 0.713980 0.172141 0.000600
vt 0.000089 0.926517
vn -0.000000 0.000000 1.000000
v -0.713979 0.186195 0.000600
vt 0.999996 0.073481
vn -0.000000 0.000000 1.000000
v 0.000000 0.186195 0.000600
vt 0.000089 0.073481
vn -0.000000 0.000000 1.000000
v 0.000000 0.172141 0.000600
vt 0.000089 0.926517
vn -0.000000 0.000000 1.000000
v -0.713979 0.172141 0.000600
vt 0.999996 0.926517
vn -0.000000 0.000000 1.000000
v 0.000000 -0.172141 0.000600
vt 0.999996 0.926517
vn -0.000000 0.000000 1.000000
v -0.713979 -0.186195 0.000600
vt 0.000089 0.073481
vn -0.000000 0.000000 1.000000
v -0.713979 -0.172141 0.000600
vt 0.000089 0.926517
vn -0.000000 0.000000 1.000000
v 0.000000 -0.186196 0.000600
vt 0.999996 0.073481
vn -0.000000 0.000000 1.000000
v 0.000000 -0.172141 0.000600
vt 0.000089 0.926517
vn -0.000000 0.000000 1.000000
v 0.713980 -0.172141 0.000600
vt 0.999996 0.926517
vn -0.000000 0.000000 1.000000
v 0.713980 -0.186195 0.000600
vt 0.999996 0.073481
vn -0.000000 0.000000 1.000000
v 0.000000 -0.186196 0.000600
vt 0.000089 0.073481
vn -0.000000 0.000000 1.000000
# Faces (1 to 34)
f -32/-32/-32 -33/-33/-33 -34/-34/-34
f -34/-34/-34 -31/-31/-31 -32/-32/-32
f -30/-30/-30 -31/-31/-31 -34/-34/-34
f -29/-29/-29 -30/-30/-30 -34/-34/-34
f -28/-28/-28 -31/-31/-31 -30/-30/-30
f -30/-30/-30 -27/-27/-27 -28/-28/-28
f -26/-26/-26 -32/-32/-32 -31/-31/-31
f -31/-31/-31 -28/-28/-28 -26/-26/-26
f -23/-23/-23 -24/-24/-24 -25/-25/-25
f -24/-24/-24 -22/-22/-22 -25/-25/-25
f -25/-25/-25 -22/-22/-22 -21/-21/-21
f -22/-22/-22 -20/-20/-20 -21/-21/-21
f -25/-25/-25 -21/-21/-21 -19/-19/-19
f -18/-18/-18 -25/-25/-25 -19/-19/-19
f -23/-23/-23 -25/-25/-25 -18/-18/-18
f -17/-17/-17 -23/-23/-23 -18/-18/-18
f -14/-14/-14 -15/-15/-15 -16/-16/-16
f -15/-15/-15 -13/-13/-13 -16/-16/-16
f -10/-10/-10 -11/-11/-11 -12/-12/-12
f -12/-12/-12 -9/-9/-9 -10/-10/-10
f -6/-6/-6 -7/-7/-7 -8/-8/-8
f -7/-7/-7 -5/-5/-5 -8/-8/-8
f -2/-2/-2 -3/-3/-3 -4/-4/-4
f -4/-4/-4 -1/-1/-1 -2/-2/-2

