# Mesh "mesh_electric_power" exported with raY asset explorer
g mesh_electric_power
# SubMesh 0
# Vertices
v 1.000000 0.000000 3.434560
vt 0.000000 0.000000
vn -0.000000 1.000000 0.000000
v -1.000000 0.000000 3.434560
vt 0.000000 1.000000
vn -0.000000 1.000000 0.000000
v 1.000000 0.000000 -0.565440
vt 1.000000 0.000000
vn -0.000000 1.000000 0.000000
v -1.000000 0.000000 -0.565440
vt 1.000000 1.000000
vn -0.000000 1.000000 0.000000
# Faces (1 to 4)
f -2/-2/-2 -3/-3/-3 -4/-4/-4
f -2/-2/-2 -1/-1/-1 -3/-3/-3

