# Mesh "mesh_horn" exported with raY asset explorer
g mesh_horn
# SubMesh 0
# Vertices
v 0.031463 0.013032 -0.099629
vt 3.205313 0.097835
vn 0.923631 0.382581 -0.023182
v 0.024081 0.024081 -0.099629
vt 2.867135 0.097835
vn 0.706917 0.706916 -0.023182
v 0.018846 0.018846 -0.138462
vt 2.867135 0.901039
vn 0.694596 0.694595 -0.187280
v 0.024623 0.010199 -0.138462
vt 3.205313 0.901039
vn 0.907533 0.375913 -0.187280
v 0.013032 0.031463 -0.099629
vt 2.528957 0.097835
vn 0.382582 0.923631 -0.023182
v 0.010199 0.024623 -0.138462
vt 2.528957 0.901039
vn 0.375914 0.907532 -0.187280
v 0.000000 0.034056 -0.099629
vt 2.190779 0.097835
vn 0.000000 0.999731 -0.023182
v 0.000000 0.026652 -0.138462
vt 2.190779 0.901039
vn 0.000000 0.982306 -0.187280
v -0.010199 0.024623 -0.138462
vt 1.852601 0.901039
vn -0.375913 0.907533 -0.187280
v -0.013032 0.031463 -0.099629
vt 1.852601 0.097835
vn -0.382581 0.923631 -0.023182
v -0.018846 0.018846 -0.138462
vt 1.514423 0.901039
vn -0.694595 0.694596 -0.187280
v -0.024081 0.024081 -0.099629
vt 1.514423 0.097835
vn -0.706916 0.706917 -0.023182
v -0.031463 0.013032 -0.099629
vt 1.176246 0.097835
vn -0.923631 0.382582 -0.023182
v -0.024623 0.010199 -0.138462
vt 1.176246 0.901039
vn -0.907532 0.375914 -0.187280
v -0.034056 0.000000 -0.099629
vt 0.838068 0.097835
vn -0.999731 0.000000 -0.023182
v -0.026652 0.000000 -0.138462
vt 0.838068 0.901039
vn -0.982306 0.000000 -0.187280
v -0.024623 -0.010199 -0.138462
vt 0.499890 0.901039
vn -0.907532 -0.375914 -0.187280
v -0.031463 -0.013032 -0.099629
vt 0.499890 0.097835
vn -0.923631 -0.382582 -0.023182
v -0.018846 -0.018846 -0.138462
vt 0.161712 0.901039
vn -0.694596 -0.694595 -0.187280
v -0.024081 -0.024081 -0.099629
vt 0.161712 0.097835
vn -0.706917 -0.706916 -0.023182
v -0.013032 -0.031463 -0.099629
vt -0.176466 0.097835
vn -0.382582 -0.923630 -0.023182
v -0.010199 -0.024623 -0.138462
vt -0.176466 0.901039
vn -0.375914 -0.907532 -0.187280
v -0.000000 -0.034056 -0.099629
vt -0.514643 0.097835
vn 0.000000 -0.999731 -0.023182
v -0.000000 -0.026652 -0.138462
vt -0.514643 0.901039
vn -0.000000 -0.982306 -0.187280
v 0.010199 -0.024623 -0.138462
vt -0.852821 0.901039
vn 0.375914 -0.907532 -0.187280
v 0.013032 -0.031463 -0.099629
vt -0.852821 0.097835
vn 0.382582 -0.923630 -0.023182
v 0.018846 -0.018846 -0.138462
vt -1.190999 0.901039
vn 0.694596 -0.694596 -0.187280
v 0.024081 -0.024081 -0.099629
vt -1.190999 0.097835
vn 0.706917 -0.706917 -0.023182
v 0.031463 -0.013032 -0.099629
vt -1.529177 0.097835
vn 0.923630 -0.382582 -0.023182
v 0.024623 -0.010199 -0.138462
vt -1.529177 0.901039
vn 0.907532 -0.375914 -0.187280
v 0.034056 -0.000000 -0.099629
vt -1.867354 0.097835
vn 0.999731 0.000000 -0.023182
v 0.026652 -0.000000 -0.138462
vt -1.867354 0.901039
vn 0.982307 0.000000 -0.187280
v 0.024623 0.010199 -0.138462
vt -2.205533 0.901039
vn 0.907533 0.375913 -0.187280
v 0.031463 0.013032 -0.099629
vt -2.205533 0.097835
vn 0.923631 0.382581 -0.023182
v -0.000000 0.000000 0.138462
vt 0.499890 0.079312
vn 0.000001 0.000000 1.000000
v -0.000000 0.000000 0.138462
vt 0.499890 0.079312
vn 0.000001 0.000000 1.000000
v -0.000000 0.000000 0.138462
vt 0.499890 0.079312
vn 0.000001 0.000000 1.000000
v -0.000000 0.000000 0.138462
vt 0.499890 0.079312
vn 0.000001 0.000000 1.000000
v -0.000000 0.000000 0.138462
vt 0.499890 0.079312
vn 0.000001 0.000000 1.000000
v -0.000000 0.000000 0.138462
vt 0.499890 0.079312
vn 0.000001 0.000000 1.000000
v -0.000000 0.000000 0.138462
vt 0.499890 0.079312
vn 0.000001 0.000000 1.000000
v -0.000000 0.000000 0.138462
vt 0.499890 0.079312
vn 0.000001 0.000000 1.000000
v -0.000000 0.000000 0.138462
vt 0.499890 0.079312
vn 0.000001 0.000000 1.000000
v -0.000000 0.000000 0.138462
vt 0.499890 0.079312
vn 0.000001 0.000000 1.000000
v -0.000000 0.000000 0.138462
vt 0.499890 0.079312
vn 0.000001 0.000000 1.000000
v -0.000000 0.000000 0.138462
vt 0.499890 0.079312
vn 0.000001 0.000000 1.000000
v -0.000000 0.000000 0.138462
vt 0.499890 0.079312
vn 0.000001 0.000000 1.000000
v -0.000000 0.000000 0.138462
vt 0.499890 0.079312
vn 0.000001 0.000000 1.000000
v -0.000000 0.000000 0.138462
vt 0.499890 0.079312
vn 0.000001 0.000000 1.000000
v -0.000000 0.000000 0.138462
vt 0.499890 0.079312
vn 0.000001 0.000000 1.000000
v 0.039329 0.016291 -0.099629
vt 3.205313 0.097835
vn 0.909457 0.376710 0.176004
v 0.030101 0.030101 -0.099629
vt 2.867135 0.097835
vn 0.696069 0.696068 0.176004
v 0.045744 0.018948 -0.138462
vt 3.205313 0.901039
vn 0.909457 0.376710 0.176004
v 0.035011 0.035011 -0.138462
vt 2.867135 0.901039
vn 0.696069 0.696068 0.176004
v 0.018948 0.045744 -0.138462
vt 2.528957 0.901039
vn 0.376711 0.909457 0.176004
v 0.016291 0.039329 -0.099629
vt 2.528957 0.097835
vn 0.376711 0.909457 0.176004
v 0.000000 0.049513 -0.138462
vt 2.190779 0.901039
vn -0.000000 0.984389 0.176004
v 0.000000 0.042569 -0.099629
vt 2.190779 0.097835
vn -0.000000 0.984389 0.176004
v -0.016291 0.039329 -0.099629
vt 1.852601 0.097835
vn -0.376710 0.909457 0.176004
v -0.018948 0.045744 -0.138462
vt 1.852601 0.901039
vn -0.376710 0.909457 0.176004
v -0.030101 0.030101 -0.099629
vt 1.514423 0.097835
vn -0.696068 0.696069 0.176004
v -0.035011 0.035011 -0.138462
vt 1.514423 0.901039
vn -0.696068 0.696069 0.176004
v -0.045744 0.018948 -0.138462
vt 1.176246 0.901039
vn -0.909457 0.376711 0.176004
v -0.039329 0.016291 -0.099629
vt 1.176246 0.097835
vn -0.909457 0.376711 0.176004
v -0.049513 0.000000 -0.138462
vt 0.838068 0.901039
vn -0.984389 0.000000 0.176004
v -0.042569 0.000000 -0.099629
vt 0.838068 0.097835
vn -0.984389 0.000000 0.176004
v -0.039329 -0.016291 -0.099629
vt 0.499890 0.097835
vn -0.909457 -0.376711 0.176004
v -0.045744 -0.018948 -0.138462
vt 0.499890 0.901039
vn -0.909457 -0.376711 0.176004
v -0.030101 -0.030101 -0.099629
vt 0.161712 0.097835
vn -0.696069 -0.696068 0.176004
v -0.035011 -0.035011 -0.138462
vt 0.161712 0.901039
vn -0.696069 -0.696068 0.176004
v -0.018948 -0.045744 -0.138462
vt -0.176466 0.901039
vn -0.376711 -0.909456 0.176004
v -0.016291 -0.039329 -0.099629
vt -0.176466 0.097835
vn -0.376711 -0.909456 0.176004
v -0.000000 -0.049513 -0.138462
vt -0.514643 0.901039
vn -0.000000 -0.984389 0.176004
v -0.000000 -0.042569 -0.099629
vt -0.514643 0.097835
vn -0.000000 -0.984389 0.176004
v 0.016291 -0.039329 -0.099629
vt -0.852821 0.097835
vn 0.376711 -0.909457 0.176004
v 0.018948 -0.045744 -0.138462
vt -0.852821 0.901039
vn 0.376711 -0.909457 0.176004
v 0.030101 -0.030101 -0.099629
vt -1.190999 0.097835
vn 0.696068 -0.696069 0.176004
v 0.035011 -0.035011 -0.138462
vt -1.190999 0.901039
vn 0.696068 -0.696068 0.176004
v 0.045744 -0.018948 -0.138462
vt -1.529177 0.901039
vn 0.909457 -0.376711 0.176004
v 0.039329 -0.016291 -0.099629
vt -1.529177 0.097835
vn 0.909457 -0.376711 0.176004
v 0.049513 -0.000000 -0.138462
vt -1.867354 0.901039
vn 0.984389 0.000000 0.176004
v 0.042569 -0.000000 -0.099629
vt -1.867354 0.097835
vn 0.984389 0.000000 0.176004
v 0.039329 0.016291 -0.099629
vt -2.205533 0.097835
vn 0.909457 0.376710 0.176004
v 0.045744 0.018948 -0.138462
vt -2.205533 0.901039
vn 0.909457 0.376710 0.176004
v -0.000000 0.000000 0.138462
vt 0.499890 0.079312
vn 0.000001 -0.000000 1.000000
v -0.000000 0.000000 0.138462
vt 0.499890 0.079312
vn 0.000001 -0.000000 1.000000
v -0.000000 0.000000 0.138462
vt 0.499890 0.079312
vn 0.000001 -0.000000 1.000000
v -0.000000 0.000000 0.138462
vt 0.499890 0.079312
vn 0.000001 -0.000000 1.000000
v -0.000000 0.000000 0.138462
vt 0.499890 0.079312
vn 0.000001 -0.000000 1.000000
v -0.000000 0.000000 0.138462
vt 0.499890 0.079312
vn 0.000001 -0.000000 1.000000
v -0.000000 0.000000 0.138462
vt 0.499890 0.079312
vn 0.000001 -0.000000 1.000000
v -0.000000 0.000000 0.138462
vt 0.499890 0.079312
vn 0.000001 -0.000000 1.000000
v -0.000000 0.000000 0.138462
vt 0.499890 0.079312
vn 0.000001 -0.000000 1.000000
v -0.000000 0.000000 0.138462
vt 0.499890 0.079312
vn 0.000001 -0.000000 1.000000
v -0.000000 0.000000 0.138462
vt 0.499890 0.079312
vn 0.000001 -0.000000 1.000000
v -0.000000 0.000000 0.138462
vt 0.499890 0.079312
vn 0.000001 -0.000000 1.000000
v -0.000000 0.000000 0.138462
vt 0.499890 0.079312
vn 0.000001 -0.000000 1.000000
v -0.000000 0.000000 0.138462
vt 0.499890 0.079312
vn 0.000001 -0.000000 1.000000
v -0.000000 0.000000 0.138462
vt 0.499890 0.079312
vn 0.000001 -0.000000 1.000000
v -0.000000 0.000000 0.138462
vt 0.499890 0.079312
vn 0.000001 -0.000000 1.000000
# Faces (1 to 100)
f -98/-98/-98 -99/-99/-99 -100/-100/-100
f -100/-100/-100 -97/-97/-97 -98/-98/-98
f -98/-98/-98 -96/-96/-96 -99/-99/-99
f -95/-95/-95 -96/-96/-96 -98/-98/-98
f -95/-95/-95 -94/-94/-94 -96/-96/-96
f -95/-95/-95 -93/-93/-93 -94/-94/-94
f -94/-94/-94 -93/-93/-93 -92/-92/-92
f -92/-92/-92 -91/-91/-91 -94/-94/-94
f -91/-91/-91 -92/-92/-92 -90/-90/-90
f -90/-90/-90 -89/-89/-89 -91/-91/-91
f -90/-90/-90 -88/-88/-88 -89/-89/-89
f -87/-87/-87 -88/-88/-88 -90/-90/-90
f -87/-87/-87 -86/-86/-86 -88/-88/-88
f -87/-87/-87 -85/-85/-85 -86/-86/-86
f -86/-86/-86 -85/-85/-85 -84/-84/-84
f -84/-84/-84 -83/-83/-83 -86/-86/-86
f -83/-83/-83 -84/-84/-84 -82/-82/-82
f -82/-82/-82 -81/-81/-81 -83/-83/-83
f -82/-82/-82 -80/-80/-80 -81/-81/-81
f -79/-79/-79 -80/-80/-80 -82/-82/-82
f -79/-79/-79 -78/-78/-78 -80/-80/-80
f -79/-79/-79 -77/-77/-77 -78/-78/-78
f -78/-78/-78 -77/-77/-77 -76/-76/-76
f -76/-76/-76 -75/-75/-75 -78/-78/-78
f -75/-75/-75 -76/-76/-76 -74/-74/-74
f -74/-74/-74 -73/-73/-73 -75/-75/-75
f -74/-74/-74 -72/-72/-72 -73/-73/-73
f -71/-71/-71 -72/-72/-72 -74/-74/-74
f -71/-71/-71 -70/-70/-70 -72/-72/-72
f -71/-71/-71 -69/-69/-69 -70/-70/-70
f -70/-70/-70 -69/-69/-69 -68/-68/-68
f -68/-68/-68 -67/-67/-67 -70/-70/-70
f -80/-80/-80 -66/-66/-66 -81/-81/-81
f -78/-78/-78 -65/-65/-65 -80/-80/-80
f -75/-75/-75 -64/-64/-64 -78/-78/-78
f -73/-73/-73 -63/-63/-63 -75/-75/-75
f -72/-72/-72 -62/-62/-62 -73/-73/-73
f -70/-70/-70 -61/-61/-61 -72/-72/-72
f -67/-67/-67 -60/-60/-60 -70/-70/-70
f -99/-99/-99 -59/-59/-59 -100/-100/-100
f -96/-96/-96 -58/-58/-58 -99/-99/-99
f -94/-94/-94 -57/-57/-57 -96/-96/-96
f -91/-91/-91 -56/-56/-56 -94/-94/-94
f -89/-89/-89 -55/-55/-55 -91/-91/-91
f -88/-88/-88 -54/-54/-54 -89/-89/-89
f -86/-86/-86 -53/-53/-53 -88/-88/-88
f -83/-83/-83 -52/-52/-52 -86/-86/-86
f -81/-81/-81 -51/-51/-51 -83/-83/-83
f -48/-48/-48 -49/-49/-49 -50/-50/-50
f -47/-47/-47 -49/-49/-49 -48/-48/-48
f -49/-49/-49 -47/-47/-47 -46/-46/-46
f -46/-46/-46 -45/-45/-45 -49/-49/-49
f -45/-45/-45 -46/-46/-46 -44/-44/-44
f -44/-44/-44 -43/-43/-43 -45/-45/-45
f -44/-44/-44 -42/-42/-42 -43/-43/-43
f -44/-44/-44 -41/-41/-41 -42/-42/-42
f -41/-41/-41 -40/-40/-40 -42/-42/-42
f -39/-39/-39 -40/-40/-40 -41/-41/-41
f -40/-40/-40 -39/-39/-39 -38/-38/-38
f -38/-38/-38 -37/-37/-37 -40/-40/-40
f -37/-37/-37 -38/-38/-38 -36/-36/-36
f -36/-36/-36 -35/-35/-35 -37/-37/-37
f -36/-36/-36 -34/-34/-34 -35/-35/-35
f -36/-36/-36 -33/-33/-33 -34/-34/-34
f -33/-33/-33 -32/-32/-32 -34/-34/-34
f -31/-31/-31 -32/-32/-32 -33/-33/-33
f -32/-32/-32 -31/-31/-31 -30/-30/-30
f -30/-30/-30 -29/-29/-29 -32/-32/-32
f -29/-29/-29 -30/-30/-30 -28/-28/-28
f -28/-28/-28 -27/-27/-27 -29/-29/-29
f -28/-28/-28 -26/-26/-26 -27/-27/-27
f -28/-28/-28 -25/-25/-25 -26/-26/-26
f -25/-25/-25 -24/-24/-24 -26/-26/-26
f -23/-23/-23 -24/-24/-24 -25/-25/-25
f -24/-24/-24 -23/-23/-23 -22/-22/-22
f -22/-22/-22 -21/-21/-21 -24/-24/-24
f -21/-21/-21 -22/-22/-22 -20/-20/-20
f -20/-20/-20 -19/-19/-19 -21/-21/-21
f -20/-20/-20 -18/-18/-18 -19/-19/-19
f -20/-20/-20 -17/-17/-17 -18/-18/-18
f -29/-29/-29 -16/-16/-16 -32/-32/-32
f -27/-27/-27 -15/-15/-15 -29/-29/-29
f -26/-26/-26 -14/-14/-14 -27/-27/-27
f -24/-24/-24 -13/-13/-13 -26/-26/-26
f -21/-21/-21 -12/-12/-12 -24/-24/-24
f -19/-19/-19 -11/-11/-11 -21/-21/-21
f -18/-18/-18 -10/-10/-10 -19/-19/-19
f -49/-49/-49 -9/-9/-9 -50/-50/-50
f -45/-45/-45 -8/-8/-8 -49/-49/-49
f -43/-43/-43 -7/-7/-7 -45/-45/-45
f -42/-42/-42 -6/-6/-6 -43/-43/-43
f -40/-40/-40 -5/-5/-5 -42/-42/-42
f -37/-37/-37 -4/-4/-4 -40/-40/-40
f -35/-35/-35 -3/-3/-3 -37/-37/-37
f -34/-34/-34 -2/-2/-2 -35/-35/-35
f -32/-32/-32 -1/-1/-1 -34/-34/-34

