# Mesh "mesh_gem" exported with raY asset explorer
g mesh_gem
# SubMesh 0
# Vertices
v -0.004433 0.106912 0.086335
vt 1.000000 1.000000
vn 0.674633 0.594564 0.437452
v 0.068240 0.065200 0.035412
vt 1.000000 0.000000
vn 0.674633 0.594564 0.437452
v 0.094749 0.000000 0.078686
vt 0.000000 0.000000
vn 0.674633 0.594564 0.437452
v -0.004796 0.000000 0.236664
vt 0.000000 1.000000
vn 0.674633 0.594564 0.437452
v -0.095881 0.000000 0.078686
vt 1.000000 1.000000
vn -0.698713 0.566375 0.437058
v -0.077832 0.065200 0.035412
vt 1.000000 0.000000
vn -0.698713 0.566375 0.437058
v -0.004433 0.106912 0.086335
vt 0.000000 0.000000
vn -0.698713 0.566375 0.437058
v -0.004796 0.000000 0.236664
vt 0.000000 1.000000
vn -0.698713 0.566375 0.437058
v -0.095881 0.000000 0.078686
vt 1.000000 1.000000
vn -0.698713 0.566375 0.437058
v -0.004433 0.106912 0.086335
vt 0.000000 0.000000
vn -0.698713 0.566375 0.437058
v 0.094749 0.000000 0.078686
vt 1.000000 1.000000
vn 0.674633 -0.594564 0.437452
v 0.068240 -0.065200 0.035412
vt 1.000000 0.000000
vn 0.674633 -0.594564 0.437452
v -0.004433 -0.106912 0.086335
vt 0.000000 0.000000
vn 0.674633 -0.594564 0.437452
v -0.004796 0.000000 0.236664
vt 0.000000 1.000000
vn 0.674633 -0.594564 0.437452
v -0.004433 -0.106912 0.086335
vt 1.000000 1.000000
vn -0.698713 -0.566375 0.437058
v -0.077832 -0.065200 0.035412
vt 1.000000 0.000000
vn -0.698713 -0.566375 0.437058
v -0.095881 0.000000 0.078686
vt 0.000000 0.000000
vn -0.698713 -0.566375 0.437058
v -0.004796 0.000000 0.236664
vt 0.000000 1.000000
vn -0.698713 -0.566375 0.437058
v 0.068240 -0.065200 0.035412
vt 1.000000 0.000000
vn 0.594083 -0.782278 0.187367
v 0.036318 -0.096731 -0.000371
vt 0.000000 0.000000
vn 0.594083 -0.782278 0.187367
v -0.004433 -0.106912 0.086335
vt 1.000000 1.000000
vn 0.594083 -0.782278 0.187367
v 0.036318 -0.096731 -0.000371
vt 0.000000 0.000000
vn 0.594083 -0.782278 0.187367
v -0.004796 -0.129236 -0.000371
vt 0.000000 1.000000
vn 0.594083 -0.782278 0.187367
v 0.051761 0.000000 -0.000371
vt 1.000000 1.000000
vn 0.878518 0.000000 -0.477710
v 0.068240 -0.065200 0.035412
vt 1.000000 0.000000
vn 0.878518 0.000000 -0.477710
v 0.094749 0.000000 0.078686
vt 0.000000 0.000000
vn 0.878518 0.000000 -0.477710
v 0.068240 0.065200 0.035412
vt 0.000000 1.000000
vn 0.878518 0.000000 -0.477710
v -0.004433 0.106912 0.086335
vt 0.000000 0.000000
vn 0.594219 0.782252 0.187041
v -0.004796 0.129236 -0.000371
vt 0.000000 1.000000
vn 0.594219 0.782252 0.187041
v 0.036261 0.096731 -0.000371
vt 1.000000 1.000000
vn 0.594219 0.782252 0.187041
v 0.068240 0.065200 0.035412
vt 1.000000 0.000000
vn 0.594219 0.782252 0.187041
v -0.004433 0.106912 0.086335
vt 0.000000 0.000000
vn 0.594219 0.782252 0.187041
v -0.077832 0.065200 0.035412
vt 0.000000 1.000000
vn -0.923299 0.000000 -0.384081
v -0.095881 0.000000 0.078686
vt 1.000000 1.000000
vn -0.923299 0.000000 -0.384081
v -0.062994 0.000000 -0.000371
vt 0.000000 0.000000
vn -0.923299 0.000000 -0.384081
v -0.077832 -0.065200 0.035412
vt 1.000000 0.000000
vn -0.923299 0.000000 -0.384081
v -0.004433 -0.106912 0.086335
vt 1.000000 0.000000
vn -0.592929 -0.782493 0.190106
v -0.004796 -0.129236 -0.000371
vt 0.000000 0.000000
vn -0.592929 -0.782493 0.190106
v -0.045669 -0.096731 -0.000371
vt 0.000000 1.000000
vn -0.592929 -0.782493 0.190106
v -0.077832 -0.065200 0.035412
vt 1.000000 1.000000
vn -0.592929 -0.782493 0.190106
v -0.004433 0.106912 0.086335
vt 0.000000 0.000000
vn -0.592929 0.782493 0.190105
v -0.045669 0.096731 -0.000371
vt 1.000000 1.000000
vn -0.592929 0.782493 0.190105
v -0.004796 0.129236 -0.000371
vt 1.000000 0.000000
vn -0.592929 0.782493 0.190105
v -0.004433 0.106912 0.086335
vt 0.000000 0.000000
vn -0.592929 0.782493 0.190105
v -0.077832 0.065200 0.035412
vt 0.000000 1.000000
vn -0.592929 0.782493 0.190105
v -0.045669 0.096731 -0.000371
vt 1.000000 1.000000
vn -0.592929 0.782493 0.190105
v -0.004796 0.000000 -0.079131
vt 0.000000 0.000000
vn -0.382408 -0.480850 -0.789017
v -0.045669 -0.096731 -0.000371
vt 1.000000 1.000000
vn -0.382408 -0.480850 -0.789017
v -0.004796 -0.129236 -0.000371
vt 1.000000 0.000000
vn -0.382408 -0.480850 -0.789017
v -0.062994 0.000000 -0.000371
vt 0.000000 1.000000
vn -0.804003 0.000000 -0.594625
v -0.077832 -0.065200 0.035412
vt 1.000000 1.000000
vn -0.795794 -0.142533 -0.588554
v -0.045669 -0.096731 -0.000371
vt 1.000000 0.000000
vn -0.795794 -0.142533 -0.588554
v -0.004796 0.000000 -0.079131
vt 0.000000 0.000000
vn -0.804003 0.000000 -0.594625
v -0.004796 0.000000 -0.079131
vt 0.000000 0.000000
vn -0.382408 0.480850 -0.789017
v -0.004796 0.129236 -0.000371
vt 1.000000 1.000000
vn -0.382408 0.480850 -0.789017
v -0.045669 0.096731 -0.000371
vt 1.000000 0.000000
vn -0.382408 0.480850 -0.789017
v -0.045669 0.096731 -0.000371
vt 1.000000 1.000000
vn -0.795794 0.142533 -0.588554
v -0.062994 0.000000 -0.000371
vt 0.000000 0.000000
vn -0.804003 0.000000 -0.594625
v -0.004796 0.000000 -0.079131
vt 0.000000 1.000000
vn -0.804003 0.000000 -0.594625
v -0.045669 0.096731 -0.000371
vt 1.000000 1.000000
vn -0.795794 0.142533 -0.588554
v -0.077832 0.065200 0.035412
vt 1.000000 0.000000
vn -0.795794 0.142533 -0.588554
v -0.004796 -0.129236 -0.000371
vt 0.000000 0.000000
vn 0.380487 -0.481262 -0.789694
v 0.036318 -0.096731 -0.000371
vt 1.000000 1.000000
vn 0.380487 -0.481262 -0.789694
v -0.004796 0.000000 -0.079131
vt 1.000000 0.000000
vn 0.380487 -0.481262 -0.789694
v 0.051761 0.000000 -0.000371
vt 1.000000 1.000000
vn 0.808198 0.000226 -0.588910
v -0.004796 0.000000 -0.079131
vt 1.000000 0.000000
vn 0.808198 0.000226 -0.588910
v 0.036318 -0.096731 -0.000371
vt 0.000000 0.000000
vn 0.801618 -0.127973 -0.583980
v 0.036318 -0.096731 -0.000371
vt 0.000000 0.000000
vn 0.801618 -0.127973 -0.583980
v 0.068240 -0.065200 0.035412
vt 0.000000 1.000000
vn 0.801618 -0.127973 -0.583980
v 0.051761 0.000000 -0.000371
vt 0.000000 0.000000
vn 0.808198 0.000226 -0.588910
v 0.036261 0.096731 -0.000371
vt 1.000000 1.000000
vn 0.801442 0.128420 -0.584122
v 0.068240 0.065200 0.035412
vt 0.000000 1.000000
vn 0.801442 0.128420 -0.584122
v 0.036261 0.096731 -0.000371
vt 1.000000 1.000000
vn 0.801442 0.128420 -0.584122
v -0.004796 0.000000 -0.079131
vt 0.000000 0.000000
vn 0.380942 0.481165 -0.789534
v 0.036261 0.096731 -0.000371
vt 1.000000 1.000000
vn 0.380942 0.481165 -0.789534
v -0.004796 0.129236 -0.000371
vt 1.000000 0.000000
vn 0.380942 0.481165 -0.789534
# Faces (1 to 76)
f -74/-74/-74 -75/-75/-75 -76/-76/-76
f -73/-73/-73 -74/-74/-74 -76/-76/-76
f -70/-70/-70 -71/-71/-71 -72/-72/-72
f -67/-67/-67 -68/-68/-68 -69/-69/-69
f -64/-64/-64 -65/-65/-65 -66/-66/-66
f -64/-64/-64 -66/-66/-66 -63/-63/-63
f -60/-60/-60 -61/-61/-61 -62/-62/-62
f -59/-59/-59 -60/-60/-60 -62/-62/-62
f -56/-56/-56 -57/-57/-57 -58/-58/-58
f -56/-56/-56 -54/-54/-54 -55/-55/-55
f -51/-51/-51 -52/-52/-52 -53/-53/-53
f -50/-50/-50 -51/-51/-51 -53/-53/-53
f -47/-47/-47 -48/-48/-48 -49/-49/-49
f -45/-45/-45 -46/-46/-46 -47/-47/-47
f -42/-42/-42 -43/-43/-43 -44/-44/-44
f -41/-41/-41 -43/-43/-43 -42/-42/-42
f -38/-38/-38 -39/-39/-39 -40/-40/-40
f -40/-40/-40 -37/-37/-37 -38/-38/-38
f -34/-34/-34 -35/-35/-35 -36/-36/-36
f -31/-31/-31 -32/-32/-32 -33/-33/-33
f -28/-28/-28 -29/-29/-29 -30/-30/-30
f -25/-25/-25 -26/-26/-26 -27/-27/-27
f -27/-27/-27 -24/-24/-24 -25/-25/-25
f -21/-21/-21 -22/-22/-22 -23/-23/-23
f -18/-18/-18 -19/-19/-19 -20/-20/-20
f -16/-16/-16 -17/-17/-17 -19/-19/-19
f -13/-13/-13 -14/-14/-14 -15/-15/-15
f -10/-10/-10 -11/-11/-11 -12/-12/-12
f -12/-12/-12 -8/-8/-8 -9/-9/-9
f -6/-6/-6 -7/-7/-7 -11/-11/-11
f -4/-4/-4 -5/-5/-5 -7/-7/-7
f -1/-1/-1 -2/-2/-2 -3/-3/-3

