# Mesh "mesh_fire_blast_core" exported with raY asset explorer
g mesh_fire_blast_core
# SubMesh 0
# Vertices
v 0.028941 0.681274 -0.168907
vt 0.746130 0.324308
vn 0.834217 0.383161 0.396572
v 0.217900 0.533322 -0.326779
vt 0.702822 0.012200
vn 0.793649 0.355891 0.493419
v 0.090724 0.506753 -0.132898
vt 0.702822 0.324308
vn 0.816578 0.278523 0.505594
v 0.027810 0.736553 -0.300421
vt 0.746130 0.012200
vn 0.750390 0.511047 0.419220
v 0.026896 0.653675 -0.074826
vt 0.746130 0.600821
vn 0.898111 0.246119 0.364449
v 0.023977 0.506753 -0.038818
vt 0.702822 0.600822
vn 0.834048 0.199410 0.514392
v 0.118764 0.300156 -0.100935
vt 0.649954 0.324309
vn 0.752941 0.143325 0.642291
v 0.021678 0.300156 -0.006854
vt 0.649954 0.600821
vn 0.693427 0.106825 0.712564
v 0.129276 0.125849 -0.080739
vt 0.615013 0.324308
vn 0.722884 0.117446 0.680915
v 0.000126 0.001869 0.022459
vt 0.608467 0.600821
vn 0.635076 0.065794 0.769642
v 0.254658 0.254805 -0.274807
vt 0.622297 0.012200
vn 0.797499 0.166954 0.579759
v 0.251552 0.311711 -0.302460
vt 0.649954 0.012200
vn 0.804873 0.178281 0.566035
v -0.092867 -0.578908 -0.129244
vt 0.457134 0.324308
vn 0.554120 -0.505820 0.661133
v 0.013232 -0.386544 -0.100970
vt 0.497779 0.324308
vn 0.576607 -0.396462 0.714382
v 0.070823 -0.570038 -0.299320
vt 0.497779 0.012200
vn 0.593217 -0.468777 0.654478
v 0.025711 -0.653139 -0.328248
vt 0.457134 0.012200
vn 0.614052 -0.531114 0.583831
v -0.089174 -0.351474 -0.006889
vt 0.497779 0.600821
vn 0.554725 -0.320453 0.767847
v -0.186299 -0.531338 -0.035163
vt 0.457134 0.600821
vn 0.488417 -0.475307 0.731800
v -0.216639 -0.753758 -0.184039
vt 0.419424 0.324308
vn 0.475110 -0.594384 0.648828
v -0.301746 -0.694591 -0.089959
vt 0.419424 0.600821
vn 0.396520 -0.569880 0.719728
v -0.327882 -0.894371 -0.243156
vt 0.382879 0.324308
vn 0.343615 -0.693292 0.633462
v -0.234412 -0.997857 -0.442155
vt 0.382879 0.012200
vn 0.409620 -0.714251 0.567501
v -0.108253 -0.842274 -0.382879
vt 0.419424 0.012200
vn 0.548079 -0.611869 0.570286
v -0.407759 -0.825978 -0.149076
vt 0.382879 0.600821
vn 0.274623 -0.666059 0.693504
v -0.473923 -1.016459 -0.339723
vt 0.343091 0.324308
vn 0.190199 -0.784878 0.589738
v -0.531020 -0.949413 -0.245642
vt 0.343091 0.600821
vn 0.159245 -0.766676 0.621971
v -0.709790 -1.083256 -0.379731
vt 0.299266 0.600822
vn 0.136608 -0.874556 0.465285
v -0.670974 -1.136833 -0.473812
vt 0.299266 0.324308
vn 0.075653 -0.866462 0.493478
v -0.400260 -1.134559 -0.540038
vt 0.343091 0.012200
vn 0.220750 -0.801272 0.556087
v -0.628345 -1.254544 -0.653430
vt 0.299266 0.012200
vn 0.014349 -0.854402 0.519414
v -0.851516 -1.170406 -0.490311
vt 0.262224 0.600821
vn 0.141651 -0.929324 0.341016
v -0.878998 -1.184147 -0.584391
vt 0.262224 0.324308
vn 0.014100 -0.910587 0.413077
v -0.920496 -1.214990 -0.676565
vt 0.262224 0.012200
vn -0.113758 -0.871987 0.476128
v 0.028941 0.681274 -0.168907
vt 0.262855 0.324308
vn -0.821538 0.414636 0.391346
v -0.042770 0.506753 -0.132898
vt 0.301056 0.324308
vn -0.809144 0.303581 0.503115
v -0.169123 0.535505 -0.326540
vt 0.301056 0.012200
vn -0.781605 0.377374 0.496672
v 0.027810 0.736553 -0.300421
vt 0.262855 0.012200
vn -0.731041 0.534094 0.424644
v 0.026896 0.653675 -0.074826
vt 0.262855 0.600822
vn -0.892673 0.285406 0.348825
v 0.023977 0.506753 -0.038818
vt 0.301056 0.600822
vn -0.831625 0.227908 0.506416
v -0.206645 0.317368 -0.300732
vt 0.350066 0.012200
vn -0.789596 0.217274 0.573873
v -0.075408 0.300156 -0.100935
vt 0.350066 0.324308
vn -0.749805 0.184265 0.635483
v -0.241269 0.198287 -0.277466
vt 0.401874 0.012200
vn -0.771620 0.225906 0.594617
v -0.109858 0.078644 -0.084438
vt 0.409333 0.324308
vn -0.721131 0.182016 0.668461
v 0.021678 0.300156 -0.006854
vt 0.350066 0.600821
vn -0.705096 0.150013 0.693063
v 0.000126 0.001869 0.022459
vt 0.414310 0.600821
vn -0.663483 0.136318 0.735668
v -0.279731 -0.483768 -0.129244
vt 0.549243 0.324308
vn -0.702637 0.258442 0.662955
v -0.351112 -0.328177 -0.299669
vt 0.508769 0.012200
vn -0.739343 0.131060 0.660451
v -0.191581 -0.316405 -0.100970
vt 0.508769 0.324308
vn -0.694371 0.147790 0.704278
v -0.404181 -0.419136 -0.328044
vt 0.549243 0.012200
vn -0.757408 0.304729 0.577472
v -0.186299 -0.531338 -0.035163
vt 0.549243 0.600821
vn -0.639122 0.208941 0.740180
v -0.089174 -0.351474 -0.006889
vt 0.508769 0.600821
vn -0.647171 0.163671 0.744568
v -0.386852 -0.635423 -0.184039
vt 0.586793 0.324308
vn -0.708255 0.268554 0.652881
v -0.504662 -0.559535 -0.382734
vt 0.586793 0.012200
vn -0.751594 0.329252 0.571576
v -0.487635 -0.757585 -0.243156
vt 0.623184 0.324308
vn -0.739860 0.236349 0.629877
v -0.407759 -0.825978 -0.149076
vt 0.623184 0.600821
vn -0.697100 0.180844 0.693792
v -0.301746 -0.694591 -0.089959
vt 0.586793 0.600821
vn -0.656293 0.204586 0.726239
v -0.602565 -0.677950 -0.442355
vt 0.623184 0.012200
vn -0.775977 0.289746 0.560274
v -0.593813 -0.882367 -0.339723
vt 0.662804 0.324308
vn -0.768018 0.251764 0.588867
v -0.702623 -0.795394 -0.540110
vt 0.662804 0.012200
vn -0.791923 0.265577 0.549843
v -0.744808 -1.035374 -0.473812
vt 0.706444 0.324308
vn -0.788886 0.363934 0.495188
v -0.841647 -0.954952 -0.653951
vt 0.706444 0.012200
vn -0.809472 0.285203 0.513239
v -0.709790 -1.083256 -0.379731
vt 0.706444 0.600822
vn -0.762446 0.441106 0.473394
v -0.531020 -0.949413 -0.245642
vt 0.662804 0.600821
vn -0.742257 0.237320 0.626685
v -0.878998 -1.184147 -0.584391
vt 0.746534 0.324308
vn -0.804417 0.422012 0.418114
v -0.920496 -1.214990 -0.676565
vt 0.746534 0.012200
vn -0.834322 0.280074 0.474832
v -0.851516 -1.170406 -0.490311
vt 0.746534 0.600821
vn -0.754999 0.553713 0.351252
v -0.137441 -0.127648 -0.084573
vt 0.474237 0.324308
vn -0.681327 0.041665 0.730792
v 0.000126 0.001869 0.022459
vt 0.464274 0.600821
vn -0.664006 0.113328 0.739089
v -0.363798 -0.305651 -0.267083
vt 0.491515 0.012200
vn -0.694898 -0.030227 0.718473
v 0.066802 -0.246523 -0.087834
vt 0.523096 0.324308
vn 0.556082 -0.346944 0.755250
v 0.000126 0.001869 0.022459
vt 0.536584 0.600821
vn 0.566526 -0.232140 0.790670
v 0.075312 -0.564538 -0.262728
vt 0.508135 0.012200
vn 0.537550 -0.456702 0.708846
v -0.775852 -0.103757 -0.288499
vt 0.746130 0.324308
vn -0.473275 0.779277 0.410777
v -0.644815 0.087909 -0.397640
vt 0.712102 0.012200
vn -0.489567 0.695626 0.525765
v -0.605469 -0.035992 -0.211929
vt 0.712102 0.324308
vn -0.429711 0.755630 0.494341
v -0.827725 -0.103008 -0.383305
vt 0.746130 0.012200
vn -0.571478 0.664721 0.481205
v -0.745552 -0.100727 -0.194418
vt 0.746130 0.600821
vn -0.361950 0.872226 0.328959
v -0.602661 -0.096248 -0.117848
vt 0.712102 0.600821
vn -0.365979 0.809743 0.458667
v -0.413200 0.008229 -0.131068
vt 0.667388 0.324308
vn -0.327787 0.719638 0.612109
v -0.405600 -0.075461 -0.036988
vt 0.667388 0.600821
vn -0.304887 0.709008 0.635886
v -0.109858 0.078644 -0.084438
vt 0.560773 0.324308
vn -0.271212 0.710601 0.649223
v 0.000126 0.001869 0.022459
vt 0.555795 0.600821
vn -0.245217 0.682575 0.688448
v -0.241269 0.198287 -0.277466
vt 0.568232 0.012200
vn -0.296392 0.736495 0.608051
v -0.445503 0.145588 -0.329132
vt 0.667388 0.012200
vn -0.350251 0.729385 0.587641
v -0.775852 -0.103757 -0.288499
vt 0.261769 0.324308
vn -0.413879 -0.813188 0.409181
v -0.599853 -0.156504 -0.211929
vt 0.296969 0.324308
vn -0.318271 -0.806218 0.498715
v -0.623286 -0.285097 -0.397899
vt 0.296969 0.012200
vn -0.380891 -0.761851 0.523931
v -0.827725 -0.103008 -0.383305
vt 0.261769 0.012200
vn -0.518538 -0.717159 0.465619
v -0.745552 -0.100727 -0.194418
vt 0.261769 0.600821
vn -0.299551 -0.890222 0.343183
v -0.602661 -0.096248 -0.117848
vt 0.296969 0.600821
vn -0.253709 -0.845248 0.470306
v -0.398372 -0.300705 -0.328682
vt 0.343224 0.012200
vn -0.214107 -0.742229 0.635023
v -0.397999 -0.159151 -0.131068
vt 0.343224 0.324308
vn -0.159585 -0.742524 0.650531
v -0.363798 -0.305651 -0.267083
vt 0.362557 0.012200
vn -0.192790 -0.691424 0.696250
v -0.137441 -0.127648 -0.084573
vt 0.379835 0.324308
vn -0.098843 -0.691336 0.715741
v -0.405600 -0.075461 -0.036988
vt 0.343224 0.600821
vn -0.104256 -0.740416 0.664014
v 0.000126 0.001869 0.022459
vt 0.389798 0.600821
vn -0.003987 -0.684883 0.728642
v 0.629055 -0.007372 -0.151976
vt 0.681605 0.324308
vn 0.289183 -0.810488 0.509395
v 0.411920 -0.158381 -0.303985
vt 0.592136 0.012200
vn 0.201947 -0.795880 0.570783
v 0.391491 -0.026477 -0.102318
vt 0.592136 0.324308
vn 0.185291 -0.763608 0.618523
v 0.658216 -0.132316 -0.342785
vt 0.681605 0.012200
vn 0.353743 -0.786114 0.506843
v 0.623461 0.061866 -0.057896
vt 0.681605 0.600821
vn 0.223556 -0.830909 0.509523
v 0.381072 0.059081 -0.008238
vt 0.592136 0.600821
vn 0.167965 -0.728581 0.664046
v 0.815348 0.055173 -0.216311
vt 0.745675 0.324308
vn 0.401358 -0.818431 0.411197
v 0.872534 0.054310 -0.335249
vt 0.745675 0.012200
vn 0.518133 -0.732313 0.441878
v 0.790064 0.055173 -0.122230
vt 0.745675 0.600822
vn 0.275755 -0.886548 0.371471
v 0.345256 -0.164080 -0.266976
vt 0.547765 0.012200
vn 0.226380 -0.777750 0.586393
v 0.099454 -0.082138 -0.082232
vt 0.533854 0.324308
vn 0.198632 -0.741475 0.640906
v 0.000126 0.001869 0.022459
vt 0.520363 0.600821
vn 0.169879 -0.701450 0.692177
v 0.623461 0.061866 -0.057896
vt 0.327610 0.600821
vn 0.237292 0.835221 0.496083
v 0.381072 0.059081 -0.008238
vt 0.418917 0.600821
vn 0.059823 0.735401 0.674986
v 0.370652 0.144640 -0.102318
vt 0.418917 0.324308
vn 0.062544 0.786820 0.614006
v 0.617868 0.131103 -0.151976
vt 0.327610 0.324308
vn 0.291926 0.816733 0.497721
v 0.366702 0.277991 -0.304855
vt 0.418917 0.012200
vn 0.064863 0.833141 0.549245
v 0.638877 0.256423 -0.343472
vt 0.327610 0.012200
vn 0.345950 0.795372 0.497697
v 0.790064 0.055173 -0.122230
vt 0.262224 0.600821
vn 0.324752 0.876097 0.356357
v 0.815348 0.055173 -0.216311
vt 0.262224 0.324308
vn 0.430310 0.811615 0.395112
v 0.872534 0.054310 -0.335249
vt 0.262224 0.012200
vn 0.528639 0.733497 0.427228
v 0.129276 0.125849 -0.080739
vt 0.485618 0.324308
vn -0.021844 0.769472 0.638306
v 0.000126 0.001869 0.022459
vt 0.492164 0.600821
vn -0.024000 0.692464 0.721053
v 0.254658 0.254805 -0.274807
vt 0.478334 0.012200
vn -0.019408 0.836645 0.547401
v 0.648935 -0.695166 -0.218774
vt 0.492164 0.324308
vn 0.648956 0.430211 0.627515
v 0.486385 -0.547153 -0.155520
vt 0.567719 0.324308
vn 0.643416 0.420165 0.639903
v 0.750428 -0.596407 -0.417511
vt 0.492164 0.012200
vn 0.673655 0.469225 0.570979
v 0.593072 -0.449945 -0.352959
vt 0.567719 0.012200
vn 0.667967 0.463698 0.582069
v 0.584951 -0.761731 -0.124693
vt 0.492164 0.600821
vn 0.620796 0.388900 0.680713
v 0.419387 -0.614094 -0.061439
vt 0.567719 0.600821
vn 0.615106 0.374178 0.694000
v 0.289572 -0.463142 -0.024190
vt 0.616707 0.600821
vn 0.631616 0.365560 0.683687
v 0.358822 -0.405108 -0.118270
vt 0.616707 0.324308
vn 0.656244 0.416008 0.629509
v 0.188353 -0.321406 -0.000617
vt 0.667388 0.600821
vn 0.685548 0.407302 0.603431
v 0.253629 -0.268482 -0.094697
vt 0.667388 0.324308
vn 0.683400 0.423839 0.594411
v 0.469198 -0.316255 -0.317142
vt 0.616707 0.012200
vn 0.676877 0.463923 0.571501
v 0.355472 -0.188357 -0.296007
vt 0.667388 0.012200
vn 0.681016 0.440164 0.585212
v 0.099454 -0.082138 -0.082232
vt 0.698611 0.324308
vn 0.701138 0.429473 0.569174
v 0.000126 0.001869 0.022459
vt 0.712102 0.600821
vn 0.721709 0.448108 0.527574
v 0.345256 -0.164080 -0.266976
vt 0.684700 0.012200
vn 0.678812 0.409763 0.609351
v 0.762863 -0.892527 -0.208929
vt 0.418917 0.600821
vn 0.671233 0.437246 0.598550
v 0.810428 -0.820649 -0.303010
vt 0.418917 0.324308
vn 0.697983 0.431534 0.571488
v 0.941359 -0.979784 -0.335532
vt 0.327610 0.600821
vn 0.690988 0.599708 0.403592
v 0.958990 -0.939925 -0.429613
vt 0.327610 0.324308
vn 0.739988 0.491521 0.459157
v 0.902066 -0.721366 -0.505210
vt 0.418917 0.012200
vn 0.723649 0.425196 0.543637
v 1.038296 -0.850973 -0.611871
vt 0.327610 0.012200
vn 0.775808 0.376731 0.506159
v 1.041086 -1.015655 -0.430180
vt 0.262224 0.600821
vn 0.654119 0.707094 0.268603
v 1.065575 -1.023002 -0.524261
vt 0.262224 0.324308
vn 0.738325 0.552622 0.386632
v 1.118980 -1.044915 -0.608344
vt 0.262224 0.012200
vn 0.789394 0.373347 0.487308
v 0.352390 -0.681035 -0.155520
vt 0.446329 0.324308
vn -0.437181 -0.631012 0.640857
v 0.520967 -0.828296 -0.218774
vt 0.520363 0.324308
vn -0.309050 -0.718574 0.623009
v 0.437002 -0.941388 -0.417655
vt 0.520363 0.012200
vn -0.348009 -0.744931 0.569182
v 0.254916 -0.787488 -0.352955
vt 0.446329 0.012200
vn -0.482983 -0.652766 0.583630
v 0.419387 -0.614094 -0.061439
vt 0.446329 0.600821
vn -0.388893 -0.605607 0.694263
v 0.584951 -0.761731 -0.124693
vt 0.520363 0.600821
vn -0.268516 -0.688547 0.673648
v 0.220323 -0.521176 -0.118270
vt 0.395652 0.324308
vn -0.538730 -0.543393 0.643812
v 0.110592 -0.610807 -0.317072
vt 0.395652 0.012200
vn -0.572125 -0.563846 0.595609
v 0.080540 -0.569458 -0.295531
vt 0.343224 0.012200
vn -0.572813 -0.503073 0.647150
v 0.123078 -0.374329 -0.094697
vt 0.343224 0.324308
vn -0.596157 -0.477484 0.645450
v 0.289572 -0.463142 -0.024190
vt 0.395652 0.600821
vn -0.503214 -0.520816 0.689584
v 0.188353 -0.321406 -0.000617
vt 0.343224 0.600821
vn -0.618836 -0.451259 0.642968
v 0.075312 -0.564538 -0.262728
vt 0.325418 0.012200
vn -0.560695 -0.464646 0.685365
v 0.066802 -0.246523 -0.087834
vt 0.310457 0.324308
vn -0.624789 -0.439304 0.645485
v 0.000126 0.001869 0.022459
vt 0.296969 0.600821
vn -0.684920 -0.411176 0.601513
v 0.715299 -0.964405 -0.303010
vt 0.592136 0.324308
vn -0.110329 -0.811349 0.574057
v 0.663842 -1.088714 -0.504961
vt 0.592136 0.012200
vn -0.118616 -0.825304 0.552090
v 0.923728 -1.023155 -0.429613
vt 0.681605 0.324308
vn 0.124863 -0.881897 0.454606
v 0.912814 -1.142107 -0.611656
vt 0.681605 0.012200
vn 0.208306 -0.834697 0.509793
v 0.941359 -0.979784 -0.335532
vt 0.681605 0.600821
vn 0.039987 -0.918271 0.393928
v 0.762863 -0.892527 -0.208929
vt 0.592136 0.600821
vn -0.102002 -0.796863 0.595487
v 1.065575 -1.023002 -0.524261
vt 0.745675 0.324308
vn 0.211076 -0.900983 0.379047
v 1.118980 -1.044915 -0.608344
vt 0.745675 0.012200
vn 0.350985 -0.803264 0.481223
v 1.041086 -1.015655 -0.430180
vt 0.745675 0.600822
vn 0.062815 -0.963055 0.261875
# Faces (1 to 168)
f -166/-166/-166 -167/-167/-167 -168/-168/-168
f -165/-165/-165 -168/-168/-168 -167/-167/-167
f -168/-168/-168 -164/-164/-164 -166/-166/-166
f -163/-163/-163 -166/-166/-166 -164/-164/-164
f -162/-162/-162 -166/-166/-166 -163/-163/-163
f -161/-161/-161 -162/-162/-162 -163/-163/-163
f -160/-160/-160 -162/-162/-162 -161/-161/-161
f -159/-159/-159 -160/-160/-160 -161/-161/-161
f -158/-158/-158 -162/-162/-162 -160/-160/-160
f -158/-158/-158 -157/-157/-157 -162/-162/-162
f -162/-162/-162 -157/-157/-157 -166/-166/-166
f -157/-157/-157 -167/-167/-167 -166/-166/-166
f -154/-154/-154 -155/-155/-155 -156/-156/-156
f -156/-156/-156 -153/-153/-153 -154/-154/-154
f -156/-156/-156 -155/-155/-155 -152/-152/-152
f -152/-152/-152 -151/-151/-151 -156/-156/-156
f -156/-156/-156 -151/-151/-151 -150/-150/-150
f -151/-151/-151 -149/-149/-149 -150/-150/-150
f -148/-148/-148 -150/-150/-150 -149/-149/-149
f -147/-147/-147 -150/-150/-150 -148/-148/-148
f -146/-146/-146 -150/-150/-150 -147/-147/-147
f -146/-146/-146 -156/-156/-156 -150/-150/-150
f -153/-153/-153 -156/-156/-156 -146/-146/-146
f -149/-149/-149 -145/-145/-145 -148/-148/-148
f -144/-144/-144 -148/-148/-148 -145/-145/-145
f -147/-147/-147 -148/-148/-148 -144/-144/-144
f -145/-145/-145 -143/-143/-143 -144/-144/-144
f -144/-144/-144 -143/-143/-143 -142/-142/-142
f -142/-142/-142 -141/-141/-141 -144/-144/-144
f -140/-140/-140 -144/-144/-144 -141/-141/-141
f -144/-144/-144 -140/-140/-140 -147/-147/-147
f -141/-141/-141 -139/-139/-139 -140/-140/-140
f -141/-141/-141 -142/-142/-142 -138/-138/-138
f -138/-138/-138 -137/-137/-137 -141/-141/-141
f -139/-139/-139 -141/-141/-141 -137/-137/-137
f -137/-137/-137 -136/-136/-136 -139/-139/-139
f -133/-133/-133 -134/-134/-134 -135/-135/-135
f -135/-135/-135 -132/-132/-132 -133/-133/-133
f -131/-131/-131 -135/-135/-135 -134/-134/-134
f -134/-134/-134 -130/-130/-130 -131/-131/-131
f -134/-134/-134 -133/-133/-133 -129/-129/-129
f -129/-129/-129 -128/-128/-128 -134/-134/-134
f -128/-128/-128 -130/-130/-130 -134/-134/-134
f -128/-128/-128 -129/-129/-129 -127/-127/-127
f -127/-127/-127 -126/-126/-126 -128/-128/-128
f -125/-125/-125 -128/-128/-128 -126/-126/-126
f -130/-130/-130 -128/-128/-128 -125/-125/-125
f -125/-125/-125 -126/-126/-126 -124/-124/-124
f -121/-121/-121 -122/-122/-122 -123/-123/-123
f -122/-122/-122 -120/-120/-120 -123/-123/-123
f -121/-121/-121 -123/-123/-123 -119/-119/-119
f -118/-118/-118 -121/-121/-121 -119/-119/-119
f -117/-117/-117 -123/-123/-123 -120/-120/-120
f -120/-120/-120 -116/-116/-116 -117/-117/-117
f -115/-115/-115 -117/-117/-117 -116/-116/-116
f -117/-117/-117 -115/-115/-115 -114/-114/-114
f -114/-114/-114 -113/-113/-113 -117/-117/-117
f -123/-123/-123 -117/-117/-117 -113/-113/-113
f -113/-113/-113 -119/-119/-119 -123/-123/-123
f -116/-116/-116 -112/-112/-112 -115/-115/-115
f -111/-111/-111 -115/-115/-115 -112/-112/-112
f -112/-112/-112 -110/-110/-110 -111/-111/-111
f -109/-109/-109 -111/-111/-111 -110/-110/-110
f -110/-110/-110 -108/-108/-108 -109/-109/-109
f -111/-111/-111 -109/-109/-109 -107/-107/-107
f -107/-107/-107 -106/-106/-106 -111/-111/-111
f -115/-115/-115 -111/-111/-111 -106/-106/-106
f -106/-106/-106 -114/-114/-114 -115/-115/-115
f -105/-105/-105 -109/-109/-109 -108/-108/-108
f -104/-104/-104 -105/-105/-105 -108/-108/-108
f -109/-109/-109 -105/-105/-105 -103/-103/-103
f -103/-103/-103 -107/-107/-107 -109/-109/-109
f -118/-118/-118 -101/-101/-101 -102/-102/-102
f -102/-102/-102 -121/-121/-121 -118/-118/-118
f -100/-100/-100 -121/-121/-121 -102/-102/-102
f -121/-121/-121 -100/-100/-100 -122/-122/-122
f -152/-152/-152 -155/-155/-155 -99/-99/-99
f -99/-99/-99 -98/-98/-98 -152/-152/-152
f -97/-97/-97 -99/-99/-99 -155/-155/-155
f -155/-155/-155 -154/-154/-154 -97/-97/-97
f -94/-94/-94 -95/-95/-95 -96/-96/-96
f -93/-93/-93 -96/-96/-96 -95/-95/-95
f -96/-96/-96 -92/-92/-92 -94/-94/-94
f -91/-91/-91 -94/-94/-94 -92/-92/-92
f -90/-90/-90 -94/-94/-94 -91/-91/-91
f -89/-89/-89 -90/-90/-90 -91/-91/-91
f -88/-88/-88 -90/-90/-90 -89/-89/-89
f -87/-87/-87 -88/-88/-88 -89/-89/-89
f -88/-88/-88 -86/-86/-86 -90/-90/-90
f -86/-86/-86 -85/-85/-85 -90/-90/-90
f -90/-90/-90 -85/-85/-85 -94/-94/-94
f -95/-95/-95 -94/-94/-94 -85/-85/-85
f -82/-82/-82 -83/-83/-83 -84/-84/-84
f -84/-84/-84 -81/-81/-81 -82/-82/-82
f -80/-80/-80 -84/-84/-84 -83/-83/-83
f -83/-83/-83 -79/-79/-79 -80/-80/-80
f -83/-83/-83 -82/-82/-82 -78/-78/-78
f -78/-78/-78 -77/-77/-77 -83/-83/-83
f -77/-77/-77 -79/-79/-79 -83/-83/-83
f -77/-77/-77 -78/-78/-78 -76/-76/-76
f -76/-76/-76 -75/-75/-75 -77/-77/-77
f -75/-75/-75 -74/-74/-74 -77/-77/-77
f -79/-79/-79 -77/-77/-77 -74/-74/-74
f -74/-74/-74 -75/-75/-75 -73/-73/-73
f -70/-70/-70 -71/-71/-71 -72/-72/-72
f -71/-71/-71 -69/-69/-69 -72/-72/-72
f -70/-70/-70 -72/-72/-72 -68/-68/-68
f -68/-68/-68 -67/-67/-67 -70/-70/-70
f -72/-72/-72 -69/-69/-69 -66/-66/-66
f -65/-65/-65 -66/-66/-66 -69/-69/-69
f -64/-64/-64 -68/-68/-68 -72/-72/-72
f -72/-72/-72 -66/-66/-66 -64/-64/-64
f -63/-63/-63 -71/-71/-71 -70/-70/-70
f -63/-63/-63 -70/-70/-70 -62/-62/-62
f -62/-62/-62 -70/-70/-70 -67/-67/-67
f -67/-67/-67 -61/-61/-61 -62/-62/-62
f -58/-58/-58 -59/-59/-59 -60/-60/-60
f -60/-60/-60 -57/-57/-57 -58/-58/-58
f -56/-56/-56 -58/-58/-58 -57/-57/-57
f -57/-57/-57 -55/-55/-55 -56/-56/-56
f -57/-57/-57 -60/-60/-60 -54/-54/-54
f -54/-54/-54 -53/-53/-53 -57/-57/-57
f -55/-55/-55 -57/-57/-57 -53/-53/-53
f -53/-53/-53 -52/-52/-52 -55/-55/-55
f -59/-59/-59 -58/-58/-58 -51/-51/-51
f -51/-51/-51 -50/-50/-50 -59/-59/-59
f -49/-49/-49 -51/-51/-51 -58/-58/-58
f -58/-58/-58 -56/-56/-56 -49/-49/-49
f -46/-46/-46 -47/-47/-47 -48/-48/-48
f -45/-45/-45 -47/-47/-47 -46/-46/-46
f -44/-44/-44 -48/-48/-48 -47/-47/-47
f -47/-47/-47 -43/-43/-43 -44/-44/-44
f -43/-43/-43 -47/-47/-47 -42/-42/-42
f -41/-41/-41 -42/-42/-42 -47/-47/-47
f -45/-45/-45 -41/-41/-41 -47/-47/-47
f -42/-42/-42 -41/-41/-41 -40/-40/-40
f -41/-41/-41 -39/-39/-39 -40/-40/-40
f -38/-38/-38 -39/-39/-39 -41/-41/-41
f -38/-38/-38 -41/-41/-41 -45/-45/-45
f -37/-37/-37 -39/-39/-39 -38/-38/-38
f -40/-40/-40 -39/-39/-39 -36/-36/-36
f -36/-36/-36 -35/-35/-35 -40/-40/-40
f -34/-34/-34 -36/-36/-36 -39/-39/-39
f -39/-39/-39 -37/-37/-37 -34/-34/-34
f -48/-48/-48 -44/-44/-44 -33/-33/-33
f -33/-33/-33 -32/-32/-32 -48/-48/-48
f -32/-32/-32 -33/-33/-33 -31/-31/-31
f -31/-31/-31 -30/-30/-30 -32/-32/-32
f -29/-29/-29 -32/-32/-32 -30/-30/-30
f -30/-30/-30 -28/-28/-28 -29/-29/-29
f -30/-30/-30 -31/-31/-31 -27/-27/-27
f -27/-27/-27 -26/-26/-26 -30/-30/-30
f -28/-28/-28 -30/-30/-30 -26/-26/-26
f -26/-26/-26 -25/-25/-25 -28/-28/-28
f -32/-32/-32 -29/-29/-29 -46/-46/-46
f -46/-46/-46 -48/-48/-48 -32/-32/-32
f -22/-22/-22 -23/-23/-23 -24/-24/-24
f -24/-24/-24 -21/-21/-21 -22/-22/-22
f -20/-20/-20 -24/-24/-24 -23/-23/-23
f -23/-23/-23 -19/-19/-19 -20/-20/-20
f -21/-21/-21 -24/-24/-24 -18/-18/-18
f -18/-18/-18 -24/-24/-24 -20/-20/-20
f -18/-18/-18 -17/-17/-17 -21/-21/-21
f -18/-18/-18 -16/-16/-16 -17/-17/-17
f -18/-18/-18 -15/-15/-15 -16/-16/-16
f -15/-15/-15 -18/-18/-18 -14/-14/-14
f -20/-20/-20 -14/-14/-14 -18/-18/-18
f -14/-14/-14 -13/-13/-13 -15/-15/-15
f -12/-12/-12 -16/-16/-16 -15/-15/-15
f -12/-12/-12 -15/-15/-15 -11/-11/-11
f -15/-15/-15 -13/-13/-13 -11/-11/-11
f -10/-10/-10 -11/-11/-11 -13/-13/-13
f -9/-9/-9 -23/-23/-23 -22/-22/-22
f -23/-23/-23 -9/-9/-9 -19/-19/-19
f -22/-22/-22 -8/-8/-8 -9/-9/-9
f -7/-7/-7 -9/-9/-9 -8/-8/-8
f -8/-8/-8 -6/-6/-6 -7/-7/-7
f -9/-9/-9 -7/-7/-7 -5/-5/-5
f -5/-5/-5 -4/-4/-4 -9/-9/-9
f -19/-19/-19 -9/-9/-9 -4/-4/-4
f -7/-7/-7 -6/-6/-6 -3/-3/-3
f -2/-2/-2 -3/-3/-3 -6/-6/-6
f -1/-1/-1 -5/-5/-5 -7/-7/-7
f -7/-7/-7 -3/-3/-3 -1/-1/-1

