# Mesh "mesh_wrap" exported with raY asset explorer
g mesh_wrap
# SubMesh 0
# Vertices
v 0.165469 -0.189402 -0.379101
vt 0.948510 0.162862
vn -0.179974 -0.147949 -0.972482
v 0.217977 -0.115643 -0.399717
vt 0.981631 0.162862
vn -0.114659 -0.163296 -0.979892
v 0.211276 -0.115279 -0.397859
vt 0.981631 0.005141
vn -0.314679 -0.045531 -0.948106
v 0.158622 -0.181953 -0.375888
vt 0.948510 0.005140
vn -0.355140 0.060862 -0.932830
v 0.227098 -0.092943 -0.404083
vt 1.014753 0.084001
vn 0.279682 -0.119757 -0.952595
v 0.083624 -0.225284 -0.353458
vt 0.915389 0.005140
vn -0.298055 0.185139 -0.936422
v 0.085481 -0.235541 -0.356137
vt 0.915389 0.162862
vn -0.209568 -0.106157 -0.972014
v -0.004269 -0.236098 -0.332967
vt 0.882268 0.005140
vn -0.168189 0.239235 -0.956284
v -0.007880 -0.246933 -0.335054
vt 0.882268 0.162862
vn -0.198216 -0.080616 -0.976837
v -0.090102 -0.210872 -0.318198
vt 0.849147 0.005140
vn -0.049214 0.230957 -0.971719
v -0.099159 -0.220648 -0.320127
vt 0.849147 0.162862
vn -0.204675 -0.064944 -0.976673
v -0.159906 -0.153560 -0.304720
vt 0.816026 0.005140
vn 0.011096 0.210327 -0.977568
v -0.173531 -0.161014 -0.306456
vt 0.816026 0.162862
vn -0.247846 -0.008520 -0.968762
v -0.203393 -0.071601 -0.288803
vt 0.782905 0.005140
vn 0.054572 0.183564 -0.981492
v -0.220165 -0.074916 -0.290220
vt 0.782905 0.162862
vn -0.266701 0.078734 -0.960558
v -0.213563 0.023859 -0.273230
vt 0.749784 0.005140
vn 0.107244 0.140571 -0.984245
v -0.231312 0.026589 -0.274700
vt 0.749784 0.162862
vn -0.236034 0.167618 -0.957179
v 0.222929 -0.118378 -0.398445
vt 0.981631 0.352127
vn 0.457405 -0.386092 -0.801070
v 0.087439 -0.243948 -0.352788
vt 0.915389 0.352127
vn 0.097780 -0.767441 -0.633620
v -0.009235 -0.256194 -0.330823
vt 0.882268 0.352127
vn -0.174976 -0.805596 -0.566037
v 0.170392 -0.195769 -0.376734
vt 0.948510 0.352127
vn 0.330533 -0.616913 -0.714259
v -0.104300 -0.229132 -0.314671
vt 0.849147 0.352127
vn -0.466643 -0.733103 -0.494777
v -0.182523 -0.166725 -0.299762
vt 0.816026 0.352127
vn -0.732493 -0.522610 -0.436271
v -0.231520 -0.076287 -0.282571
vt 0.782905 0.352127
vn -0.891081 -0.208869 -0.402925
v -0.242959 0.029975 -0.266085
vt 0.749784 0.352127
vn -0.912496 0.145104 -0.382487
v -0.185163 0.118183 -0.257471
vt 0.716663 0.005140
vn 0.164586 0.090538 -0.982199
v -0.201089 0.127145 -0.259224
vt 0.716663 0.162862
vn -0.156562 0.257177 -0.953598
v -0.125586 0.191789 -0.240045
vt 0.683541 0.005140
vn 0.186772 0.014972 -0.982289
v -0.136033 0.205853 -0.242018
vt 0.683541 0.162862
vn -0.043435 0.313342 -0.948646
v -0.046419 0.244512 -0.227446
vt 0.650420 0.162862
vn 0.083999 0.322012 -0.943002
v -0.042531 0.226318 -0.225698
vt 0.650420 0.005140
vn 0.173299 -0.060778 -0.982992
v 0.065679 0.227587 -0.206824
vt 0.617299 0.005140
vn 0.159422 -0.113974 -0.980609
v 0.070369 0.246597 -0.208258
vt 0.617299 0.162862
vn 0.224614 0.280062 -0.933335
v 0.166455 0.185331 -0.184620
vt 0.584178 0.005140
vn 0.129314 -0.141063 -0.981519
v 0.178836 0.201691 -0.185616
vt 0.584178 0.162862
vn 0.348815 0.186559 -0.918435
v 0.257105 0.111861 -0.164151
vt 0.551057 0.162862
vn 0.440724 0.051953 -0.896138
v 0.239024 0.101110 -0.164560
vt 0.551057 0.005140
vn 0.114598 -0.146566 -0.982540
v 0.291602 -0.004977 -0.141662
vt 0.517936 0.162862
vn 0.495428 -0.104581 -0.862331
v 0.269794 -0.007979 -0.144089
vt 0.517936 0.005140
vn 0.143948 -0.150378 -0.978093
v 0.275027 -0.124423 -0.125354
vt 0.484815 0.162862
vn 0.489773 -0.298646 -0.819105
v 0.253394 -0.118964 -0.130697
vt 0.484815 0.005140
vn 0.180631 -0.214110 -0.959963
v -0.211037 0.135017 -0.249684
vt 0.716663 0.352127
vn -0.791131 0.494428 -0.360074
v -0.142113 0.217147 -0.231592
vt 0.683541 0.352127
vn -0.516442 0.787500 -0.336350
v -0.047827 0.257582 -0.216010
vt 0.650420 0.352127
vn -0.150199 0.940069 -0.306122
v 0.074339 0.259538 -0.195697
vt 0.617299 0.352127
vn 0.228659 0.934054 -0.274333
v 0.268587 0.119864 -0.149083
vt 0.551057 0.352127
vn 0.875434 0.446366 -0.185400
v 0.187292 0.212699 -0.171764
vt 0.584178 0.352127
vn 0.602176 0.762510 -0.236566
v 0.304965 -0.000762 -0.125169
vt 0.517936 0.352127
vn 0.991559 0.062538 -0.113573
v 0.288777 -0.124782 -0.107344
vt 0.484815 0.352127
vn 0.946520 -0.321465 -0.027573
v -0.046356 0.252543 -0.194645
vt 0.650420 0.633671
vn -0.206328 0.189964 0.959866
v 0.072516 0.253489 -0.173670
vt 0.617299 0.633671
vn -0.140618 0.232892 0.962283
v -0.207186 0.133804 -0.230161
vt 0.716663 0.633671
vn -0.323248 -0.003330 0.946308
v -0.138942 0.213902 -0.210985
vt 0.683541 0.633671
vn -0.278221 0.105373 0.954720
v -0.239607 0.030493 -0.247633
vt 0.749784 0.633671
vn -0.318030 -0.120231 0.940426
v -0.228949 -0.075100 -0.265142
vt 0.782905 0.633671
vn -0.262557 -0.246071 0.933013
v -0.180146 -0.166383 -0.283561
vt 0.816026 0.633671
vn -0.171418 -0.344434 0.923028
v -0.101256 -0.230043 -0.299752
vt 0.849147 0.633671
vn -0.048969 -0.424682 0.904017
v -0.005694 -0.257474 -0.317164
vt 0.882268 0.633671
vn 0.143127 -0.482698 0.864013
v 0.091316 -0.245029 -0.340672
vt 0.915389 0.633671
vn 0.372924 -0.461494 0.804954
v 0.174758 -0.196353 -0.366165
vt 0.948510 0.633671
vn 0.603669 -0.335799 0.723064
v 0.226168 -0.119029 -0.393861
vt 0.981631 0.633671
vn 0.812114 -0.047280 0.581581
v 0.227098 -0.092943 -0.404083
vt 1.014753 0.663646
vn 0.279682 -0.119757 -0.952595
v 0.211276 -0.115279 -0.397859
vt 0.981631 1.005140
vn -0.152994 0.391938 0.907181
v 0.158622 -0.181953 -0.375888
vt 0.948510 1.005140
vn -0.100264 0.473541 0.875046
v 0.227098 -0.092943 -0.404083
vt 1.014753 0.663646
vn 0.279682 -0.119757 -0.952595
v 0.083624 -0.225284 -0.353458
vt 0.915389 1.005140
vn 0.035427 0.554699 0.831296
v -0.004269 -0.236098 -0.332967
vt 0.882268 1.005140
vn 0.210231 0.571767 0.793023
v -0.090102 -0.210872 -0.318198
vt 0.849147 1.005140
vn 0.403721 0.500261 0.765995
v -0.159906 -0.153560 -0.304720
vt 0.816026 1.005140
vn 0.580643 0.319658 0.748781
v -0.203393 -0.071601 -0.288803
vt 0.782905 1.005140
vn 0.673463 0.076489 0.735253
v -0.213563 0.023859 -0.273230
vt 0.749784 1.005140
vn 0.666956 -0.182532 0.722393
v -0.185163 0.118183 -0.257471
vt 0.716663 1.005140
vn 0.562487 -0.441532 0.699041
v -0.125586 0.191789 -0.240045
vt 0.683541 1.005140
vn 0.341579 -0.657689 0.671394
v -0.042531 0.226318 -0.225698
vt 0.650420 1.005140
vn 0.045879 -0.761877 0.646095
v 0.065679 0.227587 -0.206824
vt 0.617299 1.005140
vn -0.264363 -0.732205 0.627685
v 0.166455 0.185331 -0.184620
vt 0.584178 1.005140
vn -0.558150 -0.571185 0.601844
v 0.181399 0.207529 -0.149458
vt 0.584178 0.633671
vn -0.060569 0.242062 0.968368
v 0.258958 0.119229 -0.127095
vt 0.551057 0.633671
vn 0.007898 0.222008 0.975013
v 0.293486 0.005381 -0.104201
vt 0.517936 0.633671
vn 0.020937 0.174340 0.984463
v 0.279162 -0.111903 -0.087752
vt 0.484815 0.633671
vn 0.003965 0.165472 0.986207
v 0.239024 0.101110 -0.164560
vt 0.551057 1.005140
vn -0.770485 -0.300931 0.561955
v 0.269794 -0.007979 -0.144089
vt 0.517936 1.005140
vn -0.861504 0.018210 0.507424
v 0.253394 -0.118964 -0.130697
vt 0.484815 1.005140
vn -0.827095 0.349651 0.440065
v 0.228091 -0.203008 -0.070987
vt 0.455436 0.633671
vn 0.002728 0.225943 0.974137
v 0.234083 -0.219835 -0.089299
vt 0.455436 0.352127
vn 0.764270 -0.642251 0.058358
v 0.221608 -0.215340 -0.108804
vt 0.455436 0.162862
vn 0.397951 -0.516503 -0.758195
v 0.148131 -0.287919 -0.069629
vt 0.426057 0.352127
vn 0.488373 -0.861217 0.140703
v 0.138623 -0.280000 -0.090707
vt 0.426057 0.162862
vn 0.216892 -0.690018 -0.690531
v 0.202896 -0.203629 -0.116875
vt 0.455436 0.005140
vn 0.172732 -0.355636 -0.918524
v 0.125805 -0.263331 -0.101684
vt 0.426057 0.005140
vn 0.081321 -0.499239 -0.862640
v 0.037921 -0.310941 -0.070574
vt 0.396678 0.162862
vn -0.032116 -0.782534 -0.621778
v 0.032845 -0.291683 -0.084304
vt 0.396678 0.005140
vn -0.086651 -0.593400 -0.800230
v -0.067021 -0.302654 -0.051360
vt 0.367299 0.162862
vn -0.316129 -0.767482 -0.557704
v -0.063814 -0.284160 -0.067667
vt 0.367299 0.005141
vn -0.305294 -0.595418 -0.743151
v -0.162185 -0.257337 -0.030592
vt 0.337920 0.162862
vn -0.592298 -0.627522 -0.505371
v -0.151148 -0.242497 -0.049217
vt 0.337920 0.005140
vn -0.530968 -0.476519 -0.700716
v -0.217253 -0.172298 -0.027027
vt 0.308541 0.005140
vn -0.684182 -0.268200 -0.678206
v -0.233972 -0.180678 -0.006832
vt 0.308541 0.162862
vn -0.791137 -0.388732 -0.472218
v -0.256890 -0.079271 -0.005045
vt 0.279163 0.005140
vn -0.736273 -0.050058 -0.674831
v -0.276397 -0.079521 0.016173
vt 0.279163 0.162862
vn -0.880161 -0.124969 -0.457929
v -0.266535 0.022662 0.013447
vt 0.249784 0.005141
vn -0.693388 0.193999 -0.693958
v -0.285842 0.031638 0.035352
vt 0.249784 0.162862
vn -0.867301 0.172619 -0.466895
v 0.043330 -0.320673 -0.047892
vt 0.396678 0.352127
vn 0.154830 -0.962852 0.221231
v -0.065828 -0.312248 -0.027280
vt 0.367299 0.352127
vn -0.188701 -0.936489 0.295601
v -0.164745 -0.264668 -0.005238
vt 0.337920 0.352127
vn -0.487630 -0.796638 0.357191
v -0.239080 -0.184499 0.019491
vt 0.308542 0.352127
vn -0.718549 -0.568399 0.400761
v -0.282329 -0.079480 0.043233
vt 0.279163 0.352127
vn -0.857233 -0.291849 0.424235
v -0.290961 0.035778 0.063225
vt 0.249784 0.352127
vn -0.902416 0.009132 0.430770
v -0.240073 0.120112 0.035643
vt 0.220405 0.005140
vn -0.558247 0.417920 -0.716731
v -0.255353 0.137595 0.057675
vt 0.220405 0.162862
vn -0.741897 0.461107 -0.486794
v -0.181414 0.206256 0.056617
vt 0.191026 0.005140
vn -0.344824 0.570522 -0.745387
v -0.190604 0.229153 0.078413
vt 0.191026 0.162862
vn -0.506276 0.689874 -0.517453
v -0.090035 0.262509 0.078522
vt 0.161647 0.005140
vn -0.081207 0.641495 -0.762817
v -0.091689 0.287869 0.100238
vt 0.161647 0.162862
vn -0.184817 0.822781 -0.537470
v 0.024070 0.280140 0.100800
vt 0.132268 0.005140
vn 0.172436 0.604819 -0.777470
v 0.030604 0.305429 0.122055
vt 0.132268 0.162861
vn 0.140107 0.824182 -0.548720
v 0.135941 0.255842 0.126622
vt 0.102889 0.005140
vn 0.382795 0.481958 -0.788153
v 0.150234 0.278465 0.147506
vt 0.102889 0.162862
vn 0.431311 0.712289 -0.553728
v 0.230379 0.192759 0.151097
vt 0.073510 0.005140
vn 0.538787 0.283180 -0.793421
v 0.251764 0.210506 0.171859
vt 0.073510 0.162862
vn 0.674761 0.484104 -0.557082
v 0.290121 0.107538 0.180466
vt 0.044132 0.005141
vn 0.638927 -0.013930 -0.769141
v 0.309917 0.114698 0.196404
vt 0.044132 0.162862
vn 0.832937 0.122818 -0.539567
v 0.321622 0.007348 0.234226
vt 0.014753 0.288450
vn 0.957336 -0.288190 -0.021319
v -0.258415 0.145138 0.086303
vt 0.220405 0.352127
vn -0.848507 0.318172 0.422851
v -0.191017 0.238276 0.107807
vt 0.191026 0.352127
vn -0.671705 0.616534 0.410729
v -0.089357 0.296945 0.130358
vt 0.161647 0.352127
vn -0.370735 0.840271 0.395601
v 0.034972 0.313383 0.152875
vt 0.132268 0.352127
vn -0.036541 0.921016 0.387806
v 0.155682 0.284852 0.178982
vt 0.102889 0.352127
vn 0.287892 0.873420 0.392754
v 0.257707 0.215749 0.203780
vt 0.073510 0.352127
vn 0.607957 0.678344 0.412599
v 0.315795 0.117956 0.220997
vt 0.044131 0.352127
vn 0.839805 0.318117 0.439919
v -0.079608 0.270909 0.145565
vt 0.161647 0.633671
vn 0.003684 -0.502972 0.864295
v 0.033316 0.284311 0.168898
vt 0.132268 0.633671
vn -0.193402 -0.461128 0.866000
v -0.172582 0.218019 0.122057
vt 0.191026 0.633671
vn 0.213858 -0.470069 0.856329
v -0.234772 0.132280 0.099963
vt 0.220405 0.633671
vn 0.392429 -0.369200 0.842431
v -0.264937 0.031489 0.076334
vt 0.249784 0.633671
vn 0.502583 -0.206979 0.839387
v -0.256628 -0.075051 0.056322
vt 0.279163 0.633671
vn 0.548904 -0.030610 0.835324
v -0.216856 -0.172644 0.032671
vt 0.308542 0.633671
vn 0.527147 0.117380 0.841628
v -0.147732 -0.248191 0.008296
vt 0.337920 0.633671
vn 0.426391 0.260827 0.866118
v -0.054832 -0.292832 -0.012748
vt 0.367299 0.633671
vn 0.275786 0.343077 0.897909
v 0.047986 -0.300269 -0.032218
vt 0.396678 0.633671
vn 0.144975 0.346129 0.926918
v 0.147053 -0.268574 -0.052608
vt 0.426057 0.633671
vn 0.051583 0.296620 0.953602
v -0.256890 -0.079271 -0.005045
vt 0.279162 1.005140
vn 0.970042 0.242015 -0.021161
v -0.217253 -0.172298 -0.027027
vt 0.308542 1.005140
vn 0.840819 0.541307 -0.003240
v -0.266535 0.022662 0.013447
vt 0.249784 1.005140
vn 0.995537 -0.093009 -0.016011
v 0.202896 -0.203629 -0.116875
vt 0.455436 1.005140
vn -0.667678 0.653719 0.356170
v 0.125805 -0.263331 -0.101684
vt 0.426057 1.005140
vn -0.407251 0.873330 0.267285
v 0.032845 -0.291683 -0.084304
vt 0.396678 1.005140
vn -0.077761 0.980397 0.181040
v -0.063814 -0.284160 -0.067667
vt 0.367299 1.005140
vn 0.275202 0.955875 0.102799
v -0.240073 0.120112 0.035643
vt 0.220405 1.005140
vn 0.901935 -0.431838 0.005406
v -0.181414 0.206256 0.056617
vt 0.191026 1.005140
vn 0.672527 -0.739019 0.039473
v -0.090035 0.262509 0.078522
vt 0.161647 1.005140
vn 0.315306 -0.946528 0.068317
v 0.024070 0.280140 0.100800
vt 0.132268 1.005140
vn -0.060695 -0.995443 0.073546
v 0.135941 0.255842 0.126622
vt 0.102889 1.005140
vn -0.412359 -0.908570 0.066794
v 0.141906 0.257796 0.195116
vt 0.102889 0.633671
vn -0.357591 -0.364254 0.859912
v 0.232311 0.195555 0.219747
vt 0.073510 0.633671
vn -0.449926 -0.252147 0.856731
v 0.290606 0.111494 0.232620
vt 0.044131 0.633671
vn -0.494406 -0.170680 0.852309
v 0.230379 0.192759 0.151097
vt 0.073510 1.005140
vn -0.709667 -0.702347 0.055515
v 0.290121 0.107538 0.180466
vt 0.044131 1.005140
vn -0.902337 -0.429198 0.039714
v 0.321622 0.007348 0.234226
vt 0.014752 1.005140
vn 0.957336 -0.288190 -0.021319
v -0.151148 -0.242497 -0.049217
vt 0.337920 1.005140
vn 0.598878 0.799894 0.038920
# Faces (1 to 160)
f -158/-158/-158 -159/-159/-159 -160/-160/-160
f -160/-160/-160 -157/-157/-157 -158/-158/-158
f -159/-159/-159 -158/-158/-158 -156/-156/-156
f -155/-155/-155 -157/-157/-157 -160/-160/-160
f -160/-160/-160 -154/-154/-154 -155/-155/-155
f -153/-153/-153 -155/-155/-155 -154/-154/-154
f -152/-152/-152 -153/-153/-153 -154/-154/-154
f -151/-151/-151 -153/-153/-153 -152/-152/-152
f -152/-152/-152 -150/-150/-150 -151/-151/-151
f -149/-149/-149 -151/-151/-151 -150/-150/-150
f -150/-150/-150 -148/-148/-148 -149/-149/-149
f -147/-147/-147 -149/-149/-149 -148/-148/-148
f -148/-148/-148 -146/-146/-146 -147/-147/-147
f -145/-145/-145 -147/-147/-147 -146/-146/-146
f -146/-146/-146 -144/-144/-144 -145/-145/-145
f -143/-143/-143 -159/-159/-159 -156/-156/-156
f -152/-152/-152 -154/-154/-154 -142/-142/-142
f -142/-142/-142 -141/-141/-141 -152/-152/-152
f -150/-150/-150 -152/-152/-152 -141/-141/-141
f -140/-140/-140 -142/-142/-142 -154/-154/-154
f -143/-143/-143 -140/-140/-140 -160/-160/-160
f -154/-154/-154 -160/-160/-160 -140/-140/-140
f -160/-160/-160 -159/-159/-159 -143/-143/-143
f -148/-148/-148 -150/-150/-150 -139/-139/-139
f -141/-141/-141 -139/-139/-139 -150/-150/-150
f -139/-139/-139 -138/-138/-138 -148/-148/-148
f -146/-146/-146 -148/-148/-148 -138/-138/-138
f -144/-144/-144 -146/-146/-146 -137/-137/-137
f -138/-138/-138 -137/-137/-137 -146/-146/-146
f -137/-137/-137 -136/-136/-136 -144/-144/-144
f -135/-135/-135 -145/-145/-145 -144/-144/-144
f -144/-144/-144 -134/-134/-134 -135/-135/-135
f -134/-134/-134 -144/-144/-144 -136/-136/-136
f -133/-133/-133 -135/-135/-135 -134/-134/-134
f -134/-134/-134 -132/-132/-132 -133/-133/-133
f -132/-132/-132 -131/-131/-131 -133/-133/-133
f -133/-133/-133 -131/-131/-131 -130/-130/-130
f -130/-130/-130 -131/-131/-131 -129/-129/-129
f -128/-128/-128 -129/-129/-129 -131/-131/-131
f -127/-127/-127 -129/-129/-129 -128/-128/-128
f -128/-128/-128 -126/-126/-126 -127/-127/-127
f -127/-127/-127 -126/-126/-126 -125/-125/-125
f -125/-125/-125 -124/-124/-124 -127/-127/-127
f -124/-124/-124 -125/-125/-125 -123/-123/-123
f -124/-124/-124 -123/-123/-123 -122/-122/-122
f -122/-122/-122 -123/-123/-123 -121/-121/-121
f -121/-121/-121 -120/-120/-120 -122/-122/-122
f -132/-132/-132 -134/-134/-134 -119/-119/-119
f -119/-119/-119 -118/-118/-118 -132/-132/-132
f -131/-131/-131 -132/-132/-132 -118/-118/-118
f -128/-128/-128 -131/-131/-131 -117/-117/-117
f -118/-118/-118 -117/-117/-117 -131/-131/-131
f -117/-117/-117 -116/-116/-116 -128/-128/-128
f -126/-126/-126 -128/-128/-128 -116/-116/-116
f -115/-115/-115 -125/-125/-125 -126/-126/-126
f -126/-126/-126 -114/-114/-114 -115/-115/-115
f -116/-116/-116 -114/-114/-114 -126/-126/-126
f -121/-121/-121 -123/-123/-123 -113/-113/-113
f -113/-113/-113 -125/-125/-125 -115/-115/-115
f -113/-113/-113 -123/-123/-123 -125/-125/-125
f -113/-113/-113 -112/-112/-112 -121/-121/-121
f -116/-116/-116 -117/-117/-117 -111/-111/-111
f -110/-110/-110 -116/-116/-116 -111/-111/-111
f -114/-114/-114 -116/-116/-116 -110/-110/-110
f -118/-118/-118 -119/-119/-119 -109/-109/-109
f -108/-108/-108 -118/-118/-118 -109/-109/-109
f -117/-117/-117 -118/-118/-118 -108/-108/-108
f -108/-108/-108 -111/-111/-111 -117/-117/-117
f -107/-107/-107 -109/-109/-109 -119/-119/-119
f -119/-119/-119 -136/-136/-136 -107/-107/-107
f -136/-136/-136 -119/-119/-119 -134/-134/-134
f -107/-107/-107 -136/-136/-136 -106/-106/-106
f -136/-136/-136 -137/-137/-137 -106/-106/-106
f -105/-105/-105 -106/-106/-106 -137/-137/-137
f -137/-137/-137 -138/-138/-138 -105/-105/-105
f -105/-105/-105 -138/-138/-138 -104/-104/-104
f -138/-138/-138 -139/-139/-139 -104/-104/-104
f -104/-104/-104 -139/-139/-139 -141/-141/-141
f -141/-141/-141 -103/-103/-103 -104/-104/-104
f -103/-103/-103 -141/-141/-141 -142/-142/-142
f -142/-142/-142 -102/-102/-102 -103/-103/-103
f -102/-102/-102 -142/-142/-142 -140/-140/-140
f -140/-140/-140 -101/-101/-101 -102/-102/-102
f -101/-101/-101 -140/-140/-140 -100/-100/-100
f -143/-143/-143 -100/-100/-100 -140/-140/-140
f -100/-100/-100 -143/-143/-143 -99/-99/-99
f -101/-101/-101 -100/-100/-100 -98/-98/-98
f -98/-98/-98 -97/-97/-97 -101/-101/-101
f -102/-102/-102 -101/-101/-101 -97/-97/-97
f -98/-98/-98 -100/-100/-100 -96/-96/-96
f -103/-103/-103 -102/-102/-102 -95/-95/-95
f -97/-97/-97 -95/-95/-95 -102/-102/-102
f -95/-95/-95 -94/-94/-94 -103/-103/-103
f -103/-103/-103 -94/-94/-94 -93/-93/-93
f -93/-93/-93 -104/-104/-104 -103/-103/-103
f -104/-104/-104 -93/-93/-93 -92/-92/-92
f -104/-104/-104 -92/-92/-92 -105/-105/-105
f -91/-91/-91 -105/-105/-105 -92/-92/-92
f -105/-105/-105 -91/-91/-91 -106/-106/-106
f -91/-91/-91 -90/-90/-90 -106/-106/-106
f -106/-106/-106 -90/-90/-90 -107/-107/-107
f -107/-107/-107 -90/-90/-90 -89/-89/-89
f -89/-89/-89 -109/-109/-109 -107/-107/-107
f -109/-109/-109 -89/-89/-89 -88/-88/-88
f -88/-88/-88 -108/-108/-108 -109/-109/-109
f -111/-111/-111 -108/-108/-108 -88/-88/-88
f -88/-88/-88 -87/-87/-87 -111/-111/-111
f -86/-86/-86 -111/-111/-111 -87/-87/-87
f -111/-111/-111 -86/-86/-86 -110/-110/-110
f -85/-85/-85 -110/-110/-110 -86/-86/-86
f -110/-110/-110 -85/-85/-85 -84/-84/-84
f -110/-110/-110 -84/-84/-84 -114/-114/-114
f -114/-114/-114 -84/-84/-84 -115/-115/-115
f -83/-83/-83 -115/-115/-115 -84/-84/-84
f -83/-83/-83 -84/-84/-84 -85/-85/-85
f -113/-113/-113 -115/-115/-115 -83/-83/-83
f -83/-83/-83 -82/-82/-82 -113/-113/-113
f -113/-113/-113 -82/-82/-82 -81/-81/-81
f -81/-81/-81 -112/-112/-112 -113/-113/-113
f -85/-85/-85 -80/-80/-80 -83/-83/-83
f -82/-82/-82 -83/-83/-83 -80/-80/-80
f -81/-81/-81 -82/-82/-82 -79/-79/-79
f -80/-80/-80 -79/-79/-79 -82/-82/-82
f -79/-79/-79 -78/-78/-78 -81/-81/-81
f -77/-77/-77 -112/-112/-112 -81/-81/-81
f -77/-77/-77 -76/-76/-76 -112/-112/-112
f -112/-112/-112 -76/-76/-76 -75/-75/-75
f -74/-74/-74 -75/-75/-75 -76/-76/-76
f -74/-74/-74 -73/-73/-73 -75/-75/-75
f -72/-72/-72 -75/-75/-75 -73/-73/-73
f -73/-73/-73 -71/-71/-71 -72/-72/-72
f -120/-120/-120 -75/-75/-75 -72/-72/-72
f -75/-75/-75 -120/-120/-120 -121/-121/-121
f -75/-75/-75 -121/-121/-121 -112/-112/-112
f -70/-70/-70 -71/-71/-71 -73/-73/-73
f -70/-70/-70 -69/-69/-69 -71/-71/-71
f -69/-69/-69 -70/-70/-70 -68/-68/-68
f -68/-68/-68 -67/-67/-67 -69/-69/-69
f -67/-67/-67 -68/-68/-68 -66/-66/-66
f -67/-67/-67 -66/-66/-66 -65/-65/-65
f -64/-64/-64 -65/-65/-65 -66/-66/-66
f -66/-66/-66 -63/-63/-63 -64/-64/-64
f -62/-62/-62 -64/-64/-64 -63/-63/-63
f -63/-63/-63 -61/-61/-61 -62/-62/-62
f -60/-60/-60 -62/-62/-62 -61/-61/-61
f -59/-59/-59 -60/-60/-60 -61/-61/-61
f -68/-68/-68 -70/-70/-70 -58/-58/-58
f -58/-58/-58 -57/-57/-57 -68/-68/-68
f -66/-66/-66 -68/-68/-68 -57/-57/-57
f -58/-58/-58 -70/-70/-70 -73/-73/-73
f -73/-73/-73 -74/-74/-74 -58/-58/-58
f -63/-63/-63 -66/-66/-66 -56/-56/-56
f -57/-57/-57 -56/-56/-56 -66/-66/-66
f -56/-56/-56 -55/-55/-55 -63/-63/-63
f -61/-61/-61 -63/-63/-63 -55/-55/-55
f -59/-59/-59 -61/-61/-61 -54/-54/-54
f -55/-55/-55 -54/-54/-54 -61/-61/-61
f -54/-54/-54 -53/-53/-53 -59/-59/-59
f -52/-52/-52 -60/-60/-60 -59/-59/-59
f -59/-59/-59 -51/-51/-51 -52/-52/-52
f -51/-51/-51 -59/-59/-59 -53/-53/-53
f -50/-50/-50 -52/-52/-52 -51/-51/-51
f -51/-51/-51 -49/-49/-49 -50/-50/-50
f -48/-48/-48 -50/-50/-50 -49/-49/-49
f -49/-49/-49 -47/-47/-47 -48/-48/-48
f -48/-48/-48 -47/-47/-47 -46/-46/-46
f -45/-45/-45 -46/-46/-46 -47/-47/-47
f -44/-44/-44 -46/-46/-46 -45/-45/-45
f -45/-45/-45 -43/-43/-43 -44/-44/-44
f -44/-44/-44 -43/-43/-43 -42/-42/-42
f -41/-41/-41 -42/-42/-42 -43/-43/-43
f -40/-40/-40 -42/-42/-42 -41/-41/-41
f -41/-41/-41 -39/-39/-39 -40/-40/-40
f -40/-40/-40 -39/-39/-39 -38/-38/-38
f -49/-49/-49 -51/-51/-51 -37/-37/-37
f -37/-37/-37 -36/-36/-36 -49/-49/-49
f -47/-47/-47 -49/-49/-49 -36/-36/-36
f -53/-53/-53 -37/-37/-37 -51/-51/-51
f -45/-45/-45 -47/-47/-47 -35/-35/-35
f -36/-36/-36 -35/-35/-35 -47/-47/-47
f -35/-35/-35 -34/-34/-34 -45/-45/-45
f -43/-43/-43 -45/-45/-45 -34/-34/-34
f -41/-41/-41 -43/-43/-43 -33/-33/-33
f -34/-34/-34 -33/-33/-33 -43/-43/-43
f -33/-33/-33 -32/-32/-32 -41/-41/-41
f -39/-39/-39 -41/-41/-41 -32/-32/-32
f -31/-31/-31 -38/-38/-38 -39/-39/-39
f -32/-32/-32 -31/-31/-31 -39/-39/-39
f -35/-35/-35 -30/-30/-30 -34/-34/-34
f -30/-30/-30 -29/-29/-29 -34/-34/-34
f -28/-28/-28 -36/-36/-36 -37/-37/-37
f -35/-35/-35 -36/-36/-36 -28/-28/-28
f -28/-28/-28 -30/-30/-30 -35/-35/-35
f -37/-37/-37 -27/-27/-27 -28/-28/-28
f -53/-53/-53 -27/-27/-27 -37/-37/-37
f -53/-53/-53 -26/-26/-26 -27/-27/-27
f -26/-26/-26 -53/-53/-53 -54/-54/-54
f -54/-54/-54 -25/-25/-25 -26/-26/-26
f -55/-55/-55 -25/-25/-25 -54/-54/-54
f -25/-25/-25 -55/-55/-55 -24/-24/-24
f -24/-24/-24 -55/-55/-55 -56/-56/-56
f -56/-56/-56 -23/-23/-23 -24/-24/-24
f -23/-23/-23 -56/-56/-56 -57/-57/-57
f -23/-23/-23 -57/-57/-57 -22/-22/-22
f -22/-22/-22 -57/-57/-57 -58/-58/-58
f -58/-58/-58 -21/-21/-21 -22/-22/-22
f -74/-74/-74 -21/-21/-21 -58/-58/-58
f -74/-74/-74 -20/-20/-20 -21/-21/-21
f -20/-20/-20 -74/-74/-74 -76/-76/-76
f -76/-76/-76 -77/-77/-77 -20/-20/-20
f -24/-24/-24 -19/-19/-19 -25/-25/-25
f -19/-19/-19 -24/-24/-24 -18/-18/-18
f -23/-23/-23 -18/-18/-18 -24/-24/-24
f -25/-25/-25 -19/-19/-19 -17/-17/-17
f -17/-17/-17 -26/-26/-26 -25/-25/-25
f -20/-20/-20 -77/-77/-77 -16/-16/-16
f -16/-16/-16 -15/-15/-15 -20/-20/-20
f -21/-21/-21 -20/-20/-20 -15/-15/-15
f -81/-81/-81 -16/-16/-16 -77/-77/-77
f -16/-16/-16 -81/-81/-81 -78/-78/-78
f -22/-22/-22 -21/-21/-21 -14/-14/-14
f -15/-15/-15 -14/-14/-14 -21/-21/-21
f -14/-14/-14 -13/-13/-13 -22/-22/-22
f -26/-26/-26 -17/-17/-17 -12/-12/-12
f -12/-12/-12 -27/-27/-27 -26/-26/-26
f -12/-12/-12 -11/-11/-11 -27/-27/-27
f -27/-27/-27 -11/-11/-11 -28/-28/-28
f -10/-10/-10 -28/-28/-28 -11/-11/-11
f -28/-28/-28 -10/-10/-10 -30/-30/-30
f -9/-9/-9 -30/-30/-30 -10/-10/-10
f -30/-30/-30 -9/-9/-9 -29/-29/-29
f -8/-8/-8 -29/-29/-29 -9/-9/-9
f -29/-29/-29 -8/-8/-8 -7/-7/-7
f -7/-7/-7 -34/-34/-34 -29/-29/-29
f -34/-34/-34 -7/-7/-7 -33/-33/-33
f -33/-33/-33 -7/-7/-7 -6/-6/-6
f -6/-6/-6 -32/-32/-32 -33/-33/-33
f -32/-32/-32 -6/-6/-6 -5/-5/-5
f -5/-5/-5 -31/-31/-31 -32/-32/-32
f -38/-38/-38 -31/-31/-31 -5/-5/-5
f -4/-4/-4 -7/-7/-7 -8/-8/-8
f -7/-7/-7 -4/-4/-4 -6/-6/-6
f -3/-3/-3 -6/-6/-6 -4/-4/-4
f -6/-6/-6 -3/-3/-3 -5/-5/-5
f -3/-3/-3 -2/-2/-2 -5/-5/-5
f -18/-18/-18 -23/-23/-23 -1/-1/-1
f -22/-22/-22 -1/-1/-1 -23/-23/-23
f -1/-1/-1 -22/-22/-22 -13/-13/-13

