# Mesh "mesh_ground_b" exported with raY asset explorer
g mesh_ground_b
# SubMesh 0
# Vertices
v -0.026071 -0.000839 0.028368
vt 0.177460 0.341094
vn -0.000003 1.000000 -0.000003
v -0.081255 -0.000838 0.069287
vt -0.264555 0.234228
vn -0.274691 0.877365 0.393415
v -0.102781 -0.000840 0.003181
vt -0.345682 0.594264
vn 0.000035 1.000000 0.000001
v -0.052275 -0.000839 -0.028541
vt -0.126290 0.831134
vn 0.000005 1.000000 0.000015
v -0.066062 -0.000838 0.079914
vt -0.182589 0.149194
vn -0.269583 0.808824 0.522617
v 0.018638 -0.000839 0.084852
vt 0.366595 0.128129
vn 0.282989 0.942349 0.178595
v -0.011066 -0.000839 -0.053189
vt 0.293486 0.984654
vn 0.000008 1.000000 0.000020
v 0.035574 -0.000839 0.011028
vt 0.525629 0.605111
vn -0.000003 1.000000 -0.000002
v 0.056611 -0.000838 0.045119
vt 0.593085 0.378238
vn 0.336510 0.873237 0.352446
v 0.095027 -0.000838 0.001375
vt 0.817979 0.680172
vn 0.425974 0.834418 0.349704
v 0.083978 -0.000839 -0.015454
vt 0.732738 0.792342
vn -0.000001 1.000000 -0.000004
v 0.115140 -0.000839 -0.011231
vt 0.937519 0.840669
vn 0.719716 0.427870 0.546750
v 0.121549 -0.000839 -0.032876
vt 0.955154 0.945240
vn 0.523282 0.837029 0.159872
v 0.053106 -0.000839 -0.069001
vt 0.571176 1.063743
vn -0.000007 1.000000 0.000025
v 0.085404 -0.000839 -0.063873
vt 0.771119 1.120681
vn -0.000007 1.000000 0.000025
v -0.090125 -0.000838 0.064445
vt -0.340089 0.242868
vn -0.303981 0.772923 0.556943
v -0.098995 -0.000838 0.059604
vt -0.415623 0.251508
vn -0.578400 0.540583 0.610920
v -0.034647 -0.000838 0.089751
vt 0.012280 0.082929
vn 0.000010 1.000000 -0.000055
v -0.010625 -0.000838 0.096533
vt 0.177399 0.059923
vn 0.000011 1.000000 -0.000043
v 0.002782 -0.000838 0.099737
vt 0.265460 0.047685
vn 0.000016 1.000000 -0.000029
v 0.016480 -0.000838 0.098179
vt 0.353543 0.035396
vn 0.508541 0.597350 0.620128
v 0.075772 -0.000838 0.029289
vt 0.722728 0.498435
vn -0.000074 1.000000 -0.000060
v 0.091576 -0.000838 0.008196
vt 0.824835 0.635525
vn 0.762550 0.491427 0.420733
v 0.127247 -0.000838 -0.054664
vt 1.027519 1.047142
vn -0.000022 1.000000 0.000013
v 0.119537 -0.000838 -0.074092
vt 0.971062 1.161785
vn -0.000016 1.000000 0.000026
v 0.099391 -0.000838 -0.083547
vt 0.780685 1.226022
vn -0.000004 1.000000 0.000047
v 0.056536 -0.000838 -0.079160
vt 0.564740 1.207450
vn -0.000024 1.000000 0.000054
v 0.045816 -0.000838 -0.078737
vt 0.493730 1.198217
vn -0.000020 1.000000 0.000038
v 0.014502 -0.000838 -0.075929
vt 0.316232 1.175104
vn 0.000017 1.000000 0.000036
v -0.016502 -0.000838 -0.067308
vt 0.076600 1.143912
vn 0.000015 1.000000 0.000037
v -0.056116 -0.000838 -0.069937
vt -0.180778 1.110435
vn 0.000003 1.000000 0.000022
v -0.071706 -0.000838 -0.062363
vt -0.295943 1.079479
vn 0.000016 1.000000 0.000009
v -0.078579 -0.000838 -0.049807
vt -0.330644 1.011076
vn 0.000020 1.000000 0.000014
v -0.088228 -0.000838 -0.043406
vt -0.365346 0.942674
vn 0.000006 1.000000 0.000033
v -0.100758 -0.000839 -0.028783
vt -0.430388 0.814414
vn 0.000049 1.000000 0.000042
v -0.098995 -0.000838 0.059604
vt -0.415623 0.251508
vn -0.578400 0.540583 0.610920
v -0.112378 -0.000838 0.043012
vt -0.495670 0.391282
vn 0.000045 1.000000 -0.000035
v -0.122249 -0.000838 0.014930
vt -0.536461 0.576848
vn 0.000073 1.000000 0.000005
v -0.100758 -0.000839 -0.028783
vt -0.430388 0.814414
vn 0.000049 1.000000 0.000042
v -0.111246 -0.030188 0.042029
vt -0.577256 0.349384
vn -0.924513 -0.015276 0.380845
v -0.112378 -0.000838 0.043012
vt -0.495670 0.391282
vn -0.904430 -0.013826 0.426399
v -0.119221 -0.030188 0.016574
vt -0.625707 0.564484
vn -0.993494 -0.083976 -0.076922
v -0.122249 -0.000838 0.014930
vt -0.536461 0.576848
vn -0.992964 -0.097937 -0.066567
v -0.098577 -0.030188 -0.025260
vt -0.510198 0.837790
vn -0.859200 -0.090755 -0.503526
v -0.116192 -0.071297 0.018217
vt -0.664213 0.546168
vn -0.993724 -0.070091 -0.087179
v -0.110114 -0.071297 0.041046
vt -0.613544 0.349185
vn -0.942199 -0.016680 0.334637
v -0.098509 -0.030188 0.067174
vt -0.477307 0.174929
vn -0.779886 0.084986 0.620125
v -0.089639 -0.030188 0.072015
vt -0.401773 0.166289
vn -0.628812 0.251926 0.735615
v -0.074840 -0.030188 0.087856
vt -0.278991 0.049238
vn -0.459143 0.255054 0.850961
v -0.098023 -0.071297 0.074744
vt -0.500771 0.106035
vn -0.748861 0.154800 0.644395
v -0.034952 -0.030188 0.095045
vt -0.003073 -0.013796
vn -0.131363 0.148441 0.980158
v -0.034647 -0.000838 0.089751
vt 0.012280 0.082929
vn -0.203459 0.174257 0.963452
v -0.011141 -0.030188 0.097092
vt 0.182451 -0.042558
vn -0.265510 0.077666 0.960975
v -0.010625 -0.000838 0.096533
vt 0.177399 0.059923
vn -0.263952 0.090161 0.960313
v 0.002617 -0.030188 0.103921
vt 0.281404 -0.057876
vn -0.132422 0.089660 0.987130
v 0.002782 -0.000838 0.099737
vt 0.265460 0.047685
vn -0.100311 0.103352 0.989574
v 0.017460 -0.030188 0.101083
vt 0.380360 -0.073219
vn 0.585398 0.129501 0.800336
v -0.035257 -0.071297 0.100339
vt -0.024868 -0.068193
vn -0.058403 0.121693 0.990848
v -0.083618 -0.071297 0.095798
vt -0.350588 -0.027180
vn -0.479500 0.219884 0.849547
v -0.011657 -0.071297 0.097652
vt 0.183333 -0.097829
vn -0.267083 0.064684 0.961500
v 0.002452 -0.071297 0.108104
vt 0.291494 -0.115367
vn -0.165832 0.075224 0.983281
v 0.017460 -0.030188 0.101083
vt 0.380360 -0.073219
vn 0.585398 0.129501 0.800336
v 0.018440 -0.071297 0.103988
vt 0.397452 -0.144671
vn 0.545783 0.104469 0.831389
v 0.025262 -0.030189 0.086925
vt 0.437496 0.024024
vn 0.786387 0.170726 0.593674
v 0.061985 -0.030188 0.051528
vt 0.639882 0.277592
vn 0.685730 0.205385 0.698277
v 0.075772 -0.000838 0.029289
vt 0.722728 0.498435
vn 0.757758 0.172947 0.629200
v 0.078550 -0.030188 0.034981
vt 0.787690 0.457328
vn 0.798313 0.146940 0.584041
v 0.092275 -0.030188 0.008424
vt 0.900211 0.614510
vn 0.893934 0.051773 0.445199
v 0.096175 -0.030188 0.000175
vt 0.921385 0.672271
vn 0.801447 -0.023562 0.597601
v 0.115140 -0.000839 -0.011231
vt 0.937519 0.840669
vn 0.719716 0.427870 0.546750
v 0.031886 -0.071297 0.088999
vt 0.477662 -0.028178
vn 0.739047 0.141681 0.658586
v 0.017460 -0.030188 0.101083
vt 0.380360 -0.073219
vn 0.585398 0.129501 0.800336
v 0.018440 -0.071297 0.103988
vt 0.397452 -0.144671
vn 0.545783 0.104469 0.831389
v 0.067359 -0.071297 0.057937
vt 0.585303 0.116136
vn 0.700009 0.171114 0.693330
v 0.081327 -0.071297 0.040672
vt 0.825272 0.430440
vn 0.835479 0.120224 0.536210
v 0.092973 -0.071297 0.008652
vt 0.940878 0.607771
vn 0.912285 0.041376 0.407461
v 0.097323 -0.071297 -0.001025
vt 0.983831 0.675059
vn 0.828179 -0.016426 0.560223
v 0.114810 -0.030188 -0.016622
vt 1.051840 0.854450
vn 0.792872 -0.042042 0.607936
v 0.115140 -0.000839 -0.011231
vt 0.937519 0.840669
vn 0.719716 0.427870 0.546750
v 0.121549 -0.000839 -0.032876
vt 0.955154 0.945240
vn 0.523282 0.837029 0.159872
v 0.114480 -0.071297 -0.022014
vt 1.095359 0.864238
vn 0.790371 -0.037789 0.611462
v 0.125014 -0.030189 -0.036744
vt 1.087170 0.981821
vn 0.950778 0.016793 0.309417
v 0.121549 -0.000839 -0.032876
vt 0.955154 0.945240
vn 0.523282 0.837029 0.159872
v 0.128480 -0.071297 -0.040611
vt 1.164434 1.017552
vn 0.944970 0.009933 0.327006
v 0.128165 -0.030188 -0.055609
vt 1.121551 1.087777
vn 0.996542 0.058430 -0.059080
v 0.127247 -0.000838 -0.054664
vt 1.027519 1.047142
vn 0.996084 0.066943 -0.057759
v 0.129084 -0.071297 -0.056554
vt 1.176287 1.111519
vn 0.996918 0.050108 -0.060367
v 0.122669 -0.030188 -0.074674
vt 1.056563 1.221074
vn 0.775187 0.074401 -0.627335
v 0.119537 -0.000838 -0.074092
vt 0.971062 1.161785
vn 0.750341 0.085557 -0.655491
v 0.127247 -0.000838 -0.054664
vt 1.027519 1.047142
vn 0.996084 0.066943 -0.057759
v 0.102338 -0.030188 -0.085518
vt 0.842106 1.297833
vn 0.191177 0.063523 -0.979498
v 0.099391 -0.000838 -0.083547
vt 0.780685 1.226022
vn 0.179271 0.073047 -0.981084
v 0.056801 -0.030188 -0.080788
vt 0.600178 1.279190
vn -0.030246 0.054105 -0.998077
v 0.056536 -0.000838 -0.079160
vt 0.564740 1.207450
vn -0.050383 0.062912 -0.996747
v 0.046076 -0.030188 -0.081250
vt 0.520673 1.269430
vn -0.038143 0.059788 -0.997482
v 0.045816 -0.000838 -0.078737
vt 0.493730 1.198217
vn -0.050559 0.069934 -0.996270
v 0.017891 -0.030188 -0.077894
vt 0.321937 1.245049
vn -0.152229 0.067892 -0.986011
v 0.014502 -0.000838 -0.075929
vt 0.316232 1.175104
vn -0.164207 0.078023 -0.983335
v -0.015113 -0.030188 -0.071678
vt 0.053625 1.212135
vn -0.048955 0.110994 -0.992615
v -0.016502 -0.000838 -0.067308
vt 0.076600 1.143912
vn -0.074924 0.127717 -0.988977
v -0.056028 -0.030188 -0.075353
vt -0.234551 1.176791
vn -0.171350 0.148468 -0.973959
v -0.056116 -0.000838 -0.069937
vt -0.180778 1.110435
vn -0.179429 0.172345 -0.968557
v -0.071706 -0.000838 -0.062363
vt -0.295943 1.079479
vn -0.710311 0.129378 -0.691896
v -0.073124 -0.030188 -0.067357
vt -0.363265 1.142502
vn -0.728696 0.110996 -0.675783
v -0.079398 -0.030188 -0.050666
vt -0.401192 1.063864
vn -0.852052 0.028126 -0.522701
v -0.078579 -0.000838 -0.049807
vt -0.330644 1.011076
vn -0.798890 0.035353 -0.600438
v -0.086685 -0.030188 -0.042661
vt -0.439111 0.985236
vn -0.783857 -0.043518 -0.619415
v -0.088228 -0.000838 -0.043406
vt -0.365346 0.942674
vn -0.724622 -0.050651 -0.687282
v -0.100758 -0.000839 -0.028783
vt -0.430388 0.814414
vn -0.845230 -0.106404 -0.523703
v -0.080217 -0.071297 -0.051526
vt -0.442952 1.084638
vn -0.897027 0.020755 -0.441488
v -0.074542 -0.071297 -0.072350
vt -0.405182 1.186598
vn -0.746850 0.092027 -0.658594
v -0.085143 -0.071297 -0.041916
vt -0.477689 1.010054
vn -0.836399 -0.036075 -0.546933
v -0.100758 -0.000839 -0.028783
vt -0.430388 0.814414
vn -0.845230 -0.106404 -0.523703
v -0.122249 -0.000838 0.014930
vt -0.536461 0.576848
vn -0.992964 -0.097937 -0.066567
v -0.096395 -0.071297 -0.021737
vt -0.545918 0.852265
vn -0.872397 -0.075086 -0.482997
v -0.055941 -0.071297 -0.080770
vt -0.262413 1.217783
vn -0.163143 0.124453 -0.978721
v -0.013724 -0.071297 -0.076049
vt 0.054492 1.250654
vn -0.023054 0.094238 -0.995283
v 0.021280 -0.071297 -0.079859
vt 0.332588 1.284265
vn -0.140236 0.057762 -0.988432
v 0.046337 -0.071297 -0.083763
vt 0.538435 1.308334
vn -0.025658 0.049580 -0.998441
v 0.057067 -0.071297 -0.082415
vt 0.610965 1.316033
vn -0.010033 0.045244 -0.998926
v 0.102338 -0.030188 -0.085518
vt 0.842106 1.297833
vn 0.191177 0.063523 -0.979498
v 0.105286 -0.071297 -0.087489
vt 0.876144 1.342367
vn 0.203130 0.053909 -0.977667
v 0.017460 -0.030188 0.101083
vt 0.380360 -0.073219
vn 0.585398 0.129501 0.800336
v 0.105286 -0.071297 -0.087489
vt 0.876144 1.342367
vn 0.203130 0.053909 -0.977667
v 0.125800 -0.071297 -0.075256
vt 1.116413 1.255897
vn 0.799107 0.063001 -0.597879
v 0.102338 -0.030188 -0.085518
vt 0.842106 1.297833
vn 0.191177 0.063523 -0.979498
# Faces (1 to 126)
f -124/-124/-124 -125/-125/-125 -126/-126/-126
f -126/-126/-126 -123/-123/-123 -124/-124/-124
f -125/-125/-125 -122/-122/-122 -126/-126/-126
f -121/-121/-121 -126/-126/-126 -122/-122/-122
f -120/-120/-120 -123/-123/-123 -126/-126/-126
f -126/-126/-126 -119/-119/-119 -120/-120/-120
f -119/-119/-119 -126/-126/-126 -121/-121/-121
f -121/-121/-121 -118/-118/-118 -119/-119/-119
f -118/-118/-118 -117/-117/-117 -119/-119/-119
f -119/-119/-119 -117/-117/-117 -116/-116/-116
f -116/-116/-116 -117/-117/-117 -115/-115/-115
f -115/-115/-115 -114/-114/-114 -116/-116/-116
f -119/-119/-119 -116/-116/-116 -113/-113/-113
f -113/-113/-113 -120/-120/-120 -119/-119/-119
f -116/-116/-116 -114/-114/-114 -112/-112/-112
f -112/-112/-112 -113/-113/-113 -116/-116/-116
f -111/-111/-111 -125/-125/-125 -124/-124/-124
f -124/-124/-124 -110/-110/-110 -111/-111/-111
f -122/-122/-122 -109/-109/-109 -121/-121/-121
f -109/-109/-109 -108/-108/-108 -121/-121/-121
f -108/-108/-108 -107/-107/-107 -121/-121/-121
f -107/-107/-107 -106/-106/-106 -121/-121/-121
f -117/-117/-117 -118/-118/-118 -105/-105/-105
f -105/-105/-105 -104/-104/-104 -117/-117/-117
f -114/-114/-114 -103/-103/-103 -112/-112/-112
f -103/-103/-103 -102/-102/-102 -112/-112/-112
f -102/-102/-102 -101/-101/-101 -112/-112/-112
f -100/-100/-100 -113/-113/-113 -112/-112/-112
f -112/-112/-112 -101/-101/-101 -100/-100/-100
f -100/-100/-100 -99/-99/-99 -113/-113/-113
f -113/-113/-113 -99/-99/-99 -98/-98/-98
f -98/-98/-98 -120/-120/-120 -113/-113/-113
f -98/-98/-98 -97/-97/-97 -120/-120/-120
f -120/-120/-120 -97/-97/-97 -96/-96/-96
f -96/-96/-96 -123/-123/-123 -120/-120/-120
f -96/-96/-96 -95/-95/-95 -123/-123/-123
f -95/-95/-95 -94/-94/-94 -123/-123/-123
f -94/-94/-94 -93/-93/-93 -123/-123/-123
f -123/-123/-123 -93/-93/-93 -92/-92/-92
f -92/-92/-92 -124/-124/-124 -123/-123/-123
f -124/-124/-124 -90/-90/-90 -91/-91/-91
f -89/-89/-89 -90/-90/-90 -124/-124/-124
f -88/-88/-88 -89/-89/-89 -124/-124/-124
f -86/-86/-86 -87/-87/-87 -91/-91/-91
f -86/-86/-86 -85/-85/-85 -87/-87/-87
f -84/-84/-84 -85/-85/-85 -86/-86/-86
f -84/-84/-84 -83/-83/-83 -85/-85/-85
f -82/-82/-82 -87/-87/-87 -85/-85/-85
f -87/-87/-87 -82/-82/-82 -81/-81/-81
f -87/-87/-87 -81/-81/-81 -80/-80/-80
f -110/-110/-110 -87/-87/-87 -80/-80/-80
f -111/-111/-111 -110/-110/-110 -80/-80/-80
f -80/-80/-80 -79/-79/-79 -111/-111/-111
f -79/-79/-79 -125/-125/-125 -111/-111/-111
f -125/-125/-125 -79/-79/-79 -78/-78/-78
f -78/-78/-78 -122/-122/-122 -125/-125/-125
f -77/-77/-77 -79/-79/-79 -80/-80/-80
f -80/-80/-80 -81/-81/-81 -77/-77/-77
f -77/-77/-77 -78/-78/-78 -79/-79/-79
f -122/-122/-122 -78/-78/-78 -76/-76/-76
f -76/-76/-76 -75/-75/-75 -122/-122/-122
f -75/-75/-75 -76/-76/-76 -74/-74/-74
f -74/-74/-74 -73/-73/-73 -75/-75/-75
f -73/-73/-73 -74/-74/-74 -72/-72/-72
f -72/-72/-72 -71/-71/-71 -73/-73/-73
f -72/-72/-72 -106/-106/-106 -71/-71/-71
f -72/-72/-72 -70/-70/-70 -106/-106/-106
f -69/-69/-69 -76/-76/-76 -78/-78/-78
f -78/-78/-78 -68/-68/-68 -69/-69/-69
f -78/-78/-78 -77/-77/-77 -68/-68/-68
f -67/-67/-67 -74/-74/-74 -76/-76/-76
f -76/-76/-76 -69/-69/-69 -67/-67/-67
f -66/-66/-66 -72/-72/-72 -74/-74/-74
f -74/-74/-74 -67/-67/-67 -66/-66/-66
f -66/-66/-66 -65/-65/-65 -72/-72/-72
f -66/-66/-66 -64/-64/-64 -65/-65/-65
f -63/-63/-63 -121/-121/-121 -106/-106/-106
f -121/-121/-121 -63/-63/-63 -62/-62/-62
f -62/-62/-62 -118/-118/-118 -121/-121/-121
f -62/-62/-62 -61/-61/-61 -118/-118/-118
f -62/-62/-62 -60/-60/-60 -61/-61/-61
f -61/-61/-61 -60/-60/-60 -59/-59/-59
f -59/-59/-59 -104/-104/-104 -61/-61/-61
f -117/-117/-117 -104/-104/-104 -59/-59/-59
f -59/-59/-59 -58/-58/-58 -117/-117/-117
f -58/-58/-58 -57/-57/-57 -117/-117/-117
f -56/-56/-56 -62/-62/-62 -63/-63/-63
f -56/-56/-56 -63/-63/-63 -55/-55/-55
f -55/-55/-55 -54/-54/-54 -56/-56/-56
f -56/-56/-56 -53/-53/-53 -62/-62/-62
f -52/-52/-52 -60/-60/-60 -62/-62/-62
f -62/-62/-62 -53/-53/-53 -52/-52/-52
f -51/-51/-51 -59/-59/-59 -60/-60/-60
f -60/-60/-60 -52/-52/-52 -51/-51/-51
f -58/-58/-58 -59/-59/-59 -51/-51/-51
f -51/-51/-51 -50/-50/-50 -58/-58/-58
f -49/-49/-49 -58/-58/-58 -50/-50/-50
f -58/-58/-58 -49/-49/-49 -48/-48/-48
f -47/-47/-47 -48/-48/-48 -49/-49/-49
f -50/-50/-50 -46/-46/-46 -49/-49/-49
f -45/-45/-45 -49/-49/-49 -46/-46/-46
f -49/-49/-49 -45/-45/-45 -44/-44/-44
f -46/-46/-46 -43/-43/-43 -45/-45/-45
f -42/-42/-42 -45/-45/-45 -43/-43/-43
f -45/-45/-45 -42/-42/-42 -41/-41/-41
f -43/-43/-43 -40/-40/-40 -42/-42/-42
f -39/-39/-39 -42/-42/-42 -40/-40/-40
f -42/-42/-42 -39/-39/-39 -38/-38/-38
f -38/-38/-38 -37/-37/-37 -42/-42/-42
f -37/-37/-37 -114/-114/-114 -45/-45/-45
f -38/-38/-38 -39/-39/-39 -36/-36/-36
f -36/-36/-36 -35/-35/-35 -38/-38/-38
f -35/-35/-35 -36/-36/-36 -34/-34/-34
f -34/-34/-34 -33/-33/-33 -35/-35/-35
f -33/-33/-33 -34/-34/-34 -32/-32/-32
f -32/-32/-32 -31/-31/-31 -33/-33/-33
f -31/-31/-31 -32/-32/-32 -30/-30/-30
f -30/-30/-30 -29/-29/-29 -31/-31/-31
f -29/-29/-29 -30/-30/-30 -28/-28/-28
f -28/-28/-28 -27/-27/-27 -29/-29/-29
f -27/-27/-27 -28/-28/-28 -26/-26/-26
f -26/-26/-26 -25/-25/-25 -27/-27/-27
f -24/-24/-24 -25/-25/-25 -26/-26/-26
f -24/-24/-24 -26/-26/-26 -23/-23/-23
f -24/-24/-24 -23/-23/-23 -22/-22/-22
f -22/-22/-22 -21/-21/-21 -24/-24/-24
f -21/-21/-21 -22/-22/-22 -20/-20/-20
f -20/-20/-20 -19/-19/-19 -21/-21/-21
f -20/-20/-20 -18/-18/-18 -19/-19/-19
f -17/-17/-17 -22/-22/-22 -23/-23/-23
f -23/-23/-23 -16/-16/-16 -17/-17/-17
f -15/-15/-15 -20/-20/-20 -22/-22/-22
f -22/-22/-22 -17/-17/-17 -15/-15/-15
f -15/-15/-15 -83/-83/-83 -20/-20/-20
f -14/-14/-14 -20/-20/-20 -83/-83/-83
f -14/-14/-14 -83/-83/-83 -13/-13/-13
f -83/-83/-83 -15/-15/-15 -12/-12/-12
f -83/-83/-83 -12/-12/-12 -85/-85/-85
f -85/-85/-85 -12/-12/-12 -82/-82/-82
f -23/-23/-23 -11/-11/-11 -16/-16/-16
f -23/-23/-23 -26/-26/-26 -11/-11/-11
f -11/-11/-11 -26/-26/-26 -28/-28/-28
f -28/-28/-28 -10/-10/-10 -11/-11/-11
f -10/-10/-10 -28/-28/-28 -30/-30/-30
f -30/-30/-30 -9/-9/-9 -10/-10/-10
f -9/-9/-9 -30/-30/-30 -32/-32/-32
f -32/-32/-32 -8/-8/-8 -9/-9/-9
f -8/-8/-8 -32/-32/-32 -34/-34/-34
f -34/-34/-34 -7/-7/-7 -8/-8/-8
f -7/-7/-7 -34/-34/-34 -6/-6/-6
f -6/-6/-6 -5/-5/-5 -7/-7/-7
f -106/-106/-106 -4/-4/-4 -63/-63/-63
f -39/-39/-39 -2/-2/-2 -3/-3/-3
f -3/-3/-3 -1/-1/-1 -39/-39/-39
f -40/-40/-40 -2/-2/-2 -39/-39/-39

