# Mesh "mesh_poke" exported with raY asset explorer
g mesh_poke
# SubMesh 0
# Vertices
v 0.167413 -0.033300 -0.004979
vt 0.499999 0.996672
vn 0.271923 -0.054090 -0.960798
v 0.157699 -0.065321 -0.004979
vt 0.421992 0.990670
vn 0.256146 -0.106099 -0.960798
v 0.225192 -0.093277 0.016102
vt 0.469728 0.652184
vn 0.256146 -0.106099 -0.960798
v 0.239063 -0.047552 0.016102
vt 0.500000 0.655166
vn 0.271923 -0.054090 -0.960798
v 0.141926 -0.094832 -0.004979
vt 0.309931 0.958865
vn 0.230525 -0.154032 -0.960798
v 0.202667 -0.135418 0.016102
vt 0.440621 0.643354
vn 0.230525 -0.154032 -0.960798
v 0.120698 -0.120698 -0.004979
vt 0.235869 0.921232
vn 0.196046 -0.196046 -0.960798
v 0.172355 -0.172354 0.016102
vt 0.413795 0.629015
vn 0.196046 -0.196046 -0.960798
v 0.135418 -0.202667 0.016102
vt 0.390281 0.609719
vn 0.154032 -0.230526 -0.960798
v 0.094832 -0.141926 -0.004979
vt 0.148800 0.851200
vn 0.154032 -0.230526 -0.960798
v 0.065321 -0.157699 -0.004979
vt 0.029185 0.771214
vn 0.106099 -0.256146 -0.960798
v 0.093278 -0.225192 0.016102
vt 0.370984 0.586205
vn 0.106099 -0.256146 -0.960798
v 0.033301 -0.167413 -0.004979
vt 0.041135 0.690068
vn 0.054089 -0.271923 -0.960798
v 0.047553 -0.239063 0.016102
vt 0.356646 0.559379
vn 0.054089 -0.271923 -0.960798
v 0.000000 -0.170693 -0.004979
vt 0.012872 0.596896
vn -0.000000 -0.277251 -0.960798
v 0.000000 -0.243746 0.016102
vt 0.347816 0.530271
vn -0.000000 -0.277251 -0.960798
v -0.047552 -0.239063 0.016102
vt 0.344834 0.500000
vn -0.054089 -0.271923 -0.960798
v -0.033300 -0.167413 -0.004979
vt 0.003328 0.500000
vn -0.054089 -0.271923 -0.960798
v -0.047552 -0.239063 0.016102
vt 0.344834 0.500000
vn -0.054089 -0.271923 -0.960798
v -0.065321 -0.157699 -0.004979
vt 0.012872 0.403104
vn -0.106099 -0.256146 -0.960798
v -0.093277 -0.225192 0.016102
vt 0.347816 0.469729
vn -0.106099 -0.256146 -0.960798
v -0.047552 -0.239063 0.016102
vt 0.344834 0.500000
vn -0.054089 -0.271923 -0.960798
v -0.094832 -0.141926 -0.004979
vt 0.041135 0.309932
vn -0.154032 -0.230526 -0.960798
v -0.135418 -0.202668 0.016102
vt 0.356646 0.440621
vn -0.154032 -0.230526 -0.960798
v -0.120698 -0.120698 -0.004979
vt 0.087032 0.224064
vn -0.196045 -0.196046 -0.960798
v -0.172354 -0.172355 0.016102
vt 0.370985 0.413795
vn -0.196045 -0.196046 -0.960798
v -0.141926 -0.094832 -0.004979
vt 0.142897 0.142897
vn -0.230525 -0.154032 -0.960798
v -0.202667 -0.135418 0.016102
vt 0.390281 0.390282
vn -0.230525 -0.154032 -0.960798
v -0.225192 -0.093278 0.016102
vt 0.413795 0.370985
vn -0.256145 -0.106099 -0.960798
v -0.157699 -0.065321 -0.004979
vt 0.224064 0.087033
vn -0.256145 -0.106099 -0.960798
v -0.167413 -0.033301 -0.004979
vt 0.247651 0.072822
vn -0.271922 -0.054089 -0.960798
v -0.239063 -0.047553 0.016102
vt 0.440621 0.356646
vn -0.271922 -0.054089 -0.960798
v -0.170693 -0.000000 -0.004979
vt 0.356120 0.029261
vn -0.277250 0.000000 -0.960798
v -0.243746 -0.000000 0.016102
vt 0.469729 0.347816
vn -0.277250 0.000000 -0.960798
v -0.239063 0.047552 0.016102
vt 0.500000 0.344835
vn -0.271922 0.054089 -0.960798
v -0.167413 0.033300 -0.004979
vt 0.500000 0.003329
vn -0.271922 0.054089 -0.960798
v -0.225192 0.093278 0.016102
vt 0.530271 0.347816
vn -0.256145 0.106098 -0.960798
v -0.157699 0.065321 -0.004979
vt 0.596896 0.012872
vn -0.256145 0.106098 -0.960798
v -0.202668 0.135418 0.016102
vt 0.559379 0.356646
vn -0.230525 0.154032 -0.960798
v -0.141926 0.094832 -0.004979
vt 0.669308 0.032394
vn -0.230525 0.154032 -0.960798
v -0.120698 0.120698 -0.004979
vt 0.775937 0.087033
vn -0.196046 0.196046 -0.960798
v -0.172355 0.172355 0.016102
vt 0.586205 0.370985
vn -0.196046 0.196046 -0.960798
v -0.135418 0.202668 0.016102
vt 0.609718 0.390282
vn -0.154032 0.230526 -0.960798
v -0.094832 0.141926 -0.004979
vt 0.821698 0.122576
vn -0.154032 0.230526 -0.960798
v -0.093278 0.225192 0.016102
vt 0.629015 0.413795
vn -0.106099 0.256146 -0.960798
v -0.065321 0.157700 -0.004979
vt 0.903134 0.183636
vn -0.106099 0.256146 -0.960798
v -0.033301 0.167413 -0.004979
vt 0.981295 0.274516
vn -0.054089 0.271923 -0.960798
v -0.047553 0.239063 0.016102
vt 0.643354 0.440621
vn -0.054089 0.271923 -0.960798
v -0.000000 0.170693 -0.004979
vt 0.988221 0.430421
vn -0.000000 0.277251 -0.960798
v -0.000000 0.243746 0.016102
vt 0.652184 0.469729
vn -0.000000 0.277251 -0.960798
v 0.047552 0.239063 0.016102
vt 0.655165 0.500000
vn 0.054089 0.271923 -0.960798
v 0.033301 0.167413 -0.004979
vt 0.990116 0.538244
vn 0.054089 0.271923 -0.960798
v 0.093278 0.225192 0.016102
vt 0.652184 0.530272
vn 0.106099 0.256146 -0.960798
v 0.065321 0.157700 -0.004979
vt 0.983850 0.618750
vn 0.106099 0.256146 -0.960798
v 0.135418 0.202668 0.016102
vt 0.643354 0.559380
vn 0.154032 0.230526 -0.960798
v 0.094832 0.141926 -0.004979
vt 0.958864 0.690069
vn 0.154032 0.230526 -0.960798
v 0.120698 0.120698 -0.004979
vt 0.925953 0.752326
vn 0.196045 0.196046 -0.960798
v 0.172355 0.172355 0.016102
vt 0.629015 0.586206
vn 0.196045 0.196046 -0.960798
v 0.202668 0.135418 0.016102
vt 0.609718 0.609719
vn 0.230525 0.154032 -0.960798
v 0.141926 0.094832 -0.004979
vt 0.851200 0.851201
vn 0.230525 0.154032 -0.960798
v 0.157700 0.065321 -0.004979
vt 0.782175 0.909849
vn 0.256145 0.106099 -0.960798
v 0.225192 0.093278 0.016102
vt 0.586205 0.629016
vn 0.256145 0.106099 -0.960798
v 0.167413 0.033301 -0.004979
vt 0.690067 0.973032
vn 0.271922 0.054089 -0.960798
v 0.239063 0.047553 0.016102
vt 0.559379 0.643355
vn 0.271922 0.054089 -0.960798
v 0.170693 0.000000 -0.004979
vt 0.596895 0.987129
vn 0.277250 -0.000001 -0.960798
v 0.243746 0.000000 0.016102
vt 0.530271 0.652184
vn 0.277250 -0.000001 -0.960798
# Faces (1 to 66)
f -64/-64/-64 -65/-65/-65 -66/-66/-66
f -66/-66/-66 -63/-63/-63 -64/-64/-64
f -62/-62/-62 -65/-65/-65 -64/-64/-64
f -64/-64/-64 -61/-61/-61 -62/-62/-62
f -61/-61/-61 -60/-60/-60 -62/-62/-62
f -59/-59/-59 -60/-60/-60 -61/-61/-61
f -60/-60/-60 -59/-59/-59 -58/-58/-58
f -58/-58/-58 -57/-57/-57 -60/-60/-60
f -58/-58/-58 -56/-56/-56 -57/-57/-57
f -56/-56/-56 -58/-58/-58 -55/-55/-55
f -54/-54/-54 -56/-56/-56 -55/-55/-55
f -54/-54/-54 -55/-55/-55 -53/-53/-53
f -52/-52/-52 -54/-54/-54 -53/-53/-53
f -52/-52/-52 -53/-53/-53 -51/-51/-51
f -52/-52/-52 -51/-51/-51 -50/-50/-50
f -48/-48/-48 -49/-49/-49 -52/-52/-52
f -47/-47/-47 -49/-49/-49 -48/-48/-48
f -45/-45/-45 -46/-46/-46 -47/-47/-47
f -44/-44/-44 -47/-47/-47 -46/-46/-46
f -46/-46/-46 -43/-43/-43 -44/-44/-44
f -42/-42/-42 -44/-44/-44 -43/-43/-43
f -43/-43/-43 -41/-41/-41 -42/-42/-42
f -40/-40/-40 -42/-42/-42 -41/-41/-41
f -41/-41/-41 -39/-39/-39 -40/-40/-40
f -40/-40/-40 -39/-39/-39 -38/-38/-38
f -38/-38/-38 -37/-37/-37 -40/-40/-40
f -38/-38/-38 -36/-36/-36 -37/-37/-37
f -35/-35/-35 -36/-36/-36 -38/-38/-38
f -35/-35/-35 -34/-34/-34 -36/-36/-36
f -33/-33/-33 -34/-34/-34 -35/-35/-35
f -34/-34/-34 -33/-33/-33 -32/-32/-32
f -32/-32/-32 -31/-31/-31 -34/-34/-34
f -31/-31/-31 -32/-32/-32 -30/-30/-30
f -30/-30/-30 -29/-29/-29 -31/-31/-31
f -29/-29/-29 -30/-30/-30 -28/-28/-28
f -28/-28/-28 -27/-27/-27 -29/-29/-29
f -26/-26/-26 -27/-27/-27 -28/-28/-28
f -28/-28/-28 -25/-25/-25 -26/-26/-26
f -26/-26/-26 -25/-25/-25 -24/-24/-24
f -24/-24/-24 -23/-23/-23 -26/-26/-26
f -23/-23/-23 -24/-24/-24 -22/-22/-22
f -22/-22/-22 -21/-21/-21 -23/-23/-23
f -20/-20/-20 -21/-21/-21 -22/-22/-22
f -22/-22/-22 -19/-19/-19 -20/-20/-20
f -18/-18/-18 -20/-20/-20 -19/-19/-19
f -19/-19/-19 -17/-17/-17 -18/-18/-18
f -18/-18/-18 -17/-17/-17 -16/-16/-16
f -16/-16/-16 -15/-15/-15 -18/-18/-18
f -15/-15/-15 -16/-16/-16 -14/-14/-14
f -14/-14/-14 -13/-13/-13 -15/-15/-15
f -13/-13/-13 -14/-14/-14 -12/-12/-12
f -12/-12/-12 -11/-11/-11 -13/-13/-13
f -12/-12/-12 -10/-10/-10 -11/-11/-11
f -10/-10/-10 -12/-12/-12 -9/-9/-9
f -10/-10/-10 -9/-9/-9 -8/-8/-8
f -8/-8/-8 -7/-7/-7 -10/-10/-10
f -6/-6/-6 -7/-7/-7 -8/-8/-8
f -8/-8/-8 -5/-5/-5 -6/-6/-6
f -4/-4/-4 -6/-6/-6 -5/-5/-5
f -5/-5/-5 -3/-3/-3 -4/-4/-4
f -2/-2/-2 -4/-4/-4 -3/-3/-3
f -3/-3/-3 -1/-1/-1 -2/-2/-2
f -2/-2/-2 -1/-1/-1 -63/-63/-63
f -63/-63/-63 -66/-66/-66 -2/-2/-2

