# Mesh "PokestopFar" exported with raY asset explorer
g PokestopFar
# SubMesh 0
# Vertices
v 0.361756 0.051974 -0.117542
vt 0.270913 0.026144
vn -0.000000 1.000000 0.000000
v -0.000000 0.051974 0.000000
vt 0.205862 0.026144
vn -0.000000 1.000000 0.000000
v 0.307728 0.051974 -0.223577
vt 0.261198 0.026144
vn -0.000000 1.000000 0.000000
v 0.223577 0.051974 -0.307728
vt 0.246066 0.026144
vn -0.000000 1.000000 0.000000
v 0.380372 0.051974 -0.000000
vt 0.274261 0.026144
vn -0.000000 1.000000 0.000000
v 0.459587 0.051974 -0.149329
vt 0.289635 0.003413
vn -0.000000 1.000000 0.000000
v 0.390948 0.051974 -0.284041
vt 0.277292 0.003413
vn -0.000000 1.000000 0.000000
v 0.284040 0.051974 -0.390949
vt 0.258068 0.003413
vn -0.000000 1.000000 0.000000
v 0.117541 0.051974 -0.361756
vt 0.226998 0.026144
vn -0.000000 1.000000 0.000000
v 0.149329 0.051974 -0.459588
vt 0.233843 0.003413
vn -0.000000 1.000000 0.000000
v -0.000000 0.051974 -0.380372
vt 0.205862 0.026144
vn -0.000000 1.000000 0.000000
v -0.000000 0.051974 -0.483239
vt 0.206991 0.003413
vn -0.000000 1.000000 0.000000
v -0.117542 0.051974 -0.361756
vt 0.184725 0.026144
vn -0.000000 1.000000 0.000000
v -0.149329 0.051974 -0.459587
vt 0.180138 0.003413
vn -0.000000 1.000000 0.000000
v -0.223577 0.051974 -0.307728
vt 0.165658 0.026144
vn -0.000000 1.000000 0.000000
v -0.284041 0.051974 -0.390948
vt 0.155914 0.003413
vn -0.000000 1.000000 0.000000
v -0.307728 0.051974 -0.223577
vt 0.150526 0.026144
vn -0.000000 1.000000 0.000000
v -0.390949 0.051974 -0.284040
vt 0.136690 0.003413
vn -0.000000 1.000000 0.000000
v -0.361756 0.051974 -0.117541
vt 0.140810 0.026144
vn -0.000000 1.000000 0.000000
v -0.459588 0.051974 -0.149329
vt 0.124347 0.003413
vn -0.000000 1.000000 0.000000
v -0.380372 0.051974 0.000000
vt 0.137462 0.026144
vn -0.000000 1.000000 0.000000
v -0.483239 0.051974 0.000000
vt 0.120094 0.003413
vn -0.000000 1.000000 0.000000
v 0.223577 0.051974 -0.307728
vt 0.246066 0.026144
vn -0.000000 1.000000 0.000000
v -0.000000 0.051974 0.000000
vt 0.205862 0.026144
vn -0.000000 1.000000 0.000000
v 0.117541 0.051974 -0.361756
vt 0.226998 0.026144
vn -0.000000 1.000000 0.000000
v -0.000000 0.051974 -0.380372
vt 0.205862 0.026144
vn -0.000000 1.000000 0.000000
v -0.117542 0.051974 -0.361756
vt 0.184725 0.026144
vn -0.000000 1.000000 0.000000
v -0.223577 0.051974 -0.307728
vt 0.165658 0.026144
vn -0.000000 1.000000 0.000000
v -0.307728 0.051974 -0.223577
vt 0.150526 0.026144
vn -0.000000 1.000000 0.000000
v -0.361756 0.051974 -0.117541
vt 0.140810 0.026144
vn -0.000000 1.000000 0.000000
v -0.380372 0.051974 0.000000
vt 0.137462 0.026144
vn -0.000000 1.000000 0.000000
v -0.361756 0.051974 0.117542
vt 0.140810 0.026144
vn -0.000000 1.000000 0.000000
v -0.307728 0.051974 0.223577
vt 0.150526 0.026144
vn -0.000000 1.000000 0.000000
v -0.223577 0.051974 0.307728
vt 0.165658 0.026144
vn -0.000000 1.000000 0.000000
v -0.117541 0.051974 0.361755
vt 0.184725 0.026144
vn -0.000000 1.000000 0.000000
v -0.000000 0.051974 0.380372
vt 0.205862 0.026144
vn -0.000000 1.000000 0.000000
v 0.117541 0.051974 0.361755
vt 0.226998 0.026144
vn -0.000000 1.000000 0.000000
v -0.483239 0.051974 0.000000
vt 0.120094 0.003413
vn -0.000000 1.000000 0.000000
v -0.459587 0.051974 0.149329
vt 0.124347 0.003413
vn -0.000000 1.000000 0.000000
v -0.390948 0.051974 0.284041
vt 0.136690 0.003413
vn -0.000000 1.000000 0.000000
v -0.284041 0.051974 0.390948
vt 0.155914 0.003413
vn -0.000000 1.000000 0.000000
v -0.149329 0.051974 0.459587
vt 0.180138 0.003413
vn -0.000000 1.000000 0.000000
v 0.000000 0.051974 0.483239
vt 0.206991 0.003413
vn -0.000000 1.000000 0.000000
v 0.149329 0.051974 0.459587
vt 0.233843 0.003413
vn -0.000000 1.000000 0.000000
v 0.223577 0.051974 0.307728
vt 0.246066 0.026144
vn -0.000000 1.000000 0.000000
v 0.284041 0.051974 0.390948
vt 0.258067 0.003413
vn -0.000000 1.000000 0.000000
v 0.307727 0.051974 0.223577
vt 0.261198 0.026144
vn -0.000000 1.000000 0.000000
v -0.000000 0.051974 0.000000
vt 0.205862 0.026144
vn -0.000000 1.000000 0.000000
v 0.361755 0.051974 0.117541
vt 0.270913 0.026144
vn -0.000000 1.000000 0.000000
v 0.380372 0.051974 -0.000000
vt 0.274261 0.026144
vn -0.000000 1.000000 0.000000
v 0.390948 0.051974 0.284040
vt 0.277292 0.003413
vn -0.000000 1.000000 0.000000
v 0.459587 0.051974 0.149329
vt 0.289635 0.003413
vn -0.000000 1.000000 0.000000
v 0.483239 0.051974 -0.000000
vt 0.293888 0.003413
vn -0.000000 1.000000 0.000000
v 0.117541 0.051974 0.361755
vt 0.226998 0.026144
vn -0.000000 1.000000 0.000000
v -0.000000 0.051974 0.000000
vt 0.205862 0.026144
vn -0.000000 1.000000 0.000000
v 0.223577 0.051974 0.307728
vt 0.246066 0.026144
vn -0.000000 1.000000 0.000000
v 0.483239 0.051974 -0.000000
vt 0.293888 0.003413
vn -0.000000 1.000000 0.000000
v 0.014476 0.049261 -0.025073
vt 0.208465 0.025656
vn -0.000000 0.002379 -0.999997
v 0.011042 2.549769 -0.019126
vt 0.209804 0.456693
vn -0.000000 0.002379 -0.999997
v -0.011042 2.549769 -0.019126
vt 0.205833 0.456693
vn -0.000000 0.002379 -0.999997
v -0.014476 0.049261 -0.025073
vt 0.203259 0.025656
vn -0.000000 0.002379 -0.999997
v -0.014476 0.049261 -0.025073
vt 0.203259 0.025656
vn -0.866023 0.002379 -0.499999
v -0.011042 2.549769 -0.019126
vt 0.205833 0.456693
vn -0.866023 0.002379 -0.499999
v -0.022084 2.549769 0.000000
vt 0.203848 0.456693
vn -0.866023 0.002379 -0.499999
v -0.028952 0.049261 0.000000
vt 0.200656 0.025656
vn -0.866023 0.002379 -0.499999
v -0.028952 0.049261 0.000000
vt 0.200656 0.025656
vn -0.866023 0.002379 0.499999
v -0.022084 2.549769 0.000000
vt 0.203848 0.456693
vn -0.866023 0.002379 0.499999
v -0.011042 2.549769 0.019126
vt 0.205833 0.456693
vn -0.866023 0.002379 0.499999
v -0.014476 0.049261 0.025073
vt 0.203259 0.025656
vn -0.866023 0.002379 0.499999
v -0.014476 0.049261 0.025073
vt 0.203259 0.025656
vn -0.000000 0.002379 0.999997
v -0.011042 2.549769 0.019126
vt 0.205833 0.456693
vn -0.000000 0.002379 0.999997
v 0.011042 2.549769 0.019126
vt 0.209804 0.456693
vn -0.000000 0.002379 0.999997
v 0.014476 0.049261 0.025073
vt 0.208465 0.025656
vn -0.000000 0.002379 0.999997
v 0.014476 0.049261 0.025073
vt 0.208465 0.025656
vn 0.866023 0.002379 0.499999
v 0.011042 2.549769 0.019126
vt 0.209804 0.456693
vn 0.866023 0.002379 0.499999
v 0.022084 2.549769 -0.000000
vt 0.211790 0.456693
vn 0.866023 0.002379 0.499999
v 0.028952 0.049261 -0.000000
vt 0.211068 0.025656
vn 0.866023 0.002379 0.499999
v 0.028952 0.049261 -0.000000
vt 0.211068 0.025656
vn 0.866023 0.002379 -0.499999
v 0.022084 2.549769 -0.000000
vt 0.211790 0.456693
vn 0.866023 0.002379 -0.499999
v 0.011042 2.549769 -0.019126
vt 0.209804 0.456693
vn 0.866023 0.002379 -0.499999
v 0.014476 0.049261 -0.025073
vt 0.208465 0.025656
vn 0.866023 0.002379 -0.499999
v -0.653595 2.490993 0.653596
vt 0.090288 0.446124
vn -0.000000 -0.636939 0.770914
v -0.777653 2.641145 0.777654
vt 0.067980 0.473124
vn -0.000000 -0.636939 0.770914
v 0.777654 2.641145 0.777653
vt 0.347658 0.473124
vn -0.000000 -0.636939 0.770914
v 0.653595 2.490993 0.653595
vt 0.325350 0.446124
vn -0.000000 -0.636939 0.770914
v -0.777653 2.641145 0.777654
vt 0.067980 0.473124
vn -0.000000 0.636938 0.770915
v -0.653595 2.791299 0.653596
vt 0.090288 0.500123
vn -0.000000 0.636938 0.770915
v 0.653595 2.791299 0.653595
vt 0.325350 0.500123
vn -0.000000 0.636938 0.770915
v 0.777654 2.641145 0.777653
vt 0.347658 0.473124
vn -0.000000 0.636938 0.770915
v -0.493801 2.791299 0.493802
vt 0.148391 0.598012
vn -0.000000 1.000000 0.000000
v -0.493802 2.791299 -0.493801
vt 0.148203 0.600754
vn -0.000000 1.000000 0.000000
v 0.493801 2.791299 -0.493802
vt 0.265882 0.600763
vn -0.000000 1.000000 0.000000
v 0.493802 2.791299 0.493801
vt 0.266108 0.598019
vn -0.000000 1.000000 0.000000
v -0.653595 2.791299 0.653596
vt 0.090288 0.500123
vn -0.000000 1.000000 0.000000
v 0.653595 2.791299 0.653595
vt 0.325350 0.500123
vn -0.000000 1.000000 0.000000
v 0.653595 2.791299 -0.653595
vt 0.325350 0.500123
vn -0.000000 1.000000 0.000000
v -0.653595 2.791299 -0.653595
vt 0.090288 0.500123
vn -0.000000 1.000000 0.000000
v -0.653595 2.791299 -0.653595
vt 0.090288 0.500123
vn -0.000000 0.636938 -0.770915
v -0.777654 2.641145 -0.777653
vt 0.067980 0.473124
vn -0.000000 0.636938 -0.770915
v 0.777653 2.641145 -0.777654
vt 0.347658 0.473124
vn -0.000000 0.636938 -0.770915
v 0.653595 2.791299 -0.653595
vt 0.325350 0.500123
vn -0.000000 0.636938 -0.770915
v -0.777654 2.641145 -0.777653
vt 0.067980 0.473124
vn -0.000000 -0.636939 -0.770914
v -0.653595 2.490993 -0.653595
vt 0.090288 0.446124
vn -0.000000 -0.636939 -0.770914
v 0.653595 2.490993 -0.653595
vt 0.325350 0.446124
vn -0.000000 -0.636939 -0.770914
v 0.777653 2.641145 -0.777654
vt 0.347658 0.473124
vn -0.000000 -0.636939 -0.770914
v -0.653595 2.490993 -0.653595
vt 0.090288 0.446124
vn -0.000000 -1.000000 0.000000
v -0.653595 2.490993 0.653596
vt 0.090288 0.446124
vn -0.000000 -1.000000 0.000000
v 0.653595 2.490993 0.653595
vt 0.325350 0.446124
vn -0.000000 -1.000000 0.000000
v 0.653595 2.490993 -0.653595
vt 0.325350 0.446124
vn -0.000000 -1.000000 0.000000
v 0.653595 2.490993 0.653595
vt 0.325350 0.446124
vn 0.770914 -0.636939 0.000000
v 0.777654 2.641145 0.777653
vt 0.347658 0.473124
vn 0.770914 -0.636939 0.000000
v 0.777653 2.641145 -0.777654
vt 0.347658 0.473124
vn 0.770914 -0.636939 0.000000
v 0.653595 2.490993 -0.653595
vt 0.325350 0.446124
vn 0.770914 -0.636939 0.000000
v 0.777654 2.641145 0.777653
vt 0.347658 0.473124
vn 0.770914 0.636939 0.000000
v 0.653595 2.791299 0.653595
vt 0.325350 0.500123
vn 0.770914 0.636939 0.000000
v 0.653595 2.791299 -0.653595
vt 0.325350 0.500123
vn 0.770914 0.636939 0.000000
v 0.777653 2.641145 -0.777654
vt 0.347658 0.473124
vn 0.770914 0.636939 0.000000
v -0.653595 2.490993 -0.653595
vt 0.090288 0.446124
vn -0.770914 -0.636939 0.000000
v -0.777654 2.641145 -0.777653
vt 0.067980 0.473124
vn -0.770914 -0.636939 0.000000
v -0.777653 2.641145 0.777654
vt 0.067980 0.473124
vn -0.770914 -0.636939 0.000000
v -0.653595 2.490993 0.653596
vt 0.090288 0.446124
vn -0.770914 -0.636939 0.000000
v -0.777654 2.641145 -0.777653
vt 0.067980 0.473124
vn -0.770914 0.636939 0.000000
v -0.653595 2.791299 -0.653595
vt 0.090288 0.500123
vn -0.770914 0.636939 0.000000
v -0.653595 2.791299 0.653596
vt 0.090288 0.500123
vn -0.770914 0.636939 0.000000
v -0.777653 2.641145 0.777654
vt 0.067980 0.473124
vn -0.770914 0.636939 0.000000
v 0.653595 2.791299 -0.653595
vt 0.325350 0.500123
vn -0.000000 1.000000 0.000000
v 0.493801 2.791299 -0.493802
vt 0.265882 0.600763
vn -0.000000 1.000000 0.000000
v -0.493802 2.791299 -0.493801
vt 0.148203 0.600754
vn -0.000000 1.000000 0.000000
v -0.653595 2.791299 -0.653595
vt 0.090288 0.500123
vn -0.000000 1.000000 0.000000
v 0.864315 5.414207 0.496122
vt 0.561448 0.778703
vn 0.699796 0.572657 0.427024
v -0.009262 6.100870 1.006874
vt 0.412238 0.879950
vn 0.699796 0.572657 0.427024
v -0.008527 6.831329 0.026090
vt 0.484642 0.987654
vn 0.699796 0.572657 0.427024
v 0.865050 6.144667 -0.484662
vt 0.633852 0.886407
vn 0.699796 0.572657 0.427024
v -0.009262 6.100870 1.006874
vt 0.412238 0.879950
vn -0.714343 0.561499 0.417653
v -0.865050 5.400561 0.484662
vt 0.341456 0.776691
vn -0.714343 0.561499 0.417653
v -0.864314 6.131021 -0.496122
vt 0.413860 0.884396
vn -0.714343 0.561499 0.417653
v -0.008527 6.831329 0.026090
vt 0.484642 0.987654
vn -0.714343 0.561499 0.417653
v -0.865050 5.400561 0.484662
vt 0.341456 0.776691
vn -0.699796 -0.572657 -0.427024
v 0.008526 4.713899 -0.026090
vt 0.490667 0.675444
vn -0.699796 -0.572657 -0.427024
v 0.009262 5.444359 -1.006874
vt 0.563071 0.783149
vn -0.699796 -0.572657 -0.427024
v -0.864314 6.131021 -0.496122
vt 0.413860 0.884396
vn -0.699796 -0.572657 -0.427024
v 0.008526 4.713899 -0.026090
vt 0.490667 0.675444
vn 0.714342 -0.561499 -0.417653
v 0.864315 5.414207 0.496122
vt 0.561448 0.778703
vn 0.714342 -0.561499 -0.417653
v 0.865050 6.144667 -0.484662
vt 0.633852 0.886407
vn 0.714342 -0.561499 -0.417653
v 0.009262 5.444359 -1.006874
vt 0.563071 0.783149
vn 0.714342 -0.561499 -0.417653
v 0.865050 6.144667 -0.484662
vt 0.633852 0.886407
vn 0.000601 0.597313 -0.802008
v -0.008527 6.831329 0.026090
vt 0.484642 0.987654
vn 0.000601 0.597313 -0.802008
v -0.864314 6.131021 -0.496122
vt 0.413860 0.884396
vn 0.000601 0.597313 -0.802008
v 0.009262 5.444359 -1.006874
vt 0.563071 0.783149
vn 0.000601 0.597313 -0.802008
v 0.008526 4.713899 -0.026090
vt 0.490667 0.675444
vn -0.000601 -0.597313 0.802008
v -0.865050 5.400561 0.484662
vt 0.341456 0.776691
vn -0.000601 -0.597313 0.802008
v -0.009262 6.100870 1.006874
vt 0.412238 0.879950
vn -0.000601 -0.597313 0.802008
v 0.864315 5.414207 0.496122
vt 0.561448 0.778703
vn -0.000601 -0.597313 0.802008
# Faces (1 to 153)
f -151/-151/-151 -152/-152/-152 -153/-153/-153
f -150/-150/-150 -152/-152/-152 -151/-151/-151
f -153/-153/-153 -152/-152/-152 -149/-149/-149
f -153/-153/-153 -148/-148/-148 -151/-151/-151
f -148/-148/-148 -147/-147/-147 -151/-151/-151
f -151/-151/-151 -147/-147/-147 -150/-150/-150
f -147/-147/-147 -146/-146/-146 -150/-150/-150
f -150/-150/-150 -146/-146/-146 -145/-145/-145
f -146/-146/-146 -144/-144/-144 -145/-145/-145
f -145/-145/-145 -144/-144/-144 -143/-143/-143
f -144/-144/-144 -142/-142/-142 -143/-143/-143
f -143/-143/-143 -142/-142/-142 -141/-141/-141
f -142/-142/-142 -140/-140/-140 -141/-141/-141
f -141/-141/-141 -140/-140/-140 -139/-139/-139
f -140/-140/-140 -138/-138/-138 -139/-139/-139
f -139/-139/-139 -138/-138/-138 -137/-137/-137
f -138/-138/-138 -136/-136/-136 -137/-137/-137
f -137/-137/-137 -136/-136/-136 -135/-135/-135
f -136/-136/-136 -134/-134/-134 -135/-135/-135
f -135/-135/-135 -134/-134/-134 -133/-133/-133
f -134/-134/-134 -132/-132/-132 -133/-133/-133
f -129/-129/-129 -130/-130/-130 -131/-131/-131
f -128/-128/-128 -130/-130/-130 -129/-129/-129
f -127/-127/-127 -130/-130/-130 -128/-128/-128
f -126/-126/-126 -130/-130/-130 -127/-127/-127
f -125/-125/-125 -130/-130/-130 -126/-126/-126
f -124/-124/-124 -130/-130/-130 -125/-125/-125
f -123/-123/-123 -130/-130/-130 -124/-124/-124
f -122/-122/-122 -130/-130/-130 -123/-123/-123
f -121/-121/-121 -130/-130/-130 -122/-122/-122
f -120/-120/-120 -130/-130/-130 -121/-121/-121
f -119/-119/-119 -130/-130/-130 -120/-120/-120
f -118/-118/-118 -130/-130/-130 -119/-119/-119
f -117/-117/-117 -130/-130/-130 -118/-118/-118
f -123/-123/-123 -116/-116/-116 -122/-122/-122
f -116/-116/-116 -115/-115/-115 -122/-122/-122
f -122/-122/-122 -115/-115/-115 -121/-121/-121
f -115/-115/-115 -114/-114/-114 -121/-121/-121
f -121/-121/-121 -114/-114/-114 -120/-120/-120
f -114/-114/-114 -113/-113/-113 -120/-120/-120
f -120/-120/-120 -113/-113/-113 -119/-119/-119
f -113/-113/-113 -112/-112/-112 -119/-119/-119
f -119/-119/-119 -112/-112/-112 -118/-118/-118
f -112/-112/-112 -111/-111/-111 -118/-118/-118
f -118/-118/-118 -111/-111/-111 -117/-117/-117
f -111/-111/-111 -110/-110/-110 -117/-117/-117
f -117/-117/-117 -110/-110/-110 -109/-109/-109
f -110/-110/-110 -108/-108/-108 -109/-109/-109
f -109/-109/-109 -108/-108/-108 -107/-107/-107
f -107/-107/-107 -106/-106/-106 -109/-109/-109
f -105/-105/-105 -106/-106/-106 -107/-107/-107
f -104/-104/-104 -106/-106/-106 -105/-105/-105
f -108/-108/-108 -103/-103/-103 -107/-107/-107
f -107/-107/-107 -103/-103/-103 -105/-105/-105
f -103/-103/-103 -102/-102/-102 -105/-105/-105
f -105/-105/-105 -102/-102/-102 -104/-104/-104
f -102/-102/-102 -101/-101/-101 -104/-104/-104
f -98/-98/-98 -99/-99/-99 -100/-100/-100
f -97/-97/-97 -148/-148/-148 -153/-153/-153
f -149/-149/-149 -97/-97/-97 -153/-153/-153
f -94/-94/-94 -95/-95/-95 -96/-96/-96
f -93/-93/-93 -94/-94/-94 -96/-96/-96
f -90/-90/-90 -91/-91/-91 -92/-92/-92
f -89/-89/-89 -90/-90/-90 -92/-92/-92
f -86/-86/-86 -87/-87/-87 -88/-88/-88
f -85/-85/-85 -86/-86/-86 -88/-88/-88
f -82/-82/-82 -83/-83/-83 -84/-84/-84
f -81/-81/-81 -82/-82/-82 -84/-84/-84
f -78/-78/-78 -79/-79/-79 -80/-80/-80
f -77/-77/-77 -78/-78/-78 -80/-80/-80
f -74/-74/-74 -75/-75/-75 -76/-76/-76
f -73/-73/-73 -74/-74/-74 -76/-76/-76
f -70/-70/-70 -71/-71/-71 -72/-72/-72
f -69/-69/-69 -70/-70/-70 -72/-72/-72
f -66/-66/-66 -67/-67/-67 -68/-68/-68
f -65/-65/-65 -66/-66/-66 -68/-68/-68
f -62/-62/-62 -63/-63/-63 -64/-64/-64
f -61/-61/-61 -62/-62/-62 -64/-64/-64
f -61/-61/-61 -64/-64/-64 -60/-60/-60
f -59/-59/-59 -61/-61/-61 -60/-60/-60
f -62/-62/-62 -61/-61/-61 -59/-59/-59
f -58/-58/-58 -62/-62/-62 -59/-59/-59
f -64/-64/-64 -63/-63/-63 -57/-57/-57
f -60/-60/-60 -64/-64/-64 -57/-57/-57
f -54/-54/-54 -55/-55/-55 -56/-56/-56
f -53/-53/-53 -54/-54/-54 -56/-56/-56
f -50/-50/-50 -51/-51/-51 -52/-52/-52
f -49/-49/-49 -50/-50/-50 -52/-52/-52
f -46/-46/-46 -47/-47/-47 -48/-48/-48
f -45/-45/-45 -46/-46/-46 -48/-48/-48
f -42/-42/-42 -43/-43/-43 -44/-44/-44
f -41/-41/-41 -42/-42/-42 -44/-44/-44
f -38/-38/-38 -39/-39/-39 -40/-40/-40
f -37/-37/-37 -38/-38/-38 -40/-40/-40
f -34/-34/-34 -35/-35/-35 -36/-36/-36
f -33/-33/-33 -34/-34/-34 -36/-36/-36
f -30/-30/-30 -31/-31/-31 -32/-32/-32
f -29/-29/-29 -30/-30/-30 -32/-32/-32
f -26/-26/-26 -27/-27/-27 -28/-28/-28
f -25/-25/-25 -26/-26/-26 -28/-28/-28
f -22/-22/-22 -23/-23/-23 -24/-24/-24
f -21/-21/-21 -22/-22/-22 -24/-24/-24
f -18/-18/-18 -19/-19/-19 -20/-20/-20
f -17/-17/-17 -18/-18/-18 -20/-20/-20
f -14/-14/-14 -15/-15/-15 -16/-16/-16
f -13/-13/-13 -14/-14/-14 -16/-16/-16
f -10/-10/-10 -11/-11/-11 -12/-12/-12
f -9/-9/-9 -10/-10/-10 -12/-12/-12
f -6/-6/-6 -7/-7/-7 -8/-8/-8
f -5/-5/-5 -6/-6/-6 -8/-8/-8
f -2/-2/-2 -3/-3/-3 -4/-4/-4
f -1/-1/-1 -2/-2/-2 -4/-4/-4

