# Mesh "potion_max_liquid1" exported with raY asset explorer
g potion_max_liquid1
# SubMesh 0
# Vertices
v -0.024351 0.010523 0.022577
vt 0.045840 0.552101
vn -0.024738 0.000000 0.999694
v 0.024351 0.010523 0.022577
vt 0.359081 0.552102
vn 0.024738 0.000000 0.999694
v 0.024351 -0.010523 0.022577
vt 0.359081 0.416733
vn 0.024738 0.000000 0.999694
v -0.024351 -0.010523 0.022577
vt 0.045840 0.416733
vn -0.024738 0.000000 0.999694
v -0.025586 -0.010523 0.021341
vt 0.037892 0.416733
vn -0.999626 0.000000 0.027357
v -0.025586 0.010523 0.021341
vt 0.037892 0.552102
vn -0.999626 0.000000 0.027357
v 0.025586 0.010523 0.021341
vt 0.367029 0.552102
vn 0.999626 0.000000 0.027357
v 0.025586 -0.010523 0.021341
vt 0.367029 0.416733
vn 0.999626 0.000000 0.027357
v 0.025586 0.010523 0.021341
vt 0.066473 0.553917
vn 0.999626 0.000000 0.027357
v 0.025586 0.010523 -0.022577
vt 0.348948 0.553917
vn 1.000000 0.000000 0.000000
v 0.025586 -0.010523 -0.022577
vt 0.348948 0.418549
vn 1.000000 0.000000 0.000000
v 0.025586 -0.010523 0.021341
vt 0.066473 0.418549
vn 0.999626 0.000000 0.027357
v -0.025586 -0.010523 -0.022577
vt 0.057997 0.416844
vn -1.000000 0.000000 0.000000
v -0.025586 0.010523 -0.022577
vt 0.057997 0.552213
vn -1.000000 0.000000 0.000000
v -0.025586 0.010523 0.021341
vt 0.340472 0.552213
vn -0.999626 0.000000 0.027357
v -0.025586 -0.010523 0.021341
vt 0.340472 0.416844
vn -0.999626 0.000000 0.027357
v 0.025586 0.010523 0.021341
vt 0.189430 0.573171
vn -0.000000 1.000000 0.000000
v -0.025586 0.010523 0.021341
vt 0.032259 0.573171
vn -0.000000 1.000000 0.000000
v -0.025586 0.010523 -0.022577
vt 0.032260 0.708059
vn -0.000000 1.000000 0.000000
v 0.025586 0.010523 -0.022577
vt 0.189430 0.708059
vn -0.000000 1.000000 0.000000
v 0.024351 0.010523 0.022577
vt 0.185635 0.569375
vn -0.000000 1.000000 0.000000
v -0.024351 0.010523 0.022577
vt 0.036055 0.569375
vn -0.000000 1.000000 0.000000
v 0.025586 -0.010523 -0.022577
vt 0.031506 0.707946
vn -0.000000 -1.000000 0.000000
v -0.025586 -0.010523 -0.022577
vt 0.188676 0.707946
vn -0.000000 -1.000000 0.000000
v -0.025586 -0.010523 0.021341
vt 0.188676 0.573058
vn -0.000000 -1.000000 0.000000
v 0.025586 -0.010523 0.021341
vt 0.031506 0.573058
vn -0.000000 -1.000000 0.000000
v -0.024351 -0.010523 0.022577
vt 0.184881 0.569262
vn -0.000000 -1.000000 0.000000
v 0.024351 -0.010523 0.022577
vt 0.035301 0.569262
vn -0.000000 -1.000000 0.000000
# Faces (1 to 28)
f -26/-26/-26 -27/-27/-27 -28/-28/-28
f -25/-25/-25 -26/-26/-26 -28/-28/-28
f -25/-25/-25 -28/-28/-28 -24/-24/-24
f -28/-28/-28 -23/-23/-23 -24/-24/-24
f -22/-22/-22 -27/-27/-27 -26/-26/-26
f -21/-21/-21 -22/-22/-22 -26/-26/-26
f -18/-18/-18 -19/-19/-19 -20/-20/-20
f -17/-17/-17 -18/-18/-18 -20/-20/-20
f -14/-14/-14 -15/-15/-15 -16/-16/-16
f -13/-13/-13 -14/-14/-14 -16/-16/-16
f -10/-10/-10 -11/-11/-11 -12/-12/-12
f -9/-9/-9 -10/-10/-10 -12/-12/-12
f -12/-12/-12 -11/-11/-11 -8/-8/-8
f -11/-11/-11 -7/-7/-7 -8/-8/-8
f -4/-4/-4 -5/-5/-5 -6/-6/-6
f -3/-3/-3 -4/-4/-4 -6/-6/-6
f -2/-2/-2 -4/-4/-4 -3/-3/-3
f -1/-1/-1 -2/-2/-2 -3/-3/-3

