# Mesh "revive_max1" exported with raY asset explorer
g revive_max1
# SubMesh 0
# Vertices
v -0.000374 -0.056481 0.003332
vt 0.500000 0.890172
vn -0.001564 -0.420895 0.907108
v -0.013187 -0.016784 0.015438
vt 0.394746 0.995426
vn -0.146393 -0.395227 0.906843
v 0.013004 -0.016959 0.015402
vt 0.605254 0.995426
vn 0.143596 -0.397170 0.906442
v -0.013169 -0.014450 0.017656
vt 0.397007 1.000000
vn -0.150310 -0.884230 0.442204
v 0.013023 -0.014625 0.017620
vt 0.602993 1.000000
vn 0.139678 -0.886172 0.441803
v 0.014889 -0.017020 0.013512
vt 0.620426 0.980254
vn 0.893635 -0.421390 0.154422
v -0.000374 -0.056481 0.003332
vt 0.500000 0.890172
vn -0.001564 -0.420895 0.907108
v 0.001511 -0.056542 0.001442
vt 0.515172 0.875000
vn 0.893080 -0.449785 0.010106
v 0.014848 -0.017689 -0.012671
vt 0.620426 0.769746
vn 0.893185 -0.428797 -0.135476
v 0.017181 -0.014760 0.013451
vt 0.625000 0.977993
vn 0.413486 -0.895014 0.167272
v 0.017140 -0.015429 -0.012733
vt 0.625000 0.772007
vn 0.413035 -0.902422 -0.122628
v 0.012958 -0.017725 -0.014556
vt 0.605254 0.754574
vn 0.140810 -0.442957 -0.885416
v -0.000380 -0.056577 -0.000442
vt 0.500000 0.859828
vn -0.004350 -0.466674 -0.884419
v 0.014923 -0.012751 0.017569
vt 0.613784 1.000000
vn 0.895888 -0.140239 0.421567
v -0.002264 -0.056516 0.001448
vt 0.484828 0.875000
vn -0.898992 -0.437784 0.012585
v -0.000374 -0.056481 0.003332
vt 0.500000 0.890172
vn -0.001564 -0.420895 0.907108
v -0.015078 -0.016820 0.013554
vt 0.379574 0.980254
vn -0.898768 -0.409387 0.156904
v -0.015119 -0.017489 -0.012630
vt 0.379574 0.769746
vn -0.899219 -0.416794 -0.132996
v -0.017380 -0.015198 -0.012685
vt 0.375000 0.772007
vn -0.425422 -0.896806 -0.121467
v -0.017339 -0.014528 0.013499
vt 0.375000 0.977993
vn -0.424971 -0.889399 0.168433
v -0.000380 -0.056577 -0.000442
vt 0.500000 0.859828
vn -0.004350 -0.466674 -0.884419
v -0.013234 -0.017549 -0.014520
vt 0.394746 0.754574
vn -0.149180 -0.441015 -0.885015
v -0.000380 -0.056577 -0.000442
vt 0.500000 0.859828
vn -0.004350 -0.466674 -0.884419
v 0.012969 -0.015507 -0.016890
vt 0.605254 0.745426
vn 0.138374 -0.907591 -0.396399
v -0.013222 -0.015332 -0.016854
vt 0.394746 0.745426
vn -0.151614 -0.905648 -0.395998
v -0.000100 -0.003332 -0.056482
vt 0.500000 0.640172
vn -0.006657 -0.907085 -0.420896
v -0.017371 -0.013359 -0.014620
vt 0.375000 0.761216
vn -0.421588 -0.165033 -0.891643
v 0.017150 -0.013590 -0.014668
vt 0.625000 0.727993
vn 0.416870 -0.170649 -0.892804
v 0.014869 -0.013633 -0.016941
vt 0.620426 0.730254
vn 0.894584 -0.161659 -0.416636
v 0.015044 0.012550 -0.017610
vt 0.620426 0.519746
vn 0.896515 0.128235 -0.424047
v 0.001800 -0.001457 -0.056533
vt 0.515172 0.625000
vn 0.895346 -0.017340 -0.445034
v 0.017324 0.012593 -0.015337
vt 0.625000 0.522007
vn 0.418800 0.119245 -0.900215
v 0.013169 0.014450 -0.017656
vt 0.605254 0.504574
vn 0.150310 0.884230 -0.442204
v -0.000075 0.000443 -0.056578
vt 0.500000 0.609828
vn 0.005279 0.884404 -0.466692
v -0.000100 -0.003332 -0.056482
vt 0.500000 0.640172
vn -0.006657 -0.907085 -0.420896
v 0.013187 0.016784 -0.015438
vt 0.605254 0.495426
vn 0.146392 0.395228 -0.906843
v -0.001976 -0.001432 -0.056528
vt 0.484828 0.625000
vn -0.896726 -0.005339 -0.442554
v -0.000100 -0.003332 -0.056482
vt 0.500000 0.640172
vn -0.006657 -0.907085 -0.420896
v -0.015097 -0.013432 -0.016899
vt 0.379574 0.730254
vn -0.897819 -0.149654 -0.414155
v -0.014923 0.012751 -0.017569
vt 0.379574 0.519746
vn -0.895888 0.140239 -0.421566
v -0.000075 0.000443 -0.056578
vt 0.500000 0.609828
vn 0.005279 0.884404 -0.466692
v -0.013023 0.014625 -0.017620
vt 0.394746 0.504574
vn -0.139678 0.886172 -0.441802
v -0.000075 0.000443 -0.056578
vt 0.500000 0.609828
vn 0.005279 0.884404 -0.466692
v 0.013187 0.016784 -0.015438
vt 0.605254 0.495426
vn 0.146392 0.395228 -0.906843
v -0.013004 0.016959 -0.015402
vt 0.394746 0.495426
vn -0.143596 0.397170 -0.906442
v 0.000374 0.056481 -0.003332
vt 0.500000 0.390172
vn 0.001563 0.420895 -0.907108
v -0.014889 0.017020 -0.013512
vt 0.379574 0.480254
vn -0.893635 0.421390 -0.154423
v -0.001511 0.056542 -0.001442
vt 0.484828 0.375000
vn -0.893080 0.449785 -0.010105
v -0.014848 0.017689 0.012671
vt 0.379574 0.269746
vn -0.893184 0.428798 0.135477
v 0.000380 0.056577 0.000442
vt 0.500000 0.359828
vn 0.004350 0.466674 0.884419
v -0.012958 0.017725 0.014556
vt 0.394746 0.254574
vn -0.140809 0.442957 0.885416
v -0.017140 0.015429 0.012733
vt 0.375000 0.272007
vn -0.413035 0.902421 0.122628
v -0.017181 0.014760 -0.013451
vt 0.375000 0.477993
vn -0.413486 0.895014 -0.167272
v 0.000374 0.056481 -0.003332
vt 0.500000 0.390172
vn 0.001563 0.420895 -0.907108
v -0.017140 0.015429 0.012733
vt 0.355254 0.245426
vn -0.413035 0.902421 0.122628
v -0.017150 0.013590 0.014668
vt 0.370426 0.230254
vn -0.416870 0.170648 0.892804
v -0.056535 0.002266 0.000030
vt 0.250000 0.140172
vn -0.437962 0.898717 -0.022284
v -0.056544 0.000427 0.001965
vt 0.265172 0.125000
vn -0.442536 0.025863 0.896378
v -0.017324 -0.012593 0.015337
vt 0.370426 0.019746
vn -0.418801 -0.119245 0.900215
v -0.014869 0.013633 0.016941
vt 0.379574 0.230254
vn -0.894584 0.161658 0.416636
v -0.015044 -0.012550 0.017610
vt 0.379574 0.019746
vn -0.896515 -0.128236 0.424047
v -0.001800 0.001457 0.056533
vt 0.484828 0.125000
vn -0.895346 0.017340 0.445034
v 0.000075 -0.000443 0.056578
vt 0.500000 0.109828
vn -0.005278 -0.884404 0.466693
v -0.013169 -0.014450 0.017656
vt 0.394746 0.004574
vn -0.150310 -0.884230 0.442204
v -0.017339 -0.014528 0.013499
vt 0.355254 0.004574
vn -0.424971 -0.889399 0.168433
v -0.056560 -0.001508 0.000127
vt 0.250000 0.109828
vn -0.449896 -0.892771 0.023513
v -0.012969 0.015507 0.016890
vt 0.394746 0.245426
vn -0.138374 0.907591 0.396399
v 0.000100 0.003332 0.056482
vt 0.500000 0.140172
vn 0.006657 0.907084 0.420896
v -0.013187 -0.016784 0.015438
vt 0.375570 0.000570
vn -0.146393 -0.395227 0.906843
v -0.015078 -0.016820 0.013554
vt 0.375000 0.000000
vn -0.898768 -0.409387 0.156904
v 0.013222 0.015332 0.016854
vt 0.605254 0.245426
vn 0.151615 0.905648 0.395998
v 0.000100 0.003332 0.056482
vt 0.500000 0.140172
vn 0.006657 0.907084 0.420896
v 0.013234 0.017549 0.014520
vt 0.605254 0.254574
vn 0.149179 0.441015 0.885015
v 0.000380 0.056577 0.000442
vt 0.500000 0.359828
vn 0.004350 0.466674 0.884419
v 0.017371 0.013359 0.014620
vt 0.629574 0.230254
vn 0.421587 0.165032 0.891644
v 0.017380 0.015198 0.012685
vt 0.644746 0.245426
vn 0.425422 0.896806 0.121468
v 0.056550 -0.000330 0.001809
vt 0.734828 0.125000
vn 0.445322 0.019917 0.895149
v 0.017196 -0.012824 0.015290
vt 0.629574 0.019746
vn 0.419656 -0.124861 0.899054
v 0.056535 -0.002266 -0.000030
vt 0.750000 0.109828
vn 0.437962 -0.898717 0.022284
v 0.017181 -0.014760 0.013451
vt 0.644746 0.004574
vn 0.413486 -0.895014 0.167272
v 0.014923 -0.012751 0.017569
vt 0.620426 0.019746
vn 0.895888 -0.140239 0.421567
v 0.015097 0.013432 0.016899
vt 0.620426 0.230254
vn 0.897819 0.149654 0.414156
v 0.001976 0.001432 0.056528
vt 0.515172 0.125000
vn 0.896726 0.005339 0.442554
v 0.013023 -0.014625 0.017620
vt 0.605254 0.004574
vn 0.139678 -0.886172 0.441803
v 0.000075 -0.000443 0.056578
vt 0.500000 0.109828
vn -0.005278 -0.884404 0.466693
v 0.056560 0.001508 -0.000127
vt 0.750000 0.140172
vn 0.449896 0.892771 -0.023512
v 0.000100 0.003332 0.056482
vt 0.500000 0.140172
vn 0.006657 0.907084 0.420896
v 0.015119 0.017489 0.012630
vt 0.620426 0.269746
vn 0.899219 0.416795 0.132996
v 0.000075 -0.000443 0.056578
vt 0.500000 0.109828
vn -0.005278 -0.884404 0.466693
v 0.017140 -0.015429 -0.012733
vt 0.855254 0.004574
vn 0.413035 -0.902422 -0.122628
v 0.056535 -0.002266 -0.000030
vt 0.750000 0.109828
vn 0.437962 -0.898717 0.022284
v 0.015078 0.016820 -0.013554
vt 0.620426 0.480254
vn 0.898768 0.409387 -0.156904
v 0.002264 0.056516 -0.001448
vt 0.515172 0.375000
vn 0.898992 0.437784 -0.012584
v 0.000380 0.056577 0.000442
vt 0.500000 0.359828
vn 0.004350 0.466674 0.884419
v 0.000374 0.056481 -0.003332
vt 0.500000 0.390172
vn 0.001563 0.420895 -0.907108
v 0.017324 0.012593 -0.015337
vt 0.625000 0.500000
vn 0.418800 0.119245 -0.900215
v 0.056535 -0.002266 -0.000030
vt 0.750000 0.109828
vn 0.437962 -0.898717 0.022284
v 0.056544 -0.000427 -0.001965
vt 0.765172 0.125000
vn 0.442536 -0.025863 -0.896378
v 0.017150 -0.013590 -0.014668
vt 0.870426 0.019746
vn 0.416870 -0.170649 -0.892804
v 0.017324 0.012593 -0.015337
vt 0.870426 0.230254
vn 0.418800 0.119245 -0.900215
v 0.056560 0.001508 -0.000127
vt 0.750000 0.140172
vn 0.449896 0.892771 -0.023512
v 0.017339 0.014528 -0.013499
vt 0.855254 0.245426
vn 0.424971 0.889399 -0.168433
v 0.056560 0.001508 -0.000127
vt 0.750000 0.140172
vn 0.449896 0.892771 -0.023512
v 0.015119 0.017489 0.012630
vt 0.647007 0.250000
vn 0.899219 0.416795 0.132996
v 0.015078 0.016820 -0.013554
vt 0.852993 0.250000
vn 0.898768 0.409387 -0.156904
v -0.056560 -0.001508 0.000127
vt 0.250000 0.109828
vn -0.449896 -0.892771 0.023513
v -0.017380 -0.015198 -0.012685
vt 0.144746 0.004574
vn -0.425422 -0.896806 -0.121467
v -0.017371 -0.013359 -0.014620
vt 0.129574 0.019746
vn -0.421588 -0.165033 -0.891643
v -0.056560 -0.001508 0.000127
vt 0.250000 0.109828
vn -0.449896 -0.892771 0.023513
v -0.056550 0.000330 -0.001809
vt 0.234828 0.125000
vn -0.445322 -0.019916 -0.895149
v -0.017196 0.012824 -0.015290
vt 0.129574 0.230254
vn -0.419657 0.124861 -0.899054
v -0.015097 -0.013432 -0.016899
vt 0.125000 0.022007
vn -0.897819 -0.149654 -0.414155
v -0.014923 0.012751 -0.017569
vt 0.125000 0.227993
vn -0.895888 0.140239 -0.421566
v -0.017181 0.014760 -0.013451
vt 0.144746 0.245426
vn -0.413486 0.895014 -0.167272
v -0.056535 0.002266 0.000030
vt 0.250000 0.140172
vn -0.437962 0.898717 -0.022284
v -0.056535 0.002266 0.000030
vt 0.250000 0.140172
vn -0.437962 0.898717 -0.022284
v 0.017196 -0.012824 0.015290
vt 0.625000 1.000000
vn 0.419656 -0.124861 0.899054
v 0.017181 -0.014760 0.013451
vt 0.624430 0.999430
vn 0.413486 -0.895014 0.167272
v 0.014889 -0.017020 0.013512
vt 0.620426 0.980254
vn 0.893635 -0.421390 0.154422
v -0.013023 0.014625 -0.017620
vt 0.394746 0.504574
vn -0.139678 0.886172 -0.441802
v -0.017196 0.012824 -0.015290
vt 0.375000 0.488784
vn -0.419657 0.124861 -0.899054
v -0.014923 0.012751 -0.017569
vt 0.379574 0.519746
vn -0.895888 0.140239 -0.421566
v 0.017324 0.012593 -0.015337
vt 0.625000 0.500000
vn 0.418800 0.119245 -0.900215
v 0.017339 0.014528 -0.013499
vt 0.624430 0.499430
vn 0.424971 0.889399 -0.168433
v 0.015078 0.016820 -0.013554
vt 0.620426 0.480254
vn 0.898768 0.409387 -0.156904
v -0.013222 -0.015332 -0.016854
vt 0.394746 0.745426
vn -0.151614 -0.905648 -0.395998
v -0.015097 -0.013432 -0.016899
vt 0.375000 0.750000
vn -0.897819 -0.149654 -0.414155
v 0.017140 -0.015429 -0.012733
vt 0.625000 0.738784
vn 0.413035 -0.902422 -0.122628
v 0.012958 -0.017725 -0.014556
vt 0.605254 0.754574
vn 0.140810 -0.442957 -0.885416
v 0.014848 -0.017689 -0.012671
vt 0.625000 0.750000
vn 0.893185 -0.428797 -0.135476
# Faces (1 to 130)
f -128/-128/-128 -129/-129/-129 -130/-130/-130
f -129/-129/-129 -128/-128/-128 -127/-127/-127
f -128/-128/-128 -126/-126/-126 -127/-127/-127
f -126/-126/-126 -128/-128/-128 -125/-125/-125
f -128/-128/-128 -124/-124/-124 -125/-125/-125
f -124/-124/-124 -123/-123/-123 -125/-125/-125
f -122/-122/-122 -125/-125/-125 -123/-123/-123
f -125/-125/-125 -122/-122/-122 -121/-121/-121
f -122/-122/-122 -120/-120/-120 -121/-121/-121
f -122/-122/-122 -123/-123/-123 -119/-119/-119
f -123/-123/-123 -118/-118/-118 -119/-119/-119
f -117/-117/-117 -126/-126/-126 -125/-125/-125
f -130/-130/-130 -116/-116/-116 -123/-123/-123
f -116/-116/-116 -115/-115/-115 -129/-129/-129
f -114/-114/-114 -116/-116/-116 -129/-129/-129
f -116/-116/-116 -114/-114/-114 -113/-113/-113
f -112/-112/-112 -113/-113/-113 -114/-114/-114
f -111/-111/-111 -112/-112/-112 -114/-114/-114
f -110/-110/-110 -116/-116/-116 -113/-113/-113
f -109/-109/-109 -110/-110/-110 -113/-113/-113
f -109/-109/-109 -113/-113/-113 -112/-112/-112
f -108/-108/-108 -109/-109/-109 -119/-119/-119
f -116/-116/-116 -108/-108/-108 -123/-123/-123
f -107/-107/-107 -119/-119/-119 -109/-109/-109
f -106/-106/-106 -107/-107/-107 -109/-109/-109
f -107/-107/-107 -106/-106/-106 -105/-105/-105
f -106/-106/-106 -109/-109/-109 -104/-104/-104
f -109/-109/-109 -112/-112/-112 -104/-104/-104
f -103/-103/-103 -119/-119/-119 -107/-107/-107
f -107/-107/-107 -102/-102/-102 -103/-103/-103
f -103/-103/-103 -102/-102/-102 -101/-101/-101
f -100/-100/-100 -101/-101/-101 -102/-102/-102
f -99/-99/-99 -103/-103/-103 -101/-101/-101
f -101/-101/-101 -100/-100/-100 -98/-98/-98
f -100/-100/-100 -97/-97/-97 -98/-98/-98
f -96/-96/-96 -100/-100/-100 -102/-102/-102
f -107/-107/-107 -96/-96/-96 -102/-102/-102
f -101/-101/-101 -98/-98/-98 -95/-95/-95
f -100/-100/-100 -105/-105/-105 -94/-94/-94
f -94/-94/-94 -93/-93/-93 -106/-106/-106
f -92/-92/-92 -94/-94/-94 -106/-106/-106
f -92/-92/-92 -91/-91/-91 -94/-94/-94
f -90/-90/-90 -94/-94/-94 -91/-91/-91
f -89/-89/-89 -90/-90/-90 -91/-91/-91
f -88/-88/-88 -89/-89/-89 -98/-98/-98
f -88/-88/-88 -100/-100/-100 -94/-94/-94
f -87/-87/-87 -98/-98/-98 -89/-89/-89
f -86/-86/-86 -87/-87/-87 -89/-89/-89
f -87/-87/-87 -86/-86/-86 -85/-85/-85
f -89/-89/-89 -91/-91/-91 -84/-84/-84
f -84/-84/-84 -83/-83/-83 -86/-86/-86
f -84/-84/-84 -82/-82/-82 -83/-83/-83
f -81/-81/-81 -83/-83/-83 -82/-82/-82
f -80/-80/-80 -81/-81/-81 -82/-82/-82
f -82/-82/-82 -84/-84/-84 -79/-79/-79
f -84/-84/-84 -78/-78/-78 -79/-79/-79
f -91/-91/-91 -78/-78/-78 -84/-84/-84
f -83/-83/-83 -77/-77/-77 -86/-86/-86
f -80/-80/-80 -82/-82/-82 -76/-76/-76
f -76/-76/-76 -75/-75/-75 -80/-80/-80
f -76/-76/-76 -74/-74/-74 -75/-75/-75
f -74/-74/-74 -73/-73/-73 -75/-75/-75
f -73/-73/-73 -72/-72/-72 -75/-75/-75
f -71/-71/-71 -75/-75/-75 -72/-72/-72
f -70/-70/-70 -71/-71/-71 -72/-72/-72
f -71/-71/-71 -70/-70/-70 -69/-69/-69
f -68/-68/-68 -69/-69/-69 -70/-70/-70
f -67/-67/-67 -68/-68/-68 -70/-70/-70
f -72/-72/-72 -73/-73/-73 -66/-66/-66
f -73/-73/-73 -65/-65/-65 -66/-66/-66
f -71/-71/-71 -69/-69/-69 -64/-64/-64
f -75/-75/-75 -71/-71/-71 -64/-64/-64
f -69/-69/-69 -63/-63/-63 -64/-64/-64
f -62/-62/-62 -67/-67/-67 -70/-70/-70
f -70/-70/-70 -61/-61/-61 -62/-62/-62
f -70/-70/-70 -72/-72/-72 -61/-61/-61
f -72/-72/-72 -66/-66/-66 -61/-61/-61
f -75/-75/-75 -64/-64/-64 -80/-80/-80
f -64/-64/-64 -60/-60/-60 -80/-80/-80
f -60/-60/-60 -64/-64/-64 -59/-59/-59
f -60/-60/-60 -58/-58/-58 -80/-80/-80
f -57/-57/-57 -80/-80/-80 -58/-58/-58
f -58/-58/-58 -60/-60/-60 -56/-56/-56
f -58/-58/-58 -56/-56/-56 -55/-55/-55
f -56/-56/-56 -54/-54/-54 -55/-55/-55
f -56/-56/-56 -53/-53/-53 -54/-54/-54
f -52/-52/-52 -54/-54/-54 -53/-53/-53
f -51/-51/-51 -52/-52/-52 -53/-53/-53
f -53/-53/-53 -56/-56/-56 -50/-50/-50
f -56/-56/-56 -49/-49/-49 -50/-50/-50
f -60/-60/-60 -49/-49/-49 -56/-56/-56
f -48/-48/-48 -50/-50/-50 -49/-49/-49
f -50/-50/-50 -48/-48/-48 -47/-47/-47
f -48/-48/-48 -46/-46/-46 -47/-47/-47
f -54/-54/-54 -45/-45/-45 -55/-55/-55
f -44/-44/-44 -48/-48/-48 -49/-49/-49
f -60/-60/-60 -44/-44/-44 -49/-49/-49
f -55/-55/-55 -43/-43/-43 -58/-58/-58
f -42/-42/-42 -67/-67/-67 -47/-47/-47
f -69/-69/-69 -42/-42/-42 -48/-48/-48
f -59/-59/-59 -69/-69/-69 -48/-48/-48
f -40/-40/-40 -51/-51/-51 -41/-41/-41
f -38/-38/-38 -43/-43/-43 -39/-39/-39
f -43/-43/-43 -38/-38/-38 -58/-58/-58
f -38/-38/-38 -37/-37/-37 -58/-58/-58
f -36/-36/-36 -38/-38/-38 -39/-39/-39
f -87/-87/-87 -36/-36/-36 -39/-39/-39
f -101/-101/-101 -87/-87/-87 -39/-39/-39
f -35/-35/-35 -101/-101/-101 -39/-39/-39
f -33/-33/-33 -34/-34/-34 -41/-41/-41
f -32/-32/-32 -33/-33/-33 -41/-41/-41
f -32/-32/-32 -31/-31/-31 -33/-33/-33
f -30/-30/-30 -33/-33/-33 -31/-31/-31
f -29/-29/-29 -30/-30/-30 -31/-31/-31
f -54/-54/-54 -40/-40/-40 -33/-33/-33
f -28/-28/-28 -54/-54/-54 -33/-33/-33
f -29/-29/-29 -55/-55/-55 -28/-28/-28
f -55/-55/-55 -29/-29/-29 -27/-27/-27
f -29/-29/-29 -26/-26/-26 -27/-27/-27
f -24/-24/-24 -66/-66/-66 -25/-25/-25
f -24/-24/-24 -22/-22/-22 -23/-23/-23
f -22/-22/-22 -21/-21/-21 -23/-23/-23
f -21/-21/-21 -20/-20/-20 -23/-23/-23
f -19/-19/-19 -23/-23/-23 -20/-20/-20
f -18/-18/-18 -19/-19/-19 -20/-20/-20
f -20/-20/-20 -21/-21/-21 -17/-17/-17
f -21/-21/-21 -16/-16/-16 -17/-17/-17
f -21/-21/-21 -25/-25/-25 -73/-73/-73
f -15/-15/-15 -21/-21/-21 -73/-73/-73
f -15/-15/-15 -76/-76/-76 -17/-17/-17
f -13/-13/-13 -14/-14/-14 -117/-117/-117
f -117/-117/-117 -12/-12/-12 -13/-13/-13
f -84/-84/-84 -86/-86/-86 -11/-11/-11
f -9/-9/-9 -10/-10/-10 -78/-78/-78
f -6/-6/-6 -7/-7/-7 -8/-8/-8
f -104/-104/-104 -4/-4/-4 -5/-5/-5
f -103/-103/-103 -3/-3/-3 -119/-119/-119
f -3/-3/-3 -1/-1/-1 -2/-2/-2
f -83/-83/-83 -57/-57/-57 -38/-38/-38
f -85/-85/-85 -83/-83/-83 -38/-38/-38

