# Mesh "whirl_mesh" exported with raY asset explorer
g whirl_mesh
# SubMesh 0
# Vertices
v 1.568812 0.021883 -0.509738
vt 0.024217 0.040806
vn 0.951057 0.000000 -0.309016
v 1.568812 0.431066 -0.509738
vt 0.024217 0.960134
vn 0.951057 0.000000 -0.309016
v 1.334512 0.431066 -0.969579
vt 0.071795 0.960134
vn 0.809017 0.000000 -0.587785
v 1.334512 0.021883 -0.969579
vt 0.071795 0.040806
vn 0.809017 0.000000 -0.587785
v 0.969579 0.431066 -1.334511
vt 0.119373 0.960134
vn 0.587785 0.000000 -0.809017
v 0.969579 0.021883 -1.334511
vt 0.119373 0.040806
vn 0.587785 0.000000 -0.809017
v 0.509738 0.431066 -1.568811
vt 0.166952 0.960134
vn 0.309017 0.000000 -0.951057
v 0.509738 0.021883 -1.568811
vt 0.166952 0.040806
vn 0.309017 0.000000 -0.951057
v 0.000000 0.431066 -1.649546
vt 0.214530 0.960134
vn -0.000000 0.000000 -1.000000
v 0.000000 0.021883 -1.649546
vt 0.214530 0.040806
vn -0.000000 0.000000 -1.000000
v -0.509738 0.431066 -1.568811
vt 0.262108 0.960134
vn -0.309017 0.000000 -0.951056
v -0.509738 0.021883 -1.568811
vt 0.262108 0.040806
vn -0.309017 0.000000 -0.951056
v -0.969579 0.431066 -1.334511
vt 0.309687 0.960134
vn -0.587785 0.000000 -0.809017
v -0.969579 0.021883 -1.334511
vt 0.309687 0.040806
vn -0.587785 0.000000 -0.809017
v -1.334511 0.431066 -0.969578
vt 0.357265 0.960134
vn -0.809017 0.000000 -0.587785
v -1.334511 0.021883 -0.969578
vt 0.357265 0.040806
vn -0.809017 0.000000 -0.587785
v -1.568811 0.431066 -0.509737
vt 0.404843 0.960134
vn -0.951057 0.000000 -0.309017
v -1.568811 0.021883 -0.509737
vt 0.404843 0.040806
vn -0.951057 0.000000 -0.309017
v -1.649546 0.431066 0.000000
vt 0.452422 0.960134
vn -1.000000 0.000000 0.000000
v -1.649546 0.021883 0.000000
vt 0.452422 0.040806
vn -1.000000 0.000000 0.000000
v -1.568811 0.431066 0.509738
vt 0.500000 0.960134
vn -0.951057 0.000000 0.309017
v -1.568811 0.021883 0.509738
vt 0.500000 0.040806
vn -0.951057 0.000000 0.309017
v -1.334510 0.431066 0.969579
vt 0.547578 0.960134
vn -0.809017 0.000000 0.587785
v -1.334510 0.021883 0.969579
vt 0.547578 0.040806
vn -0.809017 0.000000 0.587785
v -0.969578 0.431066 1.334511
vt 0.595156 0.960134
vn -0.587785 0.000000 0.809017
v -0.969578 0.021883 1.334511
vt 0.595156 0.040806
vn -0.587785 0.000000 0.809017
v -0.509737 0.431066 1.568811
vt 0.642735 0.960134
vn -0.309017 0.000000 0.951057
v -0.509737 0.021883 1.568811
vt 0.642735 0.040806
vn -0.309017 0.000000 0.951057
v 0.000000 0.431066 1.649546
vt 0.690313 0.960134
vn -0.000000 0.000000 1.000000
v 0.000000 0.021883 1.649546
vt 0.690313 0.040806
vn -0.000000 0.000000 1.000000
v 0.509738 0.431066 1.568811
vt 0.737891 0.960134
vn 0.309017 0.000000 0.951056
v 0.509738 0.021883 1.568811
vt 0.737891 0.040806
vn 0.309017 0.000000 0.951056
v 0.969579 0.431066 1.334511
vt 0.785470 0.960134
vn 0.587785 0.000000 0.809017
v 0.969579 0.021883 1.334511
vt 0.785470 0.040806
vn 0.587785 0.000000 0.809017
v 1.334511 0.431066 0.969579
vt 0.833048 0.960134
vn 0.809017 0.000000 0.587785
v 1.334511 0.021883 0.969579
vt 0.833048 0.040806
vn 0.809017 0.000000 0.587785
v 1.568811 0.431066 0.509738
vt 0.880626 0.960134
vn 0.951057 0.000000 0.309017
v 1.568811 0.021883 0.509738
vt 0.880626 0.040806
vn 0.951057 0.000000 0.309017
v 1.649546 0.431066 0.000000
vt 0.928205 0.960134
vn 1.000000 0.000000 0.000000
v 1.649546 0.021883 0.000000
vt 0.928205 0.040806
vn 1.000000 0.000000 0.000000
v 1.568812 0.431066 -0.509738
vt 0.975783 0.960134
vn 0.951057 0.000000 -0.309016
v 1.568812 0.021883 -0.509738
vt 0.975783 0.040806
vn 0.951057 0.000000 -0.309016
# Faces (1 to 42)
f -40/-40/-40 -41/-41/-41 -42/-42/-42
f -39/-39/-39 -40/-40/-40 -42/-42/-42
f -38/-38/-38 -40/-40/-40 -39/-39/-39
f -37/-37/-37 -38/-38/-38 -39/-39/-39
f -36/-36/-36 -38/-38/-38 -37/-37/-37
f -35/-35/-35 -36/-36/-36 -37/-37/-37
f -34/-34/-34 -36/-36/-36 -35/-35/-35
f -33/-33/-33 -34/-34/-34 -35/-35/-35
f -32/-32/-32 -34/-34/-34 -33/-33/-33
f -31/-31/-31 -32/-32/-32 -33/-33/-33
f -30/-30/-30 -32/-32/-32 -31/-31/-31
f -29/-29/-29 -30/-30/-30 -31/-31/-31
f -28/-28/-28 -30/-30/-30 -29/-29/-29
f -27/-27/-27 -28/-28/-28 -29/-29/-29
f -26/-26/-26 -28/-28/-28 -27/-27/-27
f -25/-25/-25 -26/-26/-26 -27/-27/-27
f -24/-24/-24 -26/-26/-26 -25/-25/-25
f -23/-23/-23 -24/-24/-24 -25/-25/-25
f -22/-22/-22 -24/-24/-24 -23/-23/-23
f -21/-21/-21 -22/-22/-22 -23/-23/-23
f -20/-20/-20 -22/-22/-22 -21/-21/-21
f -19/-19/-19 -20/-20/-20 -21/-21/-21
f -18/-18/-18 -20/-20/-20 -19/-19/-19
f -17/-17/-17 -18/-18/-18 -19/-19/-19
f -16/-16/-16 -18/-18/-18 -17/-17/-17
f -15/-15/-15 -16/-16/-16 -17/-17/-17
f -14/-14/-14 -16/-16/-16 -15/-15/-15
f -13/-13/-13 -14/-14/-14 -15/-15/-15
f -12/-12/-12 -14/-14/-14 -13/-13/-13
f -11/-11/-11 -12/-12/-12 -13/-13/-13
f -10/-10/-10 -12/-12/-12 -11/-11/-11
f -9/-9/-9 -10/-10/-10 -11/-11/-11
f -8/-8/-8 -10/-10/-10 -9/-9/-9
f -7/-7/-7 -8/-8/-8 -9/-9/-9
f -6/-6/-6 -8/-8/-8 -7/-7/-7
f -5/-5/-5 -6/-6/-6 -7/-7/-7
f -4/-4/-4 -6/-6/-6 -5/-5/-5
f -3/-3/-3 -4/-4/-4 -5/-5/-5
f -2/-2/-2 -4/-4/-4 -3/-3/-3
f -1/-1/-1 -2/-2/-2 -3/-3/-3

